<svg width="357" height="330" viewBox="0 0 357 330" fill="none" xmlns="http://www.w3.org/2000/svg">
<g clip-path="url(#clip0_3086_12404)">
<path d="M293.579 18.8799C277.789 20.5199 265.469 33.8699 265.469 50.0999C265.469 61.9999 272.089 72.3499 281.849 77.6799C284.769 78.5799 287.869 79.0599 291.079 79.0599C293.629 79.0599 296.099 78.7499 298.469 78.1799C309.619 73.3599 317.419 62.2699 317.419 49.3599C317.419 34.6299 307.269 22.2699 293.579 18.8899V18.8799Z" fill="#D0EDFC"/>
<path d="M258.54 89.4502H133.48V268.56H258.54V89.4502Z" stroke="#003763" stroke-width="4.95" stroke-linecap="round" stroke-linejoin="round"/>
<path d="M245.391 76.1401H117.551V254.56H245.391V76.1401Z" fill="white"/>
<path d="M218.841 79.5398L229.181 90.0598L229.591 90.4798L230.591 91.4798L232.011 92.8998L238.111 97.4398C238.371 97.7098 238.521 98.0698 238.521 98.4398L238.311 247.33C238.311 248.12 237.671 248.75 236.891 248.75L136.391 248.32H134.971H133.551L123.051 248.3L123.031 256.67L133.531 256.69H134.951H136.371L246.931 256.85L247.171 92.9098V91.4898V90.0698L247.191 79.5698L218.841 79.5298V79.5398Z" fill="#D0EDFC"/>
<path d="M245.391 76.1401H117.551V254.56H245.391V76.1401Z" stroke="#003763" stroke-width="5" stroke-linecap="round" stroke-linejoin="round"/>
<path d="M232.51 96.69V242.22H103.41V62.86H199.16L232.52 96.69" fill="white"/>
<path d="M227.879 92.8301L227.429 92.3801L226.459 91.4101L225.039 89.9901L214.539 79.4901L213.119 78.0701L211.699 76.6501H211.919L203.199 67.8101V68.1601V76.6501V78.0701V79.4901V89.9901V91.4101V92.8301V96.6601H231.649L227.879 92.8301Z" fill="#D0EDFC"/>
<path d="M139.041 169.52C138.381 169.52 137.771 169.27 137.301 168.8L127.631 159.13C127.341 158.84 127.341 158.38 127.631 158.09L132.491 153.23C132.761 152.96 133.251 152.96 133.521 153.23L139.021 158.73L149.421 148.33C146.471 145.56 142.511 143.86 138.161 143.86C129.081 143.86 121.691 151.25 121.691 160.33C121.691 169.41 129.081 176.8 138.161 176.8C147.241 176.8 154.631 169.41 154.631 160.33C154.631 158.69 154.391 157.11 153.941 155.61L140.761 168.79C140.301 169.25 139.681 169.51 139.031 169.51L139.041 169.52Z" fill="#D0EDFC"/>
<path d="M153.549 154.95C153.859 156.24 154.029 157.59 154.029 158.98C154.029 168.48 146.329 176.18 136.829 176.18C127.329 176.18 119.629 168.48 119.629 158.98C119.629 149.48 127.329 141.78 136.829 141.78C141.389 141.78 145.529 143.56 148.609 146.46" stroke="#003763" stroke-width="3.5" stroke-linecap="round" stroke-linejoin="round"/>
<path d="M151.539 151.22L137.859 164.9C137.489 165.27 136.839 165.27 136.459 164.9L127.309 155.75L131.139 151.92L136.639 157.42C136.929 157.71 137.389 157.71 137.669 157.42L148.579 146.52" stroke="#003763" stroke-width="3.5" stroke-linecap="round" stroke-linejoin="round"/>
<path d="M197.48 63.7798V97.5698H231.96" stroke="#003763" stroke-width="5" stroke-linecap="round"/>
<path d="M232.51 96.69V242.22H103.41V62.86H199.16L232.52 96.69" stroke="#003763" stroke-width="5" stroke-linecap="round" stroke-linejoin="round"/>
<path d="M162.039 154.9H204.519" stroke="#003763" stroke-width="3.5" stroke-linecap="round" stroke-linejoin="round"/>
<path d="M162.039 163.97H185.959" stroke="#003763" stroke-width="3.5" stroke-linecap="round" stroke-linejoin="round"/>
<path d="M139.041 213.25C138.381 213.25 137.771 213 137.301 212.53L127.631 202.86C127.341 202.57 127.341 202.11 127.631 201.82L132.491 196.96C132.761 196.69 133.251 196.69 133.521 196.96L139.021 202.46L149.421 192.06C146.471 189.29 142.511 187.59 138.161 187.59C129.081 187.59 121.691 194.98 121.691 204.06C121.691 213.14 129.081 220.53 138.161 220.53C147.241 220.53 154.631 213.14 154.631 204.06C154.631 202.42 154.391 200.84 153.941 199.34L140.761 212.52C140.301 212.98 139.681 213.24 139.031 213.24L139.041 213.25Z" fill="#D0EDFC"/>
<path d="M153.549 198.68C153.859 199.97 154.029 201.32 154.029 202.71C154.029 212.21 146.329 219.91 136.829 219.91C127.329 219.91 119.629 212.21 119.629 202.71C119.629 193.21 127.329 185.51 136.829 185.51C141.389 185.51 145.529 187.29 148.609 190.19" stroke="#003763" stroke-width="3.5" stroke-linecap="round" stroke-linejoin="round"/>
<path d="M151.539 194.94L137.859 208.62C137.489 208.99 136.839 208.99 136.459 208.62L127.309 199.47L131.139 195.64L136.639 201.14C136.929 201.43 137.389 201.43 137.669 201.14L148.579 190.24" stroke="#003763" stroke-width="3.5" stroke-linecap="round" stroke-linejoin="round"/>
<path d="M162.039 198.62H204.519" stroke="#003763" stroke-width="3.5" stroke-linecap="round" stroke-linejoin="round"/>
<path d="M162.039 207.69H185.959" stroke="#003763" stroke-width="3.5" stroke-linecap="round" stroke-linejoin="round"/>
<path d="M211.651 107.08H123.221C120.04 107.08 117.461 109.659 117.461 112.84V126.16C117.461 129.341 120.04 131.92 123.221 131.92H211.651C214.832 131.92 217.411 129.341 217.411 126.16V112.84C217.411 109.659 214.832 107.08 211.651 107.08Z" fill="#003763"/>
<path d="M125.639 119.6C125.639 116.81 127.489 115.17 129.619 115.17C130.709 115.17 131.589 115.69 132.159 116.27L131.149 117.49C130.719 117.1 130.269 116.82 129.659 116.82C128.509 116.82 127.589 117.84 127.589 119.54C127.589 121.24 128.389 122.28 129.629 122.28C130.319 122.28 130.859 121.93 131.269 121.49L132.279 122.68C131.579 123.5 130.649 123.92 129.549 123.92C127.419 123.92 125.629 122.43 125.629 119.6H125.639Z" fill="#D0EDFC"/>
<path d="M135.121 115.33H137.021V118.58H139.931V115.33H141.851V123.77H139.931V120.25H137.021V123.77H135.121V115.33Z" fill="#D0EDFC"/>
<path d="M149.36 121.76H146.78L146.26 123.77H144.32L146.96 115.33H149.25L151.89 123.77H149.87L149.35 121.76H149.36ZM148.97 120.28L148.78 119.5C148.55 118.66 148.32 117.66 148.09 116.78H148.04C147.83 117.67 147.61 118.66 147.38 119.5L147.17 120.28H148.97Z" fill="#D0EDFC"/>
<path d="M154.371 115.33H156.321L158.521 119.52L159.351 121.38H159.401C159.321 120.49 159.171 119.3 159.171 118.3V115.32H160.981V123.76H159.031L156.831 119.55L156.001 117.71H155.951C156.031 118.64 156.181 119.77 156.181 120.76V123.75H154.371V115.31V115.33Z" fill="#D0EDFC"/>
<path d="M164.129 119.6C164.129 116.81 165.989 115.17 168.249 115.17C169.469 115.17 170.349 115.7 170.899 116.27L169.899 117.49C169.469 117.11 169.029 116.82 168.309 116.82C166.999 116.82 166.079 117.84 166.079 119.54C166.079 121.24 166.869 122.28 168.449 122.28C168.799 122.28 169.149 122.19 169.359 122.02V120.57H167.959V119.02H171.039V122.9C170.459 123.47 169.439 123.92 168.259 123.92C165.939 123.92 164.129 122.43 164.129 119.6Z" fill="#D0EDFC"/>
<path d="M174.34 115.33H179.62V116.93H176.24V118.63H179.11V120.22H176.24V122.16H179.75V123.76H174.34V115.32V115.33Z" fill="#D0EDFC"/>
<path d="M182.988 115.33H184.888V122.16H188.228V123.76H182.988V115.32V115.33Z" fill="#D0EDFC"/>
<path d="M190.379 119.51C190.379 116.75 191.929 115.18 194.209 115.18C196.489 115.18 198.039 116.77 198.039 119.51C198.039 122.25 196.489 123.92 194.209 123.92C191.929 123.92 190.379 122.26 190.379 119.51ZM196.079 119.51C196.079 117.83 195.359 116.82 194.199 116.82C193.039 116.82 192.319 117.83 192.319 119.51C192.319 121.19 193.039 122.28 194.199 122.28C195.359 122.28 196.079 121.21 196.079 119.51Z" fill="#D0EDFC"/>
<path d="M200.791 119.6C200.791 116.81 202.651 115.17 204.901 115.17C206.121 115.17 207.001 115.7 207.551 116.27L206.551 117.49C206.121 117.11 205.681 116.82 204.961 116.82C203.651 116.82 202.731 117.84 202.731 119.54C202.731 121.24 203.521 122.28 205.101 122.28C205.451 122.28 205.801 122.19 206.011 122.02V120.57H204.611V119.02H207.691V122.9C207.111 123.47 206.091 123.92 204.911 123.92C202.591 123.92 200.781 122.43 200.781 119.6H200.791Z" fill="#D0EDFC"/>
<path d="M318.189 83.6602C332.079 107.49 340.039 135.2 340.039 164.77C340.039 253.84 267.839 326.04 178.769 326.04C152.069 326.04 126.879 319.55 104.699 308.06" stroke="#003763" stroke-width="7" stroke-linecap="round" stroke-linejoin="round"/>
<path d="M28.79 224.18C21.5 205.8 17.5 185.75 17.5 164.77C17.5 75.7 89.7 3.5 178.77 3.5C204.36 3.5 228.56 9.46 250.05 20.07" stroke="#003763" stroke-width="7" stroke-linecap="round" stroke-linejoin="round"/>
<path d="M34.8014 253.86C33.9714 254.44 33.6814 255.56 34.1214 256.53L37.1814 263.32C36.7314 264.04 36.2414 264.91 35.8214 265.85C35.4014 266.76 34.9814 267.86 34.7514 269L25.7814 270.84C24.7014 271.06 23.9914 272.09 24.1514 273.21L25.8514 285.57C26.0114 286.74 27.0414 287.61 28.1914 287.55L36.2414 287.12C36.6214 287.97 37.1114 288.92 37.6714 289.82C38.2414 290.74 39.0214 291.84 39.9914 292.7L37.8514 300.24C37.5714 301.24 38.0314 302.32 38.9414 302.84L48.8314 308.39C49.8714 308.97 51.1414 308.63 51.7114 307.63L55.9114 300.21C56.8414 300.32 57.9214 300.38 59.0214 300.35C60.1714 300.32 61.5414 300.18 62.7914 299.74L68.8914 306.02C69.6514 306.8 70.8314 306.93 71.6814 306.33L75.2214 303.84C75.2214 303.84 75.2414 303.82 75.2614 303.82L79.6014 300.77C80.4514 300.17 80.7314 299.01 80.2514 298.04L79.7514 290.17C80.5814 289.14 81.1814 287.9 81.6014 286.83C84.4814 286.83 82.3114 284.76 82.5214 283.85L98.7314 279.06C99.8714 278.86 97.2714 277.78 97.0814 276.61L95.6514 265.85C98.8814 265.16 90.8214 264.7 89.7914 264.63L81.9714 264.09C81.4914 262.88 81.1214 260.04 80.0514 258.7C79.3914 257.86 78.6614 257.09 77.9914 256.44L76.6614 253.48C77.1114 252.42 76.6414 251.15 75.5914 250.6L64.5414 244.82C63.5314 244.29 62.3314 244.61 61.7614 245.56L56.9914 253.38C55.8414 253.21 54.6614 253.23 53.6714 253.32C52.6414 253.41 51.6514 253.57 50.8314 253.75L45.4814 248.58C44.7214 247.84 43.5714 247.73 42.7414 248.32L39.2014 250.81C39.2014 250.81 39.1814 250.83 39.1614 250.84L34.8214 253.89L34.8014 253.86Z" fill="#D0EDFC"/>
<path d="M50.411 265.77C56.521 261.47 64.961 262.94 69.261 269.06C73.561 275.18 72.091 283.62 65.971 287.92C59.861 292.22 51.421 290.75 47.121 284.63C42.821 278.52 44.291 270.07 50.411 265.77Z" fill="white" stroke="#003763" stroke-width="5" stroke-linecap="round" stroke-linejoin="round"/>
<path d="M65.2981 279.84C66.1717 274.482 62.5362 269.43 57.178 268.556C51.8198 267.683 46.7679 271.318 45.8943 276.677C45.0207 282.035 48.6562 287.087 54.0144 287.96C59.3726 288.834 64.4245 285.198 65.2981 279.84Z" fill="#D0EDFC"/>
<path d="M81.1181 308.51L75.2481 312.63L65.8281 303.07C62.9381 305.1 57.0981 304.71 54.5381 304.27L47.7781 315.76L34.7481 308.74L38.4281 296.71C35.4581 295.56 32.9581 290.21 32.0881 287.68L19.2581 288.61L17.3281 272.43L31.3281 269.33C31.2481 266.15 33.9981 261.61 35.3781 259.74L30.8381 249.44L36.7081 245.32" stroke="#003763" stroke-width="5" stroke-linecap="round" stroke-linejoin="round"/>
<path d="M50.411 265.77C56.521 261.47 64.961 262.94 69.261 269.06C73.561 275.18 72.091 283.62 65.971 287.92C59.861 292.22 51.421 290.75 47.121 284.63C42.821 278.52 44.291 270.07 50.411 265.77Z" stroke="#003763" stroke-width="5" stroke-linecap="round" stroke-linejoin="round"/>
<path d="M80.0819 309.24L85.9519 305.12L80.1419 293.02C83.0319 290.99 84.6419 285.36 85.0919 282.79L98.1919 280.32L95.9919 265.68L83.4319 265.07C83.3519 261.89 79.1719 257.73 77.0919 256.04L82.3119 244.28L67.7419 236.99L60.0819 249.12C57.1119 247.97 51.9219 249.02 49.6919 249.68L41.5419 241.92L35.6719 246.04" stroke="#003763" stroke-width="5" stroke-linecap="round" stroke-linejoin="round"/>
<path d="M286.038 80.74C303.375 80.74 317.428 66.6862 317.428 49.35C317.428 32.0137 303.375 17.96 286.038 17.96C268.702 17.96 254.648 32.0137 254.648 49.35C254.648 66.6862 268.702 80.74 286.038 80.74Z" stroke="#003763" stroke-width="5" stroke-linecap="round" stroke-linejoin="round"/>
<path d="M286.01 65.73C281.86 65.73 277.71 64.15 274.56 60.99L271.29 57.72C271.29 57.72 271.28 57.69 271.29 57.67C271.3 57.65 271.32 57.66 271.34 57.67L274.61 60.94C280.9 67.23 291.13 67.23 297.42 60.94C300.47 57.89 302.14 53.84 302.14 49.53C302.14 49.51 302.15 49.5 302.17 49.5C302.19 49.5 302.2 49.51 302.2 49.53C302.2 53.86 300.52 57.92 297.46 60.98C294.3 64.14 290.15 65.72 286.01 65.72V65.73Z" stroke="#003763" stroke-width="3.2" stroke-linecap="round" stroke-linejoin="round"/>
<path d="M271.319 64.2702C271.319 64.2702 271.289 64.2502 271.289 64.2402V57.7102C271.289 57.7102 271.299 57.6802 271.319 57.6802H277.849C277.849 57.6802 277.879 57.7002 277.879 57.7102C277.879 57.7202 277.869 57.7402 277.849 57.7402H271.349V64.2402C271.349 64.2402 271.339 64.2702 271.319 64.2702Z" stroke="#003763" stroke-width="3.2" stroke-linecap="round" stroke-linejoin="round"/>
<path d="M269.85 49.5701C269.85 49.5701 269.82 49.5601 269.82 49.5401C269.82 45.2101 271.5 41.1501 274.56 38.0901C280.87 31.7701 291.15 31.7701 297.47 38.0901L300.74 41.3601C300.74 41.3601 300.75 41.3901 300.74 41.4101C300.73 41.4301 300.71 41.4201 300.69 41.4101L297.42 38.1401C291.13 31.8501 280.9 31.8501 274.61 38.1401C271.56 41.1901 269.89 45.2401 269.89 49.5501C269.89 49.5701 269.88 49.5801 269.86 49.5801L269.85 49.5701Z" stroke="#003763" stroke-width="3.2" stroke-linecap="round" stroke-linejoin="round"/>
<path d="M300.708 41.4098H294.178C294.178 41.4098 294.148 41.3998 294.148 41.3798C294.148 41.3598 294.158 41.3498 294.178 41.3498H300.678V34.8498C300.678 34.8498 300.688 34.8198 300.708 34.8198C300.728 34.8198 300.738 34.8298 300.738 34.8498V41.3798C300.738 41.3798 300.728 41.4098 300.708 41.4098Z" stroke="#003763" stroke-width="3.2" stroke-linecap="round" stroke-linejoin="round"/>
</g>
<defs>
<clipPath id="clip0_3086_12404">
<rect width="329.55" height="329.55" fill="white" transform="translate(14)"/>
</clipPath>
</defs>
</svg>
