<svg width="384" height="259" viewBox="0 0 384 259" fill="none" xmlns="http://www.w3.org/2000/svg">
<rect x="105.402" y="112.355" width="10.4516" height="10.4516" fill="#D0EDFC"/>
<rect x="102.789" y="108.435" width="16.9839" height="16.9839" stroke="#003763" stroke-width="5.22581" stroke-linecap="round" stroke-linejoin="round"/>
<rect x="145.902" y="112.355" width="10.4516" height="10.4516" fill="#D0EDFC"/>
<rect x="143.289" y="108.435" width="16.9839" height="16.9839" stroke="#003763" stroke-width="5.22581" stroke-linecap="round" stroke-linejoin="round"/>
<rect x="186.402" y="112.355" width="10.4516" height="10.4516" fill="#D0EDFC"/>
<rect x="183.789" y="108.435" width="16.9839" height="16.9839" stroke="#003763" stroke-width="5.22581" stroke-linecap="round" stroke-linejoin="round"/>
<rect x="226.902" y="112.355" width="10.4516" height="10.4516" fill="#D0EDFC"/>
<rect x="224.289" y="108.435" width="16.9839" height="16.9839" stroke="#003763" stroke-width="5.22581" stroke-linecap="round" stroke-linejoin="round"/>
<rect x="267.402" y="112.355" width="10.4516" height="10.4516" fill="#D0EDFC"/>
<rect x="264.789" y="108.435" width="16.9839" height="16.9839" stroke="#003763" stroke-width="5.22581" stroke-linecap="round" stroke-linejoin="round"/>
<rect x="105.402" y="147.629" width="10.4516" height="10.4516" fill="#D0EDFC"/>
<rect x="102.789" y="143.71" width="16.9839" height="16.9839" stroke="#003763" stroke-width="5.22581" stroke-linecap="round" stroke-linejoin="round"/>
<rect x="145.902" y="147.629" width="10.4516" height="10.4516" fill="#D0EDFC"/>
<rect x="143.289" y="143.71" width="16.9839" height="16.9839" stroke="#003763" stroke-width="5.22581" stroke-linecap="round" stroke-linejoin="round"/>
<rect x="186.402" y="147.629" width="10.4516" height="10.4516" fill="#D0EDFC"/>
<rect x="183.789" y="143.71" width="16.9839" height="16.9839" stroke="#003763" stroke-width="5.22581" stroke-linecap="round" stroke-linejoin="round"/>
<rect x="226.902" y="147.629" width="10.4516" height="10.4516" fill="#D0EDFC"/>
<rect x="224.289" y="143.71" width="16.9839" height="16.9839" stroke="#003763" stroke-width="5.22581" stroke-linecap="round" stroke-linejoin="round"/>
<rect x="267.402" y="147.629" width="10.4516" height="10.4516" fill="#D0EDFC"/>
<rect x="264.789" y="143.71" width="16.9839" height="16.9839" stroke="#003763" stroke-width="5.22581" stroke-linecap="round" stroke-linejoin="round"/>
<rect x="105.402" y="182.904" width="10.4516" height="10.4516" fill="#D0EDFC"/>
<rect x="102.789" y="178.984" width="16.9839" height="16.9839" stroke="#003763" stroke-width="5.22581" stroke-linecap="round" stroke-linejoin="round"/>
<rect x="145.902" y="182.904" width="10.4516" height="10.4516" fill="#D0EDFC"/>
<rect x="143.289" y="178.984" width="16.9839" height="16.9839" stroke="#003763" stroke-width="5.22581" stroke-linecap="round" stroke-linejoin="round"/>
<rect x="186.402" y="182.904" width="10.4516" height="10.4516" fill="#D0EDFC"/>
<rect x="183.789" y="178.984" width="16.9839" height="16.9839" stroke="#003763" stroke-width="5.22581" stroke-linecap="round" stroke-linejoin="round"/>
<rect x="226.902" y="182.904" width="10.4516" height="10.4516" fill="#D0EDFC"/>
<rect x="224.289" y="178.984" width="16.9839" height="16.9839" stroke="#003763" stroke-width="5.22581" stroke-linecap="round" stroke-linejoin="round"/>
<rect x="267.402" y="182.904" width="10.4516" height="10.4516" fill="#D0EDFC"/>
<rect x="264.789" y="178.984" width="16.9839" height="16.9839" stroke="#003763" stroke-width="5.22581" stroke-linecap="round" stroke-linejoin="round"/>
<rect x="105.402" y="218.177" width="10.4516" height="10.4516" fill="#D0EDFC"/>
<rect x="102.789" y="214.258" width="16.9839" height="16.9839" stroke="#003763" stroke-width="5.22581" stroke-linecap="round" stroke-linejoin="round"/>
<rect x="145.902" y="218.177" width="10.4516" height="10.4516" fill="#D0EDFC"/>
<rect x="143.289" y="214.258" width="16.9839" height="16.9839" stroke="#003763" stroke-width="5.22581" stroke-linecap="round" stroke-linejoin="round"/>
<rect x="186.402" y="218.177" width="10.4516" height="10.4516" fill="#D0EDFC"/>
<rect x="183.789" y="214.258" width="16.9839" height="16.9839" stroke="#003763" stroke-width="5.22581" stroke-linecap="round" stroke-linejoin="round"/>
<rect x="226.902" y="218.177" width="10.4516" height="10.4516" fill="#D0EDFC"/>
<rect x="224.289" y="214.258" width="16.9839" height="16.9839" stroke="#003763" stroke-width="5.22581" stroke-linecap="round" stroke-linejoin="round"/>
<rect x="267.402" y="218.177" width="10.4516" height="10.4516" fill="#D0EDFC"/>
<rect x="264.789" y="214.258" width="16.9839" height="16.9839" stroke="#003763" stroke-width="5.22581" stroke-linecap="round" stroke-linejoin="round"/>
<rect x="115.855" y="11.7581" width="22.2097" height="41.8064" rx="11.1048" fill="#D0EDFC"/>
<rect x="238.66" y="11.7581" width="22.2097" height="41.8064" rx="11.1048" fill="#D0EDFC"/>
<path d="M268.339 36.5806H296.145C297.588 36.5806 298.758 37.7505 298.758 39.1935V248.226C298.758 249.669 297.588 250.839 296.145 250.839H87.1129C85.6698 250.839 84.5 249.669 84.5 248.226V39.1935C84.5 37.7505 85.6698 36.5806 87.1129 36.5806H114.919M239.242 36.5806H144.016" stroke="#003763" stroke-width="7.83871" stroke-linejoin="round"/>
<rect x="114.549" y="3.91933" width="30.0484" height="49.6452" rx="15.0242" stroke="#003763" stroke-width="7.83871"/>
<rect x="238.663" y="3.91933" width="30.0484" height="49.6452" rx="15.0242" stroke="#003763" stroke-width="7.83871"/>
<line x1="84.5" y1="84.9193" x2="301.371" y2="84.9193" stroke="#003763" stroke-width="7.83871"/>
<ellipse cx="321.621" cy="209.686" rx="37.2339" ry="39.8468" fill="#D0EDFC"/>
<path d="M323.441 186.157V213.369H342.969" stroke="#003763" stroke-width="5.22581" stroke-linecap="round"/>
<circle cx="326.847" cy="207.073" r="43.1129" stroke="#003763" stroke-width="6.53226"/>
<path d="M2.5 255.339L380.794 255.339" stroke="#003763" stroke-width="5" stroke-linecap="round" stroke-linejoin="round"/>
<path d="M106.43 163.015C97.3014 126.502 71.3539 115.684 59.5211 114.839C49.8013 116.106 27.0655 127.517 13.8804 163.015C0.698208 198.505 13.8804 217.53 30.3618 217.53H82.3414C101.358 217.53 117.84 208.656 106.43 163.015Z" fill="white" stroke="#003763" stroke-width="5"/>
<path d="M100.955 163.752C92.3368 128.197 67.8399 117.662 56.6686 116.839C47.4923 118.073 26.0275 129.184 13.5796 163.752C1.13438 198.313 13.5796 216.839 29.1395 216.839H78.2132C96.1669 216.839 111.727 208.197 100.955 163.752Z" fill="#D0EDFC"/>
<path d="M106.43 163.015C97.3014 126.502 71.3539 115.684 59.5211 114.839C49.8013 116.106 27.0655 127.517 13.8804 163.015C0.698208 198.505 13.8804 217.53 30.3618 217.53H82.3414C101.358 217.53 117.84 208.656 106.43 163.015Z" stroke="#003763" stroke-width="5"/>
<path d="M46.8438 180.764L58.2539 190.906" stroke="#003763" stroke-width="5" stroke-linecap="round"/>
<path d="M70.9319 194.71L58.2539 203.584" stroke="#003763" stroke-width="5" stroke-linecap="round"/>
<path d="M58.2539 165.551V254.296" stroke="#003763" stroke-width="5" stroke-linecap="round"/>
<line x1="68.4336" y1="255.529" x2="48.0777" y2="255.529" stroke="#003763" stroke-width="5" stroke-linecap="round"/>
</svg>
