<svg width="429" height="276" viewBox="0 0 429 276" fill="none" xmlns="http://www.w3.org/2000/svg">
<path d="M198.414 173.971H228.873V226.992H198.414V173.971Z" fill="#D0EDFC"/>
<rect x="143.137" y="125.463" width="23.6901" height="24.8182" fill="#D0EDFC"/>
<rect x="317.992" y="126.591" width="23.6901" height="24.8182" fill="#D0EDFC"/>
<rect x="143.137" y="180.74" width="23.6901" height="24.8182" fill="#D0EDFC"/>
<rect x="317.992" y="181.868" width="23.6901" height="24.8182" fill="#D0EDFC"/>
<rect x="79.9648" y="125.463" width="23.6901" height="24.8182" fill="#D0EDFC"/>
<rect x="259.332" y="125.463" width="23.6901" height="24.8182" fill="#D0EDFC"/>
<rect x="79.9648" y="180.74" width="23.6901" height="24.8182" fill="#D0EDFC"/>
<rect x="259.332" y="180.74" width="23.6901" height="24.8182" fill="#D0EDFC"/>
<path d="M49.0733 55.5205H367.532L376.655 29.5742H41.6094L49.0733 55.5205Z" fill="#D0EDFC"/>
<rect x="107.039" y="251.81" width="208.698" height="20.3058" fill="#D0EDFC"/>
<path d="M52.8906 272.116V54.3926" stroke="#003763" stroke-width="5" stroke-linecap="round" stroke-linejoin="round"/>
<path d="M372.141 272.115V56.0845" stroke="#003763" stroke-width="5" stroke-linecap="round" stroke-linejoin="round"/>
<path d="M381.167 24.8182L381.319 24.8231C382.072 24.8688 382.767 25.2529 383.206 25.8729C383.675 26.5344 383.794 27.3824 383.526 28.1473L374.403 54.0936C374.051 55.0946 373.105 55.7645 372.044 55.7645H53.5851C52.4707 55.7645 51.491 55.0268 51.1828 53.9559L43.7189 28.0096C43.5018 27.2549 43.6519 26.4416 44.1242 25.8143C44.5965 25.1871 45.3361 24.8182 46.1213 24.8182H381.167Z" stroke="#003763" stroke-width="5" stroke-linecap="round" stroke-linejoin="round"/>
<path d="M108.168 73.5703V272.116H315.738V73.5703" stroke="#003763" stroke-width="5" stroke-linecap="round" stroke-linejoin="round"/>
<path d="M213.204 2.5L108.168 73.5703H315.738L213.204 2.5Z" fill="white" stroke="#003763" stroke-width="5" stroke-linecap="round" stroke-linejoin="round"/>
<line x1="55.3906" y1="227.876" x2="369.643" y2="227.876" stroke="#003763" stroke-width="5" stroke-linecap="round" stroke-linejoin="round"/>
<line x1="110.668" y1="249.31" x2="313.238" y2="249.31" stroke="#003763" stroke-width="5" stroke-linecap="round" stroke-linejoin="round"/>
<line x1="54.2618" y1="94.7603" x2="369.642" y2="94.7603" stroke="#003763" stroke-width="5" stroke-linecap="round" stroke-linejoin="round"/>
<circle cx="212.515" cy="45.9318" r="14.1012" fill="#D0EDFC"/>
<line x1="82.4648" y1="97.5039" x2="82.4648" y2="227.876" stroke="#003763" stroke-width="5" stroke-linecap="round" stroke-linejoin="round"/>
<circle cx="213.644" cy="44.8037" r="16.6012" stroke="#003763" stroke-width="5" stroke-linecap="round" stroke-linejoin="round"/>
<line x1="141.125" y1="97.5039" x2="141.125" y2="227.876" stroke="#003763" stroke-width="5" stroke-linecap="round" stroke-linejoin="round"/>
<line x1="170.457" y1="97.5039" x2="170.457" y2="227.876" stroke="#003763" stroke-width="5" stroke-linecap="round" stroke-linejoin="round"/>
<line x1="260.703" y1="97.5039" x2="260.703" y2="227.876" stroke="#003763" stroke-width="5" stroke-linecap="round" stroke-linejoin="round"/>
<line x1="290.035" y1="97.5039" x2="290.035" y2="227.876" stroke="#003763" stroke-width="5" stroke-linecap="round" stroke-linejoin="round"/>
<line x1="348.695" y1="97.5039" x2="348.695" y2="227.876" stroke="#003763" stroke-width="5" stroke-linecap="round" stroke-linejoin="round"/>
<line x1="233.629" y1="97.5039" x2="233.629" y2="227.876" stroke="#003763" stroke-width="5" stroke-linecap="round" stroke-linejoin="round"/>
<line x1="197.531" y1="97.5039" x2="197.531" y2="227.876" stroke="#003763" stroke-width="5" stroke-linecap="round" stroke-linejoin="round"/>
<path d="M231.131 169.215C232.511 169.215 233.631 170.334 233.631 171.715V224.735C233.631 226.116 232.511 227.235 231.131 227.235H200.672C199.291 227.235 198.172 226.116 198.172 224.735V171.715C198.172 170.334 199.291 169.215 200.672 169.215H231.131Z" stroke="#003763" stroke-width="5" stroke-linecap="round" stroke-linejoin="round"/>
<rect x="318.238" y="121.194" width="28.843" height="29.9711" stroke="#003763" stroke-width="5" stroke-linecap="round" stroke-linejoin="round"/>
<rect x="82.4648" y="121.194" width="25.4587" height="29.9711" stroke="#003763" stroke-width="5" stroke-linecap="round" stroke-linejoin="round"/>
<rect x="141.125" y="121.194" width="29.9711" height="29.9711" stroke="#003763" stroke-width="5" stroke-linecap="round" stroke-linejoin="round"/>
<rect x="260.703" y="121.194" width="27.7149" height="29.9711" stroke="#003763" stroke-width="5" stroke-linecap="round" stroke-linejoin="round"/>
<rect x="318.238" y="176.471" width="28.843" height="29.9711" stroke="#003763" stroke-width="5" stroke-linecap="round" stroke-linejoin="round"/>
<rect x="82.4648" y="176.471" width="25.4587" height="29.9711" stroke="#003763" stroke-width="5" stroke-linecap="round" stroke-linejoin="round"/>
<rect x="141.125" y="176.471" width="29.9711" height="29.9711" stroke="#003763" stroke-width="5" stroke-linecap="round" stroke-linejoin="round"/>
<rect x="260.703" y="176.471" width="27.7149" height="29.9711" stroke="#003763" stroke-width="5" stroke-linecap="round" stroke-linejoin="round"/>
<line x1="4.625" y1="273" x2="423.79" y2="273" stroke="#003763" stroke-width="5" stroke-linecap="round" stroke-linejoin="round"/>
<path d="M391.208 157.39C399.169 157.39 405.623 166.561 405.623 177.874C405.623 179.99 405.397 182.032 404.978 183.952C409.102 187.699 411.692 193.106 411.692 199.118C411.692 201.06 411.421 202.939 410.916 204.72C418.308 210.337 423.072 219.162 423.072 229.087C423.072 246.057 409.145 259.813 391.966 259.813C374.786 259.813 360.86 246.057 360.859 229.087C360.859 219.717 365.106 211.328 371.8 205.692C371.101 203.629 370.723 201.418 370.723 199.118C370.723 193.106 373.312 187.698 377.438 183.95C377.019 182.03 376.793 179.989 376.793 177.874C376.793 166.561 383.247 157.39 391.208 157.39Z" fill="#D0EDFC"/>
<path d="M383.867 213.32L392.815 221.274" stroke="#003763" stroke-width="4" stroke-linecap="round"/>
<path d="M402.755 224.257L392.812 231.217" stroke="#003763" stroke-width="4" stroke-linecap="round"/>
<path d="M392.812 201.389V270.987" stroke="#003763" stroke-width="4" stroke-linecap="round"/>
<line x1="400.758" y1="271.993" x2="384.873" y2="271.993" stroke="#003763" stroke-width="4" stroke-linecap="round"/>
<path d="M407.874 181.504C408.423 179.327 408.722 176.985 408.722 174.544C408.722 163.013 402.045 153.665 393.808 153.665C385.572 153.665 378.895 163.013 378.895 174.544C378.895 176.985 379.194 179.327 379.743 181.504" stroke="#003763" stroke-width="4"/>
<path d="M374.118 203.378C373.348 201.201 372.93 198.858 372.93 196.418C372.93 189.767 376.039 183.843 380.884 180.019M406.734 180.019C411.579 183.843 414.688 189.767 414.688 196.418C414.688 198.131 414.482 199.796 414.093 201.389L413.694 202.383" stroke="#003763" stroke-width="4"/>
<path d="M413.356 201.389C421.389 207.164 426.621 216.591 426.621 227.24C426.621 244.812 412.376 259.056 394.805 259.056C377.233 259.056 362.988 244.812 362.988 227.24C362.988 217.193 367.646 208.233 374.919 202.402" stroke="#003763" stroke-width="4"/>
<path d="M35.046 157.049C42.6049 157.049 48.7325 166.15 48.7325 177.376C48.7325 179.477 48.5175 181.503 48.1193 183.409C52.0345 187.127 54.4923 192.492 54.4923 198.457C54.4923 200.384 54.2355 202.248 53.756 204.015C60.7745 209.59 65.299 218.346 65.299 228.195C65.2989 245.035 52.076 258.686 35.7648 258.686C19.4535 258.686 6.23061 245.035 6.23059 228.195C6.23059 218.898 10.2613 210.574 16.6163 204.981C15.9528 202.933 15.5939 200.739 15.5939 198.457C15.5939 192.49 18.0531 187.122 21.9708 183.404C21.5733 181.499 21.3595 179.475 21.3595 177.376C21.3595 166.15 27.4872 157.049 35.046 157.049Z" fill="#D0EDFC"/>
<path d="M22.8789 213.32L31.8272 221.274" stroke="#003763" stroke-width="4" stroke-linecap="round"/>
<path d="M41.7668 224.257L31.8242 231.217" stroke="#003763" stroke-width="4" stroke-linecap="round"/>
<path d="M31.8242 201.389V270.987" stroke="#003763" stroke-width="4" stroke-linecap="round"/>
<line x1="39.7695" y1="271.993" x2="23.8844" y2="271.993" stroke="#003763" stroke-width="4" stroke-linecap="round"/>
<path d="M46.8853 181.504C47.4349 179.327 47.734 176.985 47.734 174.544C47.734 163.013 41.0568 153.665 32.8201 153.665C24.5834 153.665 17.9062 163.013 17.9062 174.544C17.9062 176.985 18.2053 179.327 18.7549 181.504" stroke="#003763" stroke-width="4"/>
<path d="M13.1295 203.378C12.3601 201.201 11.9414 198.858 11.9414 196.418C11.9414 189.767 15.0509 183.843 19.8955 180.019M45.7461 180.019C50.5907 183.843 53.7002 189.767 53.7002 196.418C53.7002 198.131 53.4939 199.796 53.1047 201.389L52.7059 202.383" stroke="#003763" stroke-width="4"/>
<path d="M52.368 201.389C60.401 207.164 65.6324 216.591 65.6324 227.24C65.6324 244.812 51.3878 259.056 33.8162 259.056C16.2446 259.056 2 244.812 2 227.24C2 217.193 6.6574 208.233 13.9311 202.402" stroke="#003763" stroke-width="4"/>
</svg>
