<svg width="362" height="319" viewBox="0 0 362 319" fill="none" xmlns="http://www.w3.org/2000/svg">
<rect x="-1.33754" y="-3.27313" width="195.408" height="207.972" rx="14.5" transform="matrix(0.922009 0.387169 -0.386994 0.922082 150.343 1.55737)" fill="white" stroke="#003763" stroke-width="5"/>
<rect x="-1.33754" y="-3.27313" width="149.058" height="146.579" transform="matrix(0.922009 0.387169 -0.386994 0.922082 161.921 32.2379)" fill="#D0EDFC" stroke="#003763" stroke-width="5" stroke-linejoin="round"/>
<rect x="-2.91339" y="-2.00274" width="195.402" height="207.978" rx="14.5" transform="matrix(0.983264 -0.182184 0.182091 0.983282 3.33438 85.5371)" fill="white" stroke="#003763" stroke-width="5"/>
<rect x="-2.91339" y="-2.00274" width="149.054" height="146.584" transform="matrix(0.983264 -0.182184 0.182091 0.983282 29.8383 104.837)" fill="#D0EDFC" stroke="#003763" stroke-width="5" stroke-linejoin="round"/>
<rect x="76.9286" y="102.791" width="195.4" height="207.98" rx="14.5" fill="white" stroke="#003763" stroke-width="5"/>
<rect x="99.4755" y="126.597" width="149.053" height="146.585" stroke="#003763" stroke-width="5" stroke-linejoin="round"/>
<rect x="187.515" y="241.975" width="2.11556" height="2.11612" fill="#D0EDFC"/>
<rect x="199.151" y="241.975" width="2.11556" height="2.11612" fill="#D0EDFC"/>
<rect x="210.788" y="241.975" width="2.11556" height="2.11612" fill="#D0EDFC"/>
<path d="M173.136 171.085C190.418 171.085 195.045 181.858 195.199 187.245L192.9 192.785L195.199 198.325V202.942L197.037 208.944L192.9 212.638V221.872L173.136 214.485V208.944C170.225 210.022 162.288 211.53 153.831 208.944C143.259 205.712 144.638 191.4 146.477 185.398C148.315 179.396 151.533 171.085 173.136 171.085Z" fill="#D0EDFC"/>
<rect x="126.591" y="152.467" width="95.4044" height="98.6031" stroke="#003763" stroke-width="3.37778" stroke-linecap="round" stroke-linejoin="round"/>
<line x1="142.036" y1="161.558" x2="135.681" y2="161.558" stroke="#003763" stroke-width="4.22222" stroke-linecap="round" stroke-linejoin="round"/>
<line x1="213.966" y1="161.558" x2="205.495" y2="161.558" stroke="#003763" stroke-width="4.22222" stroke-linecap="round" stroke-linejoin="round"/>
<line x1="142.036" y1="168.964" x2="135.681" y2="168.964" stroke="#003763" stroke-width="4.22222" stroke-linecap="round" stroke-linejoin="round"/>
<line x1="169.536" y1="231.39" x2="161.065" y2="231.39" stroke="#003763" stroke-width="4.22222" stroke-linecap="round" stroke-linejoin="round"/>
<line x1="169.536" y1="225.041" x2="161.065" y2="225.041" stroke="#003763" stroke-width="4.22222" stroke-linecap="round" stroke-linejoin="round"/>
<line x1="169.536" y1="218.693" x2="161.065" y2="218.693" stroke="#003763" stroke-width="4.22222" stroke-linecap="round" stroke-linejoin="round"/>
<path d="M170.591 211.292H156.311C151.551 210.234 142.349 204.943 143.618 192.247C145.205 176.376 155.254 167.382 169.005 166.853C182.756 166.324 199.151 171.085 199.68 184.311C200.209 185.898 200.738 189.39 198.622 190.659C195.978 192.247 193.334 191.718 193.334 195.421C193.334 199.124 193.862 203.885 190.689 204.414C187.516 204.943 182.227 203.356 182.227 201.24" stroke="#003763" stroke-width="3.37778" stroke-linecap="round" stroke-linejoin="round"/>
<path d="M184.87 210.234V203.885" stroke="#003763" stroke-width="4.22222" stroke-linecap="round" stroke-linejoin="round"/>
<rect x="186.248" y="239.65" width="5.70667" height="5.70751" stroke="#003763" stroke-width="2.53333" stroke-linecap="round" stroke-linejoin="round"/>
<rect x="197.885" y="239.651" width="5.70667" height="5.70751" stroke="#003763" stroke-width="2.53333" stroke-linecap="round" stroke-linejoin="round"/>
<rect x="209.521" y="239.65" width="5.70667" height="5.70751" stroke="#003763" stroke-width="2.53333" stroke-linecap="round" stroke-linejoin="round"/>
<path d="M196.506 192.247L203.381 199.124L199.15 205.472L203.381 212.35L199.15 216.053V227.163L176.937 218.698V209.705C176.937 208.294 175.879 205.472 171.648 205.472C167.417 205.472 163.538 205.472 162.128 205.472" stroke="#003763" stroke-width="3.37778" stroke-linecap="round" stroke-linejoin="round"/>
<path d="M199.152 216.582L194.921 210.762L190.69 216.582L188.575 210.762H185.401" stroke="#003763" stroke-width="3.37778" stroke-linecap="round" stroke-linejoin="round"/>
<path d="M166.362 176.904C163.012 177.257 155.678 180.184 153.14 189.072" stroke="#003763" stroke-width="3.37778" stroke-linecap="round"/>
<path d="M192.278 183.782C191.22 181.666 188.046 177.328 183.815 176.904" stroke="#003763" stroke-width="3.37778" stroke-linecap="round"/>
<path d="M277.012 141.095C284.538 141.095 291.55 143.301 297.439 147.099C300.176 146.467 303.028 146.134 305.957 146.134C326.809 146.134 343.713 163.052 343.713 183.922C343.713 184.264 343.707 184.605 343.698 184.945C352.134 191.888 357.514 202.415 357.514 214.2C357.514 235.108 340.58 252.057 319.691 252.057C317.379 252.057 315.115 251.847 312.918 251.45C306.003 260.19 295.309 265.798 283.305 265.798C272.679 265.798 263.081 261.403 256.22 254.332C255.192 254.416 254.152 254.462 253.102 254.462C232.25 254.461 215.347 237.543 215.347 216.672C215.347 200.66 225.297 186.975 239.347 181.471C239.289 180.616 239.257 179.754 239.257 178.884C239.257 158.014 256.16 141.096 277.012 141.095Z" fill="white"/>
<path d="M274.572 146.107C281.801 146.107 288.535 148.224 294.191 151.87C296.82 151.263 299.559 150.943 302.373 150.943C322.399 150.943 338.633 167.182 338.633 187.214C338.633 187.543 338.628 187.872 338.619 188.199C346.718 194.863 351.882 204.965 351.882 216.273C351.882 236.341 335.618 252.609 315.556 252.609C313.337 252.609 311.164 252.409 309.055 252.028C302.413 260.416 292.143 265.798 280.615 265.799C270.41 265.799 261.191 261.58 254.602 254.793C253.614 254.873 252.616 254.917 251.608 254.917C231.581 254.917 215.347 238.679 215.347 218.647C215.347 203.278 224.904 190.142 238.398 184.86C238.342 184.04 238.312 183.211 238.312 182.377C238.312 162.346 254.546 146.107 274.572 146.107Z" fill="#D0EDFC"/>
<path d="M272.222 222.109L286.514 234.817" stroke="#003763" stroke-width="4" stroke-linecap="round"/>
<path d="M302.391 239.583L286.511 250.702" stroke="#003763" stroke-width="4" stroke-linecap="round"/>
<path d="M286.511 203.047V314.242" stroke="#003763" stroke-width="4" stroke-linecap="round"/>
<line x1="300.393" y1="314.654" x2="272.632" y2="314.654" stroke="#003763" stroke-width="4" stroke-linecap="round"/>
<path d="M239.776 183.985C239.183 181.433 238.87 178.774 238.87 176.042C238.87 156.742 254.512 141.095 273.808 141.095C282.254 141.095 290 144.093 296.041 149.083" stroke="#003763" stroke-width="4" stroke-linecap="round" stroke-linejoin="round"/>
<path d="M295.069 150.228C299.269 148.439 303.891 147.449 308.744 147.449C328.04 147.449 343.682 163.096 343.682 182.396C343.682 184.893 343.42 187.328 342.923 189.676" stroke="#003763" stroke-width="4" stroke-linecap="round" stroke-linejoin="round"/>
<path d="M343.114 187.685C352.992 193.859 359.563 204.833 359.563 217.343C359.563 236.644 343.921 252.291 324.626 252.291C320.144 252.291 315.859 251.446 311.921 249.908" stroke="#003763" stroke-width="4" stroke-linecap="round" stroke-linejoin="round"/>
<path d="M313.51 250.857C307.448 261.217 296.205 268.176 283.337 268.176C270.405 268.176 259.114 261.148 253.073 250.702" stroke="#003763" stroke-width="4" stroke-linecap="round" stroke-linejoin="round"/>
<path d="M242.045 182.973C225.783 185.961 213.46 200.213 213.46 217.344C213.46 236.644 229.102 252.291 248.398 252.291C250.014 252.291 251.604 252.181 253.162 251.968" stroke="#003763" stroke-width="4" stroke-linecap="round" stroke-linejoin="round"/>
<line x1="5.51846" y1="315.795" x2="357.518" y2="315.795" stroke="#003763" stroke-width="5" stroke-linecap="round" stroke-linejoin="round"/>
</svg>
