<svg width="379" height="268" viewBox="0 0 379 268" fill="none" xmlns="http://www.w3.org/2000/svg">
<path d="M203.962 90.6612L201.445 68.3024C188.501 72.5001 141.001 79.5001 134.61 150.153L156.95 151.301C156.95 151.301 157.351 120.853 169.145 107.663C179.231 96.3829 203.962 90.6612 203.962 90.6612Z" fill="#D0EDFC"/>
<path d="M162.5 237C130.306 220.655 113 186.041 113 147.702C113 93.1903 157.548 49 212.5 49C267.452 49 312 93.1903 312 147.702C312 187.154 293.225 225.2 259.5 241" stroke="#D0EDFC" stroke-width="12" stroke-linecap="round" stroke-linejoin="round"/>
<rect x="67" y="87" width="2" height="2" fill="#D0EDFC"/>
<rect x="78" y="87" width="2" height="2" fill="#D0EDFC"/>
<rect x="89" y="87" width="2" height="2" fill="#D0EDFC"/>
<path d="M53.4043 20C69.7427 20 74.117 30.1818 74.2619 35.2727L72.0892 40.5091L74.2619 45.7455V50.1091L76 55.7818L72.0892 59.2727V68L53.4043 61.0182V55.7818C50.6523 56.8 43.1494 58.2255 35.154 55.7818C25.1597 52.7273 26.4633 39.2 28.2014 33.5273C29.9396 27.8545 32.9813 20 53.4043 20Z" fill="#D0EDFC"/>
<rect x="9" y="2" width="91" height="94" stroke="#003763" stroke-width="4" stroke-linecap="round" stroke-linejoin="round"/>
<line x1="23.5" y1="11.5" x2="18.5" y2="11.5" stroke="#003763" stroke-width="5" stroke-linecap="round" stroke-linejoin="round"/>
<line x1="91.5" y1="11.5" x2="84.5" y2="11.5" stroke="#003763" stroke-width="5" stroke-linecap="round" stroke-linejoin="round"/>
<line x1="23.5" y1="18.5" x2="18.5" y2="18.5" stroke="#003763" stroke-width="5" stroke-linecap="round" stroke-linejoin="round"/>
<line x1="49.5" y1="77.5" x2="42.5" y2="77.5" stroke="#003763" stroke-width="5" stroke-linecap="round" stroke-linejoin="round"/>
<line x1="49.5" y1="71.5" x2="42.5" y2="71.5" stroke="#003763" stroke-width="5" stroke-linecap="round" stroke-linejoin="round"/>
<line x1="49.5" y1="65.5" x2="42.5" y2="65.5" stroke="#003763" stroke-width="5" stroke-linecap="round" stroke-linejoin="round"/>
<path d="M50.9992 58H37.4992C32.9992 57 24.2992 52 25.4992 40C26.9992 25 36.4991 16.5 49.4991 16C62.4991 15.5 77.9991 20 78.4991 32.5C78.9991 34 79.4991 37.3 77.4991 38.5C74.9991 40 72.4991 39.5 72.4991 43C72.4991 46.5 72.9991 51 69.9991 51.5C66.9991 52 61.9991 50.5 61.9991 48.5" stroke="#003763" stroke-width="4" stroke-linecap="round" stroke-linejoin="round"/>
<path d="M64.5 57V51" stroke="#003763" stroke-width="5" stroke-linecap="round" stroke-linejoin="round"/>
<rect x="65.5" y="84.5" width="6" height="6" stroke="#003763" stroke-width="3" stroke-linecap="round" stroke-linejoin="round"/>
<rect x="76.5" y="84.5" width="6" height="6" stroke="#003763" stroke-width="3" stroke-linecap="round" stroke-linejoin="round"/>
<rect x="87.5" y="84.5" width="6" height="6" stroke="#003763" stroke-width="3" stroke-linecap="round" stroke-linejoin="round"/>
<path d="M75.5 40L82 46.5L78 52.5L82 59L78 62.5V73L57 65V56.5C57 55.1667 56 52.5 52 52.5C48 52.5 44.3333 52.5 43 52.5" stroke="#003763" stroke-width="4" stroke-linecap="round" stroke-linejoin="round"/>
<path d="M78 63L74 57.5L70 63L68 57.5H65" stroke="#003763" stroke-width="4" stroke-linecap="round" stroke-linejoin="round"/>
<path d="M47 25.5C43.8333 25.8333 36.9 28.6 34.5 37" stroke="#003763" stroke-width="4" stroke-linecap="round"/>
<path d="M71.5 32C70.5 30 67.5 25.9 63.5 25.5" stroke="#003763" stroke-width="4" stroke-linecap="round"/>
<path d="M165.5 242.473C131.365 225.003 108 189.48 108 148.5C108 90.234 155.234 43 213.5 43C271.766 43 319 90.234 319 148.5C319 190.67 294.259 227.061 258.5 243.949" stroke="#003763" stroke-width="6" stroke-linecap="round" stroke-linejoin="round"/>
<rect x="148" y="195" width="122" height="14" rx="7" fill="#D0EDFC"/>
<path d="M143.396 182C138.028 171.499 135 159.603 135 147C135 104.474 169.474 70 212 70C254.526 70 289 104.474 289 147C289 159.603 285.972 171.499 280.604 182" stroke="#003763" stroke-width="6" stroke-linecap="round" stroke-linejoin="round"/>
<path d="M214 73.5V96C214 96 188.784 98.9193 177.5 109C164.304 120.789 160.5 151 160.5 151H135" stroke="#003763" stroke-width="6" stroke-linecap="round" stroke-linejoin="round"/>
<rect x="148" y="190" width="128" height="20" rx="10" stroke="#003763" stroke-width="6"/>
<line x1="3" y1="265" x2="376" y2="265" stroke="#003763" stroke-width="6" stroke-linecap="round"/>
<path d="M254 211.5L259 264.5" stroke="#003763" stroke-width="6"/>
<path d="M170 211.5L165 264.5" stroke="#003763" stroke-width="6"/>
<path d="M181 222.5H203" stroke="#003763" stroke-width="6" stroke-linecap="round"/>
<path d="M179 236.5H201" stroke="#003763" stroke-width="6" stroke-linecap="round"/>
<path d="M177 249.5H199" stroke="#003763" stroke-width="6" stroke-linecap="round"/>
</svg>
