<svg width="428" height="285" viewBox="0 0 428 285" fill="none" xmlns="http://www.w3.org/2000/svg">
<rect x="193" y="269.53" width="41" height="10" fill="#D0EDFC"/>
<line x1="2.5" y1="282.03" x2="424.773" y2="282.03" stroke="#003763" stroke-width="5" stroke-linecap="round" stroke-linejoin="round"/>
<rect x="110" y="236.663" width="275.47" height="21.4906" fill="#D0EDFC"/>
<path d="M320.137 86.1364H376.678C379.439 86.1364 381.678 88.375 381.678 91.1364V124.233" stroke="#D0EDFC" stroke-width="6" stroke-linecap="round"/>
<path d="M185.148 86.1364H128.607C125.846 86.1364 123.607 88.375 123.607 91.1364V124.233" stroke="#D0EDFC" stroke-width="6" stroke-linecap="round"/>
<path d="M386.411 73.53H120.157C115.626 73.53 111.953 77.2029 111.953 81.7336V250.12C111.953 254.651 115.626 258.324 120.157 258.324H386.411C390.941 258.324 394.614 254.651 394.614 250.12V81.7336C394.614 77.2029 390.941 73.53 386.411 73.53Z" stroke="#003763" stroke-width="7"/>
<path d="M111.953 227.626L394.533 227.626" stroke="#003763" stroke-width="7"/>
<path d="M279.264 261.823V280.361C279.263 280.693 278.994 280.962 278.662 280.962H229.117C228.785 280.962 228.516 280.693 228.516 280.361V261.823H279.264Z" stroke="#003763" stroke-width="7"/>
<path d="M323.927 281.715C323.927 277.173 307.05 273.303 280.011 271.829M185.215 281.715C185.215 277.397 202.66 273.686 227.616 272.064" stroke="#003763" stroke-width="7"/>
<ellipse cx="36.5704" cy="40.391" rx="30.5704" ry="32.7157" fill="#D0EDFC"/>
<path d="M38.0666 21.0728V43.4157H54.0998" stroke="#003763" stroke-width="5.22581" stroke-linecap="round"/>
<circle cx="40.8603" cy="38.2457" r="35.4807" stroke="#003763" stroke-width="5.53"/>
<path d="M63.1688 281.53L67.2188 259.53H22.2188L26.7188 281.53H63.1688Z" fill="#D0EDFC"/>
<path d="M52.1548 201.331C59.1676 186.343 78.4528 185.57 87.2188 187.057C78.8911 189.287 80.6443 202.669 74.0698 214.713C68.8102 224.348 57.2683 221.701 52.1548 219.173C48.6484 214.534 50.6938 205.345 52.1548 201.331Z" fill="#D0EDFC"/>
<path d="M38.4089 211.359C34.5125 198.833 18.0284 200.698 10.2735 203.196C17.6857 202.597 12.855 214.163 16.2885 221.199C19.7219 228.235 29.2327 229.631 35.1337 225.757C39.8544 222.659 39.2841 214.868 38.4089 211.359Z" fill="#D0EDFC"/>
<rect x="18.2188" y="244.53" width="57" height="8" rx="2" fill="#D0EDFC"/>
<path d="M52.7164 203.121C60.7164 186.321 82.7164 185.454 92.7164 187.121C83.2164 189.621 85.2164 204.621 77.7164 218.121C71.7164 228.921 58.5498 225.954 52.7164 223.121C48.7164 217.921 51.0498 207.621 52.7164 203.121Z" stroke="#003763" stroke-width="4" stroke-linecap="round" stroke-linejoin="round"/>
<path d="M75.7188 199.121C67.3854 203.287 50.2188 217.321 48.2188 240.121" stroke="#003763" stroke-width="4" stroke-linecap="round" stroke-linejoin="round"/>
<path d="M67.7188 281.121L72.2188 255.121H22.2188L27.2188 281.121H67.7188Z" stroke="#003763" stroke-width="5" stroke-linecap="round"/>
<rect x="15.7188" y="240.121" width="65" height="15" rx="4.5" stroke="#003763" stroke-width="5"/>
<path d="M26.7188 211.121C33.5521 215.621 47.4187 227.521 48.2188 239.121" stroke="#003763" stroke-width="4" stroke-linecap="round"/>
<path d="M40.7188 208.121C35.1187 194.521 17.3854 198.454 9.21875 202.121C17.2188 200.621 13.2188 214.121 17.7188 221.621C22.2188 229.121 32.7188 229.621 38.7188 224.621C43.5187 220.621 42.0521 211.954 40.7188 208.121Z" stroke="#003763" stroke-width="4" stroke-linecap="round" stroke-linejoin="round"/>
<rect x="154" y="143.53" width="52" height="68" fill="#D0EDFC"/>
<rect x="229" y="143.53" width="104" height="33" fill="#D0EDFC"/>
<rect x="229" y="197.53" width="104" height="30" fill="#D0EDFC"/>
<rect x="140.5" y="105.03" width="222" height="122" stroke="#003763" stroke-width="5" stroke-linejoin="round"/>
<line x1="140" y1="120.03" x2="363" y2="120.03" stroke="#003763" stroke-width="5"/>
<circle cx="148.583" cy="112.113" r="1.58333" fill="#D0EDFC"/>
<circle cx="156.501" cy="112.113" r="1.58333" fill="#D0EDFC"/>
<circle cx="164.415" cy="112.113" r="1.58333" fill="#D0EDFC"/>
<circle cx="149.583" cy="112.113" r="2.58333" stroke="#003763" stroke-width="2"/>
<circle cx="157.501" cy="112.113" r="2.58333" stroke="#003763" stroke-width="2"/>
<circle cx="165.415" cy="112.113" r="2.58333" stroke="#003763" stroke-width="2"/>
<rect x="152" y="134.53" width="64" height="79" stroke="#003763" stroke-width="4" stroke-linejoin="round"/>
<rect x="229" y="134.53" width="119" height="44" stroke="#003763" stroke-width="4" stroke-linejoin="round"/>
<path d="M348 224.53V188.53H229V224.53" stroke="#003763" stroke-width="4" stroke-linejoin="round"/>
</svg>
