<svg width="322" height="313" viewBox="0 0 322 313" fill="none" xmlns="http://www.w3.org/2000/svg">
<path fill-rule="evenodd" clip-rule="evenodd" d="M309.196 15.5C311.573 15.5 313.5 17.2879 313.5 19.4935V69.0023C313.5 71.2078 311.573 72.9957 309.196 72.9957H265.06L243.835 95.1516C241.205 97.8962 236.314 108.5 236.314 92.4985V72.9957H227.804C225.427 72.9957 223.5 71.2078 223.5 69.0023V19.4935C223.5 17.2879 225.427 15.5 227.804 15.5H309.196Z" fill="#D0EDFC"/>
<path d="M277.281 76.0516C290.13 97.8863 297.5 123.332 297.5 150.5C297.5 231.686 231.686 297.5 150.5 297.5C129.777 297.5 110.055 293.212 92.1742 285.474M219.732 20.7911C199.102 9.75653 175.532 3.5 150.5 3.5C69.3141 3.5 3.5 69.3141 3.5 150.5C3.5 175.532 9.75653 199.102 20.7911 219.732" stroke="#003763" stroke-width="7" stroke-linecap="round" stroke-linejoin="round"/>
<path d="M234.946 73.8332H223.236C221.931 73.8332 220.872 72.7749 220.872 71.4695V12.8636C220.872 11.5582 221.931 10.5 223.236 10.5H317.027C318.332 10.5 319.391 11.5582 319.391 12.8636V71.4695C319.391 72.7749 318.332 73.8332 317.027 73.8332H263.681" stroke="#003763" stroke-width="4.72727" stroke-linecap="round"/>
<path d="M263.094 73.8335L239.076 100.854C237.632 102.478 234.946 101.457 234.946 99.2833V73.8335" stroke="#003763" stroke-width="4.72727" stroke-linecap="round"/>
<line x1="3" y1="-3" x2="68.0241" y2="-3" transform="matrix(-1 0 0 1 303.57 28.9858)" stroke="#003763" stroke-width="6" stroke-linecap="round"/>
<line x1="3" y1="-3" x2="57.3219" y2="-3" transform="matrix(-1 0 0 1 303.57 43.5796)" stroke="#003763" stroke-width="6" stroke-linecap="round"/>
<line x1="3" y1="-3" x2="64.1324" y2="-3" transform="matrix(-1 0 0 1 303.57 59.1465)" stroke="#003763" stroke-width="6" stroke-linecap="round"/>
<path d="M234.946 73.8332H223.236C221.931 73.8332 220.872 72.7749 220.872 71.4695V12.8636C220.872 11.5582 221.931 10.5 223.236 10.5H317.027C318.332 10.5 319.391 11.5582 319.391 12.8636V71.4695C319.391 72.7749 318.332 73.8332 317.027 73.8332H263.681" stroke="#003763" stroke-width="4.72727" stroke-linecap="round"/>
<path d="M263.094 73.8335L239.076 100.854C237.632 102.478 234.946 101.457 234.946 99.2833V73.8335" stroke="#003763" stroke-width="4.72727" stroke-linecap="round"/>
<line x1="3" y1="-3" x2="68.0241" y2="-3" transform="matrix(-1 0 0 1 303.57 28.9858)" stroke="#003763" stroke-width="6" stroke-linecap="round"/>
<line x1="3" y1="-3" x2="57.3219" y2="-3" transform="matrix(-1 0 0 1 303.57 43.5796)" stroke="#003763" stroke-width="6" stroke-linecap="round"/>
<line x1="3" y1="-3" x2="64.1324" y2="-3" transform="matrix(-1 0 0 1 303.57 59.1465)" stroke="#003763" stroke-width="6" stroke-linecap="round"/>
<path d="M134.83 147.849H133.05V149.629V166.095C133.05 166.35 132.359 169.655 124.149 169.655V169.835C123.967 169.885 123.729 169.952 123.441 170.032C122.722 170.233 121.691 170.522 120.437 170.877C117.929 171.588 114.528 172.563 110.958 173.623C107.391 174.682 103.645 175.828 100.45 176.879C97.2998 177.916 94.5605 178.899 93.0899 179.634C90.3708 180.994 87.3933 182.691 84.9636 185.342C82.4985 188.031 80.677 191.611 80.1015 196.599C79.0139 206.025 79.6437 214.724 80.1076 217.972L80.326 219.5H81.8699H225.618H227.367L227.398 217.751L227.398 217.748L227.398 217.738L227.399 217.701L227.401 217.557L227.41 217.008C227.418 216.533 227.428 215.85 227.44 215.019C227.463 213.357 227.491 211.1 227.509 208.722C227.546 204.013 227.548 198.689 227.393 196.666C227.081 192.612 225.023 183.026 215.08 179.546C206.786 176.643 190.707 171.714 183.485 169.752L183.493 169.662C181.896 169.523 179.492 169.104 177.496 168.33C176.497 167.942 175.696 167.502 175.156 167.039C174.625 166.583 174.459 166.21 174.429 165.918C174.09 162.526 174.284 155.342 174.434 149.8L174.438 149.677L174.487 147.849H172.658H134.83Z" fill="white"/>
<path fill-rule="evenodd" clip-rule="evenodd" d="M152.396 60.6206C175.285 60.6207 194.059 78.7562 194.852 101.632L196.563 151.009C196.798 157.795 191.36 163.425 184.569 163.425H172.513V151.409C166.282 154.227 150.172 158.173 135.574 151.409V163.425H119.611C112.785 163.425 107.334 157.738 107.622 150.918L108.429 131.827L109.765 104.235L109.992 100.506C111.365 78.0944 129.942 60.6206 152.396 60.6206Z" fill="white"/>
<path d="M106.203 109.784V100.619C106.203 74.5958 127.299 53.5 153.322 53.5C179.345 53.5 200.441 74.5958 200.441 100.619V134.799C200.737 137.535 200.619 143.085 197.774 143.398" stroke="#003763" stroke-width="5"/>
<path fill-rule="evenodd" clip-rule="evenodd" d="M151.478 66.8511C173.471 66.8511 191.512 84.2681 192.287 106.247L193.881 151.447C194.12 158.236 188.681 163.87 181.888 163.87H172.513V152.299C166.282 155.118 150.171 159.064 135.574 152.299V163.87H120.508C113.678 163.87 108.225 158.177 108.518 151.354L109.263 134.05L110.545 108.01L110.723 105.146C112.065 83.6217 129.912 66.8512 151.478 66.8511Z" fill="#D0EDFC"/>
<path d="M160.769 98.2236C165.195 105.465 172.685 111.988 185.325 114.156L185.107 115.435H187.199V126.296C187.199 142.132 174.399 154.969 158.609 154.969H150.812C135.023 154.969 122.223 142.132 122.223 126.296V98.4911H124.141L124.638 97.3283C126.043 97.9324 128.099 98.0869 130.676 97.7545C133.216 97.4269 136.081 96.6507 138.976 95.5884C144.356 93.614 149.615 90.7363 152.846 88.2134L160.769 98.2236Z" fill="white"/>
<path d="M152.043 76.6421C152.488 87.7681 157.918 111.177 184.976 115.806" stroke="#003763" stroke-width="5" stroke-linecap="round"/>
<path d="M183.195 171.436C179.189 170.101 173.76 169.656 173.404 166.095C173.048 162.535 173.256 155.118 173.404 149.629M135.575 150.964V166.095C135.575 167.876 133.35 169.211 124.895 171.436" stroke="#003763" stroke-width="5" stroke-linecap="round"/>
<path d="M155.158 187.012C170.735 187.012 180.229 176.479 182.751 171.436C189.871 173.364 206.049 178.322 214.348 181.226C223.249 184.342 225.178 192.946 225.474 196.803C225.771 200.66 225.474 217.72 225.474 217.72H81.7265C81.2814 214.604 80.6584 206.06 81.7265 196.803C82.7946 187.546 88.4021 183.897 93.7426 181.226C99.083 178.556 124.895 171.436 124.895 171.436C128.604 177.073 139.477 187.012 155.158 187.012Z" stroke="#003763" stroke-width="5"/>
<path d="M153.315 190.41C168.286 190.41 180.971 180.89 183.395 176.331C190.239 178.074 205.788 182.555 213.765 185.18C222.319 187.996 221.503 193.993 221.788 197.479C222.073 200.965 221.788 218.165 221.788 218.165H82.7387C82.311 215.349 81.7121 207.626 82.7387 199.259C83.7653 190.892 88.9313 183.589 94.0641 181.175C99.1969 178.762 124.006 172.326 124.006 172.326C127.57 177.421 138.243 190.41 153.315 190.41Z" fill="#D0EDFC"/>
<path d="M155.158 187.012C170.735 187.012 180.229 176.479 182.751 171.436C189.871 173.364 206.049 178.322 214.348 181.226C223.249 184.342 225.178 192.946 225.474 196.803C225.771 200.66 225.474 217.72 225.474 217.72H81.7265C81.2814 214.604 80.6584 206.06 81.7265 196.803C82.7946 187.546 88.4021 183.897 93.7426 181.226C99.083 178.556 124.895 171.436 124.895 171.436C128.604 177.073 139.477 187.012 155.158 187.012Z" stroke="#003763" stroke-width="5" stroke-linejoin="round"/>
<path d="M122.223 98.0039L122.223 123.079C122.223 140.2 136.102 154.079 153.223 154.079H157.349C173.063 154.079 186.006 141.737 186.753 126.041" stroke="#003763" stroke-width="5" stroke-linecap="round"/>
<path d="M153.821 88.2134C147.145 94.889 139.134 100.675 122.668 98.0043" stroke="#003763" stroke-width="5" stroke-linecap="round"/>
<path d="M134.909 163.87H120.5C113.675 163.87 108.224 158.185 108.51 151.366L109.319 132.135M172.738 163.87H185.462C192.251 163.87 197.688 158.242 197.454 151.456L195.736 101.63C194.948 78.7562 176.176 60.6206 153.288 60.6206C130.834 60.6206 112.259 78.0975 110.893 100.51L110.655 104.423" stroke="#003763" stroke-width="5"/>
<path d="M103.531 110.234C103.531 106.921 106.218 104.234 109.531 104.234H122.223V132.717H109.531C106.218 132.717 103.531 130.031 103.531 126.717V110.234Z" fill="white"/>
<path d="M103.531 112.015C103.531 108.701 106.218 106.015 109.531 106.015H121.333V132.717H109.531C106.218 132.717 103.531 130.031 103.531 126.717V112.015Z" fill="white"/>
<path d="M197.223 106.734H187.031V130.217H197.223C199.156 130.217 200.723 128.65 200.723 126.717V110.234C200.723 108.301 199.156 106.734 197.223 106.734Z" fill="white" stroke="#003763" stroke-width="5"/>
<path d="M202.332 112.015C202.332 108.701 199.646 106.015 196.332 106.015H185.421V132.717H196.332C199.646 132.717 202.332 130.031 202.332 126.717V112.015Z" fill="white"/>
<path d="M109.531 106.734H119.723V130.217H109.531C107.598 130.217 106.031 128.65 106.031 126.717V110.234C106.031 108.301 107.598 106.734 109.531 106.734Z" stroke="#003763" stroke-width="5"/>
<path d="M197.223 106.734H187.031V130.217H197.223C199.156 130.217 200.723 128.65 200.723 126.717V110.234C200.723 108.301 199.156 106.734 197.223 106.734Z" stroke="#003763" stroke-width="5"/>
<path d="M151.598 142.063C151.598 139.359 153.789 137.167 156.493 137.167H197.882V146.958H156.493C153.789 146.958 151.598 144.767 151.598 142.063Z" fill="white"/>
<path d="M154.266 142.508C154.266 140.542 155.86 138.948 157.826 138.948H196.099V146.068H157.826C155.86 146.068 154.266 144.474 154.266 142.508Z" fill="#D0EDFC"/>
<path d="M157.828 138.777H195.382V146.238H157.828C155.768 146.238 154.098 144.568 154.098 142.508C154.098 140.448 155.768 138.777 157.828 138.777Z" fill="white" stroke="#003763" stroke-width="5"/>
<path d="M59.6945 305.562L48.0995 279.84L40.9939 303.826L34.4859 299.126L25.9043 303.826L37.6573 270.138L63.5602 273.943L73.1032 296.98L66.667 294.298L59.6945 305.562Z" fill="#D0EDFC"/>
<path d="M35.3558 275.845L40.7293 285.037L50.2037 280.653L59.678 285.037L65.1223 275.845L75.7279 273.654L74.5259 263.26L81.3135 255.341L74.5259 247.493L75.7279 237.1L65.1223 234.908L59.678 225.645L50.2037 230.029L40.7293 225.645L35.3558 234.908L24.6794 237.1L25.8814 247.493L19.0938 255.341L25.8814 263.26L24.6794 273.654L35.3558 275.845Z" fill="#D0EDFC"/>
<path d="M33.4453 276.409L24.8388 305.305L37.6274 300.082L45.8281 309.044L52.9136 281.536" stroke="#003763" stroke-width="6" stroke-linecap="round" stroke-linejoin="round"/>
<path d="M71.2148 275.488L80.6763 304.956L67.9149 300.11L59.665 309.316L53.6752 282.171" stroke="#003763" stroke-width="6" stroke-linecap="round" stroke-linejoin="round"/>
<path d="M60.5625 220.777C61.963 220.129 63.6272 220.649 64.4092 221.979L69.1777 230.094L78.4795 232.017C80.0012 232.331 81.0311 233.755 80.8525 235.299L79.8018 244.382L85.7275 251.233C86.6986 252.356 86.7015 254.021 85.7354 255.148L79.8008 262.072L80.8525 271.164C81.0308 272.708 80.0011 274.132 78.4795 274.446L69.1719 276.369L64.4033 284.421C63.6188 285.745 61.9593 286.261 60.5625 285.614L52.3477 281.812L44.1338 285.614C42.7308 286.263 41.0644 285.74 40.2842 284.405L35.585 276.369L26.2207 274.447C24.6972 274.134 23.6653 272.709 23.8438 271.164L24.8945 262.072L18.9609 255.148C17.9948 254.021 17.9977 252.356 18.9688 251.233L24.8936 244.382L23.8438 235.299C23.6651 233.754 24.6971 232.328 26.2207 232.016L35.5801 230.093L40.2793 221.994L40.4346 221.753C41.264 220.593 42.8152 220.167 44.1338 220.777L52.3477 224.578L60.5625 220.777Z" stroke="#003763" stroke-width="6" stroke-linecap="round" stroke-linejoin="round"/>
<circle cx="52.8444" cy="253.098" r="18.0514" fill="white" stroke="#003763" stroke-width="5" stroke-linecap="round" stroke-linejoin="round"/>
<path d="M61.8745 248.583L50.838 259.118L44.3164 253.098" stroke="#003763" stroke-width="5" stroke-linecap="round" stroke-linejoin="round"/>
</svg>
