<svg width="357" height="330" viewBox="0 0 357 330" fill="none" xmlns="http://www.w3.org/2000/svg">
<g clip-path="url(#clip0_3086_12372)">
<path d="M66.2819 245.67C50.4919 247.31 38.1719 260.66 38.1719 276.89C38.1719 288.79 44.7919 299.14 54.5619 304.47C57.4819 305.37 60.5819 305.85 63.7919 305.85C66.3419 305.85 68.8119 305.54 71.1819 304.97C82.3319 300.15 90.1319 289.06 90.1319 276.15C90.1319 261.42 79.9819 249.06 66.2819 245.68V245.67Z" fill="#D0EDFC"/>
<path d="M322.519 91.5898C333.719 113.55 340.039 138.43 340.039 164.78C340.039 253.85 267.839 326.05 178.769 326.05C152.069 326.05 126.879 319.56 104.699 308.07" stroke="#003763" stroke-width="7" stroke-linecap="round" stroke-linejoin="round"/>
<path d="M28.79 224.18C21.5 205.8 17.5 185.75 17.5 164.77C17.5 75.7 89.7 3.5 178.77 3.5C200.88 3.5 221.95 7.95 241.14 16" stroke="#003763" stroke-width="7" stroke-linecap="round" stroke-linejoin="round"/>
<path d="M58.73 307.53C76.0662 307.53 90.12 293.476 90.12 276.14C90.12 258.804 76.0662 244.75 58.73 244.75C41.3938 244.75 27.34 258.804 27.34 276.14C27.34 293.476 41.3938 307.53 58.73 307.53Z" stroke="#003763" stroke-width="4.5" stroke-linecap="round" stroke-linejoin="round"/>
<path d="M110.812 246.31H251.372V66.1001H110.812C108.072 66.1001 105.852 68.3301 105.852 71.0601V85.4801H110.812C111.552 85.4801 112.152 86.0801 112.152 86.8201C112.152 87.5601 111.552 88.1601 110.812 88.1601H105.852V117.01H110.812C111.552 117.01 112.152 117.61 112.152 118.35C112.152 119.09 111.552 119.69 110.812 119.69H105.852V148.54H110.812C111.552 148.54 112.152 149.14 112.152 149.88C112.152 150.62 111.552 151.22 110.812 151.22H105.852V180.07H110.812C111.552 180.07 112.152 180.67 112.152 181.41C112.152 182.15 111.552 182.75 110.812 182.75H105.852V211.6H110.812C111.552 211.6 112.152 212.2 112.152 212.94C112.152 213.68 111.552 214.28 110.812 214.28H105.852V248.12C107.192 246.98 108.922 246.28 110.812 246.28V246.31ZM205.412 226.92H154.952C154.212 226.92 153.612 226.32 153.612 225.58C153.612 224.84 154.212 224.24 154.952 224.24H205.412C206.152 224.24 206.752 224.84 206.752 225.58C206.752 226.32 206.152 226.92 205.412 226.92ZM214.872 214.31H145.502C144.762 214.31 144.162 213.71 144.162 212.97C144.162 212.23 144.762 211.63 145.502 211.63H214.872C215.612 211.63 216.212 212.23 216.212 212.97C216.212 213.71 215.612 214.31 214.872 214.31ZM227.482 236.38C226.742 236.38 226.142 235.78 226.142 235.04C226.142 234.3 226.742 233.7 227.482 233.7C228.222 233.7 228.822 234.29 228.822 235.04C228.822 235.79 228.212 236.38 227.482 236.38ZM232.862 236.38C232.122 236.38 231.522 235.78 231.522 235.04C231.522 234.3 232.122 233.7 232.862 233.7C233.602 233.7 234.202 234.29 234.202 235.04C234.202 235.79 233.602 236.38 232.862 236.38ZM239.572 235.04C239.572 235.78 238.962 236.38 238.232 236.38C237.502 236.38 236.892 235.78 236.892 235.04C236.892 234.3 237.492 233.7 238.232 233.7C238.972 233.7 239.572 234.29 239.572 235.04ZM122.082 80.5201C122.082 79.7801 122.682 79.1801 123.422 79.1801H236.942C237.682 79.1801 238.282 79.7801 238.282 80.5201V194.04C238.282 194.78 237.682 195.38 236.942 195.38H123.422C122.682 195.38 122.082 194.78 122.082 194.04V80.5201Z" fill="#D0EDFC"/>
<path d="M101.292 249.44C101.512 249.58 101.772 249.66 102.022 249.66C102.132 249.66 102.232 249.62 102.332 249.59C102.542 248.93 102.832 248.32 103.232 247.77L102.012 248.31V247.14C101.582 247.77 101.242 248.46 101.012 249.2C101.092 249.29 101.182 249.37 101.282 249.43L101.292 249.44Z" fill="black"/>
<path d="M230.371 231.21C229.631 231.21 229.031 231.8 229.031 232.55C229.031 233.3 229.631 233.89 230.371 233.89C231.111 233.89 231.711 233.28 231.711 232.55C231.711 231.82 231.111 231.21 230.371 231.21Z" fill="#003763"/>
<path d="M225 231.21C224.26 231.21 223.66 231.8 223.66 232.55C223.66 233.3 224.27 233.89 225 233.89C225.73 233.89 226.35 233.28 226.35 232.55C226.35 231.82 225.74 231.21 225 231.21Z" fill="#003763"/>
<path d="M234.398 232.56C234.398 233.3 235.008 233.9 235.748 233.9C236.488 233.9 237.088 233.29 237.088 232.56C237.088 231.83 236.478 231.22 235.748 231.22C235.018 231.22 234.398 231.81 234.398 232.56Z" fill="#003763"/>
<path d="M143.012 210.48H212.382" stroke="#003763" stroke-width="3.5" stroke-linecap="round" stroke-linejoin="round"/>
<path d="M152.469 223.04H202.929" stroke="#003763" stroke-width="3.5" stroke-linecap="round" stroke-linejoin="round"/>
<path d="M234.461 78.04H120.941V191.56H234.461V78.04Z" stroke="#003763" stroke-width="3.5" stroke-linecap="round" stroke-linejoin="round"/>
<path d="M121.172 60.9702H250.222V245.48" stroke="#003763" stroke-width="4.96" stroke-linecap="round" stroke-linejoin="round"/>
<path d="M101.711 251.07V75.3101" stroke="#003763" stroke-width="4.96" stroke-linecap="round" stroke-linejoin="round"/>
<path d="M101.711 79.2602V69.9702C101.711 65.0202 105.761 60.9702 110.711 60.9702H128.051" stroke="#003763" stroke-width="4.96" stroke-linecap="round" stroke-linejoin="round"/>
<path d="M250.42 257.78H109.22C105.26 257.78 102.02 254.92 102.02 251.42C102.02 247.92 105.26 245.06 109.22 245.06H249.22" stroke="#003763" stroke-width="4.96" stroke-linecap="round" stroke-linejoin="round"/>
<path d="M247.07 245.16V257.7" stroke="#003763" stroke-width="4.96" stroke-linecap="round" stroke-linejoin="round"/>
<path d="M98.0508 210.39H108.441" stroke="#003763" stroke-width="3.5" stroke-linecap="round" stroke-linejoin="round"/>
<path d="M98.0508 179.07H108.441" stroke="#003763" stroke-width="3.5" stroke-linecap="round" stroke-linejoin="round"/>
<path d="M98.0508 147.46H108.441" stroke="#003763" stroke-width="3.5" stroke-linecap="round" stroke-linejoin="round"/>
<path d="M98.0508 115.85H108.441" stroke="#003763" stroke-width="3.5" stroke-linecap="round" stroke-linejoin="round"/>
<path d="M98.0508 84.3901H108.441" stroke="#003763" stroke-width="3.5" stroke-linecap="round" stroke-linejoin="round"/>
<path fill-rule="evenodd" clip-rule="evenodd" d="M204.102 132.53C201.362 132.07 198.922 131.88 196.552 131.7C193.472 131.46 190.552 131.24 187.522 130.41C185.622 129.89 184.452 128.82 184.402 127.55C184.342 126.13 185.572 124.75 187.542 124.03C189.532 123.3 192.622 122.9 196.252 122.9C201.272 122.9 206.812 123.65 211.072 124.91L211.442 125.02V120.21L211.232 120.16C207.672 119.23 203.472 118.6 199.402 118.38C198.322 118.32 197.252 118.29 196.222 118.29C191.982 118.29 188.392 118.78 185.832 119.72C181.892 121.16 179.452 124.31 179.612 127.75C179.762 131.06 182.292 133.78 186.222 134.85C189.722 135.8 192.862 136.04 196.192 136.3C198.452 136.47 200.782 136.65 203.292 137.07C206.762 137.65 209.052 139.35 209.132 141.39C209.212 143.31 207.232 145.04 204.092 145.81C201.552 146.43 198.592 146.75 195.292 146.75C189.802 146.75 183.862 145.85 179.392 144.34L179.012 144.21V149.07L179.212 149.13C184.022 150.55 189.882 151.36 195.292 151.36C198.982 151.36 202.342 151 205.272 150.28C210.692 148.95 214.092 145.4 213.932 141.22C213.762 136.92 209.912 133.51 204.122 132.54" fill="#003763"/>
<path fill-rule="evenodd" clip-rule="evenodd" d="M165.391 120.99C169.511 120.99 172.871 124.21 172.871 128.16C172.871 132.11 169.521 135.33 165.391 135.33H144.721V120.98M141.801 118.53V150.8H144.711V137.81H165.381C170.921 137.81 175.431 133.49 175.431 128.17C175.431 122.85 170.921 118.53 165.381 118.53" fill="#003763"/>
<path fill-rule="evenodd" clip-rule="evenodd" d="M218.191 123.51C218.791 123.51 219.211 123.3 219.211 122.81C219.211 122.38 218.971 122.09 218.251 122.09H217.611V123.5H218.191V123.51ZM216.971 121.58H218.351C219.131 121.58 219.891 121.84 219.891 122.79C219.891 123.26 219.551 123.71 219.091 123.84L220.071 125.46H219.331L218.551 124.03H217.611V125.46H216.971V121.58ZM221.361 123.59C221.361 121.78 220.021 120.45 218.331 120.45C216.641 120.45 215.311 121.79 215.311 123.59C215.311 125.39 216.651 126.68 218.331 126.68C220.011 126.68 221.361 125.38 221.361 123.59ZM214.691 123.59C214.691 121.39 216.351 119.92 218.341 119.92C220.331 119.92 221.991 121.39 221.991 123.59C221.991 125.79 220.351 127.22 218.341 127.22C216.331 127.22 214.691 125.77 214.691 123.59Z" fill="#003763"/>
<path d="M67.1511 273.36C67.1511 280.55 61.3211 286.37 54.1411 286.37C46.9611 286.37 41.1211 280.55 41.1211 273.36C41.1211 266.17 46.9511 260.34 54.1411 260.34C61.3311 260.34 67.1511 266.16 67.1511 273.36Z" stroke="#003763" stroke-width="3.2" stroke-linecap="round" stroke-linejoin="round"/>
<path d="M63.3281 282.56L73.1381 292.37" stroke="#003763" stroke-width="3.2" stroke-linecap="round" stroke-linejoin="round"/>
<path d="M295.39 64.66C294.21 64.66 293.11 64.2 292.28 63.37L274.95 46.04C274.44 45.53 274.44 44.7 274.95 44.18L283.67 35.46C284.16 34.97 285.03 34.97 285.53 35.46L295.4 45.32L314.04 26.68C308.76 21.72 301.66 18.67 293.86 18.67C277.58 18.67 264.34 31.91 264.34 48.19C264.34 64.47 277.58 77.71 293.86 77.71C310.14 77.71 323.38 64.47 323.38 48.19C323.38 45.25 322.94 42.42 322.14 39.74L298.51 63.37C297.68 64.2 296.57 64.66 295.4 64.66H295.39Z" fill="#D0EDFC"/>
<path d="M321.39 38.5401C321.95 40.8601 322.25 43.2801 322.25 45.7601C322.25 62.7901 308.44 76.59 291.42 76.59C274.4 76.59 260.59 62.7901 260.59 45.7601C260.59 28.7301 274.4 14.9301 291.42 14.9301C299.6 14.9301 307.02 18.1201 312.54 23.3101" stroke="#003763" stroke-width="4.5" stroke-linecap="round" stroke-linejoin="round"/>
<path d="M317.799 31.8499L293.279 56.3699C292.609 57.0399 291.439 57.0399 290.779 56.3699L274.379 39.9599L281.239 33.0899L291.099 42.9499C291.609 43.4599 292.439 43.4599 292.959 42.9499L312.509 23.3999" stroke="#003763" stroke-width="3.55" stroke-linecap="round" stroke-linejoin="round"/>
</g>
<defs>
<clipPath id="clip0_3086_12372">
<rect width="329.55" height="329.55" fill="white" transform="translate(14)"/>
</clipPath>
</defs>
</svg>
