<svg width="428" height="220" viewBox="0 0 428 220" fill="none" xmlns="http://www.w3.org/2000/svg">
<rect x="193" y="204.5" width="41" height="10" fill="#D0EDFC"/>
<line x1="2.5" y1="217" x2="424.773" y2="217" stroke="#003763" stroke-width="5" stroke-linecap="round" stroke-linejoin="round"/>
<rect x="20" y="170.5" width="282" height="22" fill="#D0EDFC"/>
<rect x="91" y="115.5" width="13" height="28" fill="#D0EDFC"/>
<rect x="125" y="78.5" width="13" height="65" fill="#D0EDFC"/>
<rect x="158" y="98.5" width="14" height="45" fill="#D0EDFC"/>
<rect x="193" y="78.5" width="14" height="65" fill="#D0EDFC"/>
<rect x="226" y="97.5" width="14" height="46" fill="#D0EDFC"/>
<path d="M230 20.5H288C290.761 20.5 293 22.7386 293 25.5V59.5" stroke="#D0EDFC" stroke-width="6" stroke-linecap="round"/>
<path d="M100 20.5H42C39.2386 20.5 37 22.7386 37 25.5V59.5" stroke="#D0EDFC" stroke-width="6" stroke-linecap="round"/>
<path d="M389.34 156.406H332.246V184.953C332.246 200.719 345.027 213.5 360.793 213.5C376.559 213.5 389.34 200.719 389.34 184.953V156.406Z" fill="#D0EDFC"/>
<path d="M327.3 151.521C326.068 151.521 325.069 152.52 325.069 153.752V184.953C325.069 201.95 338.849 215.73 355.847 215.73H357.852C374.849 215.73 388.629 201.95 388.629 184.953V153.752C388.629 152.52 387.63 151.521 386.398 151.521H327.3Z" stroke="#003763" stroke-width="4.46043" stroke-linejoin="round"/>
<path d="M388.372 161.558H403.243C404.701 161.411 407.18 162.439 407.18 166.401C407.18 170.642 407.034 178.142 407.18 181.37C407.18 189.295 401.844 199.509 385.748 199.862" stroke="#003763" stroke-width="4.46043"/>
<path d="M388.067 167.398H397.53C398.458 167.304 400.035 167.965 400.035 170.518C400.035 173.249 399.942 178.079 400.035 180.159C400.035 185.263 396.64 191.842 386.397 192.068" stroke="#003763" stroke-width="4.46043"/>
<line y1="-2.23022" x2="62.9956" y2="-2.23022" transform="matrix(-1 0 0 1 388.996 162.844)" stroke="#003763" stroke-width="4.46043"/>
<path d="M358.731 140.349C366.799 125.223 368.144 122.327 363.437 112.35C358.731 102.373 355.033 95.2929 358.731 89.5" stroke="#003763" stroke-width="3.56835" stroke-linecap="round"/>
<path d="M354.994 146.553C354.254 147.076 350.635 142.391 352.775 138.319C357.616 129.104 358.422 127.34 355.599 121.262C352.775 115.184 350.556 110.871 352.775 107.342" stroke="#003763" stroke-width="3.56835" stroke-linecap="round"/>
<rect x="90.2466" y="109.606" width="18.902" height="33.7854" stroke="#003763" stroke-width="5.50688"/>
<rect x="122.989" y="73.8852" width="20.3903" height="69.5057" stroke="#003763" stroke-width="5.50688"/>
<circle cx="96.9534" cy="83.5922" r="5.95338" fill="#D0EDFC"/>
<circle cx="132.953" cy="35.4534" r="5.95338" fill="#D0EDFC"/>
<circle cx="163.953" cy="70.4534" r="5.95338" fill="#D0EDFC"/>
<circle cx="199.953" cy="47.4534" r="5.95338" fill="#D0EDFC"/>
<circle cx="233.953" cy="71.4534" r="5.95338" fill="#D0EDFC"/>
<rect x="191.454" y="73.8852" width="20.3903" height="69.5057" stroke="#003763" stroke-width="5.50688"/>
<rect x="157.223" y="93.2339" width="20.3903" height="50.1572" stroke="#003763" stroke-width="5.50688"/>
<rect x="225.684" y="93.2339" width="18.902" height="50.1572" stroke="#003763" stroke-width="5.50688"/>
<circle cx="98.9534" cy="82.5922" r="8.70682" stroke="#003763" stroke-width="5.50688"/>
<circle cx="134.672" cy="35.4534" r="8.70682" stroke="#003763" stroke-width="5.50688"/>
<circle cx="165.93" cy="70.6853" r="8.70682" stroke="#003763" stroke-width="5.50688"/>
<circle cx="201.649" cy="48.3601" r="8.70682" stroke="#003763" stroke-width="5.50688"/>
<circle cx="235.883" cy="72.1736" r="8.70682" stroke="#003763" stroke-width="5.50688"/>
<line x1="102.692" y1="75.0021" x2="127.994" y2="40.7701" stroke="#003763" stroke-width="5.50688"/>
<line x1="142.766" y1="40.6704" x2="162.114" y2="64.484" stroke="#003763" stroke-width="5.50688"/>
<line x1="172.075" y1="63.7907" x2="194.401" y2="51.8839" stroke="#003763" stroke-width="5.50688"/>
<line x1="208.897" y1="51.884" x2="231.222" y2="63.7907" stroke="#003763" stroke-width="5.50688"/>
<path d="M303.158 3.5H30.2036C25.6729 3.5 22 7.17289 22 11.7036V184.47C22 189.001 25.6729 192.674 30.2036 192.674H303.158C307.689 192.674 311.361 189.001 311.361 184.47V11.7036C311.361 7.17288 307.689 3.5 303.158 3.5Z" stroke="#003763" stroke-width="7"/>
<path d="M22 161.249L311.278 161.249" stroke="#003763" stroke-width="7"/>
<path d="M193.363 196.174V215.33C193.363 215.662 193.093 215.932 192.761 215.932H141.848C141.515 215.932 141.246 215.662 141.246 215.33V196.174H193.363Z" stroke="#003763" stroke-width="7"/>
<path d="M239 216.62C239 211.97 221.723 208.009 194.044 206.5M97 216.62C97 212.199 114.859 208.401 140.406 206.741" stroke="#003763" stroke-width="7"/>
</svg>
