<svg width="311" height="311" viewBox="0 0 311 311" fill="none" xmlns="http://www.w3.org/2000/svg">
<path d="M21.3661 226.922C9.96457 205.606 3.5 181.252 3.5 155.388C3.5 71.5026 71.5026 3.5 155.388 3.5C176.074 3.5 195.794 7.63526 213.767 15.1242M95.1228 294.851C113.598 302.845 133.976 307.276 155.388 307.276C239.274 307.276 307.276 239.274 307.276 155.388C307.276 133.706 302.733 113.086 294.547 94.4262" stroke="#003763" stroke-width="7" stroke-linecap="round" stroke-linejoin="round"/>
<circle cx="159.08" cy="146.279" r="23.6819" fill="#D0EDFC"/>
<path d="M107.859 234.949H212.501C212.501 222.098 207.633 196.397 155.547 196.397C112.628 196.397 107.859 223.087 107.859 234.949Z" fill="#D0EDFC"/>
<circle cx="162.793" cy="144.043" r="29.3516" stroke="#003763" stroke-width="7"/>
<path d="M159.563 189.44C188.29 189.44 204.053 196.56 212.482 206.419C220.854 216.21 221.229 227.878 221.229 234.949V238.449H104.359V234.949C104.359 228.112 105.712 216.682 113.528 206.911C121.464 196.991 135.524 189.44 159.563 189.44Z" stroke="#003763" stroke-width="7" stroke-linecap="round"/>
<path fill-rule="evenodd" clip-rule="evenodd" d="M175.877 60.5854C177.348 60.5854 178.539 61.6913 178.539 63.0554V92.3793C178.539 93.7434 177.348 94.8492 175.877 94.8492H149.876L136.749 108.553C135.123 110.25 132.097 116.808 132.097 106.912V94.8492H126.834C125.364 94.8492 124.172 93.7434 124.172 92.3793V63.0554C124.172 61.6913 125.364 60.5854 126.834 60.5854H175.877Z" fill="#D0EDFC"/>
<path d="M131.248 95.3671H123.958C123.177 95.3671 122.543 94.7336 122.543 93.9522V57.6107C122.543 56.8293 123.177 56.1958 123.958 56.1958H182.062C182.843 56.1958 183.477 56.8293 183.477 57.6107V93.9522C183.477 94.7336 182.843 95.3671 182.062 95.3671H149.021" stroke="#003763" stroke-width="2.8297" stroke-linecap="round"/>
<path d="M148.656 95.3677L133.719 112.172C132.855 113.144 131.247 112.533 131.247 111.232V95.3677" stroke="#003763" stroke-width="2.8297" stroke-linecap="round"/>
<line x1="1.79577" y1="-1.79577" x2="42.1323" y2="-1.79577" transform="matrix(-1 0 0 1 173.691 67.6294)" stroke="#003763" stroke-width="3.59154" stroke-linecap="round"/>
<line x1="1.79577" y1="-1.79577" x2="35.513" y2="-1.79577" transform="matrix(-1 0 0 1 173.691 76.6558)" stroke="#003763" stroke-width="3.59154" stroke-linecap="round"/>
<line x1="1.79577" y1="-1.79577" x2="39.7253" y2="-1.79577" transform="matrix(-1 0 0 1 173.691 86.2837)" stroke="#003763" stroke-width="3.59154" stroke-linecap="round"/>
<path d="M131.248 95.3671H123.958C123.177 95.3671 122.543 94.7336 122.543 93.9522V57.6107C122.543 56.8293 123.177 56.1958 123.958 56.1958H182.062C182.843 56.1958 183.477 56.8293 183.477 57.6107V93.9522C183.477 94.7336 182.843 95.3671 182.062 95.3671H149.021" stroke="#003763" stroke-width="2.8297" stroke-linecap="round"/>
<path d="M148.656 95.3677L133.719 112.172C132.855 113.144 131.247 112.533 131.247 111.232V95.3677" stroke="#003763" stroke-width="2.8297" stroke-linecap="round"/>
<line x1="1.79577" y1="-1.79577" x2="42.1323" y2="-1.79577" transform="matrix(-1 0 0 1 173.691 67.6294)" stroke="#003763" stroke-width="3.59154" stroke-linecap="round"/>
<line x1="1.79577" y1="-1.79577" x2="35.513" y2="-1.79577" transform="matrix(-1 0 0 1 173.691 76.6558)" stroke="#003763" stroke-width="3.59154" stroke-linecap="round"/>
<line x1="1.79577" y1="-1.79577" x2="39.7253" y2="-1.79577" transform="matrix(-1 0 0 1 173.691 86.2837)" stroke="#003763" stroke-width="3.59154" stroke-linecap="round"/>
<path d="M118.563 131.668H123.186C124.091 131.668 124.824 130.935 124.824 130.03V105.13C124.824 104.225 124.091 103.491 123.186 103.491H82.6312C81.7261 103.491 80.9924 104.225 80.9924 105.13V130.03C80.9924 130.935 81.7261 131.668 82.6312 131.668H105.778" stroke="#003763" stroke-width="3.27755" stroke-linecap="round"/>
<path d="M106.039 131.669L115.699 142.536C116.7 143.662 118.563 142.954 118.563 141.447V131.669" stroke="#003763" stroke-width="3.27755" stroke-linecap="round"/>
<line x1="89.4181" y1="110.329" x2="118.244" y2="110.329" stroke="#003763" stroke-width="2.77331" stroke-linecap="round"/>
<line x1="89.4181" y1="116.822" x2="113.483" y2="116.822" stroke="#003763" stroke-width="2.77331" stroke-linecap="round"/>
<line x1="89.4181" y1="123.748" x2="116.513" y2="123.748" stroke="#003763" stroke-width="2.77331" stroke-linecap="round"/>
<path d="M118.563 131.668H123.186C124.091 131.668 124.824 130.935 124.824 130.03V105.13C124.824 104.225 124.091 103.491 123.186 103.491H82.6312C81.7261 103.491 80.9924 104.225 80.9924 105.13V130.03C80.9924 130.935 81.7261 131.668 82.6312 131.668H105.778" stroke="#003763" stroke-width="3.27755" stroke-linecap="round"/>
<path d="M106.039 131.669L115.699 142.536C116.7 143.662 118.563 142.954 118.563 141.447V131.669" stroke="#003763" stroke-width="3.27755" stroke-linecap="round"/>
<ellipse cx="41.5738" cy="267.747" rx="27.6987" ry="27.2128" fill="#D0EDFC"/>
<circle cx="68.7853" cy="286.698" r="12.1486" fill="#D0EDFC"/>
<circle cx="70.1682" cy="286.519" r="14.2112" stroke="#003763" stroke-width="3"/>
<path d="M76.5235 281.752L66.5929 291.286L63.8123 288.505" stroke="#003763" stroke-width="3" stroke-linecap="round"/>
<path d="M76.884 273.354C77.2431 271.442 77.431 269.469 77.431 267.452C77.431 249.902 63.2035 235.674 45.653 235.674C28.1025 235.674 13.875 249.902 13.875 267.452C13.875 285.003 28.1025 299.23 45.653 299.23C50.6251 299.23 55.3305 298.088 59.5213 296.053" stroke="#003763" stroke-width="4"/>
<path d="M42.9297 250.201V271.084H57.4568" stroke="#003763" stroke-width="4" stroke-linecap="round"/>
<path d="M271.125 8.78836H297.932V34.5796C297.932 34.5796 295.423 33.2392 292.826 36.1427C290.443 38.8062 293.251 44.3489 286.443 44.3489C279.635 44.3489 279.635 41.2227 279.635 36.1427C276.564 33.1272 270.274 34.5796 270.274 34.5796V27.5456C270.274 27.5456 279.635 26.764 279.635 21.684C279.635 16.6039 273.123 17.644 271.55 15.4315C269.556 12.6259 271.125 8.78836 271.125 8.78836Z" fill="#D0EDFC"/>
<path d="M253.793 82.5435L228.306 82.5435L228.306 56.9592C228.306 56.9592 228.306 54.4065 232.766 56.9592C234.661 54.5761 236.201 45.6658 241.614 45.6658C247.027 45.6658 247.027 48.4629 247.027 53.008C249.468 55.7059 254.469 54.4065 254.469 54.4065L254.469 65.7614C254.469 65.7614 247.027 66.4607 247.027 71.0058C247.027 75.551 252.204 74.6203 253.454 76.5998C255.039 79.11 253.793 82.5435 253.793 82.5435Z" fill="#D0EDFC"/>
<path d="M254.629 32.8339V22.0483H222.703V55.6995H233.92M254.629 44.4824V55.6995H245.137" stroke="#003763" stroke-width="3.35614" stroke-linecap="round" stroke-linejoin="round"/>
<path d="M254.629 33.2658L255.06 33.2658H259.375C262.472 33.2658 264.983 35.7769 264.983 38.8744C264.983 41.9719 262.472 44.4829 259.375 44.4829H255.06H254.629" stroke="#003763" stroke-width="3.35614" stroke-linecap="round" stroke-linejoin="round"/>
<path d="M233.922 55.6992L233.922 55.2677L233.922 50.9535C233.922 47.856 236.433 45.345 239.53 45.345C242.628 45.345 245.139 47.856 245.139 50.9535L245.139 55.2677L245.139 55.6992" stroke="#003763" stroke-width="3.35614" stroke-linecap="round" stroke-linejoin="round"/>
<path d="M232.936 55.6998L222.703 55.6998L222.703 87.6252L254.629 87.6252L254.629 76.4082M245.137 55.6998L254.629 55.6998L254.629 65.1911" stroke="#003763" stroke-width="3.35614" stroke-linecap="round" stroke-linejoin="round"/>
<path d="M254.629 76.4086L254.22 76.4086L250.414 76.4086C247.317 76.4086 244.806 73.8975 244.806 70.8C244.806 67.7025 247.317 65.1915 250.414 65.1915L254.22 65.1915L254.629 65.1915" stroke="#003763" stroke-width="3.35614" stroke-linecap="round" stroke-linejoin="round"/>
<path d="M254.629 77.3927L254.629 87.6253L286.555 87.6253L286.555 55.6998L275.338 55.6998M254.629 65.1912L254.629 55.6998L264.121 55.6998" stroke="#003763" stroke-width="3.35614" stroke-linecap="round" stroke-linejoin="round"/>
<path d="M275.34 55.6995L275.34 56.1088L275.34 59.9142C275.34 63.0117 272.829 65.5227 269.731 65.5227C266.634 65.5227 264.123 63.0117 264.123 59.9142L264.123 56.1088L264.123 55.6995" stroke="#003763" stroke-width="3.35614" stroke-linecap="round" stroke-linejoin="round"/>
<path d="M291.854 34.1284L302.086 34.1284L302.086 2.20291L270.161 2.20291L270.161 13.42M279.652 34.1284L270.161 34.1284L270.161 24.637" stroke="#003763" stroke-width="3.35614" stroke-linecap="round" stroke-linejoin="round"/>
<path d="M291.731 34.1287L291.731 34.5601L291.731 38.4429C291.731 41.7787 289.026 44.4829 285.691 44.4829C282.355 44.4829 279.651 41.7787 279.651 38.4429L279.651 34.5601L279.651 34.1287" stroke="#003763" stroke-width="3.35614" stroke-linecap="round" stroke-linejoin="round"/>
<path d="M270.16 13.4202L270.57 13.4202L274.375 13.4202C277.473 13.4202 279.984 15.9312 279.984 19.0287C279.984 22.1262 277.473 24.6373 274.375 24.6373L270.57 24.6373L270.16 24.6373" stroke="#003763" stroke-width="3.35614" stroke-linecap="round" stroke-linejoin="round"/>
</svg>
