<svg width="337" height="343" viewBox="0 0 337 343" fill="none" xmlns="http://www.w3.org/2000/svg">
<path d="M25.5471 240.726C13.4443 218.092 6.58203 192.234 6.58203 164.772C6.58203 75.7039 78.7678 3.5 167.813 3.5C184.424 3.5 200.447 6.01235 215.525 10.6779M103.841 312.851C123.453 321.339 145.084 326.044 167.813 326.044C256.859 326.044 329.045 253.84 329.045 164.772C329.045 144.479 325.298 125.062 318.458 107.175" stroke="#003763" stroke-width="7" stroke-linecap="round" stroke-linejoin="round"/>
<path d="M148.432 168.313H146.48V170.266V188.331C146.48 188.611 145.723 192.237 136.717 192.237V192.434C136.518 192.49 136.257 192.562 135.941 192.651C135.153 192.871 134.022 193.188 132.646 193.578C129.896 194.357 126.165 195.428 122.25 196.59C118.337 197.752 114.229 199.01 110.725 200.162C107.269 201.299 104.265 202.378 102.652 203.185C99.6693 204.677 96.4036 206.539 93.7386 209.447C91.0349 212.397 89.0371 216.324 88.4058 221.797C87.2129 232.138 87.9037 241.681 88.4126 245.244L88.652 246.921H90.3454H248.01H249.929L249.962 245.002L249.962 244.999L249.962 244.988L249.963 244.948L249.966 244.79L249.976 244.187C249.984 243.666 249.995 242.917 250.008 242.005C250.034 240.182 250.064 237.706 250.085 235.096C250.125 229.93 250.127 224.09 249.957 221.871C249.615 217.423 247.357 206.906 236.452 203.089C227.355 199.904 209.72 194.496 201.799 192.343L201.807 192.245C200.056 192.092 197.418 191.632 195.23 190.783C194.133 190.357 193.256 189.875 192.663 189.366C192.081 188.867 191.898 188.457 191.866 188.137C191.494 184.416 191.707 176.535 191.871 170.454V170.454L191.875 170.319L191.929 168.313H189.923H148.432Z" fill="white"/>
<path fill-rule="evenodd" clip-rule="evenodd" d="M167.695 72.6167C192.801 72.6168 213.393 92.5083 214.262 117.599L216.18 172.987C216.415 179.773 210.977 185.402 204.187 185.402H189.765V172.219C182.931 175.311 165.261 179.641 149.25 172.219V185.402H130.525C123.699 185.402 118.248 179.716 118.536 172.896L119.473 150.737L120.937 120.465L121.188 116.365C122.692 91.7828 143.067 72.6167 167.695 72.6167Z" fill="white"/>
<path fill-rule="evenodd" clip-rule="evenodd" d="M166.694 79.4521C190.815 79.4524 210.604 98.5559 211.453 122.662L213.243 173.468C213.482 180.256 208.044 185.89 201.251 185.891H189.765V173.196C182.931 176.289 165.26 180.618 149.25 173.196V185.891H131.512C124.682 185.891 119.229 180.198 119.522 173.375L120.39 153.176L121.797 124.607L121.994 121.455C123.465 97.8469 143.04 79.4521 166.694 79.4521Z" fill="#D0EDFC"/>
<path d="M176.883 113.87C181.738 121.814 189.953 128.971 203.817 131.35L203.578 132.752H205.872V144.668C205.872 162.041 191.833 176.125 174.515 176.125H165.963C148.645 176.125 134.605 162.041 134.605 144.668V114.164H136.71L137.255 112.888C138.796 113.551 141.051 113.72 143.877 113.356C146.663 112.996 149.805 112.145 152.981 110.979C158.882 108.813 164.65 105.656 168.193 102.888L176.883 113.87Z" fill="white"/>
<path d="M167.312 90.1938C167.801 102.4 173.756 128.082 203.434 133.16" stroke="#003763" stroke-width="5" stroke-linecap="round"/>
<path d="M201.48 194.19C197.086 192.726 191.131 192.237 190.741 188.331C190.35 184.425 190.578 176.288 190.741 170.266M149.25 171.731V188.331C149.25 190.284 146.81 191.749 137.535 194.19" stroke="#003763" stroke-width="5" stroke-linecap="round"/>
<path d="M167.018 215.499C183.469 215.499 197.408 205.474 200.071 200.673C207.591 202.509 224.677 207.227 233.442 209.992C242.842 212.957 241.945 219.272 242.258 222.943C242.572 226.614 242.258 244.727 242.258 244.727H89.4666C88.9966 241.762 88.3386 233.629 89.4666 224.818C90.5946 216.007 96.2712 208.316 101.911 205.774C107.551 203.233 134.812 196.455 134.812 196.455C138.729 201.821 150.457 215.499 167.018 215.499Z" fill="#D0EDFC"/>
<path d="M163.425 210.61C150.16 208.146 140.998 199.457 137.534 194.19C137.534 194.19 109.223 202.002 103.365 204.932C97.5078 207.861 91.3574 211.865 90.1859 222.021C89.0144 232.176 89.6978 241.55 90.1859 244.968H247.851C247.851 244.968 248.176 226.252 247.851 222.021C247.525 217.789 245.41 208.35 235.647 204.932C226.544 201.745 208.8 196.306 200.99 194.19C198.524 199.125 189.976 208.848 176.039 210.895" stroke="#003763" stroke-width="5" stroke-linecap="round" stroke-linejoin="round"/>
<path d="M134.605 113.629L134.605 144.149C134.605 161.269 148.485 175.149 165.605 175.149H174.36C190.908 175.149 204.538 162.152 205.325 145.623L205.384 144.389" stroke="#003763" stroke-width="5" stroke-linecap="round"/>
<path d="M169.263 102.888C161.941 110.212 153.154 116.559 135.094 113.63" stroke="#003763" stroke-width="5" stroke-linecap="round"/>
<path d="M148.516 185.89H131.5C124.674 185.89 119.223 180.205 119.51 173.386L120.449 151.075L121.913 120.672L122.175 116.368C123.674 91.7857 144.046 72.6167 168.674 72.6167C193.778 72.6167 214.366 92.5081 215.231 117.597L217.158 173.477C217.392 180.262 211.954 185.89 205.165 185.89H190.007" stroke="#003763" stroke-width="5"/>
<rect x="164.523" y="214.009" width="14.2586" height="29.6214" fill="white"/>
<path d="M163.973 210.717L163.973 244.178" stroke="#003763" stroke-width="5" stroke-linecap="round" stroke-linejoin="round"/>
<path d="M176.039 211.814L176.039 244.179" stroke="#003763" stroke-width="5" stroke-linecap="round" stroke-linejoin="round"/>
<path d="M175.489 211.398L170.005 216.751L163.973 210.717" stroke="#003763" stroke-width="5" stroke-linecap="round" stroke-linejoin="round"/>
<path d="M30.1251 265.32C29.2929 265.906 29.0072 267.023 29.4427 267.989L32.5003 274.776C32.0536 275.495 31.5646 276.371 31.1355 277.307C30.7177 278.218 30.2946 279.318 30.0705 280.457L21.0963 282.301C20.0148 282.523 19.3084 283.549 19.4626 284.672L21.1579 297.03C21.3182 298.198 22.3507 299.069 23.5026 299.007L31.5479 298.578C31.9309 299.427 32.4144 300.375 32.9762 301.283C33.5475 302.206 34.3249 303.298 35.3003 304.16L33.163 311.701C32.8809 312.696 33.3389 313.784 34.2572 314.299L44.1494 319.85C45.1857 320.432 46.457 320.095 47.0269 319.088L51.226 311.669C52.1531 311.776 53.2372 311.843 54.3386 311.813C55.4934 311.781 56.8569 311.638 58.1097 311.201L64.2106 317.481C64.9685 318.261 66.1496 318.393 67.0032 317.792L70.5385 315.307C70.5508 315.298 70.563 315.29 70.5752 315.281L74.9187 312.227C75.7722 311.627 76.048 310.471 75.5706 309.493L75.074 301.625C75.9088 300.594 76.5049 299.359 76.926 298.283C79.8106 298.283 77.6312 296.214 77.8444 295.305L94.0511 290.518C95.1912 290.322 92.5929 289.24 92.3967 288.068L90.9619 277.307C94.1884 276.62 86.1361 276.155 85.1043 276.084L77.2868 275.543C76.8061 274.333 76.433 271.493 75.3668 270.151C74.7028 269.314 73.9747 268.539 73.3056 267.891L71.9725 264.925C72.4203 263.862 71.9506 262.595 70.9058 262.049L59.8552 256.27C58.8501 255.745 57.6464 256.063 57.0712 257.005L52.299 264.828C51.1511 264.653 49.9736 264.679 48.9746 264.764C47.9487 264.851 46.9593 265.014 46.132 265.191L40.7825 260.016C40.0206 259.279 38.873 259.17 38.0407 259.755L34.5055 262.241C34.4932 262.249 34.4809 262.258 34.4687 262.266L30.1251 265.32Z" fill="#D0EDFC"/>
<path d="M45.7401 277.232C51.8541 272.933 60.2943 274.405 64.592 280.52C68.8896 286.635 67.4172 295.078 61.3033 299.377C55.1893 303.676 46.7491 302.204 42.4514 296.089C38.1538 289.974 39.6262 281.531 45.7401 277.232Z" fill="white" stroke="#003763" stroke-width="5" stroke-linecap="round" stroke-linejoin="round"/>
<ellipse cx="9.82812" cy="9.82817" rx="9.82812" ry="9.82817" transform="matrix(0.81801 -0.575204 0.575 0.818154 37.2383 287.335)" fill="#D0EDFC"/>
<path d="M76.4494 319.97L70.5829 324.095L61.1648 314.532C58.2767 316.563 52.4315 316.177 49.8699 315.73L43.1141 327.225L30.0858 320.2L33.7677 308.169C30.8011 307.018 28.3021 301.672 27.4235 299.142L14.5916 300.073L12.662 283.895L26.6645 280.793C26.586 277.611 29.3306 273.073 30.7127 271.202L26.1736 260.906L32.0401 256.781" stroke="#003763" stroke-width="5" stroke-linecap="round" stroke-linejoin="round"/>
<path d="M45.7401 277.232C51.8541 272.933 60.2943 274.405 64.592 280.52C68.8896 286.635 67.4172 295.078 61.3033 299.377C55.1893 303.676 46.7491 302.204 42.4514 296.089C38.1538 289.974 39.6262 281.531 45.7401 277.232Z" stroke="#003763" stroke-width="5" stroke-linecap="round" stroke-linejoin="round"/>
<path d="M75.4044 320.705L81.2709 316.579L75.4629 304.478C78.3511 302.447 79.9668 296.815 80.4137 294.252L93.5137 291.785L91.3159 277.145L78.7521 276.538C78.6736 273.356 74.4899 269.194 72.4079 267.511L77.6268 255.748L63.0616 248.455L55.4032 260.584C52.4366 259.433 47.2389 260.481 45.0108 261.148L36.8616 253.39L30.9951 257.516" stroke="#003763" stroke-width="5" stroke-linecap="round" stroke-linejoin="round"/>
<path fill-rule="evenodd" clip-rule="evenodd" d="M319.049 27.6362C321.541 27.6362 323.56 29.5373 323.56 31.8824V84.5244C323.56 86.8695 321.541 88.7706 319.049 88.7706H272.792L250.546 112.329C247.791 115.247 242.664 126.522 242.664 109.508V88.7706H233.745C231.254 88.7706 229.234 86.8695 229.234 84.5244V31.8824C229.234 29.5373 231.254 27.6362 233.745 27.6362H319.049Z" fill="#D0EDFC"/>
<path d="M241.38 88.3414H228.308C227.002 88.3414 225.944 87.2832 225.944 85.9778V21.223C225.944 19.9176 227.002 18.8594 228.308 18.8594H331.636C332.942 18.8594 334 19.9176 334 21.223V85.9778C334 87.2832 332.942 88.3414 331.636 88.3414H272.897" stroke="#003763" stroke-width="4.72727" stroke-linecap="round"/>
<path d="M272.254 88.3417L245.511 118.435C244.067 120.06 241.381 119.038 241.381 116.865V88.3417" stroke="#003763" stroke-width="4.72727" stroke-linecap="round"/>
<line x1="3" y1="-3" x2="74.9002" y2="-3" transform="matrix(-1 0 0 1 316.648 39.1396)" stroke="#003763" stroke-width="6" stroke-linecap="round"/>
<line x1="3" y1="-3" x2="63.1618" y2="-3" transform="matrix(-1 0 0 1 316.648 55.1509)" stroke="#003763" stroke-width="6" stroke-linecap="round"/>
<line x1="3" y1="-3" x2="70.6317" y2="-3" transform="matrix(-1 0 0 1 316.648 72.229)" stroke="#003763" stroke-width="6" stroke-linecap="round"/>
<path d="M241.38 88.3414H228.308C227.002 88.3414 225.944 87.2832 225.944 85.9778V21.223C225.944 19.9176 227.002 18.8594 228.308 18.8594H331.636C332.942 18.8594 334 19.9176 334 21.223V85.9778C334 87.2832 332.942 88.3414 331.636 88.3414H272.897" stroke="#003763" stroke-width="4.72727" stroke-linecap="round"/>
<path d="M272.254 88.3417L245.511 118.435C244.067 120.06 241.381 119.038 241.381 116.865V88.3417" stroke="#003763" stroke-width="4.72727" stroke-linecap="round"/>
<line x1="3" y1="-3" x2="74.9002" y2="-3" transform="matrix(-1 0 0 1 316.648 39.1396)" stroke="#003763" stroke-width="6" stroke-linecap="round"/>
<line x1="3" y1="-3" x2="63.1618" y2="-3" transform="matrix(-1 0 0 1 316.648 55.1509)" stroke="#003763" stroke-width="6" stroke-linecap="round"/>
<line x1="3" y1="-3" x2="70.6317" y2="-3" transform="matrix(-1 0 0 1 316.648 72.229)" stroke="#003763" stroke-width="6" stroke-linecap="round"/>
</svg>
