<svg width="232" height="144" viewBox="0 0 232 144" fill="none" xmlns="http://www.w3.org/2000/svg">
<path d="M52.1738 63.4716H44.877V78.8768H52.1738V63.4716ZM55.1738 81.8768H41.877V60.4716H55.1738V81.8768Z" fill="white"/>
<path d="M70.8252 44.0122H62.7168V78.8774H70.8252V44.0122ZM73.8252 81.8774H59.7168V41.0122H73.8252V81.8774Z" fill="white"/>
<path d="M108.122 44.0122H100.014V78.8774H108.122V44.0122ZM111.122 81.8774H97.0137V41.0122H111.122V81.8774Z" fill="white"/>
<path d="M89.4736 54.5527H81.3652V78.877H89.4736V54.5527ZM92.4736 81.877H78.3652V51.5527H92.4736V81.877Z" fill="white"/>
<path d="M125.959 54.5527H118.662V78.877H125.959V54.5527ZM128.959 81.877H115.662V51.5527H128.959V81.877Z" fill="white"/>
<path d="M51.3633 47.2552C51.3632 45.4641 49.9113 44.0121 48.1201 44.0121C46.329 44.0121 44.877 45.4641 44.877 47.2552C44.877 49.0464 46.329 50.4984 48.1201 50.4984C49.9113 50.4984 51.3633 49.0464 51.3633 47.2552ZM54.3633 47.2552C54.3633 50.7033 51.5682 53.4984 48.1201 53.4984C44.6721 53.4984 41.877 50.7033 41.877 47.2552C41.877 43.8073 44.6721 41.0121 48.1201 41.0121C51.5681 41.0121 54.3632 43.8072 54.3633 47.2552Z" fill="white"/>
<path d="M70.8242 22.1201C70.8242 20.329 69.3722 18.877 67.5811 18.877C65.7899 18.877 64.3379 20.329 64.3379 22.1201C64.3379 23.9113 65.7899 25.3632 67.5811 25.3633C69.3722 25.3633 70.8242 23.9113 70.8242 22.1201ZM73.8242 22.1201C73.8242 25.5682 71.0291 28.3633 67.5811 28.3633C64.133 28.3632 61.3379 25.5681 61.3379 22.1201C61.3379 18.6721 64.1331 15.877 67.5811 15.877C71.0291 15.877 73.8242 18.6721 73.8242 22.1201Z" fill="white"/>
<path d="M87.8516 40.7686C87.8515 38.9774 86.3996 37.5254 84.6084 37.5254C82.8173 37.5254 81.3653 38.9774 81.3652 40.7686C81.3652 42.5597 82.8172 44.0117 84.6084 44.0117C86.3996 44.0117 87.8516 42.5597 87.8516 40.7686ZM90.8516 40.7686C90.8516 44.2166 88.0564 47.0117 84.6084 47.0117C81.1604 47.0117 78.3652 44.2166 78.3652 40.7686C78.3653 37.3206 81.1604 34.5254 84.6084 34.5254C88.0564 34.5254 90.8515 37.3205 90.8516 40.7686Z" fill="white"/>
<path d="M107.309 28.6064C107.309 26.8153 105.857 25.3633 104.065 25.3633C102.274 25.3633 100.822 26.8153 100.822 28.6064C100.822 30.3976 102.274 31.8496 104.065 31.8496C105.857 31.8496 107.309 30.3976 107.309 28.6064ZM110.309 28.6064C110.309 32.0545 107.513 34.8496 104.065 34.8496C100.617 34.8496 97.8223 32.0545 97.8223 28.6064C97.8223 25.1585 100.617 22.3633 104.065 22.3633C107.513 22.3633 110.309 25.1584 110.309 28.6064Z" fill="white"/>
<path d="M125.957 41.5796C125.957 39.7884 124.505 38.3364 122.714 38.3364C120.923 38.3365 119.471 39.7885 119.471 41.5796C119.471 43.3708 120.923 44.8227 122.714 44.8228C124.505 44.8228 125.957 43.3708 125.957 41.5796ZM128.957 41.5796C128.957 45.0276 126.162 47.8228 122.714 47.8228C119.266 47.8227 116.471 45.0276 116.471 41.5796C116.471 38.1316 119.266 35.3365 122.714 35.3364C126.162 35.3364 128.957 38.1316 128.957 41.5796Z" fill="white"/>
<path d="M62.7364 23.5806L65.1489 25.3638L51.3653 44.0122L48.9528 42.229L62.7364 23.5806Z" fill="white"/>
<path d="M83.6909 36.4441L81.3626 38.3359L70.8223 25.3633L73.1506 23.4715L83.6909 36.4441Z" fill="white"/>
<path d="M99.4129 29.2027L100.825 31.8497L88.6621 38.3364L87.2504 35.6894L99.4129 29.2027Z" fill="white"/>
<path d="M120.885 35.6897L119.473 38.3368L107.311 31.8501L108.722 29.203L120.885 35.6897Z" fill="white"/>
<path d="M176.551 6.88184C176.551 5.15446 175.15 3.75414 173.423 3.75391H6.88184C5.15447 3.75416 3.75416 5.15447 3.75391 6.88184V112.294C3.75391 114.022 5.15431 115.423 6.88184 115.423H141.877V119.177H6.88184C3.08102 119.177 0 116.095 0 112.294V6.88184C0.000253303 3.08119 3.08119 0.000251497 6.88184 0H173.423C177.224 0.000230885 180.304 3.08117 180.305 6.88184V39.377H176.551V6.88184Z" fill="white"/>
<path d="M136.377 96.2487V100.003H1.87695V96.2487H136.377Z" fill="white"/>
<path d="M75.001 133.626L74.7451 133.613C73.483 133.485 72.498 132.418 72.498 131.123V117.299H108.568V131.123C108.568 132.505 107.447 133.626 106.065 133.626H75.001ZM76.252 129.872H104.814V121.053H76.252V129.872Z" fill="white"/>
<path d="M106.985 123.894C115.521 124.469 122.546 125.518 127.484 126.901C129.94 127.589 131.992 128.389 133.472 129.325C134.864 130.206 136.263 131.544 136.263 133.436C136.263 134.684 135.621 135.689 134.859 136.428C134.102 137.163 133.085 137.781 131.94 138.314C129.642 139.385 126.42 140.3 122.547 141.051C114.769 142.558 103.964 143.476 91.6719 143.476C79.3794 143.476 68.2021 142.557 60.0547 141.054C55.9965 140.305 52.5955 139.394 50.165 138.334C48.9567 137.807 47.8823 137.197 47.0811 136.475C46.2854 135.757 45.5625 134.74 45.5625 133.436C45.5626 131.522 47.0772 130.229 48.4277 129.42C49.9093 128.532 51.9521 127.765 54.3623 127.099C59.2115 125.759 65.9865 124.712 73.8662 124.078L74.167 127.82C66.4047 128.445 59.8911 129.465 55.3623 130.717C53.0836 131.346 51.415 132.006 50.3574 132.64C49.6996 133.034 49.453 133.31 49.3623 133.437C49.4047 133.493 49.474 133.579 49.5947 133.688C49.9719 134.028 50.6362 134.443 51.666 134.893C53.7121 135.785 56.7892 136.634 60.7354 137.362C68.5969 138.813 79.5357 139.722 91.6719 139.722C103.809 139.722 114.361 138.813 121.833 137.365C125.584 136.638 128.461 135.794 130.354 134.912C131.306 134.469 131.907 134.061 132.245 133.733C132.401 133.582 132.467 133.479 132.495 133.427C132.448 133.323 132.254 132.997 131.465 132.498C130.432 131.845 128.78 131.162 126.472 130.516C121.884 129.231 115.145 128.207 106.732 127.64L106.985 123.894Z" fill="white"/>
<path d="M160.046 66.877C160.403 66.877 160.724 67.0905 160.795 67.4453L162.722 75.2998C162.829 75.2643 162.936 75.2637 163.043 75.2637H201.533C201.747 75.2637 201.962 75.3347 202.176 75.4414C202.39 75.5126 202.568 75.6912 202.71 75.8682L202.746 75.9395C202.853 76.1172 202.924 76.2954 202.96 76.5078C202.996 76.7212 202.996 76.9693 202.925 77.1826L198.528 90.3467C197.819 90.6484 197.158 91.0397 196.558 91.5059L197.182 89.6572H190.618L189.869 94.3125H194.176C193.92 94.7857 193.706 95.2848 193.538 95.8047H167.323C167.216 95.8047 167.109 95.8051 167.002 95.7695C166.931 95.8049 166.859 95.8047 166.788 95.8047C166.039 95.8047 165.539 96.2306 165.325 96.7998C165.218 97.0133 165.183 97.2974 165.183 97.582C165.183 97.831 165.254 98.1149 165.361 98.3994C165.647 99.0744 166.396 99.6436 167.608 99.6436H193.178C193.264 100.342 193.429 101.016 193.667 101.655C193.573 101.726 193.483 101.8 193.4 101.882C192.937 102.343 192.651 102.984 192.651 103.659C192.651 104.37 192.937 104.974 193.4 105.437C193.828 105.898 194.471 106.183 195.185 106.183C195.761 106.183 196.265 105.993 196.684 105.678C197.105 105.993 197.557 106.27 198.031 106.508C197.283 107.251 196.287 107.677 195.184 107.677C194.077 107.677 193.043 107.25 192.329 106.503C191.58 105.792 191.151 104.762 191.151 103.66C191.151 102.736 191.473 101.847 192.044 101.172H170.783C171.354 101.847 171.675 102.735 171.675 103.659C171.675 104.761 171.211 105.791 170.497 106.503C169.784 107.249 168.749 107.676 167.644 107.676C166.538 107.676 165.539 107.25 164.789 106.503C164.076 105.792 163.611 104.761 163.611 103.659C163.611 102.557 164.075 101.562 164.789 100.815C164.932 100.709 165.075 100.602 165.217 100.46C164.646 100.104 164.218 99.5713 163.968 99.0029C163.789 98.5414 163.682 98.0788 163.682 97.6172C163.646 97.1201 163.754 96.6574 163.896 96.2314C164.254 95.3787 164.895 94.7042 165.858 94.4551L159.476 68.3691H152.626C152.198 68.3691 151.877 68.0499 151.877 67.623C151.877 67.1962 152.198 66.877 152.626 66.877H160.046ZM167.608 101.172C166.931 101.172 166.325 101.456 165.86 101.882C165.397 102.343 165.111 102.984 165.111 103.659C165.111 104.37 165.397 104.974 165.86 105.437C166.324 105.898 166.967 106.183 167.645 106.183C168.358 106.183 168.964 105.898 169.428 105.437C169.891 105.011 170.177 104.37 170.177 103.659C170.177 102.949 169.891 102.344 169.428 101.882C168.964 101.456 168.357 101.172 167.68 101.172H167.608ZM175.491 94.3125H181.164L181.271 89.6572H174.957L175.491 94.3125ZM182.662 94.3125H188.334L189.083 89.6572H182.77L182.662 94.3125ZM167.36 94.3125H173.959L173.424 89.6572H166.254L167.36 94.3125ZM174.779 88.165H181.307L181.414 82.9404H174.173L174.779 88.165ZM182.805 88.165H189.333L190.153 82.9404H182.912L182.805 88.165ZM190.832 88.165H197.682L199.394 82.9404H191.688L190.832 88.165ZM165.862 88.165H173.245L172.639 82.9404H164.613L165.862 88.165ZM173.994 81.4482H181.414L181.521 76.7568H173.424L173.994 81.4482ZM192.646 76.917C192.642 76.9701 192.633 77.0231 192.615 77.0762L191.938 81.4482H199.93L201.463 76.7568H192.651L192.646 76.917ZM164.256 81.4473H172.461L171.926 76.9697V76.7568H163.114L164.256 81.4473ZM182.948 81.4473H190.403L191.152 76.7568H183.02L182.948 81.4473Z" fill="white"/>
<path d="M211.771 98.9727C211.771 94.0549 207.785 90.0684 202.867 90.0684C197.949 90.0684 193.963 94.055 193.963 98.9727C193.963 103.89 197.949 107.877 202.867 107.877C207.785 107.877 211.771 103.89 211.771 98.9727ZM213.527 98.9727C213.527 104.86 208.754 109.633 202.867 109.633C196.98 109.633 192.207 104.86 192.207 98.9727C192.207 93.0855 196.98 88.3125 202.867 88.3125C208.754 88.3125 213.527 93.0855 213.527 98.9727Z" fill="white"/>
<path d="M203.981 102.522C203.981 103.072 203.536 103.518 202.986 103.518C202.437 103.518 201.991 103.072 201.991 102.522L201.991 95.6514C201.991 95.1018 202.437 94.6562 202.986 94.6562C203.536 94.6562 203.981 95.1018 203.981 95.6514L203.981 102.522Z" fill="white"/>
<path d="M199.549 100.083C198.999 100.083 198.554 99.6369 198.554 99.0874C198.554 98.5379 198.999 98.0923 199.549 98.0923L206.42 98.0923C206.969 98.0923 207.415 98.5379 207.415 99.0874C207.415 99.6369 206.969 100.083 206.42 100.083L199.549 100.083Z" fill="white"/>
<path d="M227.877 87.877C227.877 62.4719 207.282 41.877 181.877 41.877C156.472 41.877 135.877 62.4719 135.877 87.877C135.877 113.282 156.472 133.877 181.877 133.877V137.877C154.263 137.877 131.877 115.491 131.877 87.877C131.877 60.2627 154.263 37.877 181.877 37.877C209.491 37.877 231.877 60.2627 231.877 87.877C231.877 115.491 209.491 137.877 181.877 137.877V133.877C207.282 133.877 227.877 113.282 227.877 87.877Z" fill="white"/>
</svg>
