<svg width="167" height="168" viewBox="0 0 167 168" fill="none" xmlns="http://www.w3.org/2000/svg">
<circle cx="72.5376" cy="41.5145" r="17.5376" stroke="white" stroke-width="3" stroke-linecap="round" stroke-linejoin="round"/>
<mask id="path-2-outside-1_3086_12515" maskUnits="userSpaceOnUse" x="61.9189" y="30.8944" width="21" height="21" fill="black">
<rect fill="white" x="61.9189" y="30.8944" width="21" height="21"/>
<path d="M75.0195 39.1541L79.6484 39.1551V43.994H75.0195V48.6239H70.1797V43.994H64.9189V39.1541H70.1797V33.8944H75.0195V39.1541Z"/>
</mask>
<path d="M75.0195 39.1541H72.0195C72.0195 40.8108 73.3623 42.1538 75.0189 42.1541L75.0195 39.1541ZM79.6484 39.1551H82.6484C82.6484 37.4985 81.3057 36.1555 79.6491 36.1551L79.6484 39.1551ZM79.6484 43.994V46.994C81.3053 46.994 82.6484 45.6508 82.6484 43.994H79.6484ZM75.0195 43.994V40.994C73.3627 40.994 72.0195 42.3371 72.0195 43.994H75.0195ZM75.0195 48.6239V51.6239C76.6764 51.6239 78.0195 50.2807 78.0195 48.6239H75.0195ZM70.1797 48.6239H67.1797C67.1797 50.2807 68.5228 51.6239 70.1797 51.6239V48.6239ZM70.1797 43.994H73.1797C73.1797 42.3371 71.8365 40.994 70.1797 40.994V43.994ZM64.9189 43.994H61.9189C61.9189 45.6508 63.2621 46.994 64.9189 46.994V43.994ZM64.9189 39.1541V36.1541C63.2621 36.1541 61.9189 37.4973 61.9189 39.1541H64.9189ZM70.1797 39.1541V42.1541C71.8365 42.1541 73.1797 40.811 73.1797 39.1541H70.1797ZM70.1797 33.8944V30.8944C68.5228 30.8944 67.1797 32.2375 67.1797 33.8944H70.1797ZM75.0195 33.8944H78.0195C78.0195 32.2375 76.6764 30.8944 75.0195 30.8944V33.8944ZM75.0195 39.1541L75.0189 42.1541L79.6478 42.1551L79.6484 39.1551L79.6491 36.1551L75.0202 36.1541L75.0195 39.1541ZM79.6484 39.1551H76.6484V43.994H79.6484H82.6484V39.1551H79.6484ZM79.6484 43.994V40.994H75.0195V43.994V46.994H79.6484V43.994ZM75.0195 43.994H72.0195V48.6239H75.0195H78.0195V43.994H75.0195ZM75.0195 48.6239V45.6239H70.1797V48.6239V51.6239H75.0195V48.6239ZM70.1797 48.6239H73.1797V43.994H70.1797H67.1797V48.6239H70.1797ZM70.1797 43.994V40.994H64.9189V43.994V46.994H70.1797V43.994ZM64.9189 43.994H67.9189V39.1541H64.9189H61.9189V43.994H64.9189ZM64.9189 39.1541V42.1541H70.1797V39.1541V36.1541H64.9189V39.1541ZM70.1797 39.1541H73.1797V33.8944H70.1797H67.1797V39.1541H70.1797ZM70.1797 33.8944V36.8944H75.0195V33.8944V30.8944H70.1797V33.8944ZM75.0195 33.8944H72.0195V39.1541H75.0195H78.0195V33.8944H75.0195Z" fill="white" mask="url(#path-2-outside-1_3086_12515)"/>
<circle cx="98.1581" cy="21.8378" r="7.83776" stroke="white" stroke-width="3" stroke-linecap="round" stroke-linejoin="round"/>
<circle cx="105.072" cy="42.2752" r="7.83776" stroke="white" stroke-width="3" stroke-linecap="round" stroke-linejoin="round"/>
<circle cx="98.1581" cy="61.5604" r="7.83776" stroke="white" stroke-width="3" stroke-linecap="round" stroke-linejoin="round"/>
<path d="M143 79.5V11.5C143 6.80558 139.194 3 134.5 3H31.5C26.8056 3 23 6.80558 23 11.5V79.5C23 84.1944 26.8056 88 31.5 88H67.3359C68.1643 88.0001 68.8359 88.6716 68.8359 89.5C68.8359 90.3284 68.1643 90.9999 67.3359 91H31.5C25.1487 91 20 85.8513 20 79.5V11.5C20 5.14873 25.1487 0 31.5 0H134.5C140.851 0 146 5.14873 146 11.5V79.5C146 85.8513 140.851 91 134.5 91H100.806C99.9774 90.9998 99.3057 90.3283 99.3057 89.5C99.3057 88.6717 99.9774 88.0002 100.806 88H134.5C139.194 88 143 84.1944 143 79.5Z" fill="white"/>
<path d="M88.8604 127.5V130.5H79.1396V127.5H88.8604ZM102.5 113.86V99C102.5 88.7827 94.2173 80.5 84 80.5C73.7827 80.5 65.5 88.7827 65.5 99V113.86C65.5 121.393 71.6067 127.5 79.1396 127.5V130.5L78.71 130.494C69.7187 130.266 62.5 122.906 62.5 113.86V99C62.5 87.1259 72.1259 77.5 84 77.5C95.8741 77.5 105.5 87.1259 105.5 99V113.86C105.5 123.05 98.0501 130.5 88.8604 130.5V127.5C96.3933 127.5 102.5 121.393 102.5 113.86Z" fill="white"/>
<path d="M103.5 149.5V152.5H64.5V149.5H103.5ZM108.5 144.5C108.5 141.739 106.261 139.5 103.5 139.5H64.5C61.7386 139.5 59.5 141.739 59.5 144.5C59.5 147.261 61.7386 149.5 64.5 149.5V152.5L64.0879 152.489C59.8611 152.275 56.5 148.78 56.5 144.5C56.5 140.22 59.8611 136.725 64.0879 136.511L64.5 136.5H103.5C107.918 136.5 111.5 140.082 111.5 144.5C111.5 148.918 107.918 152.5 103.5 152.5V149.5C106.261 149.5 108.5 147.261 108.5 144.5Z" fill="white"/>
<path d="M82 136.5V129.5C82 128.672 82.6716 128 83.5 128C84.3284 128 85 128.672 85 129.5V136.5C85 137.328 84.3284 138 83.5 138C82.6716 138 82 137.328 82 136.5Z" fill="white"/>
<path d="M82 166.5V152.5C82 151.672 82.6716 151 83.5 151C84.3284 151 85 151.672 85 152.5V166.5C85 167.328 84.3284 168 83.5 168C82.6716 168 82 167.328 82 166.5Z" fill="white"/>
<path d="M100.5 165C101.328 165 102 165.672 102 166.5C102 167.328 101.328 168 100.5 168H67.5C66.6716 168 66 167.328 66 166.5C66 165.672 66.6716 165 67.5 165H100.5Z" fill="white"/>
<path d="M0 166.5V133.113C5.34015e-05 132.847 0.0709268 132.586 0.205078 132.356L19.2637 99.7432L19.375 99.5791C19.6568 99.2167 20.0923 99.0001 20.5586 99H62.5195C63.348 99 64.0195 99.6716 64.0195 100.5C64.0195 101.328 63.348 102 62.5195 102H21.4199L3 133.519V166.5C3 167.328 2.32843 168 1.5 168C0.671573 168 0 167.328 0 166.5ZM164 166.5V133.53L144.979 102H104.48C103.652 102 102.98 101.328 102.98 100.5C102.98 99.6716 103.652 99 104.48 99H145.826L146.021 99.0127C146.47 99.0716 146.873 99.3319 147.11 99.7256L166.784 132.339C166.925 132.573 167 132.84 167 133.113V166.5C167 167.328 166.328 168 165.5 168C164.672 168 164 167.328 164 166.5Z" fill="white"/>
<path d="M165.5 132C166.328 132 167 132.672 167 133.5C167 134.328 166.328 135 165.5 135H116.5C115.672 135 115 134.328 115 133.5C115 132.672 115.672 132 116.5 132H165.5Z" fill="white"/>
<path d="M52.5 132C53.3284 132 54 132.672 54 133.5C54 134.328 53.3284 135 52.5 135H2.5C1.67157 135 1 134.328 1 133.5C1 132.672 1.67157 132 2.5 132H52.5Z" fill="white"/>
<path d="M54.5 111C55.3284 111 56 111.672 56 112.5C56 113.328 55.3284 114 54.5 114H22.5C21.6716 114 21 113.328 21 112.5C21 111.672 21.6716 111 22.5 111H54.5Z" fill="white"/>
<path d="M27.5 121C27.5 120.724 27.2761 120.5 27 120.5C26.7239 120.5 26.5 120.724 26.5 121C26.5 121.276 26.7239 121.5 27 121.5V123.5C25.6193 123.5 24.5 122.381 24.5 121C24.5 119.619 25.6193 118.5 27 118.5C28.3807 118.5 29.5 119.619 29.5 121C29.5 122.381 28.3807 123.5 27 123.5V121.5C27.2761 121.5 27.5 121.276 27.5 121Z" fill="white"/>
<path d="M34.5 121C34.5 120.724 34.2761 120.5 34 120.5C33.7239 120.5 33.5 120.724 33.5 121C33.5 121.276 33.7239 121.5 34 121.5V123.5C32.6193 123.5 31.5 122.381 31.5 121C31.5 119.619 32.6193 118.5 34 118.5C35.3807 118.5 36.5 119.619 36.5 121C36.5 122.381 35.3807 123.5 34 123.5V121.5C34.2761 121.5 34.5 121.276 34.5 121Z" fill="white"/>
<path d="M41.5 121C41.5 120.724 41.2761 120.5 41 120.5C40.7239 120.5 40.5 120.724 40.5 121C40.5 121.276 40.7239 121.5 41 121.5V123.5C39.6193 123.5 38.5 122.381 38.5 121C38.5 119.619 39.6193 118.5 41 118.5C42.3807 118.5 43.5 119.619 43.5 121C43.5 122.381 42.3807 123.5 41 123.5V121.5C41.2761 121.5 41.5 121.276 41.5 121Z" fill="white"/>
<path d="M48.5 121C48.5 120.724 48.2761 120.5 48 120.5C47.7239 120.5 47.5 120.724 47.5 121C47.5 121.276 47.7239 121.5 48 121.5V123.5C46.6193 123.5 45.5 122.381 45.5 121C45.5 119.619 46.6193 118.5 48 118.5C49.3807 118.5 50.5 119.619 50.5 121C50.5 122.381 49.3807 123.5 48 123.5V121.5C48.2761 121.5 48.5 121.276 48.5 121Z" fill="white"/>
</svg>
