<svg width="189" height="155" viewBox="0 0 189 155" fill="none" xmlns="http://www.w3.org/2000/svg">
<path d="M185.417 139.064C185.417 132.272 179.91 126.767 173.118 126.767C166.326 126.767 160.821 132.273 160.82 139.064C160.82 145.75 166.156 151.191 172.801 151.359L173.118 151.363C179.804 151.363 185.244 146.028 185.413 139.383L185.417 139.064ZM188.417 139.064C188.417 147.513 181.567 154.363 173.118 154.363C164.669 154.363 157.82 147.513 157.82 139.064C157.821 130.616 164.67 123.767 173.118 123.767C181.567 123.767 188.417 130.616 188.417 139.064Z" fill="white"/>
<path d="M178.229 133.371C178.826 132.797 179.776 132.816 180.35 133.414C180.923 134.012 180.903 134.961 180.306 135.535L169.638 145.776L165.908 142.047C165.323 141.461 165.322 140.512 165.908 139.926C166.494 139.34 167.444 139.34 168.029 139.926L169.68 141.576L178.229 133.371Z" fill="white"/>
<path d="M178.147 120.618C178.147 104.742 165.278 91.8717 149.402 91.8716C133.526 91.8716 120.656 104.742 120.656 120.618C120.656 136.493 133.527 149.363 149.402 149.363C153.904 149.363 158.158 148.33 161.946 146.49L163.694 150.087C159.373 152.187 154.522 153.363 149.402 153.363C131.317 153.363 116.656 138.703 116.656 120.618C116.656 102.533 131.317 87.8716 149.402 87.8716C167.487 87.8717 182.147 102.533 182.147 120.618C182.147 122.693 181.954 124.726 181.584 126.697L177.653 125.958C177.978 124.229 178.147 122.444 178.147 120.618Z" fill="white"/>
<path d="M148.766 103.927V122.131H160.821V126.131H144.766V103.927H148.766Z" fill="white"/>
<path d="M124.409 46.29C124.409 29.3243 110.871 15.5198 94.0078 15.0928L93.2031 15.083C75.9682 15.083 61.9961 29.0551 61.9961 46.29L62.0059 47.0947C62.4261 63.69 75.8022 77.066 92.3975 77.4863L93.2031 77.4961C110.169 77.4959 123.972 63.9575 124.399 47.0947L124.409 46.29ZM129.137 46.29C129.137 66.1355 113.049 82.2234 93.2031 82.2236C73.3575 82.2236 57.2688 66.1356 57.2686 46.29C57.2686 26.4443 73.3574 10.3555 93.2031 10.3555C113.049 10.3557 129.137 26.4444 129.137 46.29Z" fill="white"/>
<path d="M51.4121 33.0508V4.72656H4.72656V33.0508H33.1328V37.7783H4.72656C2.11598 37.7781 9.99883e-05 35.6614 0 33.0508V4.72656C0.000193658 2.11605 2.11604 0.000191983 4.72656 0H51.4121C54.0228 0 56.1395 2.11593 56.1396 4.72656V33.0508C56.1395 35.6615 54.0229 37.7783 51.4121 37.7783H46.4316V33.0508H51.4121Z" fill="white"/>
<path d="M48.7949 33.5781V45.7227C48.7949 50.0695 43.422 52.1121 40.5342 48.8633L29.9756 36.9844L33.5088 33.8438L44.0674 45.7227V33.5781H48.7949Z" fill="white"/>
<path d="M46.4307 10.0708V13.3804H9.70703V10.0708H46.4307Z" fill="white"/>
<path d="M40.9219 17.4155V20.7251H9.70703V17.4155H40.9219Z" fill="white"/>
<path d="M44.5938 24.7603V28.0698H9.70703V24.7603H44.5938Z" fill="white"/>
<path d="M92.9678 87.2197C106.379 87.2198 118.932 89.9584 129.327 95.6201L127.066 99.7725C117.503 94.5636 105.763 91.9463 92.9678 91.9463C76.3645 91.9463 61.5648 96.3491 50.9629 105.089C40.8893 113.393 34.3947 125.782 33.8408 142.64H130.922V147.367H29.0742V145.004C29.0742 125.662 36.2254 111.111 47.9561 101.44C59.6235 91.8225 75.5893 87.2197 92.9678 87.2197Z" fill="white"/>
</svg>
