<svg width="129" height="151" viewBox="0 0 129 151" fill="none" xmlns="http://www.w3.org/2000/svg">
<path d="M17.0949 101.116C17.0946 100.15 16.3111 99.3666 15.3449 99.3664H5.9982C5.24809 99.3664 4.71324 98.9972 4.26578 98.2795C3.85091 97.6139 3.61589 96.7826 3.52554 96.1486L20.2628 32.5178C24.7645 20.1277 38.666 10.0245 55.1701 5.71603C71.6503 1.41381 90.1567 3.04949 103.482 13.466C114.889 22.3839 120.747 31.929 123.159 41.3342C125.579 50.765 124.576 60.2191 121.983 68.9973C119.388 77.781 115.223 85.8125 111.405 92.3527C109.495 95.6261 107.69 98.4945 106.201 100.923C104.749 103.293 103.531 105.345 102.934 106.839C101.118 111.38 100.12 119.401 99.5734 127.336C99.0806 134.489 98.9445 141.805 98.9709 146.947H39.59L42.6808 132.18H51.88C52.8465 132.18 53.63 131.396 53.63 130.43C53.6298 129.464 52.8464 128.68 51.88 128.68H28.089C22.0519 128.68 19.5333 127.144 18.3957 125.645C17.1836 124.047 17.0949 121.982 17.0949 119.81V101.116ZM13.5949 119.81C13.5949 121.857 13.591 125.102 15.6076 127.76C17.6986 130.516 21.552 132.18 28.089 132.18H39.1046L35.7228 148.339C35.6149 148.855 35.7452 149.392 36.0773 149.801C36.4096 150.21 36.9087 150.447 37.4357 150.447H100.736C101.204 150.447 101.653 150.26 101.982 149.927C102.31 149.594 102.492 149.142 102.486 148.674C102.415 143.615 102.521 135.485 103.066 127.576C103.616 119.58 104.601 112.095 106.184 108.139C106.648 106.978 107.687 105.198 109.186 102.752C110.649 100.365 112.493 97.4341 114.429 94.1174C118.305 87.4773 122.629 79.1652 125.34 69.9885C128.052 60.8066 129.171 50.6832 126.549 40.4641C123.921 30.2191 117.575 20.0403 105.637 10.7082C91.2045 -0.573932 71.4755 -2.15795 54.2863 2.32931C37.4165 6.73321 22.4408 17.1408 17.1896 30.7434L16.9464 31.3938L16.9005 31.5412L0.0577698 95.5734C0.00714111 95.7659 -0.0105133 95.9659 0.00601196 96.1643C0.0933323 97.212 0.449184 98.774 1.29507 100.131C2.17162 101.537 3.6898 102.866 5.9982 102.866H13.5949V119.81Z" fill="white"/>
<path d="M64.6975 21.3377C64.1853 20.6588 63.5526 20.3029 62.8215 20.1444C61.9233 19.9496 60.8051 20.042 59.5354 20.3992C56.9883 21.116 54.3015 22.7646 52.6096 24.0887C52.4488 24.2145 52.2646 24.3068 52.0676 24.3602C49.5964 25.0295 48.6334 26.3683 48.2658 27.6698C47.8626 29.0974 48.1292 30.6873 48.5236 31.7C48.6905 32.1285 48.6557 32.6096 48.4289 33.0096C48.2021 33.4095 47.807 33.6857 47.3537 33.7625C44.3171 34.2772 42.6719 36.09 41.7834 38.2567C40.8637 40.4995 40.7921 43.0789 41.0236 44.7459C41.0914 45.2349 40.9191 45.7267 40.5607 46.0662C38.5458 47.9752 38.0346 49.9586 38.1281 51.6551C38.2258 53.4236 38.9906 54.9619 39.633 55.7908C39.9806 56.2394 40.0514 56.8436 39.8166 57.3602C38.6218 59.9889 38.8735 62.3098 39.6604 64.1854C40.468 66.1104 41.8438 67.5611 42.8137 68.2723C43.2491 68.5916 43.4844 69.1167 43.4318 69.6541C43.1703 72.3217 44.1135 74.31 45.4182 75.7596C46.7573 77.2475 48.4679 78.148 49.5783 78.5037C49.8872 78.6027 50.1568 78.7972 50.3479 79.0594C51.7978 81.0496 53.2555 82.1545 54.6057 82.7147C55.9495 83.2721 57.2893 83.3325 58.5822 83.0692C61.0197 82.5725 63.2594 80.9227 64.6975 79.3758V21.3377ZM67.7561 79.9598C67.7561 80.3226 67.6267 80.6736 67.3918 80.95C65.7255 82.9104 62.7487 85.3417 59.1926 86.0662C57.3807 86.4353 55.4114 86.3603 53.4338 85.5399C51.5731 84.768 49.7965 83.3743 48.1652 81.2469C46.6639 80.6789 44.7225 79.5585 43.1447 77.8055C41.4981 75.9759 40.2406 73.4429 40.3342 70.1981C39.1108 69.1334 37.7239 67.4754 36.84 65.369C35.8521 63.0144 35.496 60.0972 36.6945 56.91C35.9101 55.6498 35.1869 53.8606 35.0744 51.8241C34.9433 49.4488 35.6505 46.8051 37.9094 44.3963C37.741 42.3758 37.9159 39.6253 38.9533 37.0955C39.9964 34.5521 41.9353 32.207 45.1984 31.1483C44.9491 29.8714 44.8973 28.3442 45.3225 26.8387C45.9718 24.5396 47.6872 22.473 50.968 21.493C52.8524 20.0583 55.7692 18.2816 58.7072 17.4549C60.2446 17.0224 61.9046 16.8166 63.4699 17.1561C65.0922 17.508 66.5305 18.4319 67.5324 20.075C67.6786 20.3148 67.756 20.5901 67.7561 20.8709V79.9598Z" fill="white"/>
<path d="M52.1193 21.5169C53.792 21.6718 57.5627 22.8104 59.381 26.3714C59.7648 27.1234 59.4668 28.0439 58.715 28.428C57.9629 28.8121 57.0415 28.5141 56.6574 27.762C55.5021 25.4995 52.9535 24.6652 51.8381 24.5618C50.9972 24.484 50.3786 23.7396 50.4562 22.8987C50.5341 22.0579 51.2785 21.4392 52.1193 21.5169Z" fill="white"/>
<path d="M46.5334 30.6483C48.469 30.6192 51.3566 31.1009 53.7795 32.7127C56.2969 34.3875 58.2172 37.2318 58.0754 41.5975C58.0479 42.4416 57.3414 43.1044 56.4972 43.077C55.6532 43.0495 54.9914 42.3428 55.0187 41.4988C55.1246 38.2445 53.7662 36.3779 52.0851 35.2596C50.3095 34.0784 48.0779 33.6844 46.5803 33.7069C45.7359 33.7196 45.0404 33.0453 45.0275 32.201C45.0148 31.3567 45.6891 30.6612 46.5334 30.6483Z" fill="white"/>
<path d="M37.0842 55.9901C37.4913 55.2503 38.4214 54.9806 39.1613 55.3875C40.048 55.8751 42.8193 57.0687 46.1486 57.536C46.985 57.6534 47.5678 58.4272 47.4504 59.2635C47.3329 60.0996 46.5599 60.6824 45.7238 60.5653C41.9907 60.0413 38.8655 58.7156 37.6867 58.0672C36.9469 57.6601 36.6772 56.73 37.0842 55.9901Z" fill="white"/>
<path d="M60.4845 57.0584C61.3282 57.0947 61.9826 57.8076 61.9465 58.6512C61.9102 59.4949 61.1973 60.1502 60.3537 60.1141C58.5259 60.0355 54.169 61.1698 52.9318 67.033C52.7575 67.8593 51.9465 68.3879 51.1203 68.2137C50.2939 68.0393 49.7653 67.2276 49.9396 66.4012C51.5524 58.759 57.5108 56.9307 60.4845 57.0584Z" fill="white"/>
<path d="M48.8957 66.5203C52.6576 65.9831 55.3081 67.8673 56.9777 70.1961C58.6078 72.4698 59.4185 75.2856 59.6867 77.1912C59.8044 78.0274 59.222 78.8009 58.3859 78.9188C57.5497 79.0365 56.7762 78.4542 56.6584 77.618C56.4361 76.0388 55.752 73.7355 54.4924 71.9783C53.2721 70.2763 51.6367 69.2178 49.3273 69.5477C48.4914 69.6669 47.7173 69.0858 47.5978 68.2498C47.4787 67.4139 48.0598 66.6398 48.8957 66.5203Z" fill="white"/>
<path d="M45.0791 38.8661C45.9189 38.7772 46.6717 39.3857 46.7607 40.2255C47.0683 43.1299 48.5397 45.5435 50.584 46.705C52.5445 47.8189 55.3522 47.9587 58.8057 45.6913C59.5116 45.2279 60.4593 45.424 60.9228 46.1298C61.3863 46.8357 61.1902 47.7844 60.4844 48.2479C56.271 51.0143 52.2239 51.1542 49.0732 49.3642C46.0063 47.6216 44.1092 44.226 43.7197 40.5478C43.6308 39.7079 44.2393 38.9551 45.0791 38.8661Z" fill="white"/>
<path d="M52.1506 49.3699C52.1506 48.5254 52.8353 47.8407 53.6799 47.8406C54.5244 47.8406 55.2092 48.5254 55.2092 49.3699C55.2092 51.9107 53.7514 53.7388 52.1935 54.9197C50.6451 56.0935 48.8257 56.7743 47.5929 57.0565C46.77 57.2446 45.9505 56.7299 45.7619 55.907C45.5734 55.0838 46.088 54.2635 46.9113 54.075C47.8212 53.8667 49.2162 53.3386 50.3459 52.4822C51.4662 51.6329 52.1506 50.6083 52.1506 49.3699Z" fill="white"/>
<path d="M52.1193 21.5169C53.792 21.6718 57.5627 22.8104 59.381 26.3714C59.7648 27.1234 59.4668 28.0439 58.715 28.428C57.9629 28.8121 57.0415 28.5141 56.6574 27.762C55.5021 25.4995 52.9535 24.6652 51.8381 24.5618C50.9972 24.484 50.3786 23.7396 50.4562 22.8987C50.5341 22.0579 51.2785 21.4392 52.1193 21.5169Z" fill="white"/>
<path d="M46.5334 30.6483C48.469 30.6192 51.3566 31.1009 53.7795 32.7127C56.2969 34.3875 58.2172 37.2318 58.0754 41.5975C58.0479 42.4416 57.3414 43.1044 56.4972 43.077C55.6532 43.0495 54.9914 42.3428 55.0187 41.4988C55.1246 38.2445 53.7662 36.3779 52.0851 35.2596C50.3095 34.0784 48.0779 33.6844 46.5803 33.7069C45.7359 33.7196 45.0404 33.0453 45.0275 32.201C45.0148 31.3567 45.6891 30.6612 46.5334 30.6483Z" fill="white"/>
<path d="M37.0842 55.9901C37.4913 55.2503 38.4214 54.9806 39.1613 55.3875C40.048 55.8751 42.8193 57.0687 46.1486 57.536C46.985 57.6534 47.5678 58.4272 47.4504 59.2635C47.3329 60.0996 46.5599 60.6824 45.7238 60.5653C41.9907 60.0413 38.8655 58.7156 37.6867 58.0672C36.9469 57.6601 36.6772 56.73 37.0842 55.9901Z" fill="white"/>
<path d="M60.4845 57.0584C61.3282 57.0947 61.9826 57.8076 61.9465 58.6512C61.9102 59.4949 61.1973 60.1502 60.3537 60.1141C58.5259 60.0355 54.169 61.1698 52.9318 67.033C52.7575 67.8593 51.9465 68.3879 51.1203 68.2137C50.2939 68.0393 49.7653 67.2276 49.9396 66.4012C51.5524 58.759 57.5108 56.9307 60.4845 57.0584Z" fill="white"/>
<path d="M48.8957 66.5203C52.6576 65.9831 55.3081 67.8673 56.9777 70.1961C58.6078 72.4698 59.4185 75.2856 59.6867 77.1912C59.8044 78.0274 59.222 78.8009 58.3859 78.9188C57.5497 79.0365 56.7762 78.4542 56.6584 77.618C56.4361 76.0388 55.752 73.7355 54.4924 71.9783C53.2721 70.2763 51.6367 69.2178 49.3273 69.5477C48.4914 69.6669 47.7173 69.0858 47.5978 68.2498C47.4787 67.4139 48.0598 66.6398 48.8957 66.5203Z" fill="white"/>
<path d="M45.0791 38.8661C45.9189 38.7772 46.6717 39.3857 46.7607 40.2255C47.0683 43.1299 48.5397 45.5435 50.584 46.705C52.5445 47.8189 55.3522 47.9587 58.8057 45.6913C59.5116 45.2279 60.4593 45.424 60.9228 46.1298C61.3863 46.8357 61.1902 47.7844 60.4844 48.2479C56.271 51.0143 52.2239 51.1542 49.0732 49.3642C46.0063 47.6216 44.1092 44.226 43.7197 40.5478C43.6308 39.7079 44.2393 38.9551 45.0791 38.8661Z" fill="white"/>
<path d="M52.1506 49.3699C52.1506 48.5254 52.8353 47.8407 53.6799 47.8406C54.5244 47.8406 55.2092 48.5254 55.2092 49.3699C55.2092 51.9107 53.7514 53.7388 52.1935 54.9197C50.6451 56.0935 48.8257 56.7743 47.5929 57.0565C46.77 57.2446 45.9505 56.7299 45.7619 55.907C45.5734 55.0838 46.088 54.2635 46.9113 54.075C47.8212 53.8667 49.2162 53.3386 50.3459 52.4822C51.4662 51.6329 52.1506 50.6083 52.1506 49.3699Z" fill="white"/>
<mask id="mask0_3086_12714" style="mask-type:alpha" maskUnits="userSpaceOnUse" x="51" y="16" width="48" height="69">
<path d="M55.0392 40.0856C55.0392 29.1486 63.9049 20.2822 74.8419 20.2819C85.7792 20.2819 94.6457 29.1484 94.6457 40.0856C94.6455 47.5174 90.5527 53.9954 84.4894 57.3845L86.2121 60.4684C93.3472 56.4805 98.1787 48.8483 98.1789 40.0856C98.1789 27.1975 87.7301 16.7487 74.8419 16.7487C61.954 16.749 51.506 27.1976 51.506 40.0856C51.5062 48.8483 56.3377 56.4805 63.4728 60.4684L65.1955 57.3845C59.1322 53.9954 55.0394 47.5174 55.0392 40.0856Z" fill="white"/>
<path d="M60.5695 62.3288C60.5695 61.4716 61.264 60.777 62.1212 60.777H87.5627C88.4198 60.7771 89.1144 61.4716 89.1144 62.3288C89.1144 63.186 88.4199 63.8815 87.5627 63.8815H62.1212C61.264 63.8815 60.5695 63.1861 60.5695 62.3288ZM57.0363 62.3288C57.0363 65.137 59.3131 67.4138 62.1212 67.4138H87.5627C90.3708 67.4137 92.6476 65.137 92.6476 62.3288C92.6476 59.5207 90.3708 57.2439 87.5627 57.2438H62.1212C59.3131 57.2438 57.0363 59.5206 57.0363 62.3288Z" fill="white"/>
<path d="M63.8898 70.2619C63.8898 69.4047 64.5844 68.7102 65.4416 68.7101H84.2462C85.1034 68.7102 85.798 69.4047 85.798 70.2619C85.798 71.1191 85.1035 71.8146 84.2462 71.8146H65.4416C64.5844 71.8146 63.8898 71.1191 63.8898 70.2619ZM60.3566 70.2619C60.3566 73.07 62.6334 75.3468 65.4416 75.3469H84.2462C87.0544 75.3468 89.3312 73.0701 89.3312 70.2619C89.3312 67.4538 87.0544 65.177 84.2462 65.1769H65.4416C62.6335 65.177 60.3566 67.4538 60.3566 70.2619Z" fill="white"/>
<path d="M67.8566 71.8269C66.888 71.7131 66.0106 72.4061 65.8966 73.3747C65.6832 75.189 65.8566 77.943 67.1877 80.32C68.5972 82.837 71.2152 84.7497 75.3937 84.7497C79.4152 84.7497 82.0391 83.2487 83.5187 81.073C84.9245 79.0055 85.1141 76.5944 84.8849 74.9899C84.7468 74.0244 83.8524 73.354 82.8869 73.4919C81.9213 73.6299 81.2499 74.5243 81.3879 75.4899C81.5273 76.4665 81.3858 77.9278 80.5978 79.0866C79.8835 80.1369 78.4511 81.2165 75.3937 81.2165C72.4932 81.2165 71.0551 79.9949 70.2707 78.5944C69.408 77.054 69.2492 75.1065 69.4045 73.7868C69.5183 72.8181 68.8253 71.9408 67.8566 71.8269Z" fill="white"/>
<path d="M81.0334 57.7834V50.1515L84.4679 46.2258C85.1103 45.4917 85.036 44.3759 84.3019 43.7336C83.5678 43.0912 82.4521 43.1655 81.8097 43.8996L77.9377 48.3244C77.6561 48.6463 77.5011 49.0598 77.5011 49.4875V57.7834C77.5012 58.7588 78.2923 59.55 79.2677 59.55C80.243 59.5498 81.0333 58.7587 81.0334 57.7834Z" fill="white"/>
<path d="M69.2052 57.7834V50.1515L65.7706 46.2258C65.1283 45.4917 65.2026 44.3759 65.9367 43.7336C66.6708 43.0912 67.7865 43.1655 68.4289 43.8996L72.3009 48.3244C72.5825 48.6463 72.7374 49.0598 72.7374 49.4875V57.7834C72.7374 58.7588 71.9463 59.55 70.9708 59.55C69.9956 59.5498 69.2052 58.7587 69.2052 57.7834Z" fill="white"/>
</mask>
<g mask="url(#mask0_3086_12714)">
<path d="M101.162 16.6735H75.3752V87.5878H101.162V16.6735Z" fill="white"/>
</g>
<path d="M76.2375 84.7492H73.588V16.7492H76.2375V84.7492Z" fill="white"/>
</svg>
