<svg width="210" height="144" viewBox="0 0 210 144" fill="none" xmlns="http://www.w3.org/2000/svg">
<path d="M181.238 116.691C181.238 113.453 178.694 110.808 175.496 110.646L175.185 110.638C171.841 110.638 169.131 113.348 169.131 116.691L169.139 117.003C169.296 120.098 171.778 122.581 174.873 122.737L175.185 122.745C178.423 122.745 181.068 120.201 181.23 117.003L181.238 116.691ZM183.323 116.691C183.323 121.186 179.679 124.83 175.185 124.83C170.69 124.83 167.045 121.186 167.045 116.691C167.045 112.196 170.689 108.552 175.185 108.552C179.68 108.552 183.323 112.196 183.323 116.691Z" fill="white"/>
<path d="M189.276 115.48V112.453C189.277 112.125 189.431 111.816 189.693 111.619L193.813 108.528L191.057 103.475L185.863 105.552C185.476 105.707 185.034 105.616 184.739 105.321C184.269 104.851 183.467 104.136 182.624 103.547C182.203 103.253 181.793 103.006 181.424 102.835C181.04 102.657 180.779 102.6 180.634 102.6C180.13 102.6 179.698 102.24 179.607 101.744L178.552 95.9414H172.408L171.365 101.156C171.292 101.523 171.027 101.823 170.672 101.941C170.121 102.125 169.213 102.494 168.339 102.982C167.434 103.488 166.709 104.045 166.367 104.557C166.091 104.972 165.559 105.133 165.099 104.941L158.705 102.277L155.387 108.439L160.588 111.56C160.992 111.802 161.184 112.287 161.055 112.74C160.87 113.388 160.643 114.463 160.578 115.529C160.509 116.66 160.64 117.51 160.919 117.929C161.222 118.383 161.123 118.995 160.691 119.33L155.918 123.042L158.719 128.644L164.463 126.032L164.614 125.978C164.973 125.877 165.363 125.976 165.632 126.245C166.09 126.703 166.909 127.409 167.829 127.993C168.724 128.561 169.57 128.919 170.216 128.962L170.343 128.966L170.437 128.971C170.905 129.013 171.292 129.366 171.371 129.837L172.437 136.23H178.502L178.993 132.301C179.065 131.729 179.586 131.324 180.157 131.396C180.729 131.467 181.134 131.988 181.062 132.56L180.457 137.402C180.392 137.924 179.949 138.315 179.423 138.315H171.553C171.043 138.315 170.608 137.947 170.524 137.444L169.441 130.953C168.462 130.749 167.502 130.255 166.712 129.754C165.936 129.262 165.23 128.701 164.69 128.22L158.667 130.958C158.156 131.19 157.554 130.977 157.303 130.476L153.671 123.211C153.449 122.766 153.571 122.227 153.963 121.922L158.76 118.189C158.468 117.296 158.443 116.27 158.496 115.401C158.55 114.523 158.694 113.654 158.852 112.95L153.462 109.716C152.984 109.429 152.816 108.818 153.08 108.327L157.317 100.458L157.368 100.372C157.642 99.9617 158.173 99.796 158.637 99.9893L165.189 102.721C165.805 102.09 166.597 101.567 167.321 101.162C168.065 100.746 168.823 100.408 169.435 100.172L170.53 94.6943C170.628 94.2071 171.056 93.8557 171.553 93.8555H179.423L179.517 93.8594C179.98 93.9009 180.364 94.2472 180.448 94.7119L181.527 100.65C181.797 100.727 182.057 100.83 182.299 100.941C182.816 101.181 183.337 101.501 183.818 101.837C184.524 102.33 185.191 102.891 185.71 103.367L191.143 101.194L191.235 101.162C191.702 101.024 192.208 101.229 192.445 101.663L196.077 108.322C196.325 108.777 196.202 109.344 195.787 109.655L191.362 112.974V115.48C191.362 116.056 190.895 116.523 190.319 116.523C189.743 116.523 189.276 116.056 189.276 115.48Z" fill="white"/>
<path d="M196.312 125.566C195.285 124.105 193.299 123.718 191.805 124.659L191.662 124.754C190.154 125.814 189.791 127.897 190.851 129.405L190.953 129.543C192.006 130.889 193.912 131.221 195.358 130.31L195.501 130.215C196.962 129.188 197.348 127.203 196.407 125.709L196.312 125.566ZM197.677 124.606C199.267 126.868 198.722 129.99 196.461 131.58C194.199 133.17 191.077 132.625 189.487 130.364C187.897 128.102 188.441 124.98 190.703 123.39C192.965 121.8 196.087 122.344 197.677 124.606Z" fill="white"/>
<path d="M186.602 117.268C186.979 117.003 187.499 117.094 187.764 117.47C188.029 117.847 187.938 118.367 187.561 118.632L186.346 119.486L187.443 121.976C187.564 122.249 187.529 122.567 187.351 122.808C187.169 123.054 186.886 123.494 186.654 123.976C186.41 124.483 186.282 124.917 186.289 125.192C186.299 125.591 186.025 125.941 185.636 126.027L182.137 126.801L182.536 130.154L185.625 129.931C186.002 129.904 186.35 130.133 186.473 130.489C186.59 130.826 186.822 131.365 187.119 131.847C187.443 132.374 187.733 132.648 187.906 132.716C188.314 132.874 188.53 133.319 188.402 133.737L187.489 136.722L190.12 138.142L191.757 135.358C191.933 135.058 192.278 134.899 192.62 134.959C192.956 135.017 193.53 135.075 194.109 135.047C194.644 135.022 195.062 134.928 195.315 134.795L195.414 134.735L195.544 134.66C195.858 134.515 196.237 134.579 196.488 134.833L198.842 137.222L200.038 136.381C200.415 136.116 200.935 136.207 201.2 136.583C201.465 136.96 201.374 137.48 200.998 137.745L199.223 138.993C198.889 139.228 198.435 139.186 198.149 138.896L195.721 136.432C195.212 136.619 194.659 136.691 194.188 136.713C193.736 136.735 193.292 136.713 192.916 136.676L191.152 139.679C190.925 140.066 190.432 140.205 190.037 139.992L186.095 137.866C185.746 137.677 185.577 137.268 185.693 136.888L186.623 133.85C186.233 133.517 185.924 133.089 185.699 132.722C185.475 132.359 185.287 131.978 185.138 131.639L181.863 131.876C181.419 131.908 181.028 131.585 180.975 131.143L180.391 126.25L180.387 126.092C180.413 125.73 180.673 125.417 181.039 125.336L184.696 124.527C184.793 124.069 184.972 123.622 185.151 123.252C185.333 122.871 185.542 122.516 185.729 122.225L184.544 119.534L184.496 119.395C184.416 119.067 184.543 118.716 184.827 118.516L186.602 117.268Z" fill="white"/>
<path d="M186.286 117.49C185.909 117.755 185.819 118.275 186.084 118.652C186.349 119.029 186.869 119.119 187.245 118.854L188.461 118L190.431 119.875C190.648 120.081 190.959 120.156 191.246 120.07C191.539 119.982 192.049 119.864 192.581 119.809C193.14 119.752 193.592 119.778 193.849 119.878C194.221 120.022 194.643 119.883 194.856 119.546L196.769 116.516L199.788 118.026L198.533 120.857C198.38 121.202 198.477 121.607 198.771 121.844C199.048 122.068 199.476 122.469 199.83 122.912C200.216 123.395 200.376 123.761 200.381 123.946C200.392 124.383 200.738 124.738 201.174 124.759L204.292 124.909L204.737 127.866L201.563 128.464C201.221 128.528 200.955 128.799 200.896 129.141C200.837 129.477 200.697 130.037 200.475 130.572C200.27 131.067 200.041 131.428 199.829 131.622L199.74 131.694L199.625 131.791C199.382 132.038 199.314 132.416 199.468 132.738L200.919 135.762L199.722 136.603C199.346 136.868 199.255 137.388 199.52 137.765C199.785 138.142 200.305 138.232 200.682 137.967L202.457 136.72C202.79 136.485 202.905 136.044 202.729 135.676L201.232 132.557C201.58 132.142 201.835 131.646 202.016 131.21C202.189 130.792 202.319 130.367 202.412 130.001L205.835 129.358C206.276 129.275 206.573 128.858 206.506 128.414L205.84 123.986C205.781 123.593 205.453 123.296 205.056 123.276L201.882 123.122C201.701 122.644 201.403 122.208 201.134 121.871C200.868 121.538 200.573 121.231 200.305 120.977L201.637 117.976C201.817 117.569 201.645 117.092 201.247 116.892L196.841 114.686L196.693 114.629C196.344 114.53 195.962 114.669 195.762 114.986L193.762 118.153C193.298 118.09 192.817 118.107 192.408 118.15C191.989 118.193 191.584 118.268 191.247 118.347L189.115 116.32L189.001 116.228C188.719 116.042 188.346 116.042 188.061 116.242L186.286 117.49Z" fill="white"/>
<path d="M36.2969 28.0942L36.2969 23.645L74.7715 23.645L74.7715 28.0942L36.2969 28.0942Z" fill="white"/>
<path d="M28.1992 21.6201H20.0996V29.7197H28.1992V21.6201ZM31.3135 32.834H16.9854V18.5059H31.3135V32.834Z" fill="white"/>
<path d="M36.4268 27.9678L36.4268 23.5186L98.3145 23.5186L98.3145 27.9678L36.4268 27.9678Z" fill="white"/>
<path d="M28.1992 21.6201H20.0996V29.7197H28.1992V21.6201ZM31.3135 32.834H16.9854V18.5059H31.3135V32.834Z" fill="white"/>
<path d="M36.4256 76.6202L36.4256 72.171L96.7947 72.171L96.7947 76.6202L36.4256 76.6202Z" fill="white"/>
<path d="M28.1992 70.219H20.0995V78.3186H28.1992V70.219ZM31.3134 81.4329H16.9853V67.1048H31.3134V81.4329Z" fill="white"/>
<path d="M36.4267 52.2672L36.4267 47.818L98.3144 47.818L98.3144 52.2672L36.4267 52.2672Z" fill="white"/>
<path d="M28.1992 45.9196H20.0995V54.0192H28.1992V45.9196ZM31.3134 57.1334H16.9853V42.8053H31.3134V57.1334Z" fill="white"/>
<path d="M22.123 23.645H26.173V27.6949H22.123V23.645Z" fill="white"/>
<path d="M22.123 47.9443H26.173V51.9942H22.123V47.9443Z" fill="white"/>
<path d="M22.123 72.2441H26.173V76.2941H22.123V72.2441Z" fill="white"/>
<path d="M159.949 51.1089C159.949 40.6505 151.603 32.1407 141.208 31.8774L140.712 31.8716C130.088 31.8716 121.475 40.4845 121.475 51.1089L121.48 51.605C121.74 61.8348 129.985 70.08 140.215 70.3394L140.712 70.3462C151.17 70.3461 159.679 61.9999 159.942 51.605L159.949 51.1089ZM164.398 51.1089C164.398 64.1903 153.793 74.7953 140.712 74.7954C127.63 74.7954 117.026 64.1904 117.025 51.1089C117.025 38.0273 127.63 27.4224 140.712 27.4224C153.793 27.4225 164.398 38.0274 164.398 51.1089Z" fill="white"/>
<path d="M145.571 45.0737C146.109 44.4022 147.089 44.2933 147.761 44.8306C148.432 45.3678 148.541 46.3476 148.004 47.019L138.817 58.5024L134.549 54.2349C133.941 53.6268 133.941 52.6408 134.549 52.0327C135.157 51.4246 136.144 51.4246 136.752 52.0327L138.559 53.8394L145.571 45.0737Z" fill="white"/>
<path d="M176.551 6.88184C176.551 5.15446 175.15 3.75414 173.423 3.75391H6.88184C5.15447 3.75416 3.75416 5.15447 3.75391 6.88184V112.294C3.75391 114.022 5.15431 115.423 6.88184 115.423H159.634V119.177H6.88184C3.08102 119.177 0 116.095 0 112.294V6.88184C0.000249438 3.08118 3.08119 0.000251496 6.88184 0H173.423C177.224 0.000230885 180.304 3.08117 180.305 6.88184V94.8984H176.551V6.88184Z" fill="white"/>
<path d="M171.594 96.2487V100.003H1.87695V96.2487H171.594Z" fill="white"/>
<path d="M75.001 133.626L74.7451 133.613C73.483 133.485 72.498 132.418 72.498 131.123V117.299H108.568V131.123C108.568 132.505 107.447 133.626 106.065 133.626H75.001ZM76.252 129.872H104.814V121.053H76.252V129.872Z" fill="white"/>
<path d="M106.985 123.894C115.521 124.469 122.546 125.518 127.484 126.901C129.94 127.589 131.992 128.389 133.472 129.325C134.864 130.206 136.263 131.544 136.263 133.436C136.263 134.684 135.621 135.689 134.859 136.428C134.102 137.163 133.085 137.781 131.94 138.314C129.642 139.385 126.42 140.3 122.547 141.051C114.769 142.558 103.964 143.476 91.6719 143.476C79.3794 143.476 68.2021 142.557 60.0547 141.054C55.9965 140.305 52.5955 139.394 50.165 138.334C48.9567 137.807 47.8823 137.197 47.0811 136.475C46.2854 135.757 45.5625 134.74 45.5625 133.436C45.5626 131.522 47.0772 130.229 48.4277 129.42C49.9093 128.532 51.9521 127.765 54.3623 127.099C59.2115 125.759 65.9865 124.712 73.8662 124.078L74.167 127.82C66.4047 128.445 59.8911 129.465 55.3623 130.717C53.0836 131.346 51.415 132.006 50.3574 132.64C49.6996 133.034 49.453 133.31 49.3623 133.437C49.4047 133.493 49.474 133.579 49.5947 133.688C49.9719 134.028 50.6362 134.443 51.666 134.893C53.7121 135.785 56.7892 136.634 60.7354 137.362C68.5969 138.813 79.5357 139.722 91.6719 139.722C103.809 139.722 114.361 138.813 121.833 137.365C125.584 136.638 128.461 135.794 130.354 134.912C131.306 134.469 131.907 134.061 132.245 133.733C132.401 133.582 132.467 133.479 132.495 133.427C132.448 133.323 132.254 132.997 131.465 132.498C130.432 131.845 128.78 131.162 126.472 130.516C121.884 129.231 115.145 128.207 106.732 127.64L106.985 123.894Z" fill="white"/>
</svg>
