<svg width="173" height="167" viewBox="0 0 173 167" fill="none" xmlns="http://www.w3.org/2000/svg">
<mask id="mask0_3086_12636" style="mask-type:alpha" maskUnits="userSpaceOnUse" x="4" y="92" width="169" height="76">
<path d="M4.20996 167H172.618V92.9009H4.20996V167Z" fill="#D9D9D9"/>
</mask>
<g mask="url(#mask0_3086_12636)">
<path d="M89.8271 102.387C89.8271 93.0198 82.3516 85.3984 73.041 85.1626L72.5967 85.1567C63.0807 85.1567 55.3662 92.8712 55.3662 102.387L55.3721 102.832C55.6041 111.994 62.9888 119.379 72.1514 119.612L72.5967 119.618C81.964 119.618 89.5855 112.142 89.8213 102.832L89.8271 102.387ZM92.8477 102.387C92.8475 113.571 83.7807 122.638 72.5967 122.638C61.4126 122.638 52.3458 113.571 52.3457 102.387C52.3457 91.203 61.4125 82.1362 72.5967 82.1362C83.7807 82.1363 92.8477 91.2031 92.8477 102.387Z" fill="white"/>
<path d="M114.163 98.9409V90.3257C114.163 89.8503 114.387 89.4029 114.768 89.1177L127.506 79.563L118.436 62.9331L102.45 69.3286C101.889 69.5529 101.248 69.4217 100.821 68.9946C99.4343 67.6077 97.0897 65.5139 94.6064 63.7798C93.3653 62.9131 92.12 62.1581 90.9658 61.6245C89.7896 61.0808 88.8229 60.8219 88.1054 60.8218C87.3756 60.8218 86.7498 60.2996 86.6191 59.5815L83.3984 41.8677H63.497L60.2949 57.8843C60.1886 58.4157 59.8051 58.8496 59.291 59.021C57.6467 59.5691 54.9785 60.6527 52.4004 62.0942C49.7776 63.5608 47.4577 65.2833 46.2861 67.0405C45.8855 67.6415 45.1149 67.875 44.4482 67.5972L25.0342 59.5073L14.3047 79.4341L30.2988 89.0308C30.8848 89.3823 31.1623 90.0837 30.9746 90.7407C30.4244 92.6664 29.7586 95.8306 29.5654 98.9897C29.3666 102.242 29.6981 105.097 30.7793 106.718C31.218 107.377 31.0737 108.262 30.4492 108.748L15.9189 120.048L25.0527 138.316L42.6816 130.303L42.79 130.259C43.3378 130.06 43.9566 130.193 44.374 130.61C45.743 131.979 48.1567 134.06 50.8789 135.788C53.6513 137.547 56.5039 138.783 58.8135 138.783C59.5517 138.783 60.1823 139.317 60.3037 140.045L63.539 159.459H83.3252L84.8838 146.999C84.9872 146.171 85.7417 145.584 86.5693 145.687C87.3969 145.79 87.9841 146.545 87.8808 147.373L86.1572 161.157C86.0627 161.912 85.4207 162.48 84.6592 162.48H62.2597C61.5216 162.48 60.892 161.946 60.7705 161.218L57.5195 141.718C54.6957 141.362 51.7595 139.924 49.2597 138.337C46.7714 136.758 44.5366 134.916 42.998 133.477L24.9785 141.668C24.239 142.005 23.3653 141.696 23.0019 140.969L12.664 120.292C12.3421 119.649 12.5197 118.867 13.0879 118.425L27.5879 107.146C26.5255 104.731 26.378 101.615 26.5498 98.8052C26.7245 95.947 27.2544 93.1131 27.7724 91.0366L11.5146 81.2827C10.8229 80.8676 10.5794 79.9813 10.9619 79.271L23.0234 56.8726L23.0976 56.7485C23.4942 56.1545 24.262 55.9143 24.9336 56.1938L44.5351 64.3608C46.179 62.419 48.5996 60.7582 50.9258 59.4575C53.293 58.1339 55.721 57.0958 57.501 56.4478L60.7793 40.062L60.8105 39.9321C60.9975 39.2944 61.5847 38.8481 62.2597 38.8481H84.6592L84.7949 38.854C85.4652 38.9141 86.022 39.4145 86.1445 40.0874L89.3877 57.9253C90.3402 58.1025 91.3066 58.4539 92.2334 58.8823C93.6026 59.5153 95.0069 60.3752 96.3359 61.3032C98.6018 62.8856 100.737 64.7304 102.238 66.1597L118.559 59.6323L118.692 59.5854C119.368 59.3857 120.102 59.6814 120.445 60.311L130.783 79.2642C131.142 79.9227 130.964 80.7456 130.364 81.1958L117.184 91.0806V98.9409C117.183 99.7748 116.508 100.451 115.674 100.451C114.84 100.451 114.163 99.7749 114.163 98.9409Z" fill="white"/>
<path d="M132.725 127.646C129.802 123.488 124.149 122.388 119.896 125.067L119.49 125.337C115.197 128.355 114.164 134.281 117.181 138.573L117.472 138.965C120.467 142.797 125.893 143.744 130.009 141.152L130.417 140.881C134.575 137.958 135.674 132.305 132.995 128.053L132.725 127.646ZM134.701 126.256C138.486 131.64 137.19 139.073 131.806 142.858C126.422 146.642 118.99 145.346 115.205 139.962C111.42 134.578 112.716 127.146 118.1 123.361C123.484 119.576 130.917 120.872 134.701 126.256Z" fill="white"/>
<path d="M105.761 104.982C106.307 104.598 107.06 104.73 107.444 105.276C107.828 105.821 107.696 106.575 107.15 106.959L102.909 109.94L106.419 117.899C106.593 118.296 106.543 118.755 106.286 119.104C105.73 119.856 104.882 121.17 104.187 122.614C103.475 124.095 103.009 125.541 103.035 126.613C103.049 127.19 102.653 127.697 102.089 127.822L91.0982 130.256L92.4944 141.951L102.394 141.235C102.939 141.196 103.443 141.527 103.623 142.044C103.978 143.066 104.671 144.679 105.568 146.137C106.505 147.66 107.504 148.744 108.382 149.085C108.972 149.314 109.285 149.96 109.1 150.565L106.219 159.976L115.541 165L120.769 156.109C121.025 155.674 121.523 155.444 122.019 155.531C123.047 155.71 124.768 155.881 126.512 155.799C128.191 155.719 129.692 155.412 130.657 154.823L130.843 154.702L130.936 154.643C131.408 154.371 132.01 154.447 132.398 154.842L139.79 162.346L144.005 159.384C144.551 159 145.304 159.131 145.688 159.677C146.071 160.223 145.94 160.976 145.394 161.36L140.343 164.911C139.86 165.251 139.202 165.192 138.788 164.771L131.329 157.201C129.909 157.881 128.177 158.138 126.626 158.212C125.091 158.284 123.585 158.181 122.44 158.035L117.035 167.229C116.706 167.789 115.993 167.989 115.421 167.68L104.202 161.633C103.695 161.36 103.451 160.766 103.62 160.216L106.5 150.8C105.283 149.976 104.275 148.647 103.51 147.404C102.733 146.14 102.102 144.791 101.669 143.711L91.519 144.446C90.8755 144.492 90.3095 144.024 90.2329 143.384L88.5698 129.456C88.4964 128.839 88.9024 128.268 89.5084 128.133L100.676 125.659C100.852 124.272 101.408 122.818 102.01 121.568C102.625 120.289 103.344 119.109 103.932 118.248L100.299 110.009L100.26 109.909C100.089 109.406 100.268 108.844 100.71 108.533L105.761 104.982Z" fill="white"/>
<path d="M104.863 105.614C104.317 105.997 104.186 106.751 104.57 107.297C104.954 107.842 105.707 107.974 106.253 107.59L110.494 104.608L116.795 110.605C117.109 110.903 117.559 111.012 117.974 110.888C118.87 110.619 120.393 110.266 121.987 110.102C123.622 109.933 125.141 109.983 126.14 110.371C126.678 110.58 127.29 110.378 127.598 109.89L133.608 100.372L144.141 105.645L140.116 114.718C139.894 115.217 140.036 115.804 140.461 116.148C141.302 116.828 142.585 118.025 143.654 119.364C144.769 120.761 145.452 122.068 145.475 123.009C145.491 123.642 145.993 124.155 146.625 124.186L156.455 124.661L158.027 135.134L147.891 137.043C147.396 137.136 147.011 137.527 146.924 138.023C146.745 139.052 146.323 140.728 145.655 142.341C145.012 143.895 144.215 145.203 143.334 145.912L143.157 146.045L143.07 146.113C142.655 146.465 142.523 147.058 142.762 147.556L147.321 157.053L143.107 160.015C142.561 160.399 142.43 161.152 142.813 161.698C143.197 162.244 143.951 162.375 144.496 161.992L149.548 158.441C150.031 158.101 150.198 157.462 149.942 156.93L145.344 147.349C146.465 146.243 147.293 144.7 147.887 143.266C148.475 141.846 148.888 140.394 149.138 139.267L159.619 137.294C160.257 137.173 160.686 136.57 160.59 135.927L158.697 123.324C158.612 122.754 158.136 122.324 157.561 122.296L147.726 121.819C147.363 120.395 146.453 118.996 145.543 117.856C144.617 116.697 143.561 115.646 142.69 114.874L146.818 105.571C147.08 104.982 146.831 104.291 146.254 104.002L133.712 97.722C133.156 97.4442 132.481 97.6328 132.15 98.1576L126.041 107.828C124.677 107.524 123.12 107.556 121.74 107.698C120.329 107.844 118.974 108.121 117.966 108.383L111.442 102.175L111.362 102.105C110.946 101.774 110.357 101.752 109.915 102.062L104.863 105.614Z" fill="white"/>
</g>
<path d="M165.448 90.3047C166.248 90.3047 166.896 90.9531 166.896 91.7529C166.896 92.5528 166.248 93.2012 165.448 93.2012L1.44824 93.2012C0.648382 93.2012 1.96535e-07 92.5528 1.26609e-07 91.7529C5.66833e-08 90.9531 0.648382 90.3047 1.44824 90.3047L165.448 90.3047Z" fill="white"/>
<path d="M43.8965 56.0588H35.2139V74.3879H43.8965V56.0588ZM46.8965 77.3879H32.2139V53.0588H46.8965V77.3879Z" fill="white"/>
<path d="M66.084 32.9058H56.4365V74.3882H66.084V32.9058ZM69.084 77.3882H53.4365V29.9058H69.084V77.3882Z" fill="white"/>
<path d="M110.463 32.9058H100.815V74.3882H110.463V32.9058ZM113.463 77.3882H97.8154V29.9058H113.463V77.3882Z" fill="white"/>
<path d="M88.2715 45.4473H78.624V74.3887H88.2715V45.4473ZM91.2715 77.3887H75.624V42.4473H91.2715V77.3887Z" fill="white"/>
<path d="M131.686 45.4473H123.003V74.3887H131.686V45.4473ZM134.686 77.3887H120.003V42.4473H134.686V77.3887Z" fill="white"/>
<path d="M42.9316 36.7643C42.9314 34.6333 41.2033 32.9059 39.0723 32.9059C36.9414 32.9061 35.2141 34.6335 35.2139 36.7643C35.2139 38.8289 36.8352 40.5154 38.874 40.6188L39.0723 40.6237C41.1368 40.6237 42.8233 39.0023 42.9268 36.9635L42.9316 36.7643ZM45.9316 36.7643C45.9316 40.5523 42.8603 43.6237 39.0723 43.6237C35.2844 43.6235 32.2139 40.5522 32.2139 36.7643C32.2141 32.9766 35.2846 29.9061 39.0723 29.9059C42.8601 29.9059 45.9314 32.9765 45.9316 36.7643Z" fill="white"/>
<path d="M66.084 6.8584C66.0838 4.72742 64.3556 3 62.2246 3C60.0938 3.00023 58.3664 4.72757 58.3662 6.8584C58.3662 8.92294 59.9875 10.6095 62.0264 10.7129L62.2246 10.7178C64.2891 10.7178 65.9756 9.09641 66.0791 7.05762L66.084 6.8584ZM69.084 6.8584C69.084 10.6464 66.0126 13.7178 62.2246 13.7178C58.4368 13.7175 55.3662 10.6463 55.3662 6.8584C55.3664 3.07071 58.4369 0.000229722 62.2246 0C66.0125 0 69.0838 3.07057 69.084 6.8584Z" fill="white"/>
<path d="M86.3418 29.0469C86.3416 26.9159 84.6134 25.1885 82.4824 25.1885C80.3516 25.1887 78.6243 26.916 78.624 29.0469C78.624 31.1114 80.2453 32.798 82.2842 32.9014L82.4824 32.9062C84.5469 32.9062 86.2335 31.2849 86.3369 29.2461L86.3418 29.0469ZM89.3418 29.0469C89.3418 32.8349 86.2704 35.9062 82.4824 35.9062C78.6946 35.906 75.624 32.8348 75.624 29.0469C75.6243 25.2592 78.6947 22.1887 82.4824 22.1885C86.2703 22.1885 89.3416 25.259 89.3418 29.0469Z" fill="white"/>
<path d="M109.498 14.5762C109.498 12.4452 107.77 10.7178 105.639 10.7178C103.508 10.718 101.781 12.4453 101.78 14.5762C101.78 16.6407 103.402 18.3273 105.44 18.4307L105.639 18.4355C107.703 18.4355 109.39 16.8142 109.493 14.7754L109.498 14.5762ZM112.498 14.5762C112.498 18.3642 109.427 21.4355 105.639 21.4355C101.851 21.4353 98.7803 18.3641 98.7803 14.5762C98.7805 10.7885 101.851 7.718 105.639 7.71777C109.427 7.71777 112.498 10.7883 112.498 14.5762Z" fill="white"/>
<path d="M131.686 30.0112C131.685 27.8803 129.957 26.1528 127.826 26.1528C125.695 26.1531 123.968 27.8804 123.968 30.0112C123.968 32.0758 125.589 33.7623 127.628 33.8657L127.826 33.8706C129.891 33.8706 131.577 32.2492 131.681 30.2104L131.686 30.0112ZM134.686 30.0112C134.686 33.7993 131.614 36.8706 127.826 36.8706C124.038 36.8704 120.968 33.7991 120.968 30.0112C120.968 26.2235 124.038 23.1531 127.826 23.1528C131.614 23.1528 134.685 26.2234 134.686 30.0112Z" fill="white"/>
<path d="M56.9198 8.93471L59.3323 10.7179L42.9326 32.9058L40.5201 31.1226L56.9198 8.93471Z" fill="white"/>
<path d="M80.9544 24.2611L78.626 26.1529L66.085 10.7178L68.4133 8.82599L80.9544 24.2611Z" fill="white"/>
<path d="M100.367 15.7879L101.779 18.435L87.3076 26.1528L85.8959 23.5058L100.367 15.7879Z" fill="white"/>
<path d="M125.378 23.5063L123.966 26.1534L109.495 18.4355L110.907 15.7885L125.378 23.5063Z" fill="white"/>
</svg>
