<svg width="156" height="158" viewBox="0 0 156 158" fill="none" xmlns="http://www.w3.org/2000/svg">
<path d="M55.32 148.728V20.4998H58.32V148.728C58.32 152.192 61.1279 155 64.5915 155H146.134C149.598 155 152.406 152.192 152.406 148.728V28.2712C152.406 24.8077 149.598 21.9998 146.134 21.9998H89.5016V18.9998H146.134C151.255 18.9998 155.406 23.1508 155.406 28.2712V148.728C155.406 153.849 151.255 158 146.134 158H64.5915C59.471 158 55.32 153.849 55.32 148.728Z" fill="white"/>
<path d="M102.002 43.8572C101.173 43.8572 100.502 43.1856 100.502 42.3572C100.502 41.5287 101.173 40.8572 102.002 40.8572L133.992 40.8572C134.82 40.8572 135.492 41.5288 135.492 42.3572C135.492 43.1856 134.82 43.8572 133.992 43.8572L102.002 43.8572Z" fill="white"/>
<path d="M107.002 59.4001C106.173 59.4001 105.502 58.7286 105.502 57.9001C105.502 57.0717 106.173 56.4001 107.002 56.4001L133.992 56.4001C134.82 56.4001 135.492 57.0717 135.492 57.9001C135.492 58.7286 134.82 59.4001 133.992 59.4001L107.002 59.4001Z" fill="white"/>
<path d="M104.502 74.9426C103.673 74.9426 103.002 74.271 103.002 73.4426C103.002 72.6142 103.673 71.9426 104.502 71.9426L133.992 71.9426C134.82 71.9426 135.492 72.6142 135.492 73.4426C135.492 74.2711 134.82 74.9426 133.992 74.9426L104.502 74.9426Z" fill="white"/>
<path d="M98.0016 90.4856C97.1732 90.4856 96.5017 89.814 96.5016 88.9856C96.5016 88.1572 97.1732 87.4856 98.0016 87.4856L133.992 87.4856C134.82 87.4856 135.492 88.1572 135.492 88.9856C135.492 89.814 134.82 90.4856 133.992 90.4856L98.0016 90.4856Z" fill="white"/>
<path d="M84.5016 106.029C83.6732 106.029 83.0017 105.357 83.0016 104.529C83.0017 103.7 83.6732 103.029 84.5016 103.029L133.992 103.029C134.82 103.029 135.492 103.7 135.492 104.529C135.492 105.357 134.82 106.029 133.992 106.029L84.5016 106.029Z" fill="white"/>
<path d="M73.8034 120.643C72.975 120.643 72.3034 119.971 72.3034 119.143C72.3034 118.314 72.975 117.643 73.8034 117.643L134.918 117.643C135.746 117.643 136.418 118.314 136.418 119.143C136.418 119.971 135.746 120.643 134.918 120.643L73.8034 120.643Z" fill="white"/>
<path d="M73.8063 136.186C72.9779 136.186 72.3063 135.514 72.3063 134.686C72.3063 133.857 72.9779 133.186 73.8063 133.186H115.492C116.32 133.186 116.992 133.857 116.992 134.686C116.992 135.514 116.32 136.186 115.492 136.186H73.8063Z" fill="white"/>
<path d="M37.9313 1.68931C40.3572 1.0067 42.894 0.706964 45.235 1.2147C47.6319 1.73457 49.7448 3.08785 51.234 5.53013C51.3774 5.76524 51.4537 6.03503 51.4538 6.3104V102.911C51.4538 103.267 51.3269 103.611 51.0964 103.883C48.4574 106.987 43.7722 110.79 38.2536 111.914C35.4614 112.483 32.4491 112.365 29.4235 111.11C26.5106 109.902 23.6807 107.677 21.0514 104.182C18.6965 103.34 15.5186 101.562 12.9616 98.7206C10.336 95.8033 8.35945 91.7491 8.6442 86.5067C6.66698 84.8799 4.30219 82.1707 2.83366 78.6708C1.25721 74.9136 0.717274 70.2432 2.79069 65.117C1.48851 63.1739 0.209478 60.2327 0.0231109 56.8592C-0.182551 53.1343 0.952888 48.9523 4.69889 45.1327C4.36887 41.9189 4.59142 37.362 6.29167 33.2157C7.9967 29.0581 11.213 25.2853 16.7575 23.8065C16.2176 21.6902 15.996 18.9796 16.7419 16.3387C17.7184 12.8813 20.3072 9.72499 25.4655 8.23814C28.4799 5.91911 33.2125 3.01712 37.9313 1.68931ZM44.5993 4.14634C42.9126 3.78051 40.9073 3.96823 38.7438 4.577C34.4096 5.7966 29.9002 8.57365 27.0758 10.784C26.9181 10.9074 26.7369 10.9983 26.5436 11.0506C22.1752 12.2339 20.328 14.6778 19.6286 17.1542C18.8942 19.7543 19.3806 22.5826 20.0798 24.3778C20.2433 24.798 20.2094 25.2697 19.987 25.662C19.7645 26.0542 19.3769 26.3259 18.9323 26.4012C13.5637 27.3113 10.6249 30.5571 9.06803 34.3534C7.48044 38.2246 7.36449 42.6287 7.76042 45.4793C7.82692 45.959 7.65784 46.4412 7.30631 46.7743C3.79016 50.1054 2.84959 53.6381 3.01823 56.6932C3.19081 59.8189 4.53471 62.5223 5.68815 64.0106C6.02905 64.4506 6.09818 65.0439 5.86784 65.5506C3.78431 70.1346 4.22069 74.2215 5.60026 77.5096C7.00025 80.8462 9.37564 83.3555 11.0866 84.6102C11.5136 84.9235 11.7437 85.4386 11.6921 85.9657C11.2329 90.6486 12.9015 94.1688 15.1921 96.7137C17.3713 99.1349 20.1062 100.657 22.0534 101.354L22.4313 101.483L22.5436 101.523C22.7997 101.628 23.0223 101.803 23.1862 102.028C25.6417 105.398 28.1624 107.339 30.5729 108.339C32.977 109.336 35.3717 109.44 37.6549 108.974C42.0657 108.076 46.0273 105.052 48.4538 102.345V6.75278C47.4372 5.26359 46.1186 4.47588 44.5993 4.14634Z" fill="white"/>
<path d="M26.7985 8.36269C29.3511 8.59917 35.115 10.3605 37.8708 15.7572C38.2476 16.495 37.9553 17.399 37.2175 17.7758C36.4797 18.1525 35.5757 17.8593 35.1989 17.1215C33.0932 12.9979 28.5267 11.5347 26.5212 11.349C25.6965 11.2724 25.0903 10.5419 25.1667 9.71719C25.2433 8.8925 25.9738 8.28633 26.7985 8.36269Z" fill="white"/>
<path d="M17.7741 23.2958C20.7953 23.2504 25.301 24.0086 29.0505 26.5028C32.8928 29.0589 35.8479 33.3898 35.6276 40.164C35.6006 40.9918 34.9077 41.6411 34.0798 41.6141C33.2519 41.5871 32.6027 40.8942 32.6296 40.0663C32.8144 34.3824 30.4102 31.0111 27.3884 29.0009C24.2737 26.9289 20.4106 26.2568 17.819 26.2958C16.9908 26.3082 16.3091 25.6465 16.2966 24.8182C16.2841 23.9899 16.9458 23.3082 17.7741 23.2958Z" fill="white"/>
<path d="M3.18913 64.2069C3.58833 63.4811 4.5004 63.216 5.22624 63.6151C6.77087 64.4646 11.4175 66.4595 16.9928 67.2421C17.8132 67.3572 18.3853 68.116 18.2702 68.9364C18.155 69.7567 17.3962 70.3279 16.5759 70.2128C10.605 69.3747 5.61264 67.2514 3.78093 66.244C3.05513 65.8448 2.79008 64.9327 3.18913 64.2069Z" fill="white"/>
<path d="M40.5241 66.4696C41.3516 66.5053 41.9932 67.2046 41.9577 68.0321C41.9221 68.8597 41.2228 69.5021 40.3952 69.4666C37.0324 69.322 29.3863 71.4039 27.2409 81.5711C27.0699 82.3817 26.2741 82.9003 25.4635 82.7293C24.653 82.5583 24.1344 81.7625 24.3053 80.952C26.8191 69.0392 36.0373 66.2766 40.5241 66.4696Z" fill="white"/>
<path d="M21.7604 81.9291C27.4358 81.1184 31.4366 83.9293 34.0192 87.5316C36.563 91.0797 37.8467 95.5151 38.2702 98.5238C38.3856 99.344 37.8149 100.103 36.9948 100.219C36.1746 100.335 35.4151 99.7629 35.2995 98.9427C34.9211 96.2543 33.7622 92.3212 31.5817 89.2796C29.4399 86.2921 26.4347 84.2916 22.1843 84.8988C21.3643 85.0158 20.6042 84.4463 20.487 83.6263C20.3698 82.8062 20.9403 82.0462 21.7604 81.9291Z" fill="white"/>
<path d="M15.486 36.7245C16.3097 36.6373 17.048 37.2338 17.1354 38.0575C17.665 43.0586 20.2101 47.325 23.8864 49.4139C27.4807 51.4562 32.4755 51.5935 38.3698 47.7235C39.0623 47.2688 39.9923 47.4617 40.4469 48.1542C40.9015 48.8466 40.7087 49.7767 40.0163 50.2313C33.3767 54.5906 27.1666 54.7276 22.405 52.0223C17.7254 49.3635 14.763 44.1341 14.153 38.3739C14.0658 37.5502 14.6623 36.8118 15.486 36.7245Z" fill="white"/>
<path d="M27.946 52.9017C27.946 52.0733 28.6176 51.4017 29.446 51.4017C30.2742 51.402 30.946 52.0735 30.946 52.9017C30.946 56.6297 28.8146 59.3549 26.4109 61.1771C24.0164 62.9923 21.1819 64.0554 19.2722 64.4926C18.4646 64.6774 17.6602 64.1722 17.4753 63.3646C17.2906 62.5572 17.7949 61.7527 18.6023 61.5677C20.1953 61.2031 22.6144 60.2904 24.5984 58.7865C26.573 57.2895 27.946 55.3522 27.946 52.9017Z" fill="white"/>
<path d="M26.7985 8.36269C29.3511 8.59917 35.115 10.3605 37.8708 15.7572C38.2476 16.495 37.9553 17.399 37.2175 17.7758C36.4797 18.1525 35.5757 17.8593 35.1989 17.1215C33.0932 12.9979 28.5267 11.5347 26.5212 11.349C25.6965 11.2724 25.0903 10.5419 25.1667 9.71719C25.2433 8.8925 25.9738 8.28633 26.7985 8.36269Z" fill="white"/>
<path d="M17.7741 23.2958C20.7953 23.2504 25.301 24.0086 29.0505 26.5028C32.8928 29.0589 35.8479 33.3898 35.6276 40.164C35.6006 40.9918 34.9077 41.6411 34.0798 41.6141C33.2519 41.5871 32.6027 40.8942 32.6296 40.0663C32.8144 34.3824 30.4102 31.0111 27.3884 29.0009C24.2737 26.9289 20.4106 26.2568 17.819 26.2958C16.9908 26.3082 16.3091 25.6465 16.2966 24.8182C16.2841 23.9899 16.9458 23.3082 17.7741 23.2958Z" fill="white"/>
<path d="M3.18913 64.2069C3.58833 63.4811 4.5004 63.216 5.22624 63.6151C6.77087 64.4646 11.4175 66.4595 16.9928 67.2421C17.8132 67.3572 18.3853 68.116 18.2702 68.9364C18.155 69.7567 17.3962 70.3279 16.5759 70.2128C10.605 69.3747 5.61264 67.2514 3.78093 66.244C3.05513 65.8448 2.79008 64.9327 3.18913 64.2069Z" fill="white"/>
<path d="M40.5241 66.4696C41.3516 66.5053 41.9932 67.2046 41.9577 68.0321C41.9221 68.8597 41.2228 69.5021 40.3952 69.4666C37.0324 69.322 29.3863 71.4039 27.2409 81.5711C27.0699 82.3817 26.2741 82.9003 25.4635 82.7293C24.653 82.5583 24.1344 81.7625 24.3053 80.952C26.8191 69.0392 36.0373 66.2766 40.5241 66.4696Z" fill="white"/>
<path d="M21.7604 81.9291C27.4358 81.1184 31.4366 83.9293 34.0192 87.5316C36.563 91.0797 37.8467 95.5151 38.2702 98.5238C38.3856 99.344 37.8149 100.103 36.9948 100.219C36.1746 100.335 35.4151 99.7629 35.2995 98.9427C34.9211 96.2543 33.7622 92.3212 31.5817 89.2796C29.4399 86.2921 26.4347 84.2916 22.1843 84.8988C21.3643 85.0158 20.6042 84.4463 20.487 83.6263C20.3698 82.8062 20.9403 82.0462 21.7604 81.9291Z" fill="white"/>
<path d="M15.486 36.7245C16.3097 36.6373 17.048 37.2338 17.1354 38.0575C17.665 43.0586 20.2101 47.325 23.8864 49.4139C27.4807 51.4562 32.4755 51.5935 38.3698 47.7235C39.0623 47.2688 39.9923 47.4617 40.4469 48.1542C40.9015 48.8466 40.7087 49.7767 40.0163 50.2313C33.3767 54.5906 27.1666 54.7276 22.405 52.0223C17.7254 49.3635 14.763 44.1341 14.153 38.3739C14.0658 37.5502 14.6623 36.8118 15.486 36.7245Z" fill="white"/>
<path d="M27.946 52.9017C27.946 52.0733 28.6176 51.4017 29.446 51.4017C30.2742 51.402 30.946 52.0735 30.946 52.9017C30.946 56.6297 28.8146 59.3549 26.4109 61.1771C24.0164 62.9923 21.1819 64.0554 19.2722 64.4926C18.4646 64.6774 17.6602 64.1722 17.4753 63.3646C17.2906 62.5572 17.7949 61.7527 18.6023 61.5677C20.1953 61.2031 22.6144 60.2904 24.5984 58.7865C26.573 57.2895 27.946 55.3522 27.946 52.9017Z" fill="white"/>
<path d="M69.2868 0.729222C66.8609 0.0466115 64.3241 -0.253124 61.9831 0.254612C59.5863 0.774479 57.4733 2.12776 55.9841 4.57004C55.8407 4.80516 55.7644 5.07494 55.7644 5.35031L55.7644 101.951C55.7644 102.307 55.8913 102.651 56.1218 102.923C58.7607 106.027 63.4459 109.83 68.9646 110.954C71.7568 111.523 74.769 111.405 77.7946 110.15C80.7075 108.942 83.5375 106.717 86.1667 103.222C88.5216 102.38 91.6995 100.601 94.2565 97.7605C96.8821 94.8432 98.8587 90.789 98.5739 85.5466C100.551 83.9198 102.916 81.2107 104.384 77.7107C105.961 73.9535 106.501 69.2832 104.427 64.157C105.73 62.2138 107.009 59.2726 107.195 55.8991C107.401 52.1743 106.265 47.9922 102.519 44.1726C102.849 40.9588 102.627 36.4019 100.926 32.2556C99.2214 28.098 96.0051 24.3252 90.4607 22.8464C91.0005 20.7301 91.2222 18.0195 90.4763 15.3786C89.4997 11.9212 86.911 8.76491 81.7526 7.27805C78.7382 4.95903 74.0057 2.05703 69.2868 0.729222ZM62.6189 3.18625C64.3055 2.82042 66.3108 3.00815 68.4743 3.61692C72.8085 4.83651 77.3179 7.61356 80.1423 9.82395C80.3001 9.94733 80.4812 10.0382 80.6745 10.0906C85.043 11.2738 86.8901 13.7177 87.5896 16.1941C88.3239 18.7943 87.8376 21.6225 87.1384 23.4177C86.9748 23.8379 87.0088 24.3096 87.2312 24.7019C87.4536 25.0941 87.8413 25.3658 88.2858 25.4411C93.6544 26.3512 96.5932 29.597 98.1501 33.3933C99.7377 37.2645 99.8536 41.6686 99.4577 44.5193C99.3912 44.9989 99.5603 45.4811 99.9118 45.8142C103.428 49.1453 104.369 52.678 104.2 55.7331C104.027 58.8589 102.683 61.5622 101.53 63.0505C101.189 63.4905 101.12 64.0838 101.35 64.5906C103.434 69.1745 102.997 73.2614 101.618 76.5495C100.218 79.8862 97.8425 82.3954 96.1315 83.6501C95.7045 83.9634 95.4745 84.4785 95.5261 85.0056C95.9852 89.6885 94.3166 93.2087 92.0261 95.7536C89.8469 98.1748 87.1119 99.6966 85.1647 100.394L84.7868 100.523L84.6745 100.563C84.4185 100.668 84.1958 100.843 84.0319 101.068C81.5765 104.438 79.0557 106.379 76.6452 107.379C74.2412 108.376 71.8464 108.479 69.5632 108.014C65.1524 107.116 61.1908 104.092 58.7644 101.384L58.7644 5.7927C59.7809 4.30351 61.0995 3.5158 62.6189 3.18625Z" fill="white"/>
<path d="M80.4196 7.40261C77.8671 7.63909 72.1032 9.40043 69.3473 14.7971C68.9706 15.5349 69.2628 16.4389 70.0006 16.8157C70.7384 17.1924 71.6425 16.8992 72.0192 16.1614C74.125 12.0378 78.6915 10.5746 80.6969 10.3889C81.5216 10.3124 82.1278 9.58186 82.0514 8.7571C81.9748 7.93241 81.2444 7.32624 80.4196 7.40261Z" fill="white"/>
<path d="M89.444 22.3357C86.4228 22.2903 81.9171 23.0485 78.1677 25.5427C74.3254 28.0988 71.3702 32.4297 71.5905 39.2039C71.6176 40.0317 72.3105 40.681 73.1384 40.6541C73.9662 40.627 74.6154 39.9341 74.5886 39.1062C74.4037 33.4223 76.808 30.051 79.8298 28.0408C82.9445 25.9688 86.8075 25.2967 89.3991 25.3357C90.2274 25.3481 90.9091 24.6864 90.9216 23.8582C90.934 23.0298 90.2724 22.3482 89.444 22.3357Z" fill="white"/>
<path d="M104.029 63.2468C103.63 62.521 102.718 62.256 101.992 62.655C100.447 63.5046 95.8006 65.4995 90.2253 66.282C89.4049 66.3971 88.8328 67.1559 88.9479 67.9763C89.0631 68.7966 89.8219 69.3678 90.6423 69.2527C96.6131 68.4146 101.606 66.2913 103.437 65.2839C104.163 64.8847 104.428 63.9727 104.029 63.2468Z" fill="white"/>
<path d="M66.694 65.51C65.8666 65.5457 65.225 66.245 65.2605 67.0725C65.296 67.9001 65.9954 68.5425 66.823 68.507C70.1857 68.3624 77.8318 70.4443 79.9772 80.6115C80.1483 81.4221 80.9441 81.9407 81.7546 81.7697C82.5651 81.5987 83.0837 80.8029 82.9128 79.9924C80.3991 68.0796 71.1808 65.317 66.694 65.51Z" fill="white"/>
<path d="M85.4577 80.969C79.7824 80.1583 75.7816 82.9692 73.1989 86.5715C70.6552 90.1196 69.3715 94.555 68.9479 97.5637C68.8325 98.3839 69.4032 99.1434 70.2233 99.259C71.0436 99.3744 71.8031 98.8028 71.9186 97.9826C72.297 95.2942 73.456 91.3611 75.6364 88.3196C77.7783 85.332 80.7834 83.3315 85.0339 83.9387C85.8538 84.0557 86.6139 83.4862 86.7311 82.6662C86.8483 81.8461 86.2778 81.0861 85.4577 80.969Z" fill="white"/>
<path d="M91.7321 35.7644C90.9084 35.6772 90.1701 36.2737 90.0827 37.0974C89.5532 42.0986 87.0081 46.3649 83.3317 48.4538C79.7374 50.4961 74.7426 50.6334 68.8483 46.7634C68.1558 46.3087 67.2259 46.5016 66.7712 47.1941C66.3167 47.8866 66.5094 48.8166 67.2019 49.2712C73.8415 53.6305 80.0516 53.7676 84.8132 51.0622C89.4927 48.4034 92.4552 43.174 93.0651 37.4138C93.1524 36.5901 92.5558 35.8518 91.7321 35.7644Z" fill="white"/>
<path d="M79.2721 51.9421C79.2721 51.1137 78.6006 50.4421 77.7721 50.4421C76.9439 50.4424 76.2721 51.1139 76.2721 51.9421C76.2721 55.6701 78.4035 58.3953 80.8073 60.2175C83.2017 62.0327 86.0362 63.0958 87.946 63.533C88.7535 63.7178 89.558 63.2126 89.7428 62.405C89.9275 61.5976 89.4232 60.7931 88.6159 60.6082C87.0229 60.2435 84.6037 59.3308 82.6198 57.8269C80.6451 56.33 79.2721 54.3926 79.2721 51.9421Z" fill="white"/>
<path d="M80.4196 7.40261C77.8671 7.63909 72.1032 9.40043 69.3473 14.7971C68.9706 15.5349 69.2628 16.4389 70.0006 16.8157C70.7384 17.1924 71.6425 16.8992 72.0192 16.1614C74.125 12.0378 78.6915 10.5746 80.6969 10.3889C81.5216 10.3124 82.1278 9.58186 82.0514 8.7571C81.9748 7.93241 81.2444 7.32624 80.4196 7.40261Z" fill="white"/>
<path d="M89.444 22.3357C86.4228 22.2903 81.9171 23.0485 78.1677 25.5427C74.3254 28.0988 71.3702 32.4297 71.5905 39.2039C71.6176 40.0317 72.3105 40.681 73.1384 40.6541C73.9662 40.627 74.6154 39.9341 74.5886 39.1062C74.4037 33.4223 76.808 30.051 79.8298 28.0408C82.9445 25.9688 86.8075 25.2967 89.3991 25.3357C90.2274 25.3481 90.9091 24.6864 90.9216 23.8582C90.934 23.0298 90.2724 22.3482 89.444 22.3357Z" fill="white"/>
<path d="M104.029 63.2468C103.63 62.521 102.718 62.256 101.992 62.655C100.447 63.5046 95.8006 65.4995 90.2253 66.282C89.4049 66.3971 88.8328 67.1559 88.9479 67.9763C89.0631 68.7966 89.8219 69.3678 90.6423 69.2527C96.6131 68.4146 101.606 66.2913 103.437 65.2839C104.163 64.8847 104.428 63.9727 104.029 63.2468Z" fill="white"/>
<path d="M66.694 65.51C65.8666 65.5457 65.225 66.245 65.2605 67.0725C65.296 67.9001 65.9954 68.5425 66.823 68.507C70.1857 68.3624 77.8318 70.4443 79.9772 80.6115C80.1483 81.4221 80.9441 81.9407 81.7546 81.7697C82.5651 81.5987 83.0837 80.8029 82.9128 79.9924C80.3991 68.0796 71.1808 65.317 66.694 65.51Z" fill="white"/>
<path d="M85.4577 80.969C79.7824 80.1583 75.7816 82.9692 73.1989 86.5715C70.6552 90.1196 69.3715 94.555 68.9479 97.5637C68.8325 98.3839 69.4032 99.1434 70.2233 99.259C71.0436 99.3744 71.8031 98.8028 71.9186 97.9826C72.297 95.2942 73.456 91.3611 75.6364 88.3196C77.7783 85.332 80.7834 83.3315 85.0339 83.9387C85.8538 84.0557 86.6139 83.4862 86.7311 82.6662C86.8483 81.8461 86.2778 81.0861 85.4577 80.969Z" fill="white"/>
<path d="M91.7321 35.7644C90.9084 35.6772 90.1701 36.2737 90.0827 37.0974C89.5532 42.0986 87.0081 46.3649 83.3317 48.4538C79.7374 50.4961 74.7426 50.6334 68.8483 46.7634C68.1558 46.3087 67.2259 46.5016 66.7712 47.1941C66.3167 47.8866 66.5094 48.8166 67.2019 49.2712C73.8415 53.6305 80.0516 53.7676 84.8132 51.0622C89.4927 48.4034 92.4552 43.174 93.0651 37.4138C93.1524 36.5901 92.5558 35.8518 91.7321 35.7644Z" fill="white"/>
<path d="M79.2721 51.9421C79.2721 51.1137 78.6006 50.4421 77.7721 50.4421C76.9439 50.4424 76.2721 51.1139 76.2721 51.9421C76.2721 55.6701 78.4035 58.3953 80.8073 60.2175C83.2017 62.0327 86.0362 63.0958 87.946 63.533C88.7535 63.7178 89.558 63.2126 89.7428 62.405C89.9275 61.5976 89.4232 60.7931 88.6159 60.6082C87.0229 60.2435 84.6037 59.3308 82.6198 57.8269C80.6451 56.33 79.2721 54.3926 79.2721 51.9421Z" fill="white"/>
</svg>
