<svg width="128" height="146" viewBox="0 0 128 146" fill="none" xmlns="http://www.w3.org/2000/svg">
<path d="M111.083 96.9183C111.083 96.0899 111.755 95.4183 112.583 95.4183H121.929C122.791 95.4183 123.396 94.9803 123.874 94.2132C124.323 93.4934 124.567 92.6 124.656 91.933L107.904 28.2455C105.671 22.0984 100.77 16.9011 94.1761 12.8295C87.5688 8.74966 79.3516 5.85879 70.7074 4.30992C53.3256 1.19556 34.731 3.58115 24.309 11.9642C12.764 21.2505 6.83153 30.8328 4.39099 40.0873C1.94696 49.3552 2.96579 58.4427 5.57947 66.7904C8.19603 75.1472 12.3939 82.7072 16.2396 88.8812C18.1672 91.9758 19.9795 94.6811 21.4808 97.0033C22.9458 99.2692 24.1658 101.246 24.7611 102.734C26.5606 107.232 27.557 115.215 28.1039 123.155C28.6043 130.418 28.7367 137.851 28.7045 142.999H88.6459L85.4496 127.732H76.0472C75.219 127.732 74.5473 127.06 74.5472 126.232C74.5472 125.403 75.2189 124.732 76.0472 124.732H99.8383C105.911 124.732 108.525 123.186 109.731 121.597C111 119.924 111.083 117.774 111.083 115.611V96.9183ZM114.083 115.611C114.083 117.667 114.081 120.828 112.121 123.411C110.099 126.077 106.34 127.732 99.8383 127.732H88.514L91.9603 144.192C92.0529 144.634 91.9405 145.095 91.6556 145.446C91.3708 145.796 90.9431 145.999 90.4916 145.999H27.1918C26.7906 145.999 26.4062 145.839 26.1244 145.553C25.8426 145.267 25.6863 144.88 25.6918 144.479C25.7621 139.414 25.6571 131.277 25.1117 123.361C24.5612 115.369 23.575 107.846 21.976 103.848C21.5092 102.681 20.4641 100.957 18.9613 98.6322C17.4948 96.364 15.6366 93.5888 13.6928 90.4681C9.79549 84.2113 5.44434 76.4001 2.71619 67.6869C-0.0147386 58.9647 -1.13685 49.2826 1.48963 39.3226C4.11974 29.3491 10.4702 19.2448 22.4281 9.62633C33.8225 0.461135 53.4629 -1.82755 71.2357 1.3568C80.1687 2.95735 88.7597 5.95908 95.7523 10.2767C102.521 14.4563 107.878 19.9255 110.5 26.6273L110.745 27.2796L110.786 27.4066L127.628 91.4388C127.672 91.6037 127.686 91.7748 127.672 91.9447C127.587 92.9641 127.24 94.4852 126.42 95.8002C125.574 97.1572 124.126 98.4183 121.929 98.4183H114.083V115.611Z" fill="white"/>
<path fill-rule="evenodd" clip-rule="evenodd" d="M69.4382 21.7603C74.7371 20.3541 81.1128 20.4822 87.1169 24.8853C93.3056 29.424 94.7646 35.8005 94.0144 41.7476C93.283 47.5439 90.4684 53.1356 87.8239 57.0289C85.1966 60.8966 78.568 68.5978 72.7605 75.1665C69.8234 78.4887 67.0444 81.5801 64.9997 83.8394C63.9773 84.9691 63.1375 85.8922 62.5534 86.5328C62.3997 86.7014 62.2624 86.85 62.1452 86.9781C61.9939 87.2465 61.8015 87.4978 61.5622 87.7173C60.9932 88.239 60.2769 88.4964 59.5612 88.5025C59.5343 88.5037 59.5072 88.502 59.4802 88.5025C59.4532 88.502 59.4261 88.5037 59.3991 88.5025C58.6839 88.4961 57.9688 88.2387 57.4001 87.7173C57.1596 87.4967 56.9649 87.2451 56.8132 86.9751C56.6967 86.8478 56.5614 86.7 56.4089 86.5328C55.8249 85.8922 54.9852 84.9694 53.9626 83.8394C51.9179 81.58 49.1391 78.4888 46.2019 75.1665C40.3943 68.5977 33.7657 60.8967 31.1384 57.0289C28.4938 53.1356 25.6793 47.544 24.948 41.7476C24.1977 35.8005 25.6567 29.424 31.8454 24.8853C37.8496 20.4824 44.2253 20.354 49.5241 21.7603C53.534 22.8246 57.0078 24.7788 59.4802 26.4966C61.9527 24.7786 65.4278 22.8247 69.4382 21.7603ZM83.5681 29.7232C79.3767 26.6496 74.989 26.4945 70.9773 27.5591C67.2084 28.5594 63.9025 30.6199 61.8308 32.2056C61.2273 32.9251 60.3555 33.2891 59.4802 33.274C58.6056 33.2887 57.7347 32.9251 57.1316 32.2066C55.0599 30.6208 51.7544 28.5596 47.9851 27.5591C43.9734 26.4944 39.5857 26.6497 35.3943 29.7232C31.3877 32.6614 30.3503 36.6309 30.9011 40.9966C31.471 45.5131 33.755 50.2024 36.1013 53.6568C38.4651 57.1368 44.7951 64.5174 50.697 71.1929C53.6143 74.4927 56.3775 77.565 58.4118 79.813C58.795 80.2364 59.1538 80.629 59.4812 80.9898C59.8085 80.6291 60.1675 80.2363 60.5505 79.813C62.5848 77.5651 65.3481 74.4925 68.2654 71.1929C74.1671 64.5175 80.4973 57.1367 82.8611 53.6568C85.2073 50.2025 87.4914 45.513 88.0612 40.9966C88.612 36.631 87.5746 32.6613 83.5681 29.7232Z" fill="white"/>
</svg>
