<svg width="129" height="146" viewBox="0 0 129 146" fill="none" xmlns="http://www.w3.org/2000/svg">
<path d="M16.5941 96.5288C16.5941 95.7003 15.9225 95.0288 15.0941 95.0288H5.74741C4.88619 95.0286 4.28112 94.5905 3.80307 93.8237C3.35439 93.1039 3.11041 92.2105 3.02182 91.5434L19.7757 27.8491C22.0099 21.705 26.8668 16.5664 33.4007 12.5668C39.9521 8.55661 48.1037 5.74728 56.7074 4.25239C73.9955 1.24859 92.6307 3.62058 103.415 11.6108C115.24 20.3718 121.301 29.6844 123.789 38.8217C126.282 47.978 125.232 57.1228 122.543 65.6069C119.853 74.0979 115.543 81.8573 111.604 88.1977C109.63 91.3743 107.775 94.1544 106.244 96.5288C104.75 98.8463 103.51 100.856 102.915 102.344C101.116 106.843 100.12 114.826 99.5726 122.765C99.0722 130.029 98.9398 137.461 98.972 142.61H39.0316L42.2269 127.342H51.6292C52.4576 127.342 53.1292 126.671 53.1292 125.842C53.1292 125.014 52.4577 124.342 51.6292 124.342H27.8392C21.7658 124.342 19.1514 122.797 17.9456 121.207C16.6763 119.534 16.5941 117.385 16.5941 115.221V96.5288ZM13.5941 115.221C13.5941 117.278 13.5968 120.439 15.556 123.021C17.579 125.687 21.3376 127.342 27.8392 127.342H39.1624L35.7171 143.802C35.6246 144.244 35.736 144.705 36.0208 145.056C36.3056 145.407 36.7334 145.61 37.1849 145.61H100.485C100.886 145.61 101.271 145.449 101.553 145.164C101.835 144.878 101.99 144.491 101.985 144.089C101.914 139.024 102.02 130.888 102.566 122.971C103.116 114.979 104.102 107.456 105.702 103.458C106.168 102.291 107.232 100.534 108.766 98.1547C110.263 95.8319 112.162 92.9837 114.152 89.7807C118.14 83.3614 122.602 75.3553 125.404 66.5131C128.208 57.664 129.373 47.907 126.684 38.0327C123.99 28.1395 117.472 18.2916 105.202 9.20064C93.4896 0.523383 73.8902 -1.77844 56.1937 1.29634C47.305 2.84075 38.7767 5.75868 31.8343 10.0083C25.1121 14.1231 19.7972 19.5395 17.1771 26.2377L16.932 26.8901L16.8919 27.017L0.0491638 91.0493C0.00578379 91.2142 -0.00892267 91.3852 0.00521851 91.5551C0.0901718 92.5746 0.437546 94.0957 1.25717 95.4106C2.10303 96.7675 3.55056 98.0286 5.74741 98.0288H13.5941V115.221Z" fill="white"/>
<path d="M48.8336 44.5307C48.8336 32.4241 58.6479 22.6098 70.7545 22.6098C82.8611 22.6098 92.6754 32.4241 92.6754 44.5307C92.6754 52.758 88.1439 59.9293 81.4332 63.6801L82.8961 66.2983C90.517 62.0388 95.6754 53.8882 95.6754 44.5307C95.6754 30.7673 84.5179 19.6098 70.7545 19.6098C56.9911 19.6098 45.8336 30.7673 45.8336 44.5307C45.8336 53.8882 50.9921 62.0388 58.6129 66.2983L60.0758 63.6801C53.3651 59.9293 48.8336 52.758 48.8336 44.5307Z" fill="white"/>
<path d="M54.8405 68.684C54.8405 67.5224 55.7824 66.5805 56.944 66.5805H84.568C85.7296 66.5805 86.6715 67.5224 86.6715 68.684C86.6713 69.8455 85.7295 70.7866 84.568 70.7866H56.944C55.7825 70.7866 54.8406 69.8455 54.8405 68.684ZM51.8405 68.684C51.8406 71.5023 54.1256 73.7866 56.944 73.7866H84.568C87.3863 73.7866 89.6713 71.5023 89.6715 68.684C89.6715 65.8656 87.3864 63.5805 84.568 63.5805H56.944C54.1255 63.5805 51.8405 65.8656 51.8405 68.684Z" fill="white"/>
<path d="M58.441 77.2978C58.441 76.1362 59.383 75.1943 60.5446 75.1943H80.9625C82.1241 75.1943 83.066 76.1362 83.066 77.2978C83.0659 78.4592 82.124 79.4003 80.9625 79.4003H60.5446C59.3831 79.4003 58.4412 78.4592 58.441 77.2978ZM55.441 77.2978C55.4412 80.1161 57.7262 82.4003 60.5446 82.4003H80.9625C83.7809 82.4003 86.0659 80.1161 86.066 77.2978C86.066 74.4794 83.781 72.1943 80.9625 72.1943H60.5446C57.7261 72.1943 55.441 74.4794 55.441 77.2978Z" fill="white"/>
<path d="M63.1217 79.4115C62.2989 79.3147 61.5534 79.9032 61.4566 80.726C61.2318 82.6376 61.4193 85.5321 62.8092 88.0141C64.2657 90.615 66.9681 92.6098 71.3541 92.6098C75.6068 92.6097 78.3146 91.0297 79.8307 88.8002C81.2838 86.6631 81.4848 84.1585 81.2467 82.4906C81.1295 81.6706 80.3695 81.1001 79.5494 81.2172C78.7293 81.3344 78.1598 82.0944 78.2769 82.9145C78.439 84.0491 78.2789 85.7479 77.3502 87.1137C76.4841 88.3873 74.788 89.6097 71.3541 89.6098C68.0532 89.6098 66.352 88.2011 65.4264 86.5483C64.4344 84.7767 64.2607 82.567 64.4361 81.0756C64.5327 80.253 63.9443 79.5083 63.1217 79.4115Z" fill="white"/>
<path d="M77.0572 63.748V55.3027L80.8902 50.9228C81.4355 50.2993 81.372 49.352 80.7486 48.8066C80.1252 48.2613 79.1779 48.3248 78.6324 48.9482L74.4283 53.7519C74.1891 54.0253 74.0572 54.3769 74.0572 54.7402V63.748C74.0573 64.5762 74.729 65.2478 75.5572 65.248C76.3856 65.248 77.0571 64.5764 77.0572 63.748Z" fill="white"/>
<path d="M65.0514 63.748V55.3027L61.2184 50.9228C60.6731 50.2993 60.7366 49.352 61.36 48.8066C61.9835 48.2613 62.9308 48.3248 63.4762 48.9482L67.6803 53.7519C67.9195 54.0253 68.0514 54.3769 68.0514 54.7402V63.748C68.0513 64.5762 67.3796 65.2478 66.5514 65.248C65.723 65.248 65.0515 64.5764 65.0514 63.748Z" fill="white"/>
</svg>
