<svg width="214" height="144" viewBox="0 0 214 144" fill="none" xmlns="http://www.w3.org/2000/svg">
<path d="M167.032 0L188.054 31.2041L188.311 31.584V38.1504H185.311V32.5L165.437 3H86.7454L64.8557 32.5371V36.1143H61.8557V31.5469L85.2336 0H167.032Z" fill="white"/>
<path d="M110.68 32.7926V35.7926H64.8553V127.312H140.337V130.312H61.8553V32.7926H110.68ZM188.31 32.7926V59.6832H185.31V35.7926H141.543V32.7926H188.31Z" fill="white"/>
<path d="M137.517 0L143.917 34.5596L143.941 34.6953V55.082H110.078V34.6953L110.104 34.5596L116.503 0H137.517ZM113.078 34.9678V52.082H140.941V34.9678L135.021 3H118.998L113.078 34.9678Z" fill="white"/>
<path d="M210.866 100.785C210.866 78.8518 193.085 61.0713 171.151 61.0713C149.218 61.0715 131.438 78.8519 131.438 100.785C131.438 122.376 148.667 139.944 170.127 140.487L171.151 140.5C192.742 140.5 210.31 123.27 210.854 101.811L210.866 100.785ZM213.866 100.785C213.866 124.376 194.742 143.5 171.151 143.5C147.561 143.5 128.438 124.375 128.438 100.785C128.438 77.195 147.561 58.0715 171.151 58.0713C194.742 58.0713 213.866 77.1949 213.866 100.785Z" fill="white"/>
<path d="M1.5 64.5C0.671574 64.5 0 63.8284 0 63C0 62.1716 0.671574 61.5 1.5 61.5L45.5 61.5C46.3284 61.5 47 62.1716 47 63C47 63.8284 46.3284 64.5 45.5 64.5H1.5Z" fill="white"/>
<path d="M11 84C10.1716 84 9.5 83.3284 9.5 82.5C9.5 81.6716 10.1716 81 11 81H47C47.8284 81 48.5 81.6716 48.5 82.5C48.5 83.3284 47.8284 84 47 84H11Z" fill="white"/>
<path d="M1.5 103.5C0.671574 103.5 0 102.828 0 102C0 101.172 0.671574 100.5 1.5 100.5H45.5C46.3284 100.5 47 101.172 47 102C47 102.828 46.3284 103.5 45.5 103.5H1.5Z" fill="white"/>
<path d="M171.566 83.6934C172.835 83.6934 174.081 83.7997 175.296 84.0049C176.32 84.1777 177.182 84.8681 177.574 85.8291C177.967 86.79 177.834 87.8856 177.225 88.7256C175.85 90.6195 174.021 93.9148 173.107 97.4482C172.184 101.017 172.32 104.279 174.026 106.726C178.355 112.931 185.096 115.883 187.703 116.528C188.689 116.772 189.486 117.499 189.818 118.459C190.151 119.419 189.974 120.482 189.35 121.283C185.205 126.605 178.788 130.048 171.566 130.048C158.96 130.048 148.86 119.604 148.859 106.871C148.859 94.1377 158.959 83.6934 171.566 83.6934ZM151.866 107.392C152.132 118.122 160.578 126.77 171.058 127.042L171.566 127.048C177.808 127.048 183.373 124.077 186.983 119.44C183.961 118.693 176.874 115.59 172.028 109.082L171.566 108.442C166.72 101.496 171.701 91.2282 174.797 86.9629C173.746 86.7854 172.667 86.6934 171.566 86.6934C160.683 86.6934 151.859 95.7274 151.859 106.871L151.866 107.392Z" fill="white"/>
<path d="M178.015 67.2529C179.314 67.2529 180.467 68.0901 180.868 69.3262L181.201 70.3516H182.279C183.579 70.3516 184.731 71.1879 185.133 72.4238C185.534 73.6599 185.094 75.0144 184.043 75.7783L183.17 76.4111L183.504 77.4375C183.905 78.6734 183.465 80.0271 182.414 80.791C181.363 81.5549 179.939 81.5549 178.888 80.791L178.015 80.1572L177.143 80.791C176.091 81.5549 174.668 81.5549 173.616 80.791C172.565 80.0271 172.125 78.6734 172.526 77.4375L172.86 76.4111L171.987 75.7783C170.936 75.0144 170.496 73.6599 170.898 72.4238C171.299 71.1879 172.451 70.3516 173.751 70.3516H174.829L175.162 69.3262L175.246 69.0986C175.708 67.9885 176.797 67.2531 178.015 67.2529ZM177.009 73.3516H173.751L176.387 75.2656L175.38 78.3643L178.015 76.4492L180.65 78.3643L179.644 75.2656L182.279 73.3516H179.022L178.015 70.2529L177.009 73.3516Z" fill="white"/>
<path d="M186.238 80.7041C187.362 80.7042 188.374 81.3311 188.887 82.2998C189.967 82.4884 190.876 83.257 191.224 84.3262C191.571 85.3952 191.287 86.5514 190.524 87.3389C190.679 88.4242 190.229 89.5258 189.319 90.1865C188.41 90.8474 187.222 90.9356 186.237 90.4531C185.253 90.9349 184.066 90.8471 183.157 90.1865C182.248 89.5256 181.797 88.4236 181.951 87.3379C181.189 86.5504 180.906 85.3949 181.253 84.3262C181.6 83.2572 182.509 82.4895 183.589 82.3008C184.102 81.3315 185.114 80.7041 186.238 80.7041ZM185.734 85.2529H184.106L185.424 86.2109L184.92 87.7598L186.238 86.8027L187.556 87.7598L187.053 86.2109L188.37 85.2529H186.741L186.238 83.7041L185.734 85.2529Z" fill="white"/>
</svg>
