<svg width="160" height="160" viewBox="0 0 160 160" fill="none" xmlns="http://www.w3.org/2000/svg">
<path d="M156 80C156 38.0264 121.974 4 80 4C38.0264 4 4 38.0264 4 80C4 97.1278 8.93154 115.348 18.0352 129.229C27.1252 143.088 40.2299 152.443 56.6465 152.443C56.6946 152.443 56.743 152.446 56.791 152.449C60.3953 152.71 65.7908 152.067 70.208 149.396C74.4888 146.809 78 142.243 78 134.18V103.82C78 102.716 78.8954 101.82 80 101.82C81.1046 101.82 82 102.716 82 103.82V134.18C82 143.678 77.7269 149.526 72.2773 152.82C66.9972 156.012 60.7611 156.73 56.5811 156.442C38.4663 156.417 24.2704 146.03 14.6895 131.422C5.11064 116.816 0 97.8148 0 80C0 35.8172 35.8172 0 80 0C124.183 0 160 35.8172 160 80C160 124.183 124.183 160 80 160C78.8954 160 78 159.105 78 158C78 156.895 78.8954 156 80 156C121.974 156 156 121.974 156 80Z" fill="white"/>
<path d="M84.6689 99.1494C84.6689 98.8915 84.4601 98.6826 84.2021 98.6826H73.9268C73.6689 98.6827 73.46 98.8915 73.46 99.1494V101.952C73.4601 102.21 73.6689 102.419 73.9268 102.419H84.2021C84.46 102.419 84.6688 102.21 84.6689 101.952V99.1494ZM87.4717 101.952C87.4716 103.758 86.0077 105.222 84.2021 105.222H73.9268C72.1212 105.222 70.6574 103.758 70.6572 101.952V99.1494C70.6573 97.3438 72.1212 95.8799 73.9268 95.8799H84.2021C86.0078 95.8799 87.4716 97.3438 87.4717 99.1494V101.952Z" fill="white"/>
<path d="M97.7471 64.1201H60.3818V77.1982C60.3821 87.5162 68.7465 95.8809 79.0645 95.8809C89.3824 95.8808 97.7468 87.5161 97.7471 77.1982V64.1201ZM100.55 77.1982C100.55 89.0638 90.9301 98.6825 79.0645 98.6826C67.1988 98.6826 57.5793 89.0639 57.5791 77.1982V62.7188C57.5791 61.9449 58.2066 61.3174 58.9805 61.3174H99.1484C99.9222 61.3175 100.55 61.945 100.55 62.7188V77.1982Z" fill="white"/>
<path d="M102.419 57.1137C102.419 56.8558 102.21 56.6469 101.952 56.6469H58.0478C57.7899 56.6469 57.581 56.8558 57.581 57.1137V60.85C57.581 61.1079 57.7899 61.3177 58.0478 61.3178H101.952C102.21 61.3178 102.419 61.108 102.419 60.85V57.1137ZM105.222 60.85C105.222 62.6557 103.758 64.1195 101.952 64.1195H58.0478C56.2422 64.1195 54.7783 62.6556 54.7783 60.85V57.1137C54.7783 55.3081 56.2422 53.8442 58.0478 53.8441H101.952C103.758 53.8441 105.222 55.3081 105.222 57.1137V60.85Z" fill="white"/>
<path d="M69.7246 36.5625C69.7245 35.2728 68.6784 34.2275 67.3887 34.2275C66.0991 34.2276 65.0538 35.2729 65.0537 36.5625V53.8438H69.7246V36.5625ZM72.5264 55.2451C72.5264 56.019 71.8989 56.6465 71.125 56.6465H63.6523C62.8785 56.6465 62.251 56.019 62.251 55.2451V36.5625C62.2511 33.7252 64.5513 31.4249 67.3887 31.4248C70.2261 31.4248 72.5263 33.7251 72.5264 36.5625V55.2451Z" fill="white"/>
<path d="M93.0801 36.5625C93.08 35.2728 92.0338 34.2275 90.7441 34.2275C89.4545 34.2276 88.4093 35.2729 88.4092 36.5625V53.8438H93.0801V36.5625ZM95.8818 55.2451C95.8818 56.019 95.2543 56.6465 94.4805 56.6465H87.0078C86.234 56.6465 85.6064 56.019 85.6064 55.2451V36.5625C85.6065 33.7252 87.9068 31.4249 90.7441 31.4248C93.5816 31.4248 95.8817 33.7251 95.8818 36.5625V55.2451Z" fill="white"/>
<path d="M80.4932 76.5311C79.6019 75.2635 77.852 74.9582 76.5843 75.8494C75.3168 76.7406 75.0116 78.4905 75.9026 79.7582C76.7938 81.0258 78.5437 81.3309 79.8114 80.4399C81.0792 79.5487 81.3844 77.7988 80.4932 76.5311ZM81.6364 75.7274C82.9714 77.6264 82.5142 80.2481 80.6151 81.5831C78.7161 82.918 76.0943 82.4608 74.7594 80.5618C73.4246 78.6629 73.8818 76.0411 75.7807 74.7061C77.6796 73.3712 80.3013 73.8285 81.6364 75.7274Z" fill="white"/>
<path d="M72.3333 69.5576C72.6489 69.3358 73.0842 69.4117 73.3061 69.7273C73.5279 70.0429 73.452 70.4782 73.1364 70.7001L72.113 71.4195L73.0367 73.5146C73.1376 73.7438 73.1082 74.0096 72.9593 74.2111C72.8064 74.4182 72.5671 74.7882 72.3724 75.1932C72.1675 75.6193 72.0604 75.9858 72.0661 76.2178C72.0742 76.5516 71.8448 76.8443 71.5188 76.9165L68.5739 77.5686L68.9114 80.3921L71.5104 80.204C71.8257 80.1811 72.1172 80.3728 72.221 80.6714C72.3193 80.9545 72.5137 81.4073 72.7634 81.8132C73.036 82.256 73.281 82.4884 73.4272 82.5451C73.7684 82.6775 73.9494 83.0504 73.8423 83.4005L73.074 85.9126L75.2897 87.1065L76.6682 84.7646L76.73 84.6759C76.8879 84.4831 77.1395 84.3863 77.3904 84.43C77.6731 84.4793 78.1559 84.5278 78.6426 84.5047C79.0928 84.4834 79.4451 84.4055 79.6588 84.2929L79.7412 84.2421L79.8502 84.1798C80.1134 84.0581 80.4306 84.1111 80.6403 84.3239L82.6204 86.3341L83.6286 85.6253C83.9443 85.4034 84.3801 85.4801 84.602 85.7957C84.8236 86.1114 84.7478 86.5467 84.4323 86.7685L82.94 87.8176C82.6606 88.0138 82.2805 87.979 82.0409 87.7358L79.998 85.6636C79.5706 85.8211 79.1045 85.8818 78.7083 85.9006C78.3281 85.9186 77.9549 85.9002 77.6384 85.8696L76.1541 88.3956C75.9636 88.7194 75.5511 88.8351 75.2204 88.6569L71.9066 86.8705C71.6135 86.7125 71.4727 86.369 71.5702 86.0506L72.3517 83.4945C72.0242 83.2153 71.7638 82.8546 71.5737 82.5457C71.3857 82.2402 71.2274 81.9193 71.1025 81.6343L68.348 81.8338C67.9758 81.8608 67.6477 81.5902 67.6035 81.2196L67.1124 77.1062C67.0699 76.7498 67.3048 76.4193 67.6551 76.3415L70.7307 75.6597C70.8124 75.2746 70.9632 74.8994 71.1133 74.5873C71.2673 74.2671 71.4426 73.9677 71.6005 73.7232L70.6038 71.4598L70.5638 71.3435C70.4965 71.0685 70.6027 70.7744 70.8409 70.6068L72.3333 69.5576Z" fill="white"/>
<path d="M72.0668 69.7442C71.7511 69.9662 71.6752 70.4014 71.8971 70.717C72.119 71.0327 72.5542 71.1086 72.8699 70.8867L73.8933 70.1672L75.5519 71.7456C75.7335 71.9182 75.9936 71.9805 76.2336 71.9086C76.4801 71.8348 76.9094 71.7349 77.3563 71.6888C77.8267 71.6402 78.2078 71.6635 78.4241 71.7474C78.7355 71.868 79.0886 71.7513 79.2669 71.4689L80.8774 68.9187L83.4199 70.192L82.3631 72.5739C82.2349 72.8629 82.3165 73.202 82.5623 73.4007C82.7954 73.5892 83.1558 73.9254 83.4531 74.2977C83.7776 74.7041 83.9132 75.0133 83.9171 75.17C83.9262 75.536 84.2159 75.8325 84.5815 75.8502L87.2054 75.9776L87.5788 78.4667L84.9085 78.9711L84.804 78.9991C84.5692 79.0825 84.3929 79.2865 84.3492 79.5373C84.2999 79.82 84.182 80.2908 83.9956 80.7409C83.8231 81.1573 83.6305 81.4625 83.4523 81.6254L83.3766 81.6858L83.281 81.7672C83.0774 81.9737 83.0199 82.2901 83.1492 82.5595L84.3703 85.1031L83.3621 85.8119C83.0465 86.0338 82.9711 86.4698 83.193 86.7855C83.415 87.1008 83.8502 87.1769 84.1658 86.9551L85.6582 85.906C85.9373 85.7096 86.0333 85.3401 85.8855 85.0323L84.6272 82.4086C84.9201 82.0597 85.135 81.6417 85.2868 81.2752C85.4324 80.9236 85.5415 80.5662 85.6198 80.258L88.4992 79.7165C88.8683 79.6468 89.1168 79.2978 89.061 78.9264L88.5019 75.2035C88.4524 74.8742 88.1769 74.6254 87.8443 74.6093L85.1745 74.4795C85.0227 74.0768 84.7714 73.7096 84.5451 73.4262C84.3213 73.1459 84.0729 72.8883 83.847 72.6743L84.9672 70.15C85.1186 69.8088 84.975 69.4085 84.6413 69.2415L80.937 67.387C80.6161 67.2263 80.2255 67.3354 80.0337 67.6388L78.351 70.3019C77.9611 70.2485 77.5569 70.2634 77.2125 70.2989C76.859 70.3354 76.5179 70.399 76.2344 70.4648L74.4421 68.7608L74.3462 68.6838C74.1101 68.5274 73.7975 68.5277 73.5591 68.6951L72.0668 69.7442Z" fill="white"/>
</svg>
