<svg width="206" height="159" viewBox="0 0 206 159" fill="none" xmlns="http://www.w3.org/2000/svg">
<path d="M95.4023 46.6723C104.947 44.5104 112.161 46.9866 117.234 51.0834C122.224 55.1127 125.047 60.6226 126.144 64.5268C126.442 65.5903 125.822 66.695 124.759 66.9936C123.695 67.2921 122.591 66.6713 122.293 65.6079C121.377 62.3442 118.947 57.6085 114.721 54.1958C110.578 50.8507 104.611 48.688 96.2861 50.5737C85.9354 52.9183 79.6753 60.3442 77.6435 69.0786C75.5997 77.8652 77.8566 87.9369 84.6406 95.3403C96.1812 107.935 116.744 127.921 125.598 136.353C126.397 137.115 126.428 138.381 125.666 139.181C124.904 139.981 123.639 140.011 122.839 139.249C113.984 130.816 93.333 110.747 81.6914 98.0424C73.9865 89.6341 71.4142 78.2015 73.747 68.1723C76.0922 58.0907 83.4159 49.3874 95.4023 46.6723Z" fill="white"/>
<path d="M132.78 130.146C132.012 129.352 130.746 129.331 129.952 130.099C127.425 132.544 125.2 134.678 123.441 136.353C122.642 137.115 122.611 138.381 123.373 139.181C124.135 139.981 125.4 140.011 126.2 139.249C127.967 137.567 130.2 135.425 132.733 132.974C133.527 132.206 133.548 130.94 132.78 130.146ZM153.637 46.6723C144.093 44.5106 136.879 46.9867 131.806 51.0834C126.816 55.1127 123.992 60.6225 122.896 64.5268C122.597 65.5901 123.217 66.6939 124.28 66.9926C125.344 67.2912 126.449 66.6713 126.747 65.6078C127.663 62.3442 130.092 57.6084 134.318 54.1957C138.461 50.8506 144.429 48.6879 152.754 50.5737C162.623 52.8094 168.812 59.5832 171.187 67.6782C173.575 75.8221 172.096 85.3125 166.478 92.8139C165.815 93.6979 165.995 94.9515 166.879 95.6137C167.763 96.2759 169.016 96.0963 169.679 95.2123C176.06 86.6929 177.765 75.8944 175.025 66.5522C172.271 57.1613 165.018 49.2503 153.637 46.6723Z" fill="white"/>
<path d="M158.971 107.899C158.971 105.148 156.811 102.901 154.094 102.763L153.83 102.756C150.99 102.756 148.687 105.059 148.687 107.899L148.694 108.164C148.828 110.793 150.936 112.901 153.565 113.034L153.83 113.04C156.581 113.04 158.827 110.88 158.965 108.164L158.971 107.899ZM161.832 107.899C161.832 112.318 158.249 115.901 153.83 115.901C149.41 115.901 145.827 112.318 145.827 107.899C145.827 103.479 149.41 99.8959 153.83 99.8959C158.249 99.8961 161.832 103.48 161.832 107.899Z" fill="white"/>
<path d="M153.187 116.608C159.205 116.608 163.096 118.098 165.357 120.744C167.572 123.334 167.616 126.375 167.616 127.825V130.684H140.042V127.825C140.042 126.234 140.348 123.385 142.34 120.895C144.43 118.283 147.928 116.608 153.187 116.608ZM153.187 119.468C143.931 119.468 142.902 125.254 142.902 127.825H164.757C164.757 125.039 164.419 119.468 153.187 119.468Z" fill="white"/>
<path d="M178.969 116.714C178.969 102.836 167.894 91.5449 154.101 91.1953L153.441 91.1865C139.343 91.1865 127.914 102.615 127.914 116.714L127.923 117.373C128.267 130.948 139.208 141.888 152.782 142.232L153.441 142.241C167.319 142.241 178.61 131.167 178.96 117.373L178.969 116.714ZM181.969 116.714C181.969 132.469 169.197 145.241 153.441 145.241C137.686 145.241 124.914 132.469 124.914 116.714C124.914 100.959 137.686 88.1865 153.441 88.1865C169.197 88.1865 181.969 100.959 181.969 116.714Z" fill="white"/>
<path d="M96.0292 141.972L108.661 123.884C109.452 122.752 111.01 122.476 112.142 123.266C113.274 124.057 113.551 125.615 112.761 126.747L97.1662 149.079L62.7721 123.24L43.331 150.7C42.5331 151.827 40.973 152.093 39.8462 151.295C38.7195 150.497 38.4531 148.937 39.2509 147.811L61.6644 116.155L96.0292 141.972ZM91.6064 114.926L94.5645 110.789C95.3674 109.665 96.9286 109.406 98.0518 110.209C99.175 111.011 99.4352 112.573 98.6327 113.696L92.6974 122L58.3056 96.164L20.5073 148.44C19.6984 149.558 18.1359 149.81 17.017 149.001C15.8983 148.192 15.6467 146.63 16.4555 145.511L57.2384 89.1079L91.6064 114.926ZM184.047 47.4126L172.893 40.3986L164.103 53.201C163.322 54.3389 161.766 54.6284 160.628 53.8473C159.49 53.0658 159.2 51.5091 159.981 50.3709L171.49 33.6096L179.755 38.8071L182.344 8.12204L155.298 20.5452L162.173 24.7886L144.615 49.3545C143.813 50.4778 142.252 50.7379 141.128 49.9354C140.005 49.1326 139.744 47.5706 140.547 46.4473L154.993 26.2333L144.728 19.8987L188.048 -9.4069e-06L184.047 47.4126Z" fill="white"/>
</svg>
