<svg width="203" height="136" viewBox="0 0 203 136" fill="none" xmlns="http://www.w3.org/2000/svg">
<path d="M165.535 7.20801C165.535 4.88398 163.65 3 161.326 3H35.7471C33.4231 3.00008 31.5391 4.88402 31.5391 7.20801V101.964C31.5392 104.288 33.4232 106.172 35.7471 106.172H161.326C163.65 106.172 165.535 104.288 165.535 101.964V88.6289H168.535V101.964C168.535 105.945 165.307 109.172 161.326 109.172H35.7471C31.7663 109.172 28.5392 105.945 28.5391 101.964V7.20801C28.5391 3.22717 31.7662 7.93701e-05 35.7471 0H161.326C165.307 0 168.535 3.22712 168.535 7.20801V48.5859H165.535V7.20801Z" fill="white"/>
<path d="M165.324 103.888L165.484 103.897C165.855 103.937 166.2 104.114 166.449 104.396L192.136 133.508C192.526 133.95 192.62 134.58 192.378 135.117C192.135 135.654 191.6 136 191.011 136H1.49995C0.893255 136 0.346378 135.634 0.114206 135.074C-0.117949 134.513 0.010412 133.868 0.439401 133.439L29.5507 104.328C29.832 104.047 30.2135 103.888 30.6113 103.888H165.324ZM5.12104 133H187.686L164.647 106.888H31.2324L5.12104 133Z" fill="white"/>
<path d="M158.262 11.4163V48.5862H155.262V14.4163H42.957V94.7552H155.262V88.9202H158.262V97.7552H39.957V11.4163H158.262Z" fill="white"/>
<path d="M186.369 52.1566C186.369 51.0935 185.507 50.2318 184.444 50.2318H149.054C147.991 50.2318 147.129 51.0935 147.129 52.1566V86.4056C147.129 87.4686 147.99 88.3303 149.054 88.3304H175.749V91.3304H149.054C146.334 91.3303 144.129 89.1255 144.129 86.4056V52.1566C144.129 49.4367 146.334 47.2318 149.054 47.2318H184.444C187.164 47.2318 189.369 49.4367 189.369 52.1566V82.2816H186.369V52.1566Z" fill="white"/>
<path d="M174.502 73.7273C174.967 73.4288 175.558 73.4093 176.041 73.6775L201.727 87.948C202.19 88.205 202.483 88.6868 202.499 89.2156C202.514 89.7445 202.249 90.2427 201.803 90.5262L178.399 105.367C177.955 105.649 177.395 105.677 176.925 105.442C176.454 105.207 176.142 104.742 176.1 104.218L173.817 75.1062C173.774 74.5555 174.037 74.0259 174.502 73.7273ZM178.895 101.499L198.063 89.3445L177.025 77.657L178.895 101.499Z" fill="white"/>
<path d="M188.725 96.0199C189.405 95.5469 190.34 95.7148 190.813 96.3949L199.946 109.524C200.419 110.204 200.251 111.139 199.571 111.612C198.891 112.084 197.956 111.917 197.483 111.237L188.35 98.1077C187.877 97.4277 188.045 96.4929 188.725 96.0199Z" fill="white"/>
<path d="M74.5635 86.4058V89.4058H56.2969V86.4058H74.5635ZM76.1299 84.8394V25.4741C76.1298 24.6091 75.4284 23.9079 74.5635 23.9077H56.2969C55.4318 23.9078 54.7305 24.609 54.7305 25.4741V84.8394C54.7306 85.7043 55.4319 86.4057 56.2969 86.4058V89.4058L56.0615 89.3999C53.7267 89.2813 51.8545 87.4087 51.7363 85.0737L51.7305 84.8394V25.4741C51.7305 22.9522 53.7749 20.9078 56.2969 20.9077H74.5635L74.7979 20.9136C77.2107 21.0358 79.1298 23.0309 79.1299 25.4741V84.8394L79.124 85.0737C79.0058 87.4089 77.1331 89.2817 74.7979 89.3999L74.5635 89.4058V86.4058C75.4284 86.4056 76.1297 85.7043 76.1299 84.8394Z" fill="white"/>
<path d="M139.066 27.9697C139.895 27.9698 140.566 28.6414 140.566 29.4697C140.566 30.2981 139.895 30.9696 139.066 30.9697H90.5469C89.7184 30.9697 89.0469 30.2982 89.0469 29.4697C89.0469 28.6413 89.7184 27.9697 90.5469 27.9697H139.066Z" fill="white"/>
<path d="M124.225 38.8154C125.053 38.8154 125.725 39.487 125.725 40.3154C125.725 41.1439 125.053 41.8154 124.225 41.8154H90.5469C89.7184 41.8154 89.0469 41.1439 89.0469 40.3154C89.0469 39.487 89.7184 38.8154 90.5469 38.8154H124.225Z" fill="white"/>
<path d="M89.0469 74.1362C89.0469 73.3078 89.7185 72.6362 90.5469 72.6362C91.3753 72.6362 92.0468 73.3078 92.0469 74.1362V78.2017H96.4688C97.2971 78.2017 97.9687 78.8733 97.9688 79.7017C97.9688 80.5301 97.2972 81.2017 96.4688 81.2017H90.5469C89.7184 81.2017 89.0469 80.5301 89.0469 79.7017V74.1362ZM120.158 78.2017C120.986 78.2018 121.658 78.8734 121.658 79.7017C121.658 80.53 120.987 81.2015 120.158 81.2017H108.313C107.485 81.2016 106.813 80.5301 106.813 79.7017C106.814 78.8733 107.485 78.2017 108.313 78.2017H120.158ZM136.425 74.1362C136.425 73.3078 137.096 72.6362 137.925 72.6362C138.753 72.6364 139.425 73.3079 139.425 74.1362V79.7017C139.425 80.53 138.753 81.2015 137.925 81.2017H132.002C131.174 81.2014 130.502 80.53 130.502 79.7017C130.502 78.8734 131.174 78.2019 132.002 78.2017H136.425V74.1362ZM89.0469 63.0054V57.4399C89.0469 56.6115 89.7184 55.9399 90.5469 55.9399H96.4688C97.2972 55.9399 97.9688 56.6115 97.9688 57.4399C97.9688 58.2684 97.2972 58.9399 96.4688 58.9399H92.0469V63.0054C92.0469 63.8338 91.3753 64.5054 90.5469 64.5054C89.7184 64.5054 89.0469 63.8338 89.0469 63.0054ZM136.425 63.0054V58.9399H132.002C131.174 58.9397 130.502 58.2682 130.502 57.4399C130.502 56.6116 131.174 55.9402 132.002 55.9399H137.925C138.753 55.9401 139.425 56.6116 139.425 57.4399V63.0054C139.425 63.8337 138.753 64.5052 137.925 64.5054C137.096 64.5054 136.425 63.8338 136.425 63.0054ZM120.158 55.9399C120.987 55.9401 121.658 56.6116 121.658 57.4399C121.658 58.2683 120.987 58.9398 120.158 58.9399H108.313C107.485 58.9399 106.813 58.2684 106.813 57.4399C106.813 56.6115 107.485 55.94 108.313 55.9399H120.158Z" fill="white"/>
</svg>
