<svg width="181" height="146" viewBox="0 0 181 146" fill="none" xmlns="http://www.w3.org/2000/svg">
<path d="M63.9377 28.061C55.6872 36.3117 52.1877 47.5127 53.4416 58.2719C53.5375 59.0948 52.9476 59.8395 52.1248 59.9354C51.302 60.0312 50.5579 59.442 50.462 58.6192C49.1064 46.9884 52.8901 34.8662 61.8164 25.9397C77.3139 10.4422 102.44 10.4423 117.937 25.9397C124.004 32.0058 127.697 39.5512 129.014 47.4153C129.15 48.2323 128.599 49.0049 127.782 49.1417C126.965 49.2784 126.192 48.7275 126.055 47.9104C124.838 40.6419 121.426 33.6711 115.816 28.061C101.49 13.7351 78.2636 13.7351 63.9377 28.061ZM117.937 82.0608C102.44 97.5581 77.3139 97.5581 61.8164 82.0608C61.2306 81.475 61.2306 80.5253 61.8164 79.9395C62.4022 79.3537 63.352 79.3537 63.9377 79.9395C78.2636 94.2652 101.49 94.2652 115.816 79.9395C119.914 75.8421 122.838 71.0201 124.591 65.8878C124.859 65.104 125.711 64.6857 126.495 64.9535C127.278 65.2213 127.697 66.0735 127.429 66.8573C125.531 72.4137 122.366 77.6324 117.937 82.0608Z" fill="white"/>
<path d="M129.252 48.8025C128.82 49.3684 128.038 49.5566 127.39 49.2321L122.808 46.9414C122.067 46.5709 121.767 45.6696 122.137 44.9287C122.508 44.1877 123.409 43.8877 124.15 44.2582L127.511 45.9385L129.496 42.7561C129.934 42.0533 130.859 41.8384 131.562 42.2768C132.265 42.7152 132.479 43.6404 132.04 44.3433L129.334 48.6844L129.252 48.8025Z" fill="white"/>
<path d="M61.2154 81.0702C61.2457 80.3585 61.7783 79.7569 62.4961 79.6512L67.564 78.9046C68.3835 78.784 69.1456 79.351 69.2663 80.1705C69.387 80.9901 68.82 81.7522 68.0004 81.8729L64.2832 82.4205L64.4788 86.1661C64.5219 86.9933 63.8867 87.6992 63.0595 87.7424C62.2322 87.7856 61.5271 87.1497 61.4838 86.3224L61.2159 81.2138L61.2154 81.0702Z" fill="white"/>
<path d="M176.551 9.00488C176.551 7.27751 175.15 5.87718 173.423 5.87695H6.88184C5.15447 5.8772 3.75416 7.27752 3.75391 9.00488V114.417C3.75391 116.145 5.15431 117.546 6.88184 117.546H173.423C175.15 117.546 176.551 116.145 176.551 114.417V9.00488ZM180.305 114.417C180.305 118.218 177.224 121.3 173.423 121.3H6.88184C3.08103 121.3 0 118.218 0 114.417V9.00488C0.000253303 5.20424 3.08119 2.1233 6.88184 2.12305H173.423C177.224 2.12328 180.304 5.20422 180.305 9.00488V114.417Z" fill="white"/>
<path d="M178.377 98.3717V102.126H1.87695V98.3717H178.377Z" fill="white"/>
<path d="M75.001 135.749L74.7451 135.736C73.483 135.608 72.498 134.542 72.498 133.246V119.422H108.568V133.246C108.568 134.628 107.447 135.749 106.065 135.749H75.001ZM76.252 131.995H104.814V123.176H76.252V131.995Z" fill="white"/>
<path d="M106.985 126.017C115.521 126.592 122.546 127.641 127.484 129.024C129.94 129.712 131.992 130.512 133.472 131.448C134.864 132.329 136.263 133.667 136.263 135.559C136.263 136.807 135.621 137.812 134.859 138.551C134.102 139.286 133.085 139.904 131.94 140.438C129.642 141.509 126.42 142.423 122.547 143.174C114.769 144.681 103.964 145.599 91.6719 145.599C79.3794 145.599 68.2021 144.68 60.0547 143.177C55.9965 142.428 52.5955 141.517 50.165 140.457C48.9567 139.93 47.8823 139.32 47.0811 138.598C46.2854 137.88 45.5625 136.863 45.5625 135.559C45.5626 133.645 47.0772 132.352 48.4277 131.543C49.9093 130.655 51.9521 129.888 54.3623 129.222C59.2115 127.882 65.9865 126.835 73.8662 126.201L74.167 129.943C66.4047 130.568 59.8911 131.588 55.3623 132.84C53.0836 133.47 51.415 134.129 50.3574 134.763C49.6996 135.157 49.453 135.433 49.3623 135.56C49.4047 135.616 49.474 135.702 49.5947 135.811C49.9719 136.151 50.6362 136.566 51.666 137.016C53.7121 137.908 56.7892 138.757 60.7354 139.485C68.5969 140.936 79.5357 141.845 91.6719 141.845C103.809 141.845 114.361 140.936 121.833 139.488C125.584 138.761 128.461 137.917 130.354 137.035C131.306 136.592 131.907 136.184 132.245 135.856C132.401 135.705 132.467 135.602 132.495 135.55C132.448 135.446 132.254 135.12 131.465 134.621C130.432 133.968 128.78 133.285 126.472 132.639C121.884 131.354 115.145 130.33 106.732 129.763L106.985 126.017Z" fill="white"/>
<path d="M107.002 62.3V50H110.257V62.3H107.002Z" fill="white"/>
<path d="M92.3105 62.3V50H95.7924L97.6469 55.0336C97.7604 55.3742 97.8676 55.7274 97.9686 56.0933C98.0695 56.4591 98.1767 56.8249 98.2903 57.1908H98.366C98.4795 56.8249 98.5867 56.4591 98.6876 56.0933C98.7886 55.7274 98.8958 55.3742 99.0093 55.0336L100.788 50H104.27V62.3H101.318V58.6668C101.318 58.2505 101.343 57.7837 101.394 57.2665C101.444 56.7366 101.501 56.2068 101.564 55.6769C101.627 55.1471 101.684 54.6803 101.734 54.2766H101.659L100.637 57.2286L99.1229 61.2971H97.382L95.8681 57.2286L94.8841 54.2766H94.8084C94.8589 54.6803 94.9156 55.1471 94.9787 55.6769C95.0418 56.2068 95.0986 56.7366 95.149 57.2665C95.1995 57.7837 95.2247 58.2505 95.2247 58.6668V62.3H92.3105Z" fill="white"/>
<path d="M81.7949 62.3V50H89.7426V52.7249H85.0497V54.6551H89.0614V57.38H85.0497V59.5751H89.9319V62.3H81.7949Z" fill="white"/>
<path d="M69.877 62.3V50H74.532C75.4151 50 76.2288 50.1198 76.9731 50.3595C77.7174 50.5866 78.3167 50.9903 78.7708 51.5706C79.225 52.1509 79.4521 52.952 79.4521 53.9739C79.4521 54.8569 79.2691 55.5886 78.9033 56.1689C78.5374 56.7493 78.0581 57.2034 77.4651 57.5314L80.1333 62.3H76.5001L74.3807 58.1748H73.1317V62.3H69.877ZM73.1317 55.6013H74.305C75.617 55.6013 76.273 55.0588 76.273 53.9739C76.273 53.444 76.1027 53.0782 75.7621 52.8763C75.4341 52.6745 74.9484 52.5735 74.305 52.5735H73.1317V55.6013Z" fill="white"/>
</svg>
