<svg width="155" height="155" viewBox="0 0 155 155" fill="none" xmlns="http://www.w3.org/2000/svg">
<path d="M105.051 139.347C105.051 138.123 104.487 137.29 103.684 136.679C102.871 136.061 101.864 135.728 101.184 135.615H78.4122C75.513 135.615 73.8454 136.414 72.9122 137.224C71.977 138.036 71.671 138.949 71.6251 139.425V155H68.4005V139.29L68.4054 139.232C68.4996 137.915 69.194 136.183 70.798 134.79C72.4291 133.373 74.8978 132.39 78.4122 132.39H101.433L101.546 132.407C102.649 132.564 104.258 133.067 105.634 134.113C107.057 135.195 108.275 136.907 108.276 139.347V155H105.051V139.347Z" fill="white"/>
<path d="M142.082 139.347C142.082 138.123 141.518 137.29 140.715 136.679C139.902 136.061 138.895 135.728 138.215 135.615H115.443C112.544 135.615 110.877 136.414 109.943 137.224C109.008 138.036 108.702 138.949 108.656 139.425V155H105.432V139.29L105.437 139.232C105.531 137.915 106.225 136.183 107.829 134.79C109.46 133.373 111.929 132.39 115.443 132.39H138.464L138.577 132.407C139.68 132.564 141.29 133.067 142.665 134.113C144.089 135.195 145.307 136.907 145.307 139.347V155H142.082V139.347Z" fill="white"/>
<path d="M138.352 59.7837V63.0083H107.81V59.7837H138.352Z" fill="white"/>
<path d="M138.35 72.4518L138.35 75.6764L85.6653 75.6765L85.6653 72.4518L138.35 72.4518Z" fill="white"/>
<path d="M154.469 14.0405V91.3286H62.7579C61.8678 91.3286 61.1459 90.6074 61.1456 89.7173C61.1456 88.827 61.8677 88.105 62.7579 88.105H151.244V17.2651H50.923C50.0327 17.2651 49.3107 16.5431 49.3107 15.6528C49.3107 14.7626 50.0327 14.0405 50.923 14.0405H154.469Z" fill="white"/>
<path d="M41.212 14.8887C41.2118 8.4464 35.9883 3.22363 29.546 3.22363C23.1039 3.22389 17.8812 8.44656 17.881 14.8887C17.881 21.331 23.1037 26.5544 29.546 26.5547V29.7783L29.1622 29.7734C21.1168 29.5696 14.6573 22.9832 14.6573 14.8887C14.6576 6.666 21.3233 0.000260283 29.546 0C37.7689 0 44.4354 6.66584 44.4357 14.8887L44.4308 15.2734C44.2269 23.3189 37.6406 29.7783 29.546 29.7783V26.5547C35.9885 26.5547 41.212 21.3312 41.212 14.8887Z" fill="white"/>
<path d="M96.1857 114.914C96.1855 111.001 93.0139 107.83 89.1017 107.83C85.1896 107.83 82.0178 111.001 82.0177 114.914C82.0177 118.826 85.1895 121.997 89.1017 121.998V125.222L88.5714 125.208C83.1251 124.932 78.7941 120.429 78.7941 114.914C78.7942 109.221 83.409 104.606 89.1017 104.606C94.7945 104.606 99.4101 109.221 99.4103 114.914L99.3966 115.444C99.1207 120.89 94.6168 125.222 89.1017 125.222V121.998C93.014 121.998 96.1857 118.826 96.1857 114.914Z" fill="white"/>
<path d="M133.217 114.914C133.217 111.001 130.045 107.83 126.133 107.83C122.221 107.83 119.049 111.001 119.049 114.914C119.049 118.826 122.221 121.997 126.133 121.998V125.222L125.603 125.208C120.156 124.932 115.825 120.429 115.825 114.914C115.825 109.221 120.44 104.606 126.133 104.606C131.826 104.606 136.441 109.221 136.442 114.914L136.428 115.444C136.152 120.89 131.648 125.222 126.133 125.222V121.998C130.045 121.998 133.217 118.826 133.217 114.914Z" fill="white"/>
<path d="M87.4894 44.6677C87.4894 42.3211 86.4958 40.9105 85.2843 40.0212C84.0097 39.0856 82.4372 38.7001 81.4074 38.6443H16.5646C10.4624 38.6443 7.1383 40.9165 5.33022 43.532C3.45584 46.2434 3.05278 49.5559 3.27846 51.7566L3.28725 51.8386V96.1218H11.1349V89.3347C11.135 88.4447 11.8562 87.7236 12.7462 87.7234C13.6365 87.7234 14.3584 88.4445 14.3585 89.3347V148.425H29.0783V104.224C29.0783 103.334 29.7995 102.612 30.6896 102.612C31.5799 102.612 32.3019 103.334 32.3019 104.224V148.425H45.1124V50.3093H81.8478C82.7988 50.3093 84.2614 50.0102 85.4396 49.1619C86.5355 48.3727 87.4893 47.0434 87.4894 44.6677ZM90.713 44.6677C90.713 48.0944 89.2496 50.3922 87.3234 51.7791C85.4794 53.1067 83.3147 53.5329 81.8478 53.533H48.3361V151.649H11.1349V99.3455H0.0636181V51.99C-0.199106 49.2286 0.291506 45.1512 2.67788 41.699C5.1584 38.1107 9.53383 35.4197 16.5646 35.4197H81.506L81.546 35.4216C83.0618 35.4974 85.294 36.0289 87.1916 37.4216C89.1614 38.8675 90.713 41.2115 90.713 44.6677Z" fill="white"/>
<path d="M132.462 49.0139V36.0083H134.108V49.0139H132.462Z" fill="white"/>
<path d="M124.532 49.0139V37.3961H120.607V36.0083H130.123V37.3961H126.197V49.0139H124.532Z" fill="white"/>
<path d="M115.241 49.2519C114.329 49.2519 113.483 49.0801 112.703 48.7364C111.923 48.3796 111.249 47.9104 110.681 47.3288L111.672 46.1789C112.135 46.668 112.677 47.0645 113.298 47.3685C113.932 47.6592 114.586 47.8046 115.26 47.8046C116.12 47.8046 116.787 47.613 117.263 47.2297C117.739 46.8332 117.977 46.3177 117.977 45.6833C117.977 45.2339 117.877 44.8771 117.679 44.6127C117.494 44.3484 117.236 44.1237 116.906 43.9386C116.589 43.7536 116.225 43.5686 115.816 43.3835L113.952 42.5707C113.542 42.3989 113.133 42.1742 112.723 41.8966C112.326 41.6191 111.989 41.2622 111.712 40.826C111.447 40.3899 111.315 39.8546 111.315 39.2202C111.315 38.5593 111.487 37.9711 111.831 37.4557C112.188 36.927 112.677 36.5173 113.298 36.2265C113.919 35.9225 114.619 35.7705 115.399 35.7705C116.179 35.7705 116.899 35.9225 117.56 36.2265C118.221 36.5173 118.783 36.9006 119.245 37.3764L118.353 38.447C117.957 38.0637 117.514 37.7663 117.025 37.5548C116.549 37.3301 116.007 37.2178 115.399 37.2178C114.672 37.2178 114.084 37.3896 113.635 37.7332C113.199 38.0769 112.981 38.5395 112.981 39.121C112.981 39.5308 113.086 39.8744 113.298 40.152C113.522 40.4163 113.8 40.6344 114.13 40.8062C114.461 40.978 114.798 41.1366 115.142 41.282L116.985 42.075C117.488 42.2865 117.937 42.5442 118.333 42.8482C118.743 43.139 119.067 43.5025 119.305 43.9386C119.543 44.3616 119.662 44.8969 119.662 45.5445C119.662 46.2318 119.483 46.8596 119.126 47.428C118.77 47.9831 118.261 48.4258 117.6 48.7563C116.939 49.0867 116.153 49.2519 115.241 49.2519Z" fill="white"/>
<path d="M100.614 49.014V36.0084H104.679C105.564 36.0084 106.351 36.1273 107.038 36.3653C107.725 36.5899 108.261 36.9732 108.644 37.5151C109.04 38.0438 109.239 38.7575 109.239 39.6563C109.239 40.6608 108.974 41.4736 108.446 42.0948C107.917 42.7028 107.203 43.1192 106.304 43.3439L109.615 49.014H107.752L104.619 43.5223H102.26V49.014H100.614ZM102.26 42.1741H104.441C105.458 42.1741 106.238 41.9693 106.78 41.5596C107.322 41.1366 107.593 40.5022 107.593 39.6563C107.593 38.7972 107.322 38.1958 106.78 37.8522C106.238 37.5085 105.458 37.3367 104.441 37.3367H102.26V42.1741Z" fill="white"/>
</svg>
