<svg width="171" height="162" viewBox="0 0 171 162" fill="none" xmlns="http://www.w3.org/2000/svg">
<path d="M68.1758 133.994V125.176H71.1758V133.994C71.1758 134.027 71.2024 134.053 71.2354 134.054H75.6768V137.054H71.2354C69.5456 137.053 68.1758 135.684 68.1758 133.994ZM167.15 132.997V19.0908C167.15 18.5073 166.677 18.0344 166.094 18.0341H143.594V15.0341H166.094C168.334 15.0344 170.15 16.8505 170.15 19.0908V132.997C170.15 135.237 168.334 137.053 166.094 137.054H126.271V134.054H166.094C166.677 134.053 167.15 133.581 167.15 132.997ZM68.1758 19.0908C68.176 16.8504 69.9921 15.0343 72.2324 15.0341H95.9854V18.0341H72.2324C71.6489 18.0343 71.176 18.5073 71.1758 19.0908V58.581H68.1758V19.0908Z" fill="white"/>
<path d="M97.2451 21.6509C97.3107 22.2954 97.8548 22.7983 98.5166 22.7983H141.063L141.192 22.7915C141.794 22.7306 142.273 22.2526 142.334 21.6509L142.341 21.52V11.5483C142.341 10.8863 141.837 10.3421 141.192 10.2769L141.063 10.27V7.27002C143.425 7.27024 145.341 9.18562 145.341 11.5483V21.52C145.341 23.8828 143.425 25.7981 141.063 25.7983H98.5166C96.1538 25.7983 94.2383 23.8829 94.2383 21.52V11.5483C94.2384 9.18553 96.1538 7.27011 98.5166 7.27002V10.27C97.8107 10.2701 97.2384 10.8424 97.2383 11.5483V21.52L97.2451 21.6509ZM141.063 7.27002V10.27H98.5166V7.27002H141.063Z" fill="white"/>
<path d="M119.164 0C123.66 0 127.555 3.34526 127.555 7.76465H124.555C124.555 5.26478 122.279 3 119.164 3C116.049 3 113.773 5.26478 113.773 7.76465H110.773C110.773 3.34526 114.668 1.89186e-06 119.164 0Z" fill="white"/>
<path d="M153.58 32.7505C154.983 32.7507 156.121 33.8882 156.121 35.2915C156.121 36.6948 154.983 37.8323 153.58 37.8325H84.7441C83.3408 37.8325 82.2031 36.6949 82.2031 35.2915C82.2031 33.8881 83.3408 32.7505 84.7441 32.7505H153.58Z" fill="white"/>
<path d="M153.58 46.5312C154.983 46.5314 156.121 47.669 156.121 49.0723C156.121 50.4755 154.983 51.6131 153.58 51.6133H84.7441C83.3408 51.6133 82.2031 50.4756 82.2031 49.0723C82.2031 47.6689 83.3408 46.5313 84.7441 46.5312H153.58Z" fill="white"/>
<path d="M156.541 60.3643C157.944 60.3644 159.082 61.502 159.082 62.9053C159.082 64.3086 157.944 65.4461 156.541 65.4463H119.352C117.948 65.4463 116.811 64.3087 116.811 62.9053C116.811 61.5019 117.948 60.3643 119.352 60.3643H156.541Z" fill="white"/>
<path d="M156.542 74.2022C157.945 74.2022 159.083 75.3398 159.083 76.7432C159.083 78.1466 157.945 79.2842 156.542 79.2842H131.461C130.058 79.2842 128.92 78.1466 128.92 76.7432C128.92 75.3398 130.058 74.2022 131.461 74.2022H156.542Z" fill="white"/>
<path d="M156.541 88.04C157.944 88.04 159.082 89.1777 159.082 90.5811C159.082 91.9844 157.944 93.1221 156.541 93.1221H134.055C132.651 93.1221 131.514 91.9844 131.514 90.5811C131.514 89.1777 132.651 88.04 134.055 88.04H156.541Z" fill="white"/>
<path d="M156.541 101.878C157.944 101.878 159.082 103.016 159.082 104.419C159.082 105.822 157.944 106.96 156.541 106.96H129.73C128.327 106.96 127.189 105.822 127.189 104.419C127.189 103.016 128.327 101.878 129.73 101.878H156.541Z" fill="white"/>
<path d="M156.541 118.311C157.944 118.311 159.082 119.448 159.082 120.852C159.082 122.255 157.944 123.392 156.541 123.393H119.352C117.948 123.393 116.811 122.255 116.811 120.852C116.811 119.448 117.948 118.311 119.352 118.311H156.541Z" fill="white"/>
<path d="M122.014 87.8354C122.014 75.4913 112.163 65.4481 99.8936 65.1372L99.3076 65.1294C86.7675 65.1294 76.6016 75.2954 76.6016 87.8354L76.6094 88.4214C76.9154 100.496 86.6471 110.228 98.7217 110.534L99.3076 110.542C111.652 110.541 121.695 100.69 122.006 88.4214L122.014 87.8354ZM126.474 87.8354C126.474 102.839 114.311 115.001 99.3076 115.001C84.3044 115.001 72.1417 102.839 72.1416 87.8354C72.1416 72.8322 84.3043 60.6694 99.3076 60.6694C114.311 60.6696 126.474 72.8323 126.474 87.8354Z" fill="white"/>
<path d="M99.6445 75.5366V88.4438H107.821V92.9038H95.1836V75.5366H99.6445Z" fill="white"/>
<path d="M36.6888 26.876C42.0516 24.6238 54.3465 23.7548 62.6677 36.4843L63.0615 37.1005L63.1022 37.1663L63.1374 37.234C64.8632 40.4878 67.0211 48.7513 63.9066 58.5024L71.0221 68.8038C71.7221 69.8171 71.4682 71.2064 70.4549 71.9064C69.4416 72.6061 68.0533 72.3516 67.3534 71.3385L58.9527 59.1788L59.3366 58.102C62.5085 49.2094 60.4745 41.7946 59.2291 39.3858C53.589 30.3829 45.8711 29.3826 41.0932 30.2274L50.1273 43.7949L50.1617 43.8484L48.2707 45.0314C50.1612 43.8487 50.1626 43.8497 50.1632 43.8507L50.1669 43.8565C50.1689 43.8597 50.171 43.8639 50.1734 43.8679C50.1785 43.876 50.1853 43.8856 50.1921 43.8969C50.2058 43.9196 50.2228 43.9488 50.2432 43.984C50.284 44.0543 50.3378 44.1503 50.4003 44.268C50.525 44.5027 50.6873 44.8308 50.8559 45.2344C51.1893 46.0324 51.5686 47.1769 51.7051 48.5099C51.8426 49.8517 51.7374 51.4319 51.0458 53.0296C50.347 54.6439 49.1105 56.1349 47.2113 57.3671C45.312 58.5991 43.4482 59.1194 41.6911 59.0907C39.9521 59.0622 38.4747 58.4993 37.3166 57.8134C36.1666 57.1322 35.2896 56.3063 34.7077 55.6685C34.4133 55.3459 34.1845 55.0605 34.0244 54.8485C33.9442 54.7421 33.8801 54.6529 33.8336 54.5862C33.8104 54.5529 33.7915 54.5248 33.7767 54.5029C33.7698 54.4926 33.7637 54.4836 33.7586 54.4759L24.5766 40.6735C23.5808 42.0845 22.6037 43.7285 21.9718 45.7398C20.9641 48.947 20.8066 53.2613 23.6043 59.0611C26.4148 64.8875 29.8215 67.6478 33.1866 69.209C34.9123 70.0095 36.6862 70.5214 38.4892 70.9428C40.152 71.3314 42.2322 71.7185 43.8657 72.143L44.6951 72.3592L94.6559 148.116L94.6957 148.177L94.7296 148.237L94.7313 148.238C94.733 148.241 94.7372 148.248 94.743 148.258C94.7548 148.278 94.7744 148.312 94.8023 148.358C94.8581 148.45 94.9458 148.591 95.064 148.772C95.3011 149.136 95.6592 149.658 96.127 150.263C97.0705 151.485 98.4224 153 100.095 154.266C101.769 155.532 103.677 156.485 105.754 156.734C107.784 156.978 110.168 156.575 112.899 154.816C115.602 153.076 116.864 151.082 117.385 149.133C117.922 147.123 117.726 144.946 117.126 142.826C116.529 140.713 115.566 138.789 114.733 137.373C114.319 136.671 113.946 136.108 113.681 135.726C113.548 135.535 113.442 135.391 113.373 135.297C113.338 135.25 113.313 135.216 113.297 135.195L113.282 135.175L113.231 135.111L113.186 135.043L104.402 121.971C103.716 120.949 103.988 119.564 105.01 118.877C106.032 118.19 107.418 118.462 108.105 119.484L116.849 132.498C116.876 132.533 116.912 132.581 116.956 132.641C117.051 132.768 117.183 132.949 117.343 133.179C117.663 133.639 118.098 134.297 118.576 135.11C119.527 136.725 120.682 139.011 121.418 141.612C122.152 144.206 122.506 147.246 121.694 150.285C120.865 153.385 118.878 156.271 115.313 158.566C111.778 160.842 108.363 161.539 105.222 161.162C102.129 160.79 99.4917 159.401 97.4047 157.822C95.3164 156.242 93.6907 154.406 92.5967 152.989C92.046 152.276 91.6196 151.656 91.3277 151.208C91.1817 150.984 91.0683 150.802 90.9895 150.672C90.9501 150.607 90.9186 150.555 90.8963 150.517C90.8945 150.514 90.893 150.511 90.8913 150.508L41.9232 76.258C40.5575 75.9368 39.2088 75.6907 37.4746 75.2854C35.5352 74.8321 33.429 74.2375 31.3093 73.2542C26.9833 71.2472 22.834 67.7286 19.5876 60.9985C16.3284 54.2417 16.3477 48.759 17.7161 44.4034C19.046 40.1706 21.6284 37.1651 22.91 35.4705L24.8045 32.965L37.4722 52.006L37.4784 52.0143L37.4919 52.0352C37.5086 52.0592 37.5401 52.1026 37.5844 52.1613C37.6734 52.2792 37.8138 52.4564 38.0021 52.6628C38.3862 53.0838 38.9286 53.5846 39.5895 53.9761C40.2425 54.3628 40.9689 54.6186 41.7646 54.6316C42.5422 54.6442 43.5455 54.4285 44.7833 53.6256C46.0211 52.8227 46.637 51.9872 46.9528 51.2578C47.2755 50.512 47.3474 49.7305 47.2691 48.9651C47.1898 48.1908 46.9614 47.4817 46.7408 46.9535C46.6325 46.6944 46.5315 46.4912 46.4619 46.3603C46.4274 46.2952 46.4004 46.2491 46.3857 46.2238C46.3842 46.2212 46.3824 46.219 46.3812 46.2168L34.2001 27.9212L36.6888 26.876Z" fill="white"/>
</svg>
