<svg width="119" height="187" viewBox="0 0 119 187" fill="none" xmlns="http://www.w3.org/2000/svg">
<path d="M38.4659 100.602V103.602H3.00003V174.433H61.6319V177.433H3.05176e-05V100.602H38.4659ZM99.4326 100.602V121.935H96.4326V103.602H62.5742V100.602H99.4326Z" fill="white"/>
<path d="M40.668 101.743V114.888H61.7764V101.743H64.7764V117.888H37.668V101.743H40.668Z" fill="white"/>
<path d="M115.16 152.479C115.16 135.614 101.702 121.892 84.9396 121.467L84.1388 121.457C67.0061 121.457 53.1173 135.346 53.1173 152.479L53.1271 153.279C53.5451 169.776 66.8415 183.072 83.338 183.49L84.1388 183.5C101.004 183.5 114.726 170.042 115.151 153.279L115.16 152.479ZM118.16 152.479C118.16 171.268 102.928 186.5 84.1388 186.5C65.3493 186.5 50.1173 171.268 50.1173 152.479C50.1173 133.689 65.3493 118.457 84.1388 118.457C102.928 118.457 118.16 133.689 118.16 152.479Z" fill="white"/>
<path d="M82.6582 0L99.4326 24.8984V30.1279H96.4326V25.8154L81.0625 3H19.9355L3 25.8516V28.5381H0V24.8613L18.4238 0H82.6582Z" fill="white"/>
<path d="M38.4659 25.6148V28.6148H3.00003V99.4459H96.4326V28.6148H62.5742V25.6148H99.4326V102.446H3.05176e-05V25.6148H38.4659Z" fill="white"/>
<path d="M59.7021 0L64.751 27.2637L64.7764 27.3994V43.6826H37.668V27.3994L37.6934 27.2637L42.7422 0H59.7021ZM40.668 27.6719V40.6826H61.7764V27.6768L57.207 3H45.2373L40.668 27.6719Z" fill="white"/>
<path d="M74.6963 132.85C75.6077 131.812 77.1875 131.711 78.2246 132.622L100.312 152.033L78.2676 172.339C77.252 173.274 75.6707 173.209 74.7353 172.193C73.8002 171.178 73.8654 169.596 74.8809 168.661L92.8369 152.12L74.9238 136.378C73.8867 135.466 73.7848 133.887 74.6963 132.85Z" fill="white"/>
</svg>
