<svg width="88" height="174" viewBox="0 0 88 174" fill="none" xmlns="http://www.w3.org/2000/svg">
<path d="M75.0822 85.4655C76.8291 85.2269 79.4697 85.3979 81.717 86.7937C84.08 88.2615 85.7744 90.941 85.7052 95.1921C85.6271 99.9966 84.9671 107.652 84.1193 114.837C83.2751 121.991 82.2262 128.848 81.3439 132.001C80.7257 134.21 80.402 138.634 80.2756 143.448C80.1509 148.195 80.2197 153.117 80.3215 156.194L80.3732 157.744H30.1623L30.1047 156.303C29.9786 153.18 29.5539 148.206 28.6935 143.479C28.2633 141.116 27.7295 138.846 27.0822 136.914C26.4252 134.953 25.6923 133.468 24.9259 132.571C22.5554 129.797 16.8259 122.927 14.4338 115.735C13.2314 112.12 12.8032 108.221 14.2775 104.667C15.771 101.066 19.0786 98.1438 24.6564 96.2292L25.63 99.0671C20.5954 100.795 18.1164 103.24 17.048 105.816C15.9606 108.438 16.195 111.524 17.2804 114.788C19.4641 121.353 24.8097 127.816 27.2072 130.622C28.3479 131.957 29.2283 133.875 29.9269 135.961C30.6353 138.075 31.1995 140.496 31.6447 142.942C32.4123 147.159 32.8419 151.544 33.0295 154.744H77.2795C77.2038 151.656 77.1693 147.453 77.2765 143.369C77.4013 138.619 77.7191 133.819 78.4543 131.192C79.2639 128.299 80.2921 121.669 81.1398 114.485C81.984 107.331 82.6306 99.7946 82.7062 95.1433C82.7601 91.8301 81.5067 90.1948 80.1349 89.3425C78.6476 88.4186 76.7663 88.2636 75.4884 88.4382L75.0822 85.4655Z" fill="white"/>
<path d="M40.0197 52.1917C40.0197 48.5997 37.1078 45.6878 33.5158 45.6878C29.9238 45.6879 27.0119 48.5997 27.0119 52.1917V110.888H24.0119V52.1917C24.0119 46.9429 28.2669 42.6879 33.5158 42.6878C38.7647 42.6878 43.0197 46.9429 43.0197 52.1917V89.6937H40.0197V52.1917Z" fill="white"/>
<path d="M57.3613 79.5386C57.3613 75.5782 54.1508 72.3677 50.1904 72.3677C46.2301 72.3677 43.0196 75.5782 43.0195 79.5386V89.5435H40.0195V79.5386C40.0196 73.9214 44.5732 69.3677 50.1904 69.3677C55.8077 69.3677 60.3613 73.9213 60.3613 79.5386V89.5435H57.3613V79.5386Z" fill="white"/>
<path d="M73.3711 84.2075C73.3711 80.6155 70.4592 77.7036 66.8672 77.7036C63.2752 77.7036 60.3633 80.6155 60.3633 84.2075V89.9487H57.3633V84.2075C57.3633 78.9587 61.6183 74.7036 66.8672 74.7036C72.1161 74.7036 76.3711 78.9587 76.3711 84.2075V94.8794H73.3711V84.2075Z" fill="white"/>
<path d="M26.5156 167.917V160.577C26.5156 157.263 29.2019 154.577 32.5156 154.577V157.577C30.8588 157.577 29.5156 158.92 29.5156 160.577V167.917C29.5156 169.574 30.8588 170.917 32.5156 170.917H78.541C80.1979 170.917 81.541 169.574 81.541 167.917V160.577C81.541 158.92 80.1979 157.577 78.541 157.577V154.577C81.8547 154.577 84.541 157.263 84.541 160.577V167.917C84.541 171.231 81.8547 173.917 78.541 173.917H32.5156C29.2019 173.917 26.5156 171.231 26.5156 167.917ZM78.541 154.577V157.577H32.5156V154.577H78.541Z" fill="white"/>
<path d="M84.042 43.4844C84.042 21.1269 65.9008 3 43.5205 3C21.1404 3.00018 3 21.127 3 43.4844C3.00011 55.5215 8.25658 66.3303 16.6064 73.748C17.2258 74.2982 17.2816 75.2469 16.7314 75.8662C16.1813 76.4852 15.2335 76.5412 14.6143 75.9912C5.65094 68.0286 0.000105577 56.4149 0 43.4844C0 19.4677 19.486 0.000179207 43.5205 0C67.5552 0 87.042 19.4676 87.042 43.4844C87.042 47.8324 86.4025 52.034 85.2119 55.999C84.9737 56.7924 84.1371 57.243 83.3438 57.0049C82.5503 56.7666 82.1006 55.9301 82.3389 55.1367C83.4464 51.4485 84.042 47.5372 84.042 43.4844Z" fill="white"/>
<path d="M36.1856 163.581C36.1856 164.686 35.2897 165.582 34.1846 165.582C33.0795 165.582 32.1836 164.686 32.1836 163.581C32.1836 162.475 33.0795 161.58 34.1846 161.58C35.2897 161.58 36.1856 162.475 36.1856 163.581Z" fill="white"/>
<path d="M28.4873 44.1595V47.1595H23.8672V54.4085H24.4521V57.4085H20.8672V44.1595H28.4873Z" fill="white"/>
<path d="M43.1113 31.7752V56.9207H40.1113V34.7752H36.9492V44.8054H33.9492V31.7752H43.1113Z" fill="white"/>
<path d="M53.1904 37.3269V57.409H44.0703V37.3269H53.1904ZM47.0703 54.409H50.1904V40.3269H47.0703V54.409Z" fill="white"/>
<path d="M63.8652 35.2342V57.8357H54.7031V35.2342H63.8652ZM57.7031 54.8357H60.8652V38.2342H57.7031V54.8357Z" fill="white"/>
<path d="M27.376 37.8877C27.376 37.251 26.8603 36.7345 26.2236 36.7344C25.5868 36.7344 25.0703 37.2509 25.0703 37.8877C25.0705 38.4846 25.5241 38.9751 26.1055 39.0342L26.2236 39.04C26.8206 39.0399 27.3113 38.5864 27.3701 38.0049L27.376 37.8877ZM29.376 37.8877C29.3758 39.6288 27.9648 41.0399 26.2236 41.04C24.5367 41.04 23.1587 39.7157 23.0742 38.0498L23.0703 37.8877L23.0742 37.7256C23.1584 36.0594 24.5365 34.7344 26.2236 34.7344L26.3857 34.7383C28.0516 34.8228 29.376 36.2008 29.376 37.8877Z" fill="white"/>
<path d="M38.0238 23.9548C37.7689 23.3713 37.0896 23.1045 36.5061 23.3592C35.9226 23.6141 35.656 24.2941 35.9109 24.8777C36.1499 25.4246 36.762 25.6926 37.3184 25.514L37.429 25.4721C37.976 25.233 38.2441 24.621 38.0653 24.0645L38.0238 23.9548ZM39.8566 23.1543C40.5533 24.7499 39.8251 26.6078 38.2296 27.3049C36.6837 27.9801 34.8908 27.318 34.1465 25.8252L34.0781 25.6782L34.0168 25.5281C33.427 23.9675 34.1595 22.2017 35.7056 21.5264L35.8557 21.4651C37.4162 20.8757 39.1813 21.6084 39.8566 23.1543Z" fill="white"/>
<path d="M58.5088 29.8164C58.5088 29.1797 57.9931 28.6632 57.3564 28.6631C56.7196 28.6631 56.2031 29.1796 56.2031 29.8164C56.2033 30.4133 56.657 30.9038 57.2383 30.9629L57.3564 30.9688C57.9534 30.9686 58.4441 30.5151 58.5029 29.9336L58.5088 29.8164ZM60.5088 29.8164C60.5086 31.5575 59.0976 32.9686 57.3564 32.9688C55.6695 32.9688 54.2915 31.6444 54.207 29.9785L54.2031 29.8164L54.207 29.6543C54.2913 27.9881 55.6693 26.6631 57.3564 26.6631L57.5186 26.667C59.1845 26.7515 60.5088 28.1295 60.5088 29.8164Z" fill="white"/>
<path d="M49.2822 30.9692C49.2822 30.3325 48.7665 29.8161 48.1299 29.8159C47.4931 29.8159 46.9766 30.3324 46.9766 30.9692C46.9767 31.5661 47.4304 32.0567 48.0117 32.1157L48.1299 32.1216C48.7269 32.1214 49.2175 31.6679 49.2764 31.0864L49.2822 30.9692ZM51.2822 30.9692C51.2821 32.7104 49.871 34.1214 48.1299 34.1216C46.443 34.1216 45.065 32.7972 44.9805 31.1313L44.9766 30.9692L44.9805 30.8071C45.0647 29.141 46.4428 27.8159 48.1299 27.8159L48.292 27.8198C49.9579 27.9043 51.2822 29.2823 51.2822 30.9692Z" fill="white"/>
<path d="M34.9873 25.1777C35.3483 24.7598 35.9804 24.7132 36.3984 25.0742C36.8163 25.4352 36.8619 26.0664 36.501 26.4844L27.9404 36.3975C27.5795 36.8153 26.9482 36.8616 26.5303 36.501C26.1123 36.14 26.0658 35.5078 26.4267 35.0898L34.9873 25.1777Z" fill="white"/>
<path d="M38.0508 24.3994C38.3436 23.9314 38.9605 23.7894 39.4287 24.082L46.6377 28.5879C47.1059 28.8807 47.2487 29.4976 46.956 29.9658C46.6634 30.434 46.0464 30.5757 45.5781 30.2832L38.3682 25.7773C37.9001 25.4845 37.7581 24.8676 38.0508 24.3994Z" fill="white"/>
<path d="M55.5693 29.3408C56.1216 29.3408 56.5693 29.7885 56.5693 30.3408C56.5693 30.8931 56.1216 31.3408 55.5693 31.3408H50.6133C50.061 31.3408 49.6133 30.8931 49.6133 30.3408C49.6133 29.7885 50.061 29.3408 50.6133 29.3408H55.5693Z" fill="white"/>
<path d="M70.7014 42.1866C70.7012 27.1751 58.5322 15.006 43.5207 15.006C28.5093 15.0061 16.3402 27.1752 16.34 42.1866C16.34 49.9124 19.5616 56.8836 24.7385 61.8341C25.1755 62.252 25.626 62.6558 26.09 63.0441L24.1652 65.3448C23.6502 64.914 23.1501 64.4658 22.6652 64.0021C16.9211 58.5091 13.34 50.7647 13.34 42.1866C13.3402 25.5184 26.8524 12.0061 43.5207 12.006C60.1891 12.006 73.7012 25.5183 73.7014 42.1866C73.7014 58.8551 60.1891 72.3673 43.5207 72.3673C42.9711 72.3673 42.4247 72.3534 41.882 72.3243L42.0422 69.3282C42.5315 69.3544 43.0246 69.3673 43.5207 69.3673C58.5323 69.3673 70.7014 57.1982 70.7014 42.1866Z" fill="white"/>
</svg>
