<svg width="179" height="169" viewBox="0 0 179 169" fill="none" xmlns="http://www.w3.org/2000/svg">
<path d="M124.574 106.477C122.534 103.575 118.527 102.876 115.626 104.916C112.724 106.956 112.025 110.963 114.065 113.865C116.105 116.766 120.111 117.465 123.013 115.425C125.915 113.385 126.614 109.379 124.574 106.477ZM126.551 105.087C129.359 109.081 128.397 114.595 124.403 117.402C120.409 120.21 114.896 119.248 112.088 115.254C109.281 111.26 110.242 105.747 114.236 102.94C118.23 100.132 123.743 101.093 126.551 105.087Z" fill="white"/>
<path d="M106.119 90.8333C106.665 90.4497 107.418 90.581 107.802 91.1268C108.186 91.6726 108.054 92.426 107.509 92.8098L104.903 94.6412L107.147 99.7289C107.321 100.126 107.27 100.586 107.013 100.934C106.65 101.425 106.091 102.293 105.633 103.245C105.158 104.233 104.877 105.141 104.892 105.768C104.907 106.346 104.51 106.853 103.946 106.978L96.8608 108.546L97.718 115.732L104.04 115.274C104.585 115.235 105.089 115.566 105.269 116.083C105.501 116.752 105.957 117.816 106.547 118.774C107.176 119.795 107.794 120.427 108.258 120.607C108.848 120.836 109.161 121.482 108.976 122.087L107.121 128.143L112.811 131.209L116.154 125.522L116.261 125.37C116.534 125.036 116.969 124.869 117.404 124.944C118.075 125.062 119.209 125.174 120.355 125.12C121.549 125.063 122.529 124.834 123.077 124.449C123.56 124.11 124.218 124.169 124.633 124.59L129.398 129.427L131.976 127.615C132.522 127.231 133.276 127.363 133.659 127.909C134.043 128.454 133.911 129.208 133.366 129.592L129.95 131.992C129.467 132.332 128.809 132.273 128.394 131.852L123.543 126.928C122.565 127.336 121.444 127.488 120.47 127.534C119.519 127.579 118.584 127.526 117.828 127.442L114.305 133.438C113.975 133.998 113.261 134.198 112.689 133.889L105.104 129.8C104.597 129.526 104.353 128.933 104.522 128.383L106.388 122.284C105.599 121.675 104.962 120.809 104.489 120.04C104.012 119.265 103.616 118.446 103.323 117.749L96.7428 118.225C96.0993 118.272 95.5332 117.804 95.4567 117.163L94.333 107.747L94.3237 107.632C94.3099 107.06 94.7027 106.55 95.271 106.424L102.559 104.81C102.717 103.895 103.082 102.974 103.455 102.197C103.838 101.4 104.28 100.66 104.661 100.084L102.292 94.7101L102.254 94.6103C102.083 94.107 102.262 93.5447 102.704 93.2342L106.119 90.8333Z" fill="white"/>
<path d="M105.511 91.2601C104.965 91.6439 104.834 92.3973 105.217 92.9431C105.601 93.4889 106.355 93.6202 106.9 93.2366L109.506 91.4051L113.534 95.2381C113.848 95.5369 114.298 95.6446 114.713 95.5202C115.298 95.3451 116.304 95.1128 117.354 95.0044C118.445 94.8917 119.394 94.9345 119.98 95.1616C120.518 95.3705 121.129 95.169 121.438 94.6807L125.312 88.5444L131.784 91.7838L129.213 97.5773C128.991 98.0769 129.133 98.6636 129.558 99.0071C130.109 99.4528 130.955 100.242 131.657 101.121C132.406 102.058 132.791 102.855 132.803 103.352C132.819 103.984 133.32 104.497 133.952 104.528L140.278 104.833L141.238 111.224L134.755 112.445L134.575 112.494C134.169 112.638 133.864 112.991 133.788 113.426C133.671 114.097 133.393 115.202 132.954 116.262C132.497 117.367 131.95 118.211 131.402 118.596C130.919 118.936 130.752 119.575 131.007 120.108L133.946 126.229L131.368 128.042C130.822 128.426 130.691 129.179 131.075 129.725C131.458 130.271 132.212 130.402 132.758 130.018L136.173 127.617C136.656 127.278 136.823 126.638 136.568 126.106L133.576 119.874C134.291 119.092 134.814 118.088 135.187 117.188C135.551 116.307 135.818 115.41 135.994 114.67L142.829 113.385C143.468 113.264 143.897 112.66 143.801 112.018L142.521 103.496C142.435 102.926 141.959 102.496 141.384 102.468L135.014 102.16C134.708 101.211 134.109 100.319 133.546 99.6129C132.978 98.9019 132.341 98.2517 131.784 97.7405L134.46 91.71C134.721 91.1201 134.473 90.4292 133.896 90.1403L125.416 85.8954L125.311 85.8476C124.778 85.6412 124.164 85.8379 123.853 86.3301L119.868 92.6412C118.953 92.4807 117.963 92.5118 117.106 92.6003C116.226 92.6911 115.38 92.8556 114.709 93.0199L110.454 88.9715L110.373 88.9019C109.958 88.5708 109.368 88.5486 108.926 88.8592L105.511 91.2601Z" fill="white"/>
<path d="M121.868 68.3016V47.6854H31.8877V130.591C31.8875 131.419 31.216 132.091 30.3877 132.091H14.5899C13.7616 132.091 13.0901 131.419 13.0899 130.591V30.3875C13.0899 29.5591 13.7614 28.8875 14.5899 28.8875C15.4183 28.8875 16.0899 29.5591 16.0899 30.3875V129.091H28.8877V46.1854C28.8877 45.3569 29.5593 44.6854 30.3877 44.6854H123.368C124.197 44.6854 124.868 45.3569 124.868 46.1854V68.3016C124.868 69.13 124.197 69.8016 123.368 69.8016C122.54 69.8014 121.868 69.1299 121.868 68.3016Z" fill="white"/>
<path d="M76.7041 0.0100628C76.8813 -0.0105712 77.0613 0.000542674 77.2354 0.0432659L150.808 18.098C151.569 18.2849 152.058 19.0274 151.93 19.8011L149.673 33.3421C149.604 33.7542 149.367 34.1193 149.018 34.3489C148.669 34.5785 148.24 34.6521 147.834 34.5521L76.8731 17.0355L4.10746 34.554C3.70284 34.6513 3.27579 34.5767 2.92875 34.347C2.58158 34.1172 2.34583 33.7528 2.27738 33.3421L0.0205484 19.8011C-0.108749 19.0242 0.384565 18.2795 1.15043 18.096L76.5284 0.0413128L76.7041 0.0100628ZM3.20902 20.6878L4.97074 31.2591L76.5264 14.0345L76.7032 14.0023C76.8813 13.9814 77.0623 13.9932 77.2373 14.0364L146.98 31.2513L148.741 20.68L76.8731 3.04327L3.20902 20.6878Z" fill="white"/>
<path d="M141.57 73.2669C141.57 74.0953 140.899 74.7669 140.07 74.7669C139.242 74.7669 138.57 74.0953 138.57 73.2669V31.7415C138.57 30.9131 139.242 30.2415 140.07 30.2415C140.899 30.2415 141.57 30.9131 141.57 31.7415V73.2669Z" fill="white"/>
<path d="M73.2657 117.355C74.0941 117.355 74.7657 118.026 74.7657 118.855C74.7657 119.683 74.0941 120.355 73.2657 120.355H31.2891C30.4607 120.355 29.7891 119.683 29.7891 118.855C29.7891 118.026 30.4607 117.355 31.2891 117.355H73.2657Z" fill="white"/>
<path d="M86.3575 125.479C87.1859 125.479 87.8575 126.151 87.8575 126.979C87.8575 127.808 87.1859 128.479 86.3575 128.479H53.8594C53.031 128.479 52.3594 127.808 52.3594 126.979C52.3594 126.151 53.031 125.479 53.8594 125.479H86.3575Z" fill="white"/>
<path d="M91.489 81.5601C82.4911 90.558 78.6745 102.774 80.042 114.508C80.1377 115.33 79.5485 116.074 78.7258 116.17C77.9031 116.266 77.1584 115.678 77.0623 114.855C75.5932 102.25 79.694 89.1125 89.3676 79.4388C106.163 62.644 133.392 62.644 150.187 79.4388C156.761 86.0128 160.764 94.1895 162.191 102.712C162.327 103.529 161.776 104.303 160.959 104.44C160.142 104.576 159.369 104.024 159.232 103.207C157.905 95.2803 154.184 87.6781 148.066 81.5601C132.443 65.9369 107.112 65.9369 91.489 81.5601ZM150.187 140.258C133.392 157.053 106.162 157.053 89.3676 140.258C88.7819 139.673 88.7819 138.723 89.3676 138.137C89.9534 137.551 90.9032 137.551 91.489 138.137C107.112 153.76 132.443 153.76 148.066 138.137C152.534 133.669 155.722 128.41 157.634 122.813C157.902 122.029 158.755 121.611 159.539 121.878C160.323 122.146 160.741 122.998 160.473 123.782C158.416 129.803 154.986 135.459 150.187 140.258Z" fill="white"/>
<path d="M162.476 104.12C162.044 104.685 161.264 104.874 160.615 104.549L155.634 102.059C154.893 101.688 154.593 100.788 154.963 100.047C155.334 99.3061 156.234 99.0054 156.975 99.3757L160.735 101.256L162.956 97.6951C163.394 96.9926 164.319 96.7785 165.022 97.2168C165.725 97.6553 165.939 98.5804 165.5 99.2832L162.558 104.002L162.476 104.12Z" fill="white"/>
<path d="M88.7559 139.279C88.7863 138.568 89.3182 137.967 90.0359 137.861L95.5454 137.049C96.3649 136.929 97.1264 137.495 97.2471 138.315C97.3678 139.134 96.802 139.896 95.9826 140.017L91.8237 140.63L92.0426 144.82C92.0855 145.647 91.4498 146.353 90.6226 146.396C89.7955 146.439 89.0902 145.803 89.047 144.976L88.7564 139.423L88.7559 139.279Z" fill="white"/>
<path d="M49.9309 94.5374V96.7366H39.6116V117.345H57.0881V119.544H37.4124V94.5374H49.9309ZM67.2014 96.7366H57.3792V94.5374H69.4016V118.445H67.2014V96.7366Z" fill="white"/>
<path d="M51.2482 95.526V98.9498H56.4962V95.526H58.6964V101.15H49.049V95.526H51.2482Z" fill="white"/>
<path d="M67.5265 63.4596L69.3751 71.6881L69.4015 71.8073V73.403H67.2013V72.0475L65.7657 65.6588H41.4884L39.6115 72.0856V72.9117H37.4122V71.7721L37.4562 71.6207L39.838 63.4596H67.5265Z" fill="white"/>
<path d="M49.9308 71.3723V73.5715H39.6115V94.1799H67.2014V73.5715H57.3791V71.3723H69.4016V96.3792H37.4123V71.3723H49.9308Z" fill="white"/>
<path d="M57.0215 63.4596L58.6964 72.5016V78.2272H49.0489V72.5016L49.0665 72.402L50.7227 63.4596H57.0215ZM51.2481 72.7067V76.027H56.4962V72.7018L55.1915 65.6588H52.5528L51.2481 72.7067Z" fill="white"/>
</svg>
