<svg width="50" height="50" viewBox="0 0 50 50" fill="none" xmlns="http://www.w3.org/2000/svg">
<g clip-path="url(#clip0_3086_9487)">
<path d="M30.3574 5.00012C41.2056 5.00024 50.0007 13.7945 50.001 24.6427C50.0009 35.491 41.2057 44.2861 30.3574 44.2863C25.7 44.2861 21.4196 42.6625 18.0527 39.9532C16.2659 42.5385 13.2838 44.2344 9.90332 44.2345L9.39355 44.2208C4.16112 43.9554 0 39.6286 0 34.3302C0.000382071 28.8612 4.43425 24.4281 9.90332 24.4279C10.1773 24.4279 10.4485 24.4412 10.7168 24.463C10.8135 13.6977 19.5693 5.00037 30.3574 5.00012ZM30.3574 6.82532C20.5172 6.82557 12.5403 14.8025 12.54 24.6427H11.958C16.441 25.5889 19.8063 29.5658 19.8066 34.3302L19.7939 34.84C19.7174 36.3501 19.2999 37.77 18.6211 39.0275L19.0938 38.4503C22.1636 40.9578 26.084 42.4609 30.3574 42.4611C40.1979 42.4609 48.1757 34.4831 48.1758 24.6427C48.1755 14.8024 40.1978 6.82543 30.3574 6.82532ZM9.90332 26.2521C5.44208 26.2523 1.82558 29.869 1.8252 34.3302C1.8252 38.7917 5.44185 42.4091 9.90332 42.4093C14.3648 42.4091 17.9824 38.7917 17.9824 34.3302C17.982 29.869 14.3646 26.2523 9.90332 26.2521ZM7.91895 28.0714C9.72503 28.1631 11.1611 29.6566 11.1611 31.4855C11.1611 31.6422 11.1493 31.7963 11.1289 31.9474L13.2793 29.714C13.6288 29.3513 14.2064 29.3403 14.5693 29.6896C14.9324 30.039 14.9431 30.6165 14.5938 30.9796L11.8574 33.8224C12.0719 33.7802 12.2936 33.7579 12.5205 33.7579L12.6963 33.7628C14.5024 33.8545 15.9385 35.348 15.9385 37.1769C15.9382 39.0645 14.4082 40.5946 12.5205 40.5948C10.6916 40.5948 9.19816 39.1587 9.10645 37.3527L9.10156 37.1769L9.10645 37.0001C9.11259 36.8792 9.12516 36.76 9.14355 36.6427L6.57812 39.3087C6.22869 39.6718 5.65116 39.6825 5.28809 39.3331C4.92517 38.9837 4.91432 38.4061 5.26367 38.0431L8.33496 34.8507C8.14265 34.8843 7.94509 34.9034 7.74316 34.9034C5.91428 34.9034 4.42082 33.4673 4.3291 31.6613L4.32422 31.4855L4.3291 31.3087C4.42088 29.5027 5.91432 28.0665 7.74316 28.0665L7.91895 28.0714ZM12.5205 35.5831C11.6404 35.5831 10.9268 36.2967 10.9268 37.1769C10.927 38.0019 11.5538 38.6804 12.3574 38.7618L12.5205 38.7697C13.3456 38.7694 14.024 38.1426 14.1055 37.339L14.1133 37.1769C14.1133 36.2969 13.4005 35.5834 12.5205 35.5831ZM30.3105 12.4923C30.8144 12.4923 31.2235 12.9006 31.2236 13.4044V14.17C32.9067 14.3334 34.1407 14.985 34.9941 15.8556C35.9614 16.8424 36.3812 18.0477 36.4756 18.9601C36.5274 19.4613 36.1632 19.9101 35.6621 19.962C35.161 20.0138 34.7121 19.6496 34.6602 19.1486C34.6019 18.5847 34.3287 17.7832 33.6914 17.1329C33.076 16.5052 32.0596 15.9544 30.3838 15.9542C29.0645 15.9542 28.0067 16.2849 27.3037 16.8175C26.6271 17.3302 26.2246 18.0658 26.2246 19.0548C26.2247 19.8858 26.3584 20.9941 26.9131 21.84C27.4134 22.6027 28.3489 23.2967 30.3291 23.1788C32.9726 23.0216 34.7122 23.9399 35.7539 25.3136C36.7518 26.6298 37.0146 28.2385 37.0146 29.3517C37.0146 31.0606 35.8574 33.9997 32.3076 34.6779C31.9396 34.7481 31.5777 34.7928 31.2236 34.8195V35.5695C31.2234 36.0732 30.8143 36.4825 30.3105 36.4825C29.8069 36.4824 29.3986 36.0731 29.3984 35.5695V34.7687C26.3006 34.346 24.0947 32.2394 23.833 29.7892C23.7795 29.2882 24.1426 28.8389 24.6436 28.7853C25.1445 28.7319 25.5939 29.0948 25.6475 29.5958C25.8435 31.4286 28.1697 33.61 31.9658 32.8849C34.443 32.4115 35.1894 30.4202 35.1895 29.3517C35.1895 28.4665 34.9715 27.3021 34.2998 26.4161C33.6717 25.5878 32.5512 24.8753 30.4365 25.0011C27.8892 25.1525 26.2897 24.2177 25.3867 22.8409C24.5384 21.5473 24.4004 20.0039 24.4004 19.0548C24.4004 17.4903 25.0742 16.2187 26.2031 15.3634C27.0753 14.7028 28.1824 14.3149 29.3984 14.1818V13.4044C29.3986 12.9008 29.8069 12.4925 30.3105 12.4923ZM7.74316 29.8917C6.86301 29.8917 6.14941 30.6053 6.14941 31.4855C6.14963 32.3105 6.77647 32.989 7.58008 33.0704L7.74316 33.0782C8.56824 33.078 9.2467 32.4512 9.32812 31.6476L9.33594 31.4855C9.33594 30.6055 8.62312 29.892 7.74316 29.8917Z" fill="black"/>
</g>
<defs>
<clipPath id="clip0_3086_9487">
<rect width="50" height="50" fill="white"/>
</clipPath>
</defs>
</svg>
