<svg width="50" height="50" viewBox="0 0 50 50" fill="none" xmlns="http://www.w3.org/2000/svg">
<path fill-rule="evenodd" clip-rule="evenodd" d="M25.0001 4C35.2923 4.0002 43.6329 12.3615 43.6329 22.6709C43.6328 26.1634 42.6724 29.4334 41.005 32.2305L49.7257 43.8613C50.3978 44.7579 49.7583 46.0378 48.6378 46.0381H40.9747C40.7471 46.4337 40.3269 46.7197 39.7989 46.7197H10.2061C9.67811 46.7196 9.25788 46.4337 9.03034 46.0381H1.36238C0.241831 46.0379 -0.397706 44.758 0.274485 43.8613L8.99421 32.2305C7.32686 29.4334 6.36738 26.1634 6.36726 22.6709C6.36726 12.3615 14.7078 4.00015 25.0001 4ZM26.5548 34.3584L23.6104 32.9941L21.2188 34.3789L20.8546 34.1689L19.4337 33.3467L11.0919 44.9062H38.9171L31.1241 34.0195L28.9093 32.9941L26.5548 34.3584ZM13.7325 35.5537L13.4415 35.6982L13.1387 35.5781L11.7354 35.0166L10.3399 35.7158L9.10749 35.0996L2.26863 44.2246H9.34773L15.7257 35.3848L14.8038 35.0166L13.7325 35.5537ZM40.6593 44.2246H47.7315L41.1094 35.3916L39.7276 34.998L38.6173 35.5537L38.3262 35.6992L36.6202 35.0176L35.5489 35.5537L35.1729 35.7412L34.0518 34.9932L40.6593 44.2246ZM9.99226 33.9189L10.3389 34.0928L11.379 33.5732L11.67 33.4287L11.9727 33.5488L13.3751 34.1104L14.4473 33.5732L14.7384 33.4287L15.0411 33.5488L15.3594 33.6758L12.7315 30.2666L9.99226 33.9189ZM34.6563 33.6533L35.2764 34.0674L36.5548 33.4287L36.8575 33.5488L38.2589 34.1094L39.5841 33.4482L39.671 33.4727L37.2677 30.2666L34.6563 33.6533ZM25.0001 5.81348C15.713 5.81362 8.18074 13.3595 8.18074 22.6709C8.18085 25.5583 8.90457 28.2742 10.1798 30.6484L11.6397 28.7021L11.7462 28.5762C12.2734 28.0242 13.1618 28.0176 13.6964 28.5625L13.8048 28.6875L17.293 33.2139L23.96 23.9766L24.0684 23.8447C24.0766 23.8359 24.0855 23.8279 24.0938 23.8193V14.9053C24.0938 14.1541 24.703 13.5449 25.4542 13.5449H31.5772C32.7065 13.545 33.3437 14.8412 32.6544 15.7354L31.4434 17.3027L32.1925 18.4902C32.7635 19.3958 32.1135 20.5757 31.043 20.5762H25.9073V23.707C25.9611 23.7498 26.0136 23.7965 26.0616 23.8486L26.169 23.9814L32.7432 33.166L36.1954 28.6875L36.3038 28.5625C36.8384 28.0176 37.7267 28.0242 38.254 28.5762L38.3604 28.7021L39.8184 30.6475C41.0937 28.2733 41.8193 25.5582 41.8194 22.6709C41.8194 13.3595 34.287 5.81368 25.0001 5.81348ZM20.2872 32.1641L21.2178 32.7031L23.5362 31.3613L26.4805 32.7246L28.835 31.3613L29.4122 31.6289L25.0616 25.5498L20.2872 32.1641ZM25.9073 18.7627H30.2208L29.7413 18.0039C29.4367 17.521 29.4668 16.8993 29.8155 16.4473L30.6544 15.3584H25.9073V18.7627Z" fill="black"/>
</svg>
