<svg width="50" height="50" viewBox="0 0 50 50" fill="none" xmlns="http://www.w3.org/2000/svg">
<g clip-path="url(#clip0_3086_10339)">
<path d="M36.3333 1.75439H4.75439V42.1053H24.9298V43.8596H4.75439C3.78547 43.8596 3 43.0742 3 42.1053V1.75439C3 0.785464 3.78547 0 4.75439 0H36.3333C37.3023 0 38.0877 0.785465 38.0877 1.75439V28.2004H36.3333V1.75439Z" fill="black"/>
<path d="M26.6852 5.26318V7.01757H13.5273V5.26318H26.6852Z" fill="black"/>
<path d="M33.4258 11.48V13.2344H7.38672V11.48H33.4258Z" fill="black"/>
<path d="M33.4258 16.335V18.0893H7.38672V16.335H33.4258Z" fill="black"/>
<path d="M33.4258 21.1899V22.9443H7.38672V21.1899H33.4258Z" fill="black"/>
<path d="M33.4258 26.0444V27.7988H7.38672V26.0444H33.4258Z" fill="black"/>
<path d="M24.6539 30.8994V32.6538H7.38672V30.8994H24.6539Z" fill="black"/>
<path d="M8.30143 36.904C9.00221 37.0197 9.71876 37.0012 10.4778 36.9731C11.6003 36.9317 12.6862 36.9492 13.7268 36.7697C13.7471 36.7662 13.8243 36.7515 13.9426 36.7293C14.0553 36.7083 14.1972 36.6824 14.3327 36.6594C14.4651 36.6369 14.6026 36.6145 14.703 36.6042C14.7406 36.6003 14.8169 36.5931 14.8872 36.6006C14.9067 36.6027 14.9505 36.6082 15.0009 36.6265C15.0318 36.6377 15.1832 36.6939 15.2587 36.8679C15.3514 37.0815 15.2475 37.2558 15.2046 37.3125C15.1598 37.3715 15.1105 37.4057 15.0925 37.4178C14.9505 37.5136 14.8027 37.5966 14.6537 37.6738C15.0105 37.7074 15.3801 37.7084 15.7553 37.6948C15.7751 37.6941 15.8117 37.6898 15.8866 37.6794C15.9516 37.6705 16.0385 37.6579 16.127 37.6507C16.2147 37.6435 16.3221 37.6396 16.4308 37.653C16.5095 37.6626 16.6102 37.6837 16.7104 37.7346L16.8105 37.7963L16.8988 37.8783C16.9198 37.9016 16.9379 37.924 16.951 37.9417C16.9543 37.9461 16.9572 37.9507 16.9603 37.9549C17.7528 38.0322 18.8178 37.8663 19.6121 37.6477C19.8455 37.5836 20.0869 37.7209 20.1512 37.9544C20.2155 38.1879 20.0781 38.4292 19.8446 38.4935C18.9559 38.738 17.6749 38.9454 16.6982 38.8074C16.5447 38.7857 16.4438 38.7 16.3978 38.6557C16.3485 38.6081 16.3114 38.5568 16.2918 38.5291C16.2904 38.5271 16.2885 38.5251 16.2872 38.5233C16.2643 38.523 16.2348 38.5215 16.198 38.5245C16.1383 38.5294 16.0765 38.5385 16.0063 38.5482C15.9461 38.5565 15.8607 38.5689 15.787 38.5715C15.2013 38.5928 14.5645 38.5863 13.9436 38.4543C13.8595 38.4364 13.7873 38.4044 13.7479 38.3864L13.747 38.3856C13.4965 38.5232 13.2022 38.5868 12.9633 38.6234C12.8128 38.6465 12.6629 38.6619 12.5311 38.675C12.3943 38.6886 12.2841 38.6995 12.1916 38.7123C11.9575 38.7446 11.4694 38.8153 11.102 38.8571C10.9291 38.8767 10.7457 38.8952 10.6312 38.8918C10.6066 38.891 10.5455 38.8887 10.4808 38.8704C10.4558 38.8633 10.3661 38.8366 10.2845 38.757C10.2372 38.7108 10.1848 38.6388 10.1617 38.5395C10.1383 38.4385 10.154 38.3467 10.1808 38.2778C10.2262 38.161 10.3079 38.0979 10.3293 38.0814C10.3622 38.056 10.3933 38.0389 10.4124 38.029C10.4518 38.0086 10.4937 37.9921 10.529 37.9792C10.6727 37.9271 10.8201 37.8801 10.9694 37.8363C10.8142 37.8404 10.6608 37.8443 10.5103 37.8498C9.75816 37.8776 8.95868 37.9011 8.15924 37.7692C7.92036 37.7297 7.7585 37.5044 7.79776 37.2655C7.83721 37.0266 8.06256 36.8648 8.30143 36.904Z" fill="black"/>
<path d="M45.1046 39.9124C45.1046 35.3101 41.3737 31.5791 36.7713 31.5791C32.1689 31.5791 28.438 35.3101 28.438 39.9124C28.438 44.5148 32.1689 48.2458 36.7713 48.2458C41.3737 48.2458 45.1046 44.5148 45.1046 39.9124ZM46.859 39.9124C46.859 45.4837 42.3426 50.0001 36.7713 50.0001C31.2 50.0001 26.6836 45.4837 26.6836 39.9124C26.6836 34.3411 31.2 29.8247 36.7713 29.8247C42.3426 29.8247 46.859 34.3411 46.859 39.9124Z" fill="black"/>
<path d="M38.9239 37.3355C39.1357 37.0707 39.5225 37.0277 39.7873 37.2395C40.0521 37.4514 40.0951 37.8382 39.8833 38.103L35.9453 43.0244L34.1447 41.2237C33.9049 40.9839 33.9049 40.5949 34.1447 40.3551C34.3845 40.1153 34.7735 40.1153 35.0133 40.3551L35.8434 41.1852L38.9239 37.3355Z" fill="black"/>
</g>
<defs>
<clipPath id="clip0_3086_10339">
<rect width="50" height="50" fill="white"/>
</clipPath>
</defs>
</svg>
