<svg width="50" height="50" viewBox="0 0 50 50" fill="none" xmlns="http://www.w3.org/2000/svg">
<path d="M38.4219 29.1924C44.1675 29.1926 48.8251 33.85 48.8252 39.5957C48.8252 45.3415 44.1676 49.9997 38.4219 50C32.676 49.9999 28.0176 45.3416 28.0176 39.5957C28.0176 33.8499 32.676 29.1924 38.4219 29.1924ZM38.4219 30.9463C33.645 30.9463 29.7715 34.8188 29.7715 39.5957C29.7715 44.3727 33.6449 48.2451 38.4219 48.2451C43.1987 48.2449 47.0713 44.3725 47.0713 39.5957C47.0712 34.8189 43.1986 30.9465 38.4219 30.9463ZM19.4609 25.7441C24.9332 25.7442 28.986 26.5509 31.9844 27.8701C32.4277 28.0652 32.6295 28.583 32.4346 29.0264C32.2395 29.4697 31.7217 29.6706 31.2783 29.4756C28.5675 28.2829 24.7727 27.4991 19.4609 27.499C11.8182 27.4991 7.70871 30.4555 5.4668 33.8555C3.4561 36.9051 2.88342 40.4119 2.77539 42.7412H25.3584C25.8428 42.7412 26.2354 43.1337 26.2354 43.6182C26.2352 44.1025 25.8428 44.4951 25.3584 44.4951H1V43.6182C1 41.2099 1.45034 36.7621 4.00293 32.8906C6.5965 28.9571 11.2792 25.7442 19.4609 25.7441ZM42.1377 35.7188C42.4872 35.3835 43.0425 35.3958 43.3779 35.7451C43.7133 36.0946 43.702 36.6499 43.3525 36.9854L35.9756 44.0674L33.4756 41.5674C33.1332 41.2248 33.1331 40.6697 33.4756 40.3271C33.8181 39.9847 34.3733 39.9847 34.7158 40.3271L36 41.6113L42.1377 35.7188ZM20.4365 0C26.3048 0.000157068 31.0615 4.75767 31.0615 10.626C31.0614 16.4942 26.3047 21.2508 20.4365 21.251C14.5682 21.251 9.8107 16.4942 9.81055 10.626C9.81055 4.75758 14.5681 7.23376e-06 20.4365 0ZM20.4365 1.75391C15.537 1.75391 11.5645 5.7265 11.5645 10.626C11.5646 15.5253 15.5371 19.4971 20.4365 19.4971C25.3358 19.4969 29.3075 15.5252 29.3076 10.626C29.3076 5.72659 25.3359 1.75406 20.4365 1.75391Z" fill="black"/>
</svg>
