<svg width="50" height="50" viewBox="0 0 50 50" fill="none" xmlns="http://www.w3.org/2000/svg">
<g clip-path="url(#clip0_3086_6284)">
<path d="M28.8516 37.4662H12.5V35.8002H28.8516V37.4662ZM31.4033 32.0209H12.5V30.3549H31.4033V32.0209ZM37.2373 27.4086H12.5V25.7426H37.2373V27.4086ZM37.2373 22.7973H12.5V21.1313H37.2373V22.7973ZM37.2373 18.185H12.5V16.518H37.2373V18.185ZM37.2373 13.5727H12.5V11.9057H37.2373V13.5727ZM37.2373 8.96136H12.5V7.29437H37.2373V8.96136Z" fill="black"/>
<path d="M40.417 29.334C45.7097 29.334 50.001 33.6243 50.001 38.917C50.0009 44.2096 45.7097 48.5 40.417 48.5C35.1245 48.4998 30.8341 44.2095 30.834 38.917C30.834 33.6244 35.1244 29.3342 40.417 29.334ZM40.417 31C36.0449 31.0002 32.501 34.5448 32.501 38.917C32.5011 43.2891 36.0449 46.8328 40.417 46.833C44.7892 46.833 48.3339 43.2892 48.334 38.917C48.334 34.5447 44.7892 31 40.417 31ZM40.001 1C40.9213 1.00018 41.667 1.74663 41.667 2.66699V27.79H40.001V2.66699H10.001V41H29.167V42.667H10.001C9.69689 42.667 9.41242 42.5837 9.16699 42.4414V42.667H1.66699C0.746518 42.667 5.15409e-07 41.9205 0 41V6C0 5.07952 0.746519 4.33301 1.66699 4.33301H8.33398V2.66699C8.33398 1.74652 9.0805 1 10.001 1H40.001ZM42.4609 36.4688C42.6622 36.2173 43.0297 36.1767 43.2812 36.3779C43.5328 36.5792 43.5733 36.9467 43.3721 37.1982L39.6318 41.873L37.9209 40.1631C37.6931 39.9353 37.6932 39.5657 37.9209 39.3379C38.1487 39.1101 38.5183 39.1101 38.7461 39.3379L39.5342 40.126L42.4609 36.4688ZM1.66699 41H8.33398V38.083H2.22266V36.417H8.33398V33.5H2.22266V31.834H8.33398V28.8477H2.22266V27.1807H8.33398V25.0283H2.22266V23.3613H8.33398V20.4443H2.22266V18.7783H8.33398V16.625H2.22266V14.959H8.33398V12.042H2.22266V10.375H8.33398V6H1.66699V41Z" fill="black"/>
</g>
<defs>
<clipPath id="clip0_3086_6284">
<rect width="50" height="50" fill="white"/>
</clipPath>
</defs>
</svg>
