<svg width="58" height="57" viewBox="0 0 58 57" fill="none" xmlns="http://www.w3.org/2000/svg">
<g filter="url(#filter0_d_3086_7405)">
<path d="M40.3896 33.3359C44.4493 33.3359 47.741 36.6269 47.7412 40.6865C47.7412 44.7463 44.4495 48.0381 40.3896 48.0381C36.33 48.0379 33.0391 44.7462 33.0391 40.6865C33.0393 36.627 36.3301 33.3361 40.3896 33.3359ZM40.3896 34.9502C37.2215 34.9504 34.6535 37.5183 34.6533 40.6865C34.6533 43.8549 37.2213 46.4236 40.3896 46.4238C43.5581 46.4238 46.127 43.855 46.127 40.6865C46.1267 37.5182 43.558 34.9502 40.3896 34.9502ZM20.1309 8.61914C29.04 8.61914 36.2626 15.8419 36.2627 24.751C36.2625 33.6599 29.0398 40.8818 20.1309 40.8818C11.2221 40.8815 4.00023 33.6597 4 24.751C4.00004 15.8421 11.222 8.61943 20.1309 8.61914ZM20.1309 10.2334C12.1134 10.2337 5.6143 16.7334 5.61426 24.751C5.61449 32.7684 12.1135 39.2673 20.1309 39.2676C28.1485 39.2676 34.6482 32.7686 34.6484 24.751C34.6484 16.7332 28.1486 10.2334 20.1309 10.2334ZM46.6475 17.6895C50.7072 17.6895 53.9988 20.9804 53.999 25.04C53.999 29.0999 50.7073 32.3916 46.6475 32.3916C42.5878 32.3914 39.2969 29.0997 39.2969 25.04C39.2971 20.9805 42.5879 17.6897 46.6475 17.6895ZM23.5059 21.4844H27.6953V28.125H23.5059V32.3164H16.8643V28.125H12.1016V21.4844H16.8643V16.7227H23.5059V21.4844ZM17.9941 22.6143H13.2314V26.9951H17.9941V31.1855H22.375V26.9951H26.5654V22.6143H22.375V17.8525H17.9941V22.6143ZM46.6475 19.3037C43.4793 19.3039 40.9113 21.8719 40.9111 25.04C40.9111 28.2084 43.4792 30.7771 46.6475 30.7773C49.8159 30.7773 52.3848 28.2085 52.3848 25.04C52.3846 21.8717 49.8158 19.3037 46.6475 19.3037ZM40.3896 1C44.4493 1 47.741 4.29093 47.7412 8.35059C47.7412 12.4104 44.4495 15.7021 40.3896 15.7021C36.33 15.7019 33.0391 12.4103 33.0391 8.35059C33.0393 4.29106 36.3301 1.0002 40.3896 1ZM40.3896 2.61426C37.2215 2.61446 34.6535 5.1824 34.6533 8.35059C34.6533 11.5189 37.2213 14.0877 40.3896 14.0879C43.5581 14.0879 46.127 11.5191 46.127 8.35059C46.1267 5.18228 43.558 2.61426 40.3896 2.61426Z" fill="black"/>
</g>
<defs>
<filter id="filter0_d_3086_7405" x="0" y="0" width="58" height="58" filterUnits="userSpaceOnUse" color-interpolation-filters="sRGB">
<feFlood flood-opacity="0" result="BackgroundImageFix"/>
<feColorMatrix in="SourceAlpha" type="matrix" values="0 0 0 0 0 0 0 0 0 0 0 0 0 0 0 0 0 0 127 0" result="hardAlpha"/>
<feOffset dy="4"/>
<feGaussianBlur stdDeviation="2"/>
<feComposite in2="hardAlpha" operator="out"/>
<feColorMatrix type="matrix" values="0 0 0 0 0 0 0 0 0 0 0 0 0 0 0 0 0 0 0.25 0"/>
<feBlend mode="normal" in2="BackgroundImageFix" result="effect1_dropShadow_3086_7405"/>
<feBlend mode="normal" in="SourceGraphic" in2="effect1_dropShadow_3086_7405" result="shape"/>
</filter>
</defs>
</svg>
