<svg width="50" height="50" viewBox="0 0 50 50" fill="none" xmlns="http://www.w3.org/2000/svg">
<path d="M34.3135 17.6475C42.9766 17.6476 49.9989 24.6699 49.999 33.333C49.999 41.9962 42.9767 49.0194 34.3135 49.0195C25.6502 49.0195 18.627 41.9963 18.627 33.333C18.6271 24.6698 25.6503 17.6475 34.3135 17.6475ZM34.3135 19.6074C26.7332 19.6074 20.588 25.7527 20.5879 33.333C20.5879 40.9134 26.7331 47.0586 34.3135 47.0586C41.8937 47.0585 48.0391 40.9133 48.0391 33.333C48.0389 25.7528 41.8937 19.6076 34.3135 19.6074ZM30.9492 25.3984C31.716 25.4431 32.5542 25.7696 33.3721 26.6318C34.1837 27.4876 34.4873 28.3191 34.5439 29.1035C34.5711 29.481 34.5403 29.8295 34.5 30.1309C34.4712 30.3461 34.4468 30.4965 34.4248 30.6406L40.627 38.6924L40.6289 38.6934L40.6299 38.6943L40.6348 38.7021L40.6367 38.7041C40.6418 38.7104 40.6493 38.7194 40.6572 38.7295C40.6731 38.7499 40.6952 38.7785 40.7207 38.8135C40.7718 38.8834 40.8401 38.9825 40.915 39.1045C41.0632 39.3457 41.247 39.6949 41.3672 40.1045C41.4872 40.5137 41.5527 41.0165 41.4229 41.541C41.2893 42.0795 40.9634 42.582 40.4043 42.9951C39.8369 43.4143 39.2489 43.5669 38.6846 43.5098C38.1392 43.4544 37.6784 43.21 37.3281 42.9502C36.9763 42.6892 36.7007 42.3865 36.5166 42.1572C36.4232 42.0409 36.3497 41.9394 36.2988 41.8652C36.2733 41.828 36.2527 41.7968 36.2383 41.7744C36.2339 41.7676 36.2308 41.7611 36.2275 41.7559L30.2627 33.1875C28.7526 33.057 27.7064 32.3216 27.3047 31.8643L27.2891 31.8467L27.2744 31.8281L27.1377 31.6396C25.7897 29.696 26.602 27.9055 27.2686 27.2041L27.8408 26.6025L29.9668 29.5742L30.0117 29.6201C30.0557 29.6617 30.113 29.7063 30.1748 29.7373C30.2342 29.767 30.2852 29.7784 30.3301 29.7764C30.3696 29.7745 30.4499 29.7604 30.5732 29.6699C30.6967 29.5793 30.7319 29.5083 30.7441 29.4746C30.758 29.4359 30.762 29.3875 30.751 29.3242C30.7394 29.258 30.7127 29.1914 30.6855 29.1377C30.6728 29.1125 30.6618 29.0933 30.6553 29.083L30.6504 29.0752L28.3994 25.9316L29.3281 25.6602C29.6057 25.5788 30.222 25.3562 30.9492 25.3984ZM31.7637 28.2734L31.7656 28.2744L31.7666 28.2764C31.768 28.2783 31.7708 28.2818 31.7725 28.2842C31.7757 28.2888 31.7799 28.2945 31.7842 28.3008C31.7932 28.314 31.8046 28.3312 31.8174 28.3516C31.8432 28.3926 31.8764 28.4491 31.9111 28.5176C31.9791 28.6518 32.061 28.8505 32.1025 29.0889C32.1445 29.3302 32.1465 29.6277 32.0342 29.9395C31.9198 30.2566 31.7043 30.5429 31.3848 30.7773C31.0655 31.0115 30.7291 31.1309 30.3936 31.1465C30.0633 31.1617 29.7785 31.0745 29.5596 30.9648C29.3432 30.8564 29.1778 30.7198 29.0684 30.6162C29.0126 30.5634 28.9675 30.516 28.9355 30.4795C28.9196 30.4613 28.9066 30.4451 28.8965 30.4326C28.8914 30.4264 28.8864 30.4206 28.8828 30.416L28.875 30.4053L28.8682 30.3975L28.8633 30.3887L27.8438 28.9648C27.7155 29.4901 27.7648 30.1944 28.3506 30.9736C28.5689 31.2082 29.3842 31.8098 30.6484 31.835L30.999 31.8418L37.3633 40.9854L37.376 41.0039L37.3867 41.0225L37.3945 41.0342C37.402 41.0458 37.4149 41.0644 37.4316 41.0889C37.466 41.1391 37.5185 41.2127 37.5869 41.2979C37.7265 41.4718 37.9199 41.6795 38.1465 41.8477C38.3747 42.0168 38.6032 42.1212 38.8223 42.1436C39.0223 42.1639 39.2749 42.1235 39.5889 41.8916C39.9112 41.6535 40.04 41.4157 40.0908 41.2109C40.1449 40.9922 40.1249 40.7474 40.0498 40.4912C39.9748 40.2353 39.8536 39.9998 39.7451 39.8232C39.6921 39.7369 39.6452 39.6681 39.6123 39.623C39.596 39.6007 39.5818 39.5849 39.5742 39.5752L39.5684 39.5654L39.5615 39.5576L39.5547 39.5488L33.1621 31.2529L32.9941 31.0342L33.0234 30.7598L33.0811 30.3428C33.1032 30.1976 33.1253 30.0556 33.1396 29.9482C33.1742 29.6897 33.1933 29.4462 33.1758 29.2021C33.1426 28.743 32.9757 28.2077 32.377 27.5762C31.7841 26.9512 31.2661 26.7906 30.8691 26.7676C30.8064 26.7639 30.7452 26.7644 30.6855 26.7666L31.7637 28.2734ZM23.8936 1.96094H1.96094V35.2939H15.6865V37.2549H0V0H23.8936V1.96094ZM37.2549 14.7061H35.2939V1.96094H29.9023V0H37.2549V14.7061Z" fill="black"/>
</svg>
