<svg width="50" height="50" viewBox="0 0 50 50" fill="none" xmlns="http://www.w3.org/2000/svg">
<path fill-rule="evenodd" clip-rule="evenodd" d="M24.4609 15.5957C30.9651 15.5958 36.2382 20.8689 36.2383 27.373C36.2381 31.0172 34.5812 34.2722 31.9834 36.4316C32.8344 36.8279 33.4256 37.6879 33.4258 38.6885C33.4258 39.9784 32.4456 41.04 31.1895 41.168C31.5318 41.5946 31.7381 42.1351 31.7383 42.7246C31.7383 44.0205 30.7489 45.0842 29.4844 45.2041C29.5854 46.0027 29.4801 47.1699 28.7988 48.1719C28.0666 49.2483 26.7638 50.0009 24.7441 50.001C22.6529 50.001 21.3526 49.0462 20.6523 47.7959C20.1812 46.9545 20.0022 46.0159 19.9746 45.2168H19.6797C18.3036 45.2167 17.1885 44.1007 17.1885 42.7246C17.1886 42.1354 17.3934 41.5945 17.7354 41.168C16.4792 41.04 15.499 39.9784 15.499 38.6885C15.4992 37.689 16.089 36.8295 16.9385 36.4326C14.3405 34.2731 12.6837 31.0173 12.6836 27.373C12.6837 20.869 17.9569 15.5959 24.4609 15.5957ZM21.583 45.2168C21.6098 45.7952 21.7423 46.4518 22.0547 47.0098C22.4705 47.7523 23.234 48.3935 24.7441 48.3936C26.3253 48.3935 27.0858 47.8321 27.4697 47.2676C27.8869 46.6539 27.9609 45.8857 27.8877 45.3721C27.8802 45.3198 27.8783 45.2676 27.8809 45.2168H21.583ZM19.6797 41.8408C19.1913 41.8409 18.7952 42.2363 18.7949 42.7246C18.7949 43.2132 19.1911 43.6103 19.6797 43.6104H29.2471C29.7354 43.61 30.1309 43.213 30.1309 42.7246C30.1306 42.2365 29.7352 41.8411 29.2471 41.8408H19.6797ZM17.9902 37.8047C17.5021 37.805 17.1068 38.2003 17.1064 38.6885C17.1064 39.1769 17.5019 39.5739 17.9902 39.5742H30.9346C31.4229 39.5739 31.8184 39.1769 31.8184 38.6885C31.8181 38.2003 31.4227 37.805 30.9346 37.8047H17.9902ZM24.4609 17.2031C18.8445 17.2034 14.2911 21.7565 14.291 27.373C14.2912 31.1473 16.3477 34.4416 19.4043 36.1973H21.6885V32.458L19.917 30.4336C19.6253 30.0996 19.6594 29.5919 19.9932 29.2998C20.3271 29.0079 20.8348 29.0423 21.127 29.376L23.0967 31.627C23.2248 31.7734 23.2949 31.9617 23.2949 32.1562V36.1973H25.9082V32.1562C25.9082 31.9617 25.9784 31.7734 26.1064 31.627L28.0762 29.376C28.3684 29.0423 28.8761 29.0079 29.21 29.2998C29.5438 29.5919 29.5778 30.0996 29.2861 30.4336L27.5146 32.458V36.1973H29.5176C32.5743 34.4417 34.6307 31.1474 34.6309 27.373C34.6307 21.7565 30.0775 17.2032 24.4609 17.2031ZM14.7188 14.1768L13.6104 15.3408L5.00098 7.1416L6.10938 5.97754L14.7188 14.1768ZM44.2373 7.1416L35.6279 15.3408L34.5195 14.1768L43.1289 5.97754L44.2373 7.1416ZM24.8066 11.4795H23.1992V0.000976562H24.8066V11.4795Z" fill="black"/>
</svg>
