<svg width="50" height="50" viewBox="0 0 50 50" fill="none" xmlns="http://www.w3.org/2000/svg">
<path d="M16.9658 3.45312H32.9219V0H41.5674V3.45312H43.5615C45.3981 3.45325 46.8867 4.94272 46.8867 6.7793V46.6738C46.8866 48.5103 45.398 49.9989 43.5615 49.999H6.32617C4.48957 49.999 3.0001 48.5104 3 46.6738V6.7793C3 4.94264 4.48951 3.45312 6.32617 3.45312H8.32031V0H16.9658V3.45312ZM4.99609 46.6738C4.99618 47.3622 5.519 47.9289 6.18945 47.9971L6.32617 48.0039H43.5615C44.2498 48.0038 44.8165 47.4808 44.8848 46.8105L44.8916 46.6738V14.7578H4.99609V46.6738ZM16.3018 44.6797H6.99023V36.0342H16.3018V44.6797ZM29.5996 44.6797H20.2891V36.0342H29.5996V44.6797ZM42.8975 44.6797H33.5859V36.0342H42.8975V44.6797ZM22.2852 42.6846H27.6045V38.0303H22.2852V42.6846ZM8.98633 42.6836H14.3057V38.0303H8.98633V42.6836ZM35.582 42.6836H40.9014V38.0303H35.582V42.6836ZM29.5996 34.7061H20.2891V26.0605H29.5996V34.7061ZM16.3018 34.7051H6.99023V26.0605H16.3018V34.7051ZM42.8975 34.7051H33.5859V26.0605H42.8975V34.7051ZM8.98633 32.71H14.3057V28.0557H8.98633V32.71ZM22.2852 32.71H27.6045V28.0557H22.2852V32.71ZM35.582 32.71H40.9014V28.0557H35.582V32.71ZM29.5996 24.7324H20.2891V16.0869H29.5996V24.7324ZM16.3018 24.7314H6.99023V16.0869H16.3018V24.7314ZM42.8975 24.7314H33.5859V16.0869H42.8975V24.7314ZM8.98633 22.7363H14.3057V18.082H8.98633V22.7363ZM22.2852 22.7363H27.6045V18.082H22.2852V22.7363ZM35.582 22.7363H40.9014V18.082H35.582V22.7363ZM6.18945 5.45508C5.51894 5.52325 4.99609 6.0908 4.99609 6.7793V12.7627H44.8916V6.7793C44.8916 6.04492 44.2959 5.44934 43.5615 5.44922H6.32617L6.18945 5.45508ZM10.3164 3.32617H14.9697V1.99609H10.3164V3.32617ZM34.918 3.32617H39.5723V1.99609H34.918V3.32617Z" fill="black"/>
</svg>
