<svg width="50" height="50" viewBox="0 0 50 50" fill="none" xmlns="http://www.w3.org/2000/svg">
<path d="M32.3174 30.5107C36.9722 30.5107 41.3861 31.7414 44.6758 34.4512C48.0196 37.2057 49.998 41.3247 49.998 46.626V48.6533H14.6367V46.626C14.6368 41.3247 16.6161 37.2057 19.96 34.4512C23.2496 31.7415 27.6627 30.5108 32.3174 30.5107ZM32.3174 32.5381C23.6726 32.5382 16.6642 37.1167 16.6641 46.626H47.9707C47.9706 37.1166 40.9624 32.5381 32.3174 32.5381ZM32.4424 8.5957C37.9337 8.5957 42.3856 13.0468 42.3857 18.5381C42.3857 24.0295 37.9338 28.4814 32.4424 28.4814C26.9512 28.4811 22.5 24.0293 22.5 18.5381C22.5002 13.047 26.9514 8.59603 32.4424 8.5957ZM32.4424 10.623C28.0713 10.6234 24.5275 14.167 24.5273 18.5381C24.5273 22.9094 28.0712 26.4528 32.4424 26.4531C36.8139 26.4531 40.3584 22.9096 40.3584 18.5381C40.3582 14.1668 36.8138 10.623 32.4424 10.623ZM18.7842 1C19.9038 1.00017 20.8113 1.90774 20.8115 3.02734V13.0762C20.8111 14.1956 19.9037 15.1033 18.7842 15.1035H18.1299V17.46C18.1299 19.3244 15.8258 20.2007 14.5869 18.8076L11.2949 15.1035H2.02734C0.907908 15.1033 0.000449599 14.1956 0 13.0762V3.02734C0.000248221 1.90778 0.907785 1.00025 2.02734 1H18.7842ZM2.02734 13.0762H12.2559V13.6387L12.5068 13.416L16.1025 17.46V13.4189H17.1143V13.0762H18.7842V3.02734H2.02734V13.0762ZM16.4453 11.4062H3.69922V9.98633H16.4453V11.4062ZM15.1035 8.72266H3.69922V7.30273H15.1035V8.72266ZM17.1162 6.03906H3.69922V4.61914H17.1162V6.03906Z" fill="black"/>
</svg>
