<svg width="50" height="50" viewBox="0 0 50 50" fill="none" xmlns="http://www.w3.org/2000/svg">
<path d="M4.46777 5C2.00032 5 0 7.00032 0 9.46777V24.667C0.000175476 26.5001 1.48621 27.9872 3.31934 27.9873C4.16566 27.9873 4.85156 28.6732 4.85156 29.5195V33.7666L15.7178 28.2744C16.0927 28.0849 16.5077 27.9873 16.9277 27.9873H24.3428V33.9053C24.3431 36.8658 26.7436 39.2664 29.7041 39.2666H36.3193C36.5993 39.2666 36.8761 39.3317 37.126 39.458L46.4717 44.1816V39.2656C48.4223 39.2532 49.9998 37.6684 50 35.7148V25.6348C49.9997 22.674 47.5994 20.2744 44.6387 20.2744H32.1514V9.46777C32.1514 7.00057 30.1507 5.0004 27.6836 5H4.46777ZM44.6387 22.0615C46.6125 22.0615 48.2126 23.661 48.2129 25.6348V35.7148C48.2127 36.6891 47.4225 37.4795 46.4482 37.4795C45.4741 37.4797 44.6847 38.269 44.6846 39.2432V41.2754L37.9316 37.8633C37.4944 37.6423 37.0169 37.514 36.5293 37.4854L36.3193 37.4795H29.7041L29.5205 37.4736C27.6931 37.3809 26.2276 35.9162 26.1348 34.0889L26.1299 33.9053V27.9873H26.1309V26.2002H26.1299V25.6348C26.1301 23.7227 27.6322 22.1612 29.5205 22.0654L29.7041 22.0615H44.6387ZM27.6836 6.78711C29.1637 6.78751 30.3643 7.98755 30.3643 9.46777V20.2744H29.7041C26.7435 20.2747 24.343 22.6742 24.3428 25.6348V26.2002H16.9277C16.2277 26.2002 15.5369 26.364 14.9121 26.6797L6.63867 30.8604V29.5195C6.63867 27.6862 5.15264 26.2002 3.31934 26.2002C2.47319 26.2001 1.78728 25.5131 1.78711 24.667V9.46777C1.78711 7.9873 2.9873 6.78711 4.46777 6.78711H27.6836ZM3.15625 21.377H23.4766V19.5908H3.15625V21.377ZM3.15625 17.4336H28.6025V15.6475H3.15625V17.4336ZM3.15625 13.4902H28.6025V11.7041H3.15625V13.4902Z" fill="black"/>
</svg>
