<svg width="50" height="50" viewBox="0 0 50 50" fill="none" xmlns="http://www.w3.org/2000/svg">
<path d="M36.7715 29.8252C42.3426 29.8253 46.8592 34.341 46.8594 39.9121C46.8594 45.4833 42.3427 49.9999 36.7715 50C31.2002 50 26.6836 45.4834 26.6836 39.9121C26.6838 34.341 31.2003 29.8252 36.7715 29.8252ZM36.7715 31.5791C32.1692 31.5791 28.4377 35.3099 28.4375 39.9121C28.4375 44.5145 32.1691 48.2461 36.7715 48.2461C41.3738 48.246 45.1045 44.5144 45.1045 39.9121C45.1043 35.3099 41.3737 31.5792 36.7715 31.5791ZM36.333 0C37.3018 0 38.0876 0.785206 38.0879 1.75391V28.2002H36.333V1.75391H4.75391V42.1055H24.9297V43.8594H4.75391C3.78528 43.8591 3.00011 43.0741 3 42.1055V1.75391C3.00026 0.785365 3.78537 0.000259154 4.75391 0H36.333ZM38.9238 37.3359C39.1356 37.0712 39.5223 37.0277 39.7871 37.2393C40.0519 37.4511 40.0946 37.8377 39.8828 38.1025L35.9453 43.0244L34.1445 41.2236C33.905 40.9839 33.905 40.5952 34.1445 40.3555C34.3843 40.1157 34.7739 40.1157 35.0137 40.3555L35.8438 41.1855L38.9238 37.3359ZM13.8799 33.6846H7.91406V27.7188H13.8799V33.6846ZM9.14258 32.4561H12.6514V28.9473H9.14258V32.4561ZM11.7695 31.5791H10.0156V29.8252H11.7695V31.5791ZM29.3164 31.5791H16.1582V29.8252H29.3164V31.5791ZM13.8799 23.1582H7.91406V17.1934H13.8799V23.1582ZM9.14258 21.9297H12.6514V18.4209H9.14258V21.9297ZM11.7695 21.0527H10.0156V19.2988H11.7695V21.0527ZM32.8242 21.0527H16.1572V19.2988H32.8242V21.0527ZM13.8799 12.6318H7.91406V6.66699H13.8799V12.6318ZM9.14258 11.4033H12.6514V7.89453H9.14258V11.4033ZM11.7695 10.5264H10.0156V8.77246H11.7695V10.5264ZM32.8242 10.5264H16.1572V8.77246H32.8242V10.5264Z" fill="black"/>
</svg>
