<svg width="50" height="50" viewBox="0 0 50 50" fill="none" xmlns="http://www.w3.org/2000/svg">
<g clip-path="url(#clip0_3086_9420)">
<path d="M25 0C38.8071 2.2549e-07 50 11.1929 50 25C50 38.8071 38.8071 50 25 50C11.1929 50 2.25505e-07 38.8071 0 25C0 11.1929 11.1929 0 25 0ZM25 1.85156C12.2156 1.85156 1.85156 12.2156 1.85156 25C1.85156 37.7844 12.2156 48.1484 25 48.1484C37.7844 48.1484 48.1484 37.7844 48.1484 25C48.1484 12.2156 37.7844 1.85156 25 1.85156ZM35.9326 15.6514C36.3015 15.2974 36.8881 15.3099 37.2422 15.6787C37.5959 16.0476 37.5836 16.6333 37.2148 16.9873L18.4756 34.9775L12.7715 29.2715C12.4099 28.9099 12.4099 28.3235 12.7715 27.9619C13.133 27.6007 13.7185 27.6008 14.0801 27.9619L18.502 32.3838L35.9326 15.6514Z" fill="black"/>
</g>
<defs>
<clipPath id="clip0_3086_9420">
<rect width="50" height="50" fill="white"/>
</clipPath>
</defs>
</svg>
