<svg width="50" height="50" viewBox="0 0 50 50" fill="none" xmlns="http://www.w3.org/2000/svg">
<path d="M45.5127 33.3799C46.5639 33.38 47.4157 34.232 47.416 35.2832V47.5596C47.416 48.611 46.5641 49.4638 45.5127 49.4639H39.665C38.6816 49.4636 37.8728 48.7177 37.7725 47.7607V48.0381L36.5498 48.3438C35.4647 48.615 33.7581 49.0225 32.1543 49.3623C31.3532 49.532 30.5649 49.6877 29.8877 49.8018C29.2458 49.9098 28.5949 49.999 28.123 49.999C27.6586 49.999 27.1464 49.864 26.7393 49.7373C26.283 49.5953 25.7571 49.3976 25.1953 49.165C24.0686 48.6985 22.7172 48.0569 21.3457 47.3369C18.6639 45.929 15.6534 44.0918 14.124 42.5625C13.4071 41.8455 12.8104 41.1427 12.3848 40.4512C11.9641 39.7675 11.6427 38.9851 11.6426 38.1406C11.6426 36.2116 13.1964 35.1539 14.665 34.5664L15.1348 34.3789L22.9453 36.1807C23.151 35.8717 23.3917 35.6026 23.6572 35.375C24.4175 34.7234 25.3258 34.4513 25.9795 34.4512H34.0166C34.3672 34.4512 34.9 34.4847 35.4336 34.5879C35.7022 34.6399 36.0094 34.7165 36.3086 34.834C36.591 34.9449 36.9729 35.1322 37.2998 35.459L37.7617 35.9209V35.2832C37.762 34.2322 38.614 33.3802 39.665 33.3799H45.5127ZM25.9795 36.0645C25.4434 36.0647 23.8361 36.6009 23.8359 38.7432C23.8362 40.4572 25.6227 40.8857 26.5156 40.8857H32.4092C32.9446 40.886 32.9443 41.4224 32.9443 41.958C32.9441 42.3325 32.6713 42.4608 32.4834 42.4873L32.4092 42.4932H25.4434C22.4439 41.6358 22.051 38.922 22.2295 37.6719L15.2646 36.0645C12.5859 37.136 12.5859 38.7431 15.2646 41.4219C17.8599 44.017 25.9858 48.1212 27.9521 48.375L28.123 48.3867C29.4093 48.3865 34.0162 47.315 36.1592 46.7793V36.5996C35.7839 36.2247 34.8344 36.0957 34.2441 36.0693L34.0166 36.0645H25.9795ZM39.665 34.9932C39.5048 34.9935 39.3753 35.123 39.375 35.2832V47.5596C39.375 47.7002 39.4748 47.8176 39.6074 47.8447L39.665 47.8516H45.5127L45.5713 47.8447C45.7039 47.8176 45.8037 47.7002 45.8037 47.5596V35.2832C45.8034 35.1428 45.7037 35.0261 45.5713 34.999L45.5127 34.9932H39.665ZM35.251 16.7256C36.0175 16.7259 36.6387 17.3477 36.6387 18.1143V31.415C36.6387 32.1816 36.0175 32.8034 35.251 32.8037H13.377C12.6102 32.8037 11.9883 32.1818 11.9883 31.415V18.1143C11.9883 17.3475 12.6102 16.7256 13.377 16.7256H35.251ZM13.6016 31.1904H15.6318C15.5271 30.633 15.3465 30.2191 15.082 29.916C14.7988 29.5915 14.3504 29.3153 13.6016 29.168V31.1904ZM35.0264 30.0166C34.0435 29.806 33.3405 29.8374 32.8174 30.0938C32.4579 30.27 32.1016 30.5953 31.7832 31.1904H35.0264V30.0166ZM17.7207 18.3389C17.5978 19.7196 17.1655 20.775 16.3438 21.4922C15.5988 22.1421 14.6396 22.4149 13.6016 22.5068V27.5322C14.7602 27.7043 15.662 28.1269 16.2979 28.8555C16.8619 29.502 17.1428 30.3097 17.2676 31.1904H30.0166C30.4904 29.9659 31.1648 29.1076 32.1074 28.6455C32.9972 28.2094 33.9973 28.1938 35.0264 28.375V22.5908C33.609 22.4771 32.5289 22.0463 31.7988 21.21C31.1219 20.4344 30.8537 19.4263 30.7734 18.3389H17.7207ZM23.6426 20.3691C26.0126 20.3691 27.9352 22.2902 27.9355 24.6602C27.9355 27.0304 26.0128 28.9531 23.6426 28.9531C21.2726 28.9527 19.3516 27.0302 19.3516 24.6602C19.3519 22.2905 21.2729 20.3695 23.6426 20.3691ZM23.6426 21.9824C22.1637 21.9828 20.9652 23.1813 20.9648 24.6602C20.9648 26.0932 22.0898 27.2639 23.5049 27.3359L23.6426 27.3398C25.0758 27.3398 26.2465 26.2142 26.3184 24.7988L26.3223 24.6602C26.3219 23.181 25.1218 21.9824 23.6426 21.9824ZM32.3906 18.3389C32.4665 19.1765 32.6707 19.7552 33.0137 20.1484C33.3584 20.5435 33.948 20.8685 35.0264 20.9746V18.3389H32.3906ZM13.6016 20.8867C14.3706 20.8019 14.9104 20.6017 15.2832 20.2764C15.6689 19.9397 15.986 19.3695 16.0996 18.3389H13.6016V20.8867ZM21.2891 0C21.7536 1.39513e-05 22.2657 0.135017 22.6729 0.261719C23.1291 0.403696 23.655 0.60139 24.2168 0.833984C25.3435 1.30053 26.6949 1.94208 28.0664 2.66211C30.7482 4.07005 33.7587 5.90723 35.2881 7.43652C36.005 8.15349 36.6017 8.85634 37.0273 9.54785C37.4481 10.2315 37.7695 11.014 37.7695 11.8584C37.7695 13.7874 36.2158 14.8451 34.7471 15.4326L34.2773 15.6201L26.4668 13.8184C26.2611 14.1273 26.0204 14.3964 25.7549 14.624C24.9946 15.2756 24.0864 15.5477 23.4326 15.5479H15.3955C15.0449 15.5478 14.5122 15.5144 13.9785 15.4111C13.7099 15.3591 13.4027 15.2825 13.1035 15.165C12.8211 15.0542 12.4392 14.8669 12.1123 14.54L11.6543 14.082V14.7158C11.654 15.7669 10.802 16.6188 9.75098 16.6191H3.90332C2.85208 16.6191 2.00031 15.767 2 14.7158V2.43945C2 1.38801 2.85189 0.535234 3.90332 0.535156H9.75098C10.7253 0.535447 11.5273 1.26771 11.6396 2.21191V1.96094L12.8623 1.65527C13.9474 1.384 15.654 0.976524 17.2578 0.636719C18.0589 0.466986 18.8472 0.311319 19.5244 0.197266C20.1663 0.0891745 20.8172 4.22883e-05 21.2891 0ZM3.84473 2.1543C3.71211 2.18141 3.6123 2.29882 3.6123 2.43945V14.7158C3.61258 14.8562 3.71229 14.9729 3.84473 15L3.90332 15.0059H9.75098C9.91122 15.0055 10.0407 14.8761 10.041 14.7158V2.43945C10.041 2.29884 9.94118 2.18143 9.80859 2.1543L9.75098 2.14746H3.90332L3.84473 2.1543ZM21.2891 1.6123C20.0028 1.61249 15.3959 2.68399 13.2529 3.21973V13.3994C13.6282 13.7743 14.5777 13.9034 15.168 13.9297L15.3955 13.9346H23.4326C23.9687 13.9343 25.576 13.3981 25.5762 11.2559C25.5759 9.54179 23.7894 9.11331 22.8965 9.11328H17.0029C16.4675 9.11306 16.4678 8.57666 16.4678 8.04102C16.468 7.66651 16.7408 7.53819 16.9287 7.51172L17.0029 7.50586H23.9688C26.9682 8.36321 27.3611 11.077 27.1826 12.3271L34.1475 13.9346C36.8262 12.8631 36.8262 11.2559 34.1475 8.57715C31.5522 5.98201 23.4263 1.87778 21.46 1.62402L21.2891 1.6123Z" fill="black"/>
</svg>
