<svg width="50" height="50" viewBox="0 0 50 50" fill="none" xmlns="http://www.w3.org/2000/svg">
<path d="M37.418 25.7188H29.1162C30.4909 30.5509 33.8794 33.6525 37.7041 35.582C41.7897 37.643 46.3176 38.333 49.2188 38.333H50V45.6416L49.3633 45.7607C36.5687 48.1583 28.1679 40.2024 24.9453 35.0479C17.4745 45.4855 5.76314 46.5753 0.658203 45.7637L0 45.6592V38.2861L0.827148 38.335C7.67542 38.7375 12.3373 36.533 15.4014 33.668C18.1135 31.1319 19.6023 28.0503 20.2188 25.7188H12.582L25 4L37.418 25.7188ZM15.2754 24.1562H22.1309L21.9629 25.0781C21.4749 27.7599 19.8278 31.6686 16.4688 34.8096C13.2159 37.8511 8.39069 40.1384 1.5625 39.9297V44.3076C6.76093 44.8829 17.6674 43.4246 24.3457 33.1562L25.0723 32.0371L25.6924 33.2197C28.1 37.813 35.9861 46.3361 48.4375 44.335V39.8799C45.3546 39.7676 40.9939 38.9914 37 36.9766C32.6391 34.7765 28.6601 31.0674 27.3506 25.1055L27.1426 24.1562H34.7246L25 7.14746L15.2754 24.1562Z" fill="black"/>
</svg>
