<svg width="50" height="50" viewBox="0 0 50 50" fill="none" xmlns="http://www.w3.org/2000/svg">
<g clip-path="url(#clip0_3086_4760)">
<path d="M25 0C38.8071 0 50 11.1929 50 25C50 38.8071 38.8071 50 25 50C11.1929 50 0 38.8071 0 25C1.61064e-08 11.1929 11.1929 1.61075e-08 25 0ZM25 1.96094C12.2758 1.96094 1.96094 12.2758 1.96094 25C1.96094 37.7242 12.2758 48.0391 25 48.0391C37.7242 48.0391 48.0391 37.7242 48.0391 25C48.0391 12.2758 37.7242 1.96094 25 1.96094ZM24.9375 9.02051C25.4788 9.02055 25.9177 9.45876 25.918 10V11.2383C28.2229 11.4156 29.8836 12.282 31.0156 13.4365C32.2641 14.71 32.8056 16.2669 32.9268 17.4395C32.9823 17.9779 32.5911 18.4599 32.0527 18.5156C31.5144 18.5712 31.0326 18.1798 30.9766 17.6416C30.8941 16.8437 30.5089 15.7213 29.6152 14.8096C28.745 13.9221 27.3259 13.1642 25.0312 13.1641C23.2342 13.1641 21.7686 13.6151 20.7783 14.3652C19.8163 15.0941 19.2433 16.1451 19.2432 17.54C19.2432 18.6646 19.4216 20.2013 20.2002 21.3887C20.9203 22.4866 22.2561 23.4438 24.9727 23.2822C28.4322 23.0764 30.6742 24.2755 32.0107 26.0381C33.3 27.7388 33.6445 29.8281 33.6445 31.2842C33.6444 33.4818 32.1538 37.2797 27.5557 38.1582C26.9971 38.2649 26.4503 38.3318 25.918 38.3623V39.583C25.9179 40.1244 25.4789 40.5634 24.9375 40.5635C24.3961 40.5635 23.9571 40.1244 23.957 39.583V38.3057C19.8016 37.8225 16.8663 35.033 16.5254 31.8428C16.4681 31.3046 16.8573 30.8213 17.3955 30.7637C17.9338 30.7062 18.4171 31.0964 18.4746 31.6348C18.7544 34.2543 22.0215 37.22 27.1875 36.2334C30.6336 35.5751 31.6835 32.7938 31.6836 31.2842C31.6836 30.073 31.3872 28.4611 30.4482 27.2227C29.5561 26.0461 27.9803 25.0672 25.0889 25.2393C21.7623 25.4371 19.7134 24.2218 18.5605 22.4639C17.4664 20.7953 17.2823 18.7914 17.2822 17.54C17.2823 15.5269 18.1468 13.8997 19.5947 12.8027C20.7682 11.9138 22.2824 11.4027 23.957 11.252V10C23.9573 9.45873 24.3962 9.02051 24.9375 9.02051Z" fill="black"/>
</g>
<defs>
<clipPath id="clip0_3086_4760">
<rect width="50" height="50" fill="white"/>
</clipPath>
</defs>
</svg>
