<svg width="50" height="50" viewBox="0 0 50 50" fill="none" xmlns="http://www.w3.org/2000/svg">
<path d="M34.1689 30.5078C41.574 30.5079 45.6121 32.343 47.7637 34.8594C49.9019 37.3603 50 40.3427 50 42.167V42.9775H35.0029C34.5552 42.9775 34.1926 42.6147 34.1924 42.167C34.1924 41.7192 34.5551 41.3555 35.0029 41.3555H48.3662C48.3101 39.6803 48.009 37.6416 46.5312 35.9131C44.8182 33.9096 41.3461 32.129 34.1689 32.1289C28.3395 32.1289 25.2645 33.9426 23.6201 35.998C21.9482 38.088 21.627 40.5847 21.627 42.167C21.6268 42.6147 21.2641 42.9775 20.8164 42.9775C20.7025 42.9775 20.5944 42.9535 20.4961 42.9111C20.398 42.9533 20.2903 42.9775 20.1768 42.9775H0V42.167C0 40.4114 0.34795 37.4841 2.34766 34.9844C4.37512 32.4502 7.97589 30.5078 14.1631 30.5078C19.069 30.5079 22.4919 31.3114 24.874 32.5869C24.917 32.61 24.9571 32.6368 24.9941 32.666C27.1165 31.3575 30.0771 30.5078 34.1689 30.5078ZM14.1631 32.1289C8.33367 32.1289 5.2586 33.9426 3.61426 35.998C2.20597 37.7585 1.75698 39.8073 1.65039 41.3555H20.0312C20.1382 39.5911 20.6369 37.1302 22.3535 34.9844C22.7019 34.549 23.0966 34.1309 23.543 33.7373C21.483 32.7819 18.4966 32.1289 14.1631 32.1289ZM14.999 8C19.5816 8.00021 23.2959 11.7153 23.2959 16.2979C23.2957 20.8803 19.5814 24.5945 14.999 24.5947C10.4164 24.5947 6.70138 20.8804 6.70117 16.2979C6.70117 11.7151 10.4163 8 14.999 8ZM35.0049 8C39.5874 8.00021 43.3018 11.7153 43.3018 16.2979C43.3016 20.8803 39.5873 24.5945 35.0049 24.5947C30.4223 24.5947 26.7072 20.8804 26.707 16.2979C26.707 11.7151 30.4222 8 35.0049 8ZM14.999 9.62109C11.312 9.62109 8.32227 12.6108 8.32227 16.2979L8.33105 16.6406C8.50408 20.0543 11.2416 22.7919 14.6553 22.9648L14.999 22.9736C18.5707 22.9734 21.4872 20.1679 21.666 16.6406L21.6748 16.2979C21.6748 12.726 18.8692 9.80867 15.3418 9.62988L14.999 9.62109ZM35.0049 9.62109C31.3178 9.62109 28.3281 12.6108 28.3281 16.2979L28.3369 16.6406C28.5099 20.0543 31.2474 22.7919 34.6611 22.9648L35.0049 22.9736C38.5765 22.9734 41.4931 20.1679 41.6719 16.6406L41.6807 16.2979C41.6807 12.726 38.8751 9.80867 35.3477 9.62988L35.0049 9.62109Z" fill="black"/>
</svg>
