<svg width="50" height="50" viewBox="0 0 50 50" fill="none" xmlns="http://www.w3.org/2000/svg">
<path fill-rule="evenodd" clip-rule="evenodd" d="M37.9492 4.99951C39.0538 4.99951 39.9492 5.89592 39.9492 7.00049V27.8169C40.2014 27.7963 40.4563 27.7837 40.7139 27.7837C45.842 27.7839 49.999 31.9416 49.999 37.0698C49.9988 42.1978 45.8419 46.3547 40.7139 46.355C37.1507 46.355 34.058 44.347 32.501 41.4019H3C1.89563 41.4019 1.00032 40.5062 1 39.4019V7.00049C1 5.89592 1.89543 4.99951 3 4.99951H37.9492ZM40.7139 29.7837C39.6875 29.7837 38.7109 29.9964 37.8252 30.3794V30.6333H37.2998C34.9968 31.8575 33.4277 34.28 33.4277 37.0698L33.4375 37.4438C33.6261 41.1695 36.6132 44.1565 40.3389 44.3452L40.7139 44.355C44.6119 44.3548 47.7943 41.2935 47.9893 37.4438L47.999 37.0698C47.999 33.1716 44.9376 29.9884 41.0879 29.7935L40.7139 29.7837ZM40.708 31.4263C42.5239 31.4264 43.9959 32.8985 43.9961 34.7144C43.9961 35.4979 43.7211 36.2167 43.2637 36.7817C43.7838 37.0367 44.2297 37.3878 44.5879 37.8354C45.3465 38.7837 45.4453 39.8378 45.4453 40.3735V42.3735H35.9697V40.3735C35.9697 39.9847 35.9629 38.7954 36.8438 37.7651C37.2059 37.3416 37.6483 37.021 38.1553 36.7876C37.6951 36.2218 37.4189 35.5003 37.4189 34.7144C37.4191 32.8984 38.892 31.4263 40.708 31.4263ZM40.6123 38.2837C38.049 38.3663 37.9697 39.6975 37.9697 40.3735H43.4453C43.4453 39.7294 43.1872 38.2798 40.8682 38.2798L40.6123 38.2837ZM3 39.4019H31.7227C31.6759 39.2211 31.6366 39.0378 31.6006 38.853H22.3828C21.2782 38.853 20.3828 37.9576 20.3828 36.853V26.1118C20.3828 25.0072 21.2782 24.1118 22.3828 24.1118H35.8252C36.9298 24.1118 37.8252 25.0072 37.8252 26.1118V28.2437C37.8666 28.2301 37.9076 28.2156 37.9492 28.2026V14.4946H3V39.4019ZM18.5654 17.0425C19.1177 17.0425 19.5654 17.4902 19.5654 18.0425V36.853C19.5654 37.4053 19.1177 37.853 18.5654 37.853H5.12305C4.57076 37.853 4.12305 37.4053 4.12305 36.853V18.0425C4.12305 17.4902 4.57076 17.0425 5.12305 17.0425H18.5654ZM22.3828 36.853H31.4326C31.507 33.6091 33.2435 30.7775 35.8252 29.1753V26.1118H22.3828V36.853ZM40.708 33.4263C39.9966 33.4263 39.4191 34.0029 39.4189 34.7144L39.4258 34.8462C39.4917 35.496 40.0409 36.0034 40.708 36.0034L40.8398 35.9966C41.4893 35.9304 41.9961 35.3813 41.9961 34.7144C41.9959 34.003 41.4193 33.4264 40.708 33.4263ZM6.12305 35.853H17.5654V19.0425H6.12305V35.853ZM35.8252 17.0425C36.3775 17.0425 36.8252 17.4902 36.8252 18.0425V22.4126C36.8252 22.9649 36.3775 23.4126 35.8252 23.4126H22.3828C21.8305 23.4126 21.3828 22.9649 21.3828 22.4126V18.0425C21.3828 17.4902 21.8305 17.0425 22.3828 17.0425H35.8252ZM23.3828 21.4126H34.8252V19.0425H23.3828V21.4126ZM3 12.4946H37.9492V7.00049H3V12.4946ZM30.8809 8.97314C31.3498 8.97325 31.7303 9.35286 31.7305 9.82178C31.7305 10.2908 31.3499 10.6713 30.8809 10.6714C30.4117 10.6714 30.0312 10.2909 30.0312 9.82178C30.0314 9.35279 30.4118 8.97314 30.8809 8.97314ZM33.4297 8.97314C33.8986 8.97325 34.2791 9.35286 34.2793 9.82178C34.2793 10.2908 33.8987 10.6713 33.4297 10.6714C32.9606 10.6714 32.5801 10.2909 32.5801 9.82178C32.5802 9.35279 32.9607 8.97314 33.4297 8.97314ZM35.9766 8.97314C36.4455 8.97325 36.826 9.35286 36.8262 9.82178C36.8262 10.2908 36.4456 10.6713 35.9766 10.6714C35.5074 10.6714 35.127 10.2909 35.127 9.82178C35.1271 9.35279 35.5075 8.97314 35.9766 8.97314Z" fill="black"/>
</svg>
