<svg width="50" height="50" viewBox="0 0 50 50" fill="none" xmlns="http://www.w3.org/2000/svg">
<path d="M2 46.5517H48V4H2V46.5517ZM50 47.5517L49.9951 47.6543C49.9472 48.1247 49.573 48.4989 49.1025 48.5468L49 48.5517H1L0.897461 48.5468C0.427043 48.4989 0.0527974 48.1247 0.00488281 47.6543L0 47.5517V3C0 2.44771 0.447715 2 1 2H49C49.5523 2 50 2.44771 50 3V47.5517Z" fill="black"/>
<path d="M50 11.4943V13.4943H0V11.4943H50Z" fill="black"/>
<path d="M47.125 7.17237C47.125 7.80718 46.6104 8.3218 45.9756 8.3218C45.3408 8.3218 44.8262 7.80718 44.8262 7.17237C44.8262 6.53756 45.3408 6.02295 45.9756 6.02295C46.6104 6.02295 47.125 6.53756 47.125 7.17237Z" fill="black"/>
<path d="M43.6777 7.17225C43.6777 7.80706 43.1631 8.32168 42.5282 8.32168C41.8934 8.32168 41.3788 7.80706 41.3788 7.17225C41.3788 6.53744 41.8934 6.02283 42.5282 6.02283C43.1631 6.02283 43.6777 6.53744 43.6777 7.17225Z" fill="black"/>
<path d="M40.2285 7.17237C40.2285 7.80718 39.7139 8.3218 39.0791 8.3218C38.4443 8.3218 37.9297 7.80718 37.9297 7.17237C37.9297 6.53756 38.4443 6.02295 39.0791 6.02295C39.7139 6.02295 40.2285 6.53756 40.2285 7.17237Z" fill="black"/>
<path d="M4.87319 43.1036H21.7706V18.9425H4.87319V43.1036ZM23.7706 44.1036L23.7648 44.2052C23.7172 44.6762 23.3432 45.0501 22.8722 45.0978L22.7706 45.1036H3.87319L3.77065 45.0978C3.3 45.0498 2.92564 44.676 2.87807 44.2052L2.87319 44.1036V17.9425C2.87319 17.4248 3.26652 16.9987 3.77065 16.9474L3.87319 16.9425H22.7706L22.8722 16.9474C23.3767 16.9984 23.7706 17.4246 23.7706 17.9425V44.1036Z" fill="black"/>
<path d="M28.2306 23.5636H45.1281V18.9425H28.2306V23.5636ZM47.1281 24.5636L47.1222 24.6652C47.0745 25.136 46.7005 25.5101 46.2296 25.5577L46.1281 25.5636H27.2306L27.1281 25.5577C26.6575 25.5098 26.2831 25.1358 26.2355 24.6652L26.2306 24.5636V17.9425C26.2306 17.4248 26.6239 16.9987 27.1281 16.9474L27.2306 16.9425H46.1281L46.2296 16.9474C46.7341 16.9984 47.1281 17.4246 47.1281 17.9425V24.5636Z" fill="black"/>
<path d="M28.2306 43.1036H45.1281V29.8624H28.2306V43.1036ZM47.1281 44.1036L47.1222 44.2062C47.0743 44.6769 46.7004 45.0511 46.2296 45.0988L46.1281 45.1036H27.2306L27.1281 45.0988C26.6239 45.0474 26.2306 44.6213 26.2306 44.1036V28.8624C26.2306 28.3448 26.6239 27.9186 27.1281 27.8673L27.2306 27.8624H46.1281L46.2296 27.8673C46.7341 27.9183 47.1281 28.3445 47.1281 28.8624V44.1036Z" fill="black"/>
</svg>
