<svg width="50" height="50" viewBox="0 0 50 50" fill="none" xmlns="http://www.w3.org/2000/svg">
<g clip-path="url(#clip0_3086_5190)">
<path d="M34.5723 5.00684C37.3368 5.14714 39.536 7.43309 39.5361 10.2324L39.5283 10.502C39.4827 11.4008 39.2087 12.2388 38.7656 12.9619L42.8105 17.0068C43.4151 16.7628 44.0756 16.628 44.7676 16.6279L45.0371 16.6348C47.8016 16.7751 50.0008 19.061 50.001 21.8604L49.9932 22.1299C49.8529 24.8945 47.567 27.0937 44.7676 27.0938L44.498 27.0859C42.9665 27.0082 41.6095 26.2716 40.7031 25.1543L34.2734 26.6377C33.3944 28.292 31.6543 29.4189 29.6504 29.4189L29.3809 29.4121C29.3704 29.4116 29.36 29.4098 29.3496 29.4092L25.8018 35.6152C27.7177 36.3923 29.0693 38.2711 29.0693 40.4658L29.0615 40.7354C28.9212 43.4999 26.6354 45.6982 23.8359 45.6982L23.5664 45.6914C20.8912 45.5555 18.7461 43.4106 18.6104 40.7354L18.6035 40.4658C18.6035 38.7788 19.402 37.2782 20.6416 36.3213L17.0713 31.5605C16.6334 31.6794 16.1728 31.7451 15.6973 31.7451L15.4277 31.7373C12.7525 31.6014 10.6075 29.4565 10.4717 26.7812L10.4648 26.5117C10.4649 25.361 10.8371 24.2974 11.4668 23.4336L6.75977 18.7256C6.27653 18.8729 5.76383 18.9541 5.23242 18.9541L4.96289 18.9463C2.28765 18.8104 0.142611 16.6655 0.00683594 13.9902L0 13.7207C0.000217486 10.8311 2.3428 8.48845 5.23242 8.48828L5.50195 8.49512C7.32818 8.5878 8.90686 9.61758 9.76855 11.1123L13.9756 10.6914C13.9701 10.6286 13.9651 10.5653 13.9619 10.502L13.9551 10.2324C13.9553 7.34276 16.2978 5.00015 19.1875 5L19.457 5.00684C21.5514 5.11313 23.3207 6.45116 24.0557 8.31055L29.207 9.04688C29.7444 6.72849 31.821 5.00015 34.3027 5L34.5723 5.00684ZM23.8359 36.8613C21.8453 36.8615 20.2315 38.4751 20.2314 40.4658C20.2315 42.4565 21.8453 44.0701 23.8359 44.0703C25.8267 44.0703 27.4413 42.4566 27.4414 40.4658C27.4414 38.4751 25.8267 36.8614 23.8359 36.8613ZM21.4365 14.957C20.7868 15.2669 20.0638 15.4458 19.2998 15.4619L17.7412 21.6953C19.6153 22.4913 20.9305 24.3473 20.9307 26.5117L20.9229 26.7812C20.8361 28.4898 19.9294 29.9812 18.5889 30.8721L22.085 35.5342C22.6325 35.3397 23.2217 35.2334 23.8359 35.2334L24.1055 35.2402C24.1171 35.2408 24.129 35.2415 24.1406 35.2422L27.6865 29.0371C25.8491 28.2924 24.5304 26.5345 24.4248 24.4561L24.418 24.1865C24.418 22.8167 24.9442 21.5695 25.8057 20.6367L21.4365 14.957ZM15.6973 22.9072C13.7067 22.9074 12.0929 24.5212 12.0928 26.5117C12.0928 28.5024 13.7066 30.117 15.6973 30.1172C17.688 30.1171 19.3027 28.5024 19.3027 26.5117C19.3026 24.5211 17.6879 22.9073 15.6973 22.9072ZM29.6504 20.5811C27.6597 20.5812 26.0459 22.1958 26.0459 24.1865C26.0461 26.1771 27.6598 27.7908 29.6504 27.791C31.6411 27.791 33.2557 26.1772 33.2559 24.1865C33.2559 22.1957 31.6412 20.5811 29.6504 20.5811ZM44.7676 18.2559C42.777 18.256 41.1633 19.8698 41.1631 21.8604C41.1631 23.851 42.7769 25.4656 44.7676 25.4658C46.7583 25.4658 48.373 23.8511 48.373 21.8604C48.3729 19.8697 46.7582 18.2559 44.7676 18.2559ZM24.4209 10.2324L24.4131 10.502C24.3425 11.8921 23.7293 13.1388 22.7812 14.0352L27.082 19.627C27.8408 19.1986 28.7169 18.9542 29.6504 18.9541L29.9199 18.9609C32.6845 19.1012 34.8838 21.387 34.8838 24.1865L34.876 24.4561C34.8695 24.5844 34.8564 24.7112 34.8408 24.8369L39.8613 23.6777C39.6813 23.1916 39.5695 22.6718 39.542 22.1299L39.5352 21.8604C39.5353 20.2644 40.2503 18.8357 41.377 17.876L37.707 14.2061C36.792 14.9908 35.6028 15.4658 34.3027 15.4658L34.0332 15.458C31.4158 15.3251 29.3069 13.2692 29.0898 10.6748L24.4141 10.0078C24.4172 10.0823 24.4209 10.1571 24.4209 10.2324ZM10.3623 12.6875C10.4293 13.0216 10.4658 13.3669 10.4658 13.7207L10.458 13.9902C10.3751 15.6242 9.54278 17.0604 8.29785 17.9619L12.6182 22.2822C13.4822 21.6521 14.546 21.2794 15.6973 21.2793L15.9668 21.2861C16.0322 21.2894 16.0974 21.2951 16.1621 21.3008L17.6768 15.2422C16.188 14.7938 14.9793 13.7011 14.375 12.2871L10.3623 12.6875ZM5.23242 10.1162C3.24188 10.1164 1.62815 11.7302 1.62793 13.7207C1.62799 15.7114 3.24179 17.326 5.23242 17.3262C7.22315 17.3261 8.83783 15.7114 8.83789 13.7207C8.83767 11.7301 7.22306 10.1163 5.23242 10.1162ZM19.1875 6.62793C17.1969 6.62808 15.5832 8.24184 15.583 10.2324C15.5831 12.2231 17.1968 13.8377 19.1875 13.8379C21.1782 13.8378 22.7929 12.2232 22.793 10.2324C22.7928 8.24179 21.1782 6.62799 19.1875 6.62793ZM34.3027 6.62793C32.3122 6.6281 30.6984 8.24186 30.6982 10.2324C30.6983 12.2231 32.3121 13.8377 34.3027 13.8379C36.2935 13.8378 37.9081 12.2232 37.9082 10.2324C37.908 8.24179 36.2934 6.62799 34.3027 6.62793Z" fill="black"/>
</g>
<defs>
<clipPath id="clip0_3086_5190">
<rect width="50" height="50" fill="white"/>
</clipPath>
</defs>
</svg>
