<svg width="58" height="56" viewBox="0 0 58 56" fill="none" xmlns="http://www.w3.org/2000/svg">
<g filter="url(#filter0_d_3086_6652)">
<path d="M51.083 2C52.6942 2.00049 54 3.30769 54 4.91895V44.3496C54 45.9609 52.6941 47.2681 51.083 47.2686H6.91895C5.30738 47.2686 4 45.9612 4 44.3496V4.91895C4 3.30739 5.30738 2 6.91895 2H51.083ZM6.91895 4.12891C6.48339 4.12891 6.12891 4.48339 6.12891 4.91895V44.3496C6.12891 44.7578 6.43944 45.0942 6.83691 45.1348L6.91895 45.1387H51.083C51.5181 45.1382 51.8711 44.7849 51.8711 44.3496V4.91895C51.8711 4.51075 51.5606 4.17436 51.1631 4.13379L51.083 4.12891H6.91895ZM27.4238 41.3926H19.9707V15.8408H27.4238V41.3926ZM46.5879 41.3926H39.1348V19.0352H46.5879V41.3926ZM17.8018 40.998H10.3887V27.2764H17.8018V40.998ZM36.7275 40.998H29.3145V20.9668H36.7275V40.998ZM22.0996 39.2637H25.2939V17.9697H22.0996V39.2637ZM41.2637 39.2637H44.458V21.1641H41.2637V39.2637ZM12.5176 38.8691H15.6729V29.4053H12.5176V38.8691ZM31.4434 38.8682H34.5986V23.0957H31.4434V38.8682ZM22.7236 7.35547C23.9567 6.95974 25.3142 7.55432 25.8438 8.7666C25.8663 8.81833 25.8844 8.87149 25.9033 8.92383C26.0949 8.93758 26.2853 9.0027 26.4521 9.12402L32.3076 13.3828C32.4018 13.4513 32.4814 13.5324 32.5459 13.6221C32.9192 13.4086 33.3507 13.2852 33.8115 13.2852L34.0723 13.2988C35.1414 13.4073 36.0133 14.1755 36.2803 15.1895L39.8174 14.3057C40.0381 13.119 41.0785 12.2207 42.3291 12.2207L42.5898 12.2334C43.8783 12.3641 44.8845 13.4525 44.8848 14.7754C44.8848 16.1866 43.7403 17.331 42.3291 17.3311C41.5215 17.3311 40.8032 16.9552 40.335 16.3701L36.1973 17.4053C36.0669 17.4378 35.9364 17.4431 35.8105 17.4277C35.3423 18.0167 34.6222 18.3965 33.8115 18.3965C32.4884 18.3965 31.4002 17.3902 31.2695 16.1016L31.2559 15.8408L31.2695 15.5801C31.281 15.4666 31.3023 15.3557 31.3281 15.2471C31.2333 15.2136 31.1412 15.1666 31.0557 15.1045L25.6494 11.1729C25.3862 11.5825 25.004 11.9223 24.5244 12.1318C23.7447 12.4723 22.8887 12.3906 22.207 11.9902L16.0508 20.7139C15.9803 20.8137 15.8948 20.8964 15.8008 20.9639C16.0142 21.337 16.1386 21.7679 16.1387 22.2285C16.1387 23.6397 14.9942 24.7842 13.583 24.7842C12.26 24.7842 11.1719 23.7787 11.041 22.4902L11.0273 22.2285L11.041 21.9678C11.1718 20.6793 12.26 19.6738 13.583 19.6738L13.8438 19.6865C13.9569 19.698 14.0675 19.7194 14.1758 19.7451C14.2077 19.6547 14.2525 19.5666 14.3105 19.4844L20.6982 10.4355C20.7756 10.326 20.8703 10.2355 20.9756 10.165C20.8094 9.05109 21.3972 7.92072 22.4785 7.44824L22.7236 7.35547ZM13.583 21.1641C12.9952 21.1641 12.5188 21.6407 12.5186 22.2285C12.5186 22.8165 12.995 23.2939 13.583 23.2939C14.171 23.2939 14.6475 22.8165 14.6475 22.2285C14.6472 21.6407 14.1708 21.1641 13.583 21.1641ZM33.8115 14.7764C33.2235 14.7764 32.7471 15.2528 32.7471 15.8408C32.7471 16.4288 33.2235 16.9053 33.8115 16.9053C34.3995 16.9053 34.876 16.4288 34.876 15.8408C34.876 15.2528 34.3995 14.7764 33.8115 14.7764ZM42.3291 13.7109C41.7412 13.7109 41.2649 14.1876 41.2646 14.7754C41.2646 15.3634 41.7411 15.8408 42.3291 15.8408C42.9171 15.8408 43.3936 15.3634 43.3936 14.7754C43.3933 14.1876 42.9169 13.711 42.3291 13.7109ZM24.4775 9.36328C24.2421 8.82454 23.614 8.57912 23.0752 8.81445C22.5366 9.04994 22.2911 9.6771 22.5264 10.2158C22.7617 10.7546 23.389 11.0009 23.9277 10.7656C24.4666 10.5303 24.7129 9.90212 24.4775 9.36328Z" fill="black"/>
</g>
<defs>
<filter id="filter0_d_3086_6652" x="0" y="0" width="58" height="58" filterUnits="userSpaceOnUse" color-interpolation-filters="sRGB">
<feFlood flood-opacity="0" result="BackgroundImageFix"/>
<feColorMatrix in="SourceAlpha" type="matrix" values="0 0 0 0 0 0 0 0 0 0 0 0 0 0 0 0 0 0 127 0" result="hardAlpha"/>
<feOffset dy="4"/>
<feGaussianBlur stdDeviation="2"/>
<feComposite in2="hardAlpha" operator="out"/>
<feColorMatrix type="matrix" values="0 0 0 0 0 0 0 0 0 0 0 0 0 0 0 0 0 0 0.25 0"/>
<feBlend mode="normal" in2="BackgroundImageFix" result="effect1_dropShadow_3086_6652"/>
<feBlend mode="normal" in="SourceGraphic" in2="effect1_dropShadow_3086_6652" result="shape"/>
</filter>
</defs>
</svg>
