<svg width="50" height="50" viewBox="0 0 50 50" fill="none" xmlns="http://www.w3.org/2000/svg">
<path d="M24.6943 0C26.1689 0.000225878 27.5137 0.913169 27.9326 2.25879H32.5752C33.8131 2.25879 34.8163 3.26213 34.8164 4.5V5.40625H41.5879C42.5798 5.40651 43.3836 6.21123 43.3838 7.20312V48.2021C43.3838 49.1942 42.5799 49.9997 41.5879 50H7.7959C6.80399 49.9996 6 49.1941 6 48.2021V7.20312C6.0002 6.2113 6.80411 5.40661 7.7959 5.40625H15.0156V4.5C15.0157 3.26224 16.0191 2.25895 17.2568 2.25879H21.4551C21.8742 0.913051 23.2196 0 24.6943 0ZM7.79102 7.20117V48.2041C7.79103 48.2041 7.79181 48.2059 7.79297 48.207C7.79384 48.2079 7.79481 48.2089 7.79492 48.209H41.5889C41.5889 48.209 41.5899 48.2079 41.5908 48.207C41.592 48.2059 41.5928 48.2041 41.5928 48.2041V7.20117L41.5889 7.19727H34.8164V8.10449C34.8162 9.34229 33.813 10.3457 32.5752 10.3457H17.2568C16.0191 10.3455 15.0158 9.34219 15.0156 8.10449V7.19727H7.79492L7.79102 7.20117ZM36.4463 42.5352C36.9408 42.5352 37.3417 42.9362 37.3418 43.4307C37.3418 43.9252 36.9409 44.3262 36.4463 44.3262H12.2686C11.774 44.3262 11.373 43.9252 11.373 43.4307C11.3731 42.9362 11.774 42.5352 12.2686 42.5352H36.4463ZM36.4463 37.834C36.9408 37.834 37.3418 38.235 37.3418 38.7295C37.3418 39.2241 36.9409 39.625 36.4463 39.625H12.2686C11.774 39.625 11.373 39.2241 11.373 38.7295C11.3731 38.235 11.774 37.834 12.2686 37.834H36.4463ZM36.4463 33.1328C36.9409 33.1328 37.3418 33.5338 37.3418 34.0283C37.3418 34.5229 36.9408 34.9238 36.4463 34.9238H12.2686C11.774 34.9238 11.3731 34.5229 11.373 34.0283C11.373 33.5338 11.774 33.1328 12.2686 33.1328H36.4463ZM36.4463 28.4316C36.9409 28.4316 37.3418 28.8326 37.3418 29.3271C37.3417 29.8216 36.9408 30.2227 36.4463 30.2227H12.2686C11.774 30.2227 11.3731 29.8216 11.373 29.3271C11.373 28.8326 11.774 28.4316 12.2686 28.4316H36.4463ZM32.416 14.3281C35.6307 14.3281 38.2373 16.9338 38.2373 20.1484C38.2372 23.363 35.6306 25.9688 32.416 25.9688C29.2016 25.9686 26.5958 23.3629 26.5957 20.1484C26.5957 16.9339 29.2015 14.3283 32.416 14.3281ZM24.3584 23.7305C24.8528 23.7307 25.2539 24.1316 25.2539 24.626C25.2539 25.1204 24.8528 25.5213 24.3584 25.5215H11.8213C11.3267 25.5215 10.9258 25.1205 10.9258 24.626C10.9258 24.1314 11.3267 23.7305 11.8213 23.7305H24.3584ZM31.5215 16.2188C29.7267 16.6258 28.3867 18.2305 28.3867 20.1484C28.3868 22.3738 30.1907 24.1776 32.416 24.1777C34.1705 24.1777 35.6626 23.0563 36.2158 21.4912H32.6406C32.0225 21.4911 31.5215 20.9902 31.5215 20.3721V16.2188ZM24.3584 19.0293C24.8526 19.0295 25.2537 19.4296 25.2539 19.9238C25.2539 20.4183 24.8528 20.8191 24.3584 20.8193H11.8213C11.3267 20.8193 10.9258 20.4184 10.9258 19.9238C10.926 19.4295 11.3269 19.0293 11.8213 19.0293H24.3584ZM33.3125 19.7002H36.4199C36.2301 17.9848 34.9649 16.594 33.3125 16.2188V19.7002ZM24.3584 14.3281C24.8526 14.3283 25.2537 14.7284 25.2539 15.2227C25.2539 15.7171 24.8528 16.1179 24.3584 16.1182H11.8213C11.3267 16.1182 10.9258 15.7172 10.9258 15.2227C10.926 14.7283 11.3269 14.3281 11.8213 14.3281H24.3584ZM17.2568 4.04883C17.0082 4.04899 16.8067 4.25135 16.8066 4.5V8.10449L16.8154 8.19531C16.8575 8.40039 17.0393 8.55455 17.2568 8.55469H32.5752C32.7928 8.55469 32.9744 8.40041 33.0166 8.19531L33.0254 8.10449V4.5C33.0253 4.25125 32.824 4.04883 32.5752 4.04883H17.2568ZM24.6943 1.79102C24.1918 1.79102 23.7813 1.98158 23.5039 2.25879H25.8838C25.6067 1.98165 25.1966 1.79115 24.6943 1.79102Z" fill="black"/>
</svg>
