<svg width="50" height="50" viewBox="0 0 50 50" fill="none" xmlns="http://www.w3.org/2000/svg">
<path d="M47.083 2C48.6942 2.00049 50 3.30769 50 4.91895V44.3496C50 45.9609 48.6941 47.2681 47.083 47.2686H2.91895C1.30738 47.2686 0 45.9612 0 44.3496V4.91895C0 3.30739 1.30738 2 2.91895 2H47.083ZM2.91895 4.12891C2.48339 4.12891 2.12891 4.48339 2.12891 4.91895V44.3496C2.12891 44.7578 2.43944 45.0942 2.83691 45.1348L2.91895 45.1387H47.083C47.5181 45.1382 47.8711 44.7849 47.8711 44.3496V4.91895C47.8711 4.51075 47.5606 4.17436 47.1631 4.13379L47.083 4.12891H2.91895ZM34.5996 25.4229C38.4215 25.4229 41.5203 28.521 41.5205 32.3428C41.5205 36.1648 38.4216 39.2637 34.5996 39.2637C30.7778 39.2634 27.6797 36.1646 27.6797 32.3428C27.6799 28.5211 30.7779 25.4231 34.5996 25.4229ZM33.5391 27.6709C31.4038 28.1537 29.8088 30.0616 29.8086 32.3428C29.8086 34.9886 31.9538 37.1336 34.5996 37.1338C36.6854 37.1338 38.4593 35.8009 39.1172 33.9404H34.8701C34.1352 33.9404 33.5392 33.3443 33.5391 32.6094V27.6709ZM22.3594 36.0693H6.38965V33.9404H22.3594V36.0693ZM35.668 31.8105H39.3604C39.1348 29.7719 37.6313 28.1199 35.668 27.6729V31.8105ZM22.3594 28.6172L6.38965 28.6162V26.4873H22.3594V28.6172ZM34.5996 8.3877C38.4216 8.3877 41.5205 11.4866 41.5205 15.3086C41.5203 19.1304 38.4215 22.2285 34.5996 22.2285C30.7779 22.2283 27.6799 19.1303 27.6797 15.3086C27.6797 11.4867 30.7778 8.38793 34.5996 8.3877ZM22.3594 21.1641H6.38965V19.0352H22.3594V21.1641ZM36.1992 15.042C36.1992 15.7769 35.6031 16.3729 34.8682 16.373H29.9297C30.414 18.5062 32.3199 20.0994 34.5996 20.0996C37.2455 20.0996 39.3904 17.9544 39.3906 15.3086C39.3906 13.2234 38.0588 11.4494 36.1992 10.791V15.042ZM34.0693 10.5469C32.0284 10.7718 30.3746 12.2782 29.9287 14.2441H34.0693V10.5469ZM22.3594 13.7119L6.38965 13.7109V11.582H22.3594V13.7119Z" fill="black"/>
</svg>
