<svg width="50" height="50" viewBox="0 0 50 50" fill="none" xmlns="http://www.w3.org/2000/svg">
<g clip-path="url(#clip0_3086_4092)">
<path d="M35.0693 9C35.8396 9.00021 36.4648 9.62517 36.4648 10.3955V15.8125H34.8613V10.6025H1.60254V40.2549H34.8613V35.0459H36.4648V40.4629C36.4647 41.2331 35.8395 41.8582 35.0693 41.8584H1.39551C0.625144 41.8584 0.00016734 41.2332 0 40.4629V10.3955C0 9.62504 0.625038 9 1.39551 9H35.0693ZM50.001 35.0312L48.9746 36.2627L42.4863 30.8535L43.5127 29.6221L50.001 35.0312ZM13.2236 35.4463H7.61328V25.0283H13.2236V35.4463ZM20.4365 35.4463H14.8262V15.4111H20.4365V35.4463ZM27.6484 35.4463H22.0391V20.2197H27.6484V35.4463ZM9.21582 33.8438H11.6201V26.6309H9.21582V33.8438ZM16.4287 33.8438H18.833V17.0137H16.4287V33.8438ZM23.6416 33.8438H26.0459V21.8223H23.6416V33.8438ZM36.8652 17.8154C41.07 17.8154 44.4784 21.224 44.4785 25.4287C44.4785 29.6335 41.07 33.042 36.8652 33.042C32.6605 33.0419 29.252 29.6334 29.252 25.4287C29.252 21.2241 32.6606 17.8155 36.8652 17.8154ZM36.8652 19.418C33.5458 19.4181 30.8546 22.1093 30.8545 25.4287L30.8623 25.7383C31.0181 28.8117 33.4832 31.2759 36.5566 31.4316L36.8652 31.4395C40.081 31.4395 42.7071 28.9141 42.8682 25.7383L42.876 25.4287C42.8759 22.213 40.3505 19.5868 37.1748 19.4258L36.8652 19.418Z" fill="black"/>
</g>
<defs>
<clipPath id="clip0_3086_4092">
<rect width="50" height="50" fill="white"/>
</clipPath>
</defs>
</svg>
