<svg width="50" height="50" viewBox="0 0 50 50" fill="none" xmlns="http://www.w3.org/2000/svg">
<path d="M40.25 23.7705L49.3359 25.708L49.998 25.8486V37.8359L49.9834 37.9141C49.4738 40.5872 47.7216 42.6782 45.8223 44.1836C43.9187 45.6922 41.7819 46.6831 40.3271 47.1406L40.0596 47.2246L39.7949 47.1309C36.861 46.0858 31.1576 43.8311 30.0996 37.9043L30.0908 37.8545L30.0879 37.8027L30.0869 37.8008V37.7793C30.0861 37.7636 30.0837 37.7395 30.082 37.709C30.0787 37.6477 30.0745 37.5571 30.0684 37.4414C30.0562 37.2097 30.0383 36.8752 30.0176 36.4648C29.9762 35.6443 29.9215 34.519 29.8682 33.2998C29.7619 30.8716 29.6598 28.0383 29.6826 26.5137L29.6924 25.8398L39.9102 23.7695L40.0801 23.7354L40.25 23.7705ZM40.7783 26.2275L47.6768 27.7578V37.374L47.667 37.4258C47.2772 39.5542 45.934 41.229 44.4619 42.4434C43.0111 43.6401 41.3841 44.4325 40.2588 44.8086V45.3936C41.5219 44.9386 43.2415 44.0931 44.7822 42.8721C46.4944 41.5151 47.903 39.7655 48.3252 37.666V27.2031L40.7783 25.5947V26.2275ZM31.3525 27.2109C31.3604 28.7605 31.4479 31.1212 31.54 33.2266C31.5932 34.4411 31.6482 35.5629 31.6895 36.3809C31.7101 36.7897 31.7271 37.1229 31.7393 37.3535C31.7453 37.4684 31.7497 37.5584 31.7529 37.6191C31.7535 37.6304 31.7544 37.6411 31.7549 37.6504C32.5562 42.0189 36.4526 44.0583 39.4219 45.2051V44.668C37.0514 43.7576 33.0961 41.8917 32.3291 37.4199L32.3232 37.3857L32.3223 37.3506H32.3213C32.3212 37.3498 32.3214 37.3473 32.3213 37.3457C32.3211 37.3424 32.3206 37.3371 32.3203 37.3311C32.3197 37.3184 32.3186 37.2996 32.3174 37.2754C32.3148 37.2258 32.3114 37.1522 32.3066 37.0586C32.2971 36.8711 32.2827 36.6004 32.2666 36.2686C32.2344 35.6045 32.1929 34.6936 32.1514 33.707C32.0686 31.7404 31.9891 29.4499 32.0068 28.2197L32.0137 27.752L39.9414 26.0801V25.4697L31.3525 27.2109ZM27.5547 8.5293C27.8387 8.60196 28.1164 8.70814 28.376 8.82812C28.8635 9.05351 29.3571 9.35636 29.8174 9.67773C30.5276 10.1737 31.199 10.7438 31.7051 11.2139L37.7422 8.7998L41.9521 16.5186L37.0303 20.209V23.5508H35.3574V19.373L39.7891 16.0479L36.9834 10.9053L31.3154 13.1729L30.9248 12.7822C30.4647 12.3222 29.684 11.625 28.8604 11.0498C28.4486 10.7623 28.0424 10.5171 27.6738 10.3467C27.2934 10.1709 27.0153 10.1046 26.8398 10.1045H26.1406L24.9717 3.67285H18.7559L17.7207 8.84668L17.626 9.32324L17.165 9.47656C16.624 9.65692 15.7368 10.0171 14.8818 10.4951C14.0026 10.9868 13.273 11.5409 12.9199 12.0703L12.5371 12.6436L5.58496 9.74609L2.23047 15.9766L7.94238 19.4033L7.76562 20.0215C7.58415 20.6568 7.36363 21.707 7.2998 22.751C7.23281 23.847 7.35518 24.7193 7.6582 25.1738L8.08984 25.8203L2.75391 29.9688L5.59473 35.6504L11.8203 32.8213L12.2305 33.2314C12.6807 33.6816 13.4813 34.3719 14.3818 34.9434C15.3104 35.5325 16.2127 35.9091 16.9004 35.9092H17.6094L18.7783 42.9248H25.0205L26.8203 35.9092H29.1426V37.583H28.1191L26.3193 44.5986H17.3613L16.1797 37.5127C15.2268 37.3385 14.2761 36.8582 13.4854 36.3564C12.7045 35.861 11.9959 35.2921 11.4717 34.8174L4.81934 37.8408L0.644531 29.4912L5.91504 25.3906C5.60841 24.5374 5.57542 23.5235 5.62891 22.6484C5.68327 21.7596 5.83573 20.8795 5.99609 20.1875L0 16.5898L4.83008 7.61914L11.9668 10.5928C12.5527 9.96631 13.3377 9.44163 14.0664 9.03418C14.8123 8.61714 15.5745 8.28138 16.1719 8.05469L17.3838 2H26.3682L27.5547 8.5293ZM33.1758 28.7031C33.1794 29.9587 33.2481 31.9182 33.3213 33.6582C33.3627 34.6416 33.4054 35.5496 33.4375 36.2119C33.4536 36.5431 33.4671 36.8132 33.4766 37C33.4813 37.0929 33.4848 37.1656 33.4873 37.2148C33.4879 37.2268 33.4878 37.2379 33.4883 37.2471C34.1681 41.1283 37.6914 42.7635 40.0312 43.6465C41.0292 43.2923 42.4496 42.5853 43.7168 41.54C45.0569 40.4346 46.1736 38.9969 46.5059 37.2568V28.6982L40.0205 27.2598L33.1758 28.7031ZM43.2041 31.5156C43.5374 31.1958 44.0678 31.2068 44.3877 31.54C44.7072 31.8732 44.6961 32.4027 44.3633 32.7227L38.542 38.3105L36.499 36.2666C36.1724 35.9399 36.1725 35.4107 36.499 35.084C36.8258 34.7573 37.3549 34.7573 37.6816 35.084L38.5664 35.9678L43.2041 31.5156ZM21.5742 16.3643C25.7271 16.3644 29.0938 19.7309 29.0938 23.8838C29.0936 28.0366 25.727 31.4032 21.5742 31.4033C17.4215 31.4031 14.0549 28.0365 14.0547 23.8838C14.0547 19.7309 17.4214 16.3645 21.5742 16.3643ZM21.5742 18.0371C18.3455 18.0373 15.7275 20.6551 15.7275 23.8838L15.7354 24.1846C15.887 27.1738 18.2843 29.571 21.2734 29.7227L21.5742 29.7295C24.702 29.7293 27.2564 27.2734 27.4131 24.1846L27.4209 23.8838C27.4209 20.7558 24.964 18.2006 21.875 18.0439L21.5742 18.0371Z" fill="black"/>
</svg>
