<svg width="50" height="50" viewBox="0 0 50 50" fill="none" xmlns="http://www.w3.org/2000/svg">
<path d="M41.835 43.5391H31.5703V42.2402H41.835V43.5391ZM46.8994 40.1211H31.5703V38.8223H46.8994V40.1211ZM47.0977 37.0996H31.5703V35.8018H47.0977V37.0996ZM47.0977 34.2051H31.5703V32.9062H47.0977V34.2051ZM47.0977 31.3105H31.5703V30.0117H47.0977V31.3105ZM47.0977 28.415H31.5703V27.1162H47.0977V28.415ZM47.0977 25.5205H31.5703V24.2217H47.0977V25.5205Z" fill="black"/>
<path fill-rule="evenodd" clip-rule="evenodd" d="M39.2627 11.7031L39.4102 11.9219V21.2637H48.8281C49.4752 21.264 49.9998 21.7884 50 22.4355V46.4971C49.9999 47.1443 49.4753 47.6696 48.8281 47.6699H29.9971C29.4558 47.6699 29.0012 47.3023 28.8662 46.8037H24.7666C24.1192 46.8037 23.5939 46.2792 23.5938 45.6318V42.5879H0V11.9014L0.169922 11.6709L7.33691 1.99902H32.7256L39.2627 11.7031ZM30.123 46.3711H48.7012V22.5615H30.123V46.3711ZM24.8926 45.5049H28.8242V43.9268H25.9727V42.6279H28.8242V41.0498H25.9727V39.751H28.8242V38.0029H25.9727V36.7051H28.8242V35.6055H25.9727V34.3076H28.8242V32.7285H25.9727V31.4307H28.8242V30.3311H25.9727V29.0322H28.8242V27.4541H25.9727V26.1562H28.8242V23.7881H24.8926V45.5049ZM1.73145 40.8564H23.5938V23.6621C23.5939 23.0148 24.1192 22.4902 24.7666 22.4902H28.8242V22.4355C28.8244 21.7882 29.3497 21.2637 29.9971 21.2637H37.6787V13.7393H25.8701V19.627H14.7188V13.7393H1.73145V40.8564ZM16.4502 13.1182V17.8955H24.1387V13.1182L22.4004 3.73145H18.1885L16.4502 13.1182ZM2.07617 12.0078H14.8945L16.4277 3.73145H8.20996L2.07617 12.0078ZM25.6943 12.0078H37.3809L31.8037 3.73145H24.1611L25.6943 12.0078Z" fill="black"/>
</svg>
