<svg width="50" height="50" viewBox="0 0 50 50" fill="none" xmlns="http://www.w3.org/2000/svg">
<g clip-path="url(#clip0_3086_10155)">
<path d="M41.2266 11.1895L41.3818 11.4189V20.4404C46.4611 22.7094 50.001 27.805 50.001 33.7275C50.0007 41.7604 43.4889 48.2722 35.4561 48.2725C31.2429 48.2725 27.4484 46.4807 24.792 43.6182H0V11.3965L0.178711 11.1553L7.7041 1H34.3623L41.2266 11.1895ZM35.4561 21C28.427 21 22.7285 26.6985 22.7285 33.7275C22.7288 40.7564 28.4271 46.4541 35.4561 46.4541C42.4848 46.4539 48.1824 40.7563 48.1826 33.7275C48.1826 26.6986 42.4849 21.0002 35.4561 21ZM1.81836 41.8008H23.3555C21.8112 39.491 20.9102 36.7146 20.9102 33.7275C20.9102 25.6943 27.4228 19.1816 35.4561 19.1816C36.8825 19.1817 38.2609 19.3877 39.5635 19.7705V13.3271H27.1621V19.5098H15.4531V13.3271H1.81836V41.8008ZM41.1797 28.5342C41.5373 28.1824 42.1127 28.1867 42.4648 28.5439C42.8168 28.9017 42.8117 29.4779 42.4541 29.8301L32.5713 39.5615L29.3486 36.2559C28.9981 35.8964 29.0048 35.3202 29.3643 34.9697C29.7237 34.6196 30.299 34.6273 30.6494 34.9863L32.5967 36.9834L41.1797 28.5342ZM17.2715 12.6748V17.6914H25.3438V12.6748L23.5186 2.81836H19.0967L17.2715 12.6748ZM2.18066 11.5088H15.6377L17.2471 2.81836H8.62012L2.18066 11.5088ZM26.9775 11.5088H39.25L33.3945 2.81836H25.3682L26.9775 11.5088Z" fill="black"/>
</g>
<defs>
<clipPath id="clip0_3086_10155">
<rect width="50" height="50" fill="white"/>
</clipPath>
</defs>
</svg>
