<svg width="50" height="50" viewBox="0 0 50 50" fill="none" xmlns="http://www.w3.org/2000/svg">
<g clip-path="url(#clip0_3086_10769)">
<path fill-rule="evenodd" clip-rule="evenodd" d="M28.0531 3.61594C31.4514 2.24023 35.5749 1.35508 39.1226 1.08953C40.8966 0.956762 42.5545 0.976977 43.9216 1.17924C45.2308 1.37301 46.4247 1.75553 47.1373 2.47443L47.1392 2.47323C47.1458 2.48012 47.1519 2.48754 47.1584 2.49452C47.161 2.49715 47.1637 2.49978 47.1663 2.50243L47.1653 2.50254C47.856 3.24297 48.1911 4.45196 48.3332 5.76829C48.4814 7.1423 48.4361 8.79915 48.2335 10.5665C47.8284 14.101 46.7808 18.1863 45.2722 21.5278C43.4687 25.5224 41.4084 28.5549 38.7734 31.0379C37.0947 32.6198 35.1951 33.9637 33.0075 35.1917C33.068 36.301 32.9214 37.3713 32.4335 38.4997C31.896 39.7428 30.9655 41.0132 29.541 42.4682C27.8377 44.2079 26.6722 45.4887 25.7888 46.2568C24.8876 47.0404 24.04 47.5093 22.9781 47.2421C22.1389 47.0308 21.6728 46.4473 21.4503 45.8658C21.2518 45.3468 21.2344 44.8065 21.2785 44.4288L21.1967 39.5531C21.0618 39.5819 20.9326 39.6117 20.8085 39.6382L20.398 39.7249L19.4288 38.7162L17.6594 40.4182C16.7479 41.2943 15.2988 41.2655 14.4226 40.3541L7.47376 33.1272C6.59749 32.2157 6.62642 30.7658 7.53778 29.8894L9.30632 28.1885L8.88911 27.7538L8.99372 27.3477C9.02325 27.2318 9.05484 27.1109 9.08686 26.9854L4.2483 26.7136C3.86926 26.7428 3.33002 26.7048 2.81931 26.4861C2.24704 26.2408 1.68284 25.7512 1.5048 24.9042C1.27966 23.8326 1.7813 23.0042 2.59987 22.1345C3.40224 21.2821 4.72776 20.1678 6.53311 18.5346C8.04327 17.1684 9.34936 16.2884 10.6128 15.8003C11.7461 15.3625 12.8097 15.2544 13.9022 15.3526C15.2189 13.2063 16.642 11.3554 18.2941 9.7352C20.879 7.20015 23.9905 5.26061 28.0531 3.61594ZM31.5031 36.071C30.4286 36.5909 29.4616 37.0143 28.5767 37.3701C26.5027 38.2503 24.396 38.8234 22.697 39.2202L22.7847 44.5132L22.7763 44.5743C22.7492 44.7616 22.757 45.0688 22.8561 45.3279C22.9442 45.5581 23.0841 45.7154 23.3464 45.7814C23.6617 45.8607 23.9957 45.8192 24.8002 45.1197C25.6232 44.4041 26.69 43.2265 28.4641 41.4145C29.8213 40.0282 30.6155 38.91 31.0514 37.9017C31.3197 37.2811 31.4606 36.6855 31.5031 36.071ZM10.1136 39.9467C10.4134 39.6586 10.8903 39.6684 11.1785 39.9682C11.4664 40.268 11.4566 40.744 11.1569 41.0321L7.46727 44.5801C7.16748 44.8683 6.6906 44.8584 6.4024 44.5586C6.11438 44.2588 6.12423 43.7829 6.42395 43.4947L10.1136 39.9467ZM6.49218 39.8748C6.79197 39.5866 7.26885 39.5964 7.55705 39.8962C7.8452 40.196 7.83633 40.6728 7.53658 40.9609L3.84585 44.5081C3.5461 44.7962 3.0693 44.7873 2.7811 44.4876C2.4929 44.1878 2.50275 43.711 2.80253 43.4228L6.49218 39.8748ZM8.58109 30.9747C8.26936 31.2747 8.26016 31.7709 8.55994 32.0828L15.5079 39.3108C15.8078 39.6226 16.3041 39.6326 16.6161 39.3329L18.3855 37.6309L14.8386 33.9421L14.8385 33.9411L10.3495 29.2729L8.58109 30.9747ZM35.7656 3.0277C33.3146 3.45298 30.8013 4.12919 28.6194 5.01241C24.6978 6.59997 21.7649 8.44206 19.3491 10.8113C17.1084 13.0088 15.284 15.6878 13.5291 19.1036C12.0002 22.2333 11.4343 24.328 10.8151 26.4952L10.6496 27.0738L10.6189 27.0716C10.5977 27.1539 10.5768 27.235 10.5566 27.3142L15.9248 32.8977L20.903 38.0766C20.9903 38.058 21.0795 38.0376 21.1704 38.0179L21.7562 37.8757C23.627 37.4201 25.4429 37.0007 27.9197 36.0131C28.0726 35.9487 28.2258 35.8842 28.378 35.8163C32.266 34.083 35.2734 32.2654 37.7396 29.9416C40.2021 27.6211 42.1594 24.7639 43.9003 20.9079C44.8688 18.7626 45.6413 16.2772 46.1629 13.845L35.7656 3.0277ZM6.77355 36.4731C7.07333 36.1849 7.55022 36.1947 7.83841 36.4945C8.12643 36.7943 8.11659 37.2703 7.81686 37.5584L5.97252 39.3323C5.6728 39.6205 5.19599 39.6115 4.90777 39.3119C4.61958 39.0121 4.62942 38.5352 4.92921 38.247L6.77355 36.4731ZM27.3499 11.8024C27.6133 11.7364 27.8893 11.7152 28.1248 11.7112C28.3661 11.7071 28.6021 11.722 28.8014 11.7429L30.164 10.0938L33.1778 11.7133L33.0422 12.1319L32.4749 13.8841C32.5155 13.9295 32.5532 13.9756 32.5867 14.0201C32.7064 14.1794 32.8117 14.3605 32.9006 14.5361C33.0091 14.7508 33.101 14.9758 33.1739 15.1731L35.4055 15.425L35.4266 18.8061L33.2984 19.1279L32.9584 19.76L32.2295 19.3676L32.5238 20.2608C32.6061 20.2868 32.6937 20.3179 32.7809 20.3538C32.8689 20.3899 32.9724 20.4381 33.0768 20.4992L34.4132 19.7443L34.6884 20.1352L35.8971 21.8518L34.7995 22.7028C34.8204 22.7799 34.84 22.8614 34.8551 22.944C34.8735 23.0448 34.8909 23.1782 34.8897 23.3224L36.0073 23.9946L35.8616 24.4026L35.202 26.2455L34.7173 26.0923L33.7939 25.7991C33.7298 25.8623 33.6595 25.9272 33.5845 25.9886C33.4937 26.0627 33.3771 26.1502 33.2418 26.2226L33.1973 27.185L33.1771 27.631L31.0189 27.8906L30.8936 27.462L30.622 26.5376C30.4735 26.4994 30.3395 26.4421 30.2337 26.3916C30.1462 26.3498 30.0626 26.3033 29.9854 26.2572L29.1578 26.761L28.7233 27.0247L27.6445 25.3908L27.4072 25.0289L28.3325 24.1111C28.2972 23.9712 28.2835 23.8374 28.2775 23.7351C28.2726 23.6515 28.2724 23.5682 28.2744 23.4885L27.3804 23.0885L26.2062 24.7425L23.1576 23.1036L23.9473 20.7798C23.7194 20.561 23.5397 20.293 23.4069 20.0569C23.2804 19.832 23.177 19.6001 23.0974 19.3968L20.5731 19.2302L20.665 16.0933L20.6789 15.6608L21.105 15.5889L22.9189 15.2793C22.9942 14.9901 23.1373 14.7203 23.2671 14.5105C23.3945 14.3045 23.5394 14.1113 23.6744 13.9471L22.4434 11.882L25.6762 9.74537L27.3499 11.8024ZM31.7801 26.7367L32.164 26.6905L32.2183 25.4732C32.0976 25.5104 31.9724 25.5391 31.8425 25.5548C31.7053 25.5713 31.5694 25.5736 31.4365 25.5643L31.7801 26.7367ZM33.6858 23.8292C33.5634 24.4812 33.141 25.039 32.5521 25.3376L32.6675 25.3238C32.6709 25.3231 32.6962 25.3178 32.7443 25.2919C32.7947 25.2648 32.8536 25.2245 32.9169 25.1728C33.0454 25.0678 33.1585 24.9434 33.2168 24.8692L33.4418 24.5815L33.7905 24.692L34.5513 24.9329L34.7228 24.453L33.6858 23.8292ZM28.7638 25.1697L29.0441 25.5953L29.7261 25.1808L30.0386 24.9908L30.3255 25.2169C30.3997 25.2752 30.5391 25.3692 30.6888 25.4408C30.7626 25.476 30.8293 25.5012 30.8847 25.5156C30.939 25.5296 30.9646 25.5284 30.9669 25.5283L31.1007 25.5122C30.4537 25.3607 29.9073 24.9146 29.6354 24.3045L28.7638 25.1697ZM31.4584 22.361C30.8659 22.4323 30.4431 22.9709 30.5142 23.5634L30.5322 23.6724C30.6443 24.1713 31.0951 24.5246 31.6063 24.515L31.7166 24.5076C32.2719 24.4407 32.6772 23.9631 32.6672 23.4156L32.6598 23.3054C32.5929 22.75 32.1162 22.3436 31.5687 22.3536L31.4584 22.361ZM28.356 22.3682L29.4163 22.8427L29.3523 23.2428C29.3365 23.342 29.3219 23.5122 29.3313 23.6732C29.336 23.7529 29.3457 23.8171 29.3581 23.8628C29.3691 23.9036 29.3771 23.9098 29.3693 23.8988L29.5683 24.1306C29.52 23.9903 29.4845 23.8428 29.4661 23.6895C29.3982 23.1243 29.5586 22.5847 29.8734 22.1611L28.5805 21.7973L28.356 22.3682ZM32.9425 21.7871C33.3521 22.1241 33.6395 22.6112 33.708 23.1793C33.7246 23.3182 33.7258 23.4559 33.7161 23.5904L33.8322 23.3621C33.8333 23.3556 33.8351 23.3433 33.8356 23.3243C33.8367 23.277 33.8309 23.2123 33.8166 23.1338C33.7876 22.9752 33.733 22.8133 33.6941 22.7206L33.537 22.3471L34.4546 21.6348L34.1012 21.1333L32.9425 21.7871ZM13.0034 16.8269C12.3876 16.845 11.7863 16.9618 11.1555 17.2055C10.1309 17.6014 8.98253 18.3509 7.54393 19.6523C5.66329 21.3537 4.44436 22.373 3.69685 23.1671C2.96592 23.9437 2.91152 24.2759 2.97833 24.5942C3.03398 24.8589 3.18564 25.0046 3.41215 25.1017C3.66718 25.2109 3.97374 25.2309 4.16203 25.2112L4.22323 25.2048L9.47753 25.4984C9.97209 23.7008 10.6859 21.441 11.7596 19.2673C11.9092 18.9643 12.0606 18.6663 12.2117 18.3729C12.452 17.8831 12.7144 17.3686 13.0034 16.8269ZM23.8653 12.2058L24.7775 13.7387L24.9845 14.0856L24.7027 14.3762C24.5583 14.5247 24.3374 14.7853 24.164 15.0656C23.9734 15.3736 23.9127 15.5898 23.9217 15.6849L23.9686 16.173L21.7072 16.5561L21.6574 18.2441L23.8786 18.393L23.9845 18.7422C24.0416 18.9318 24.1621 19.2454 24.3272 19.539C24.5025 19.8506 24.6795 20.0534 24.8181 20.1282L25.2125 20.3404L24.4443 22.5977L25.8849 23.3717L26.531 22.4628L27.0429 22.8262L27.7734 20.9668L27.9365 20.5489C27.4722 20.5406 27.003 20.4272 26.5658 20.1924C25.0991 19.4041 24.5489 17.5757 25.337 16.1088C26.1252 14.6421 27.9528 14.0922 29.4197 14.88C30.8866 15.6682 31.4374 17.4966 30.6495 18.9636C30.5907 19.073 30.5257 19.177 30.4559 19.276L32.1304 19.0746L32.619 18.1651L32.8789 18.1259L34.3653 17.899L34.3562 16.3676L32.724 16.1842L32.378 16.1452L32.278 15.812C32.2183 15.6139 32.1027 15.2975 31.9585 15.0124C31.8866 14.8701 31.8133 14.7469 31.7432 14.6537C31.7086 14.6077 31.6778 14.5741 31.6531 14.5504C31.6283 14.5267 31.6149 14.5186 31.6149 14.5186L31.2279 14.3104L31.9027 12.2257L30.4273 11.4323L29.4297 12.6411L29.2337 12.8762L28.9324 12.8239C28.7573 12.7936 28.4534 12.7612 28.1425 12.7664C27.8138 12.772 27.5591 12.8195 27.4247 12.8911L27.0421 13.0955L25.4608 11.1523L23.8653 12.2058ZM30.9881 20.2743L30.9123 21.2473L30.6359 21.378C30.5591 21.4143 30.4243 21.4886 30.2992 21.5798C30.2376 21.6247 30.1854 21.6693 30.1456 21.7094C30.1262 21.729 30.1115 21.7459 30.1014 21.759C30.0965 21.7654 30.0928 21.7704 30.0904 21.7741C30.0883 21.7775 30.0872 21.7794 30.0871 21.7794L29.9313 22.0863C30.2686 21.672 30.7603 21.3827 31.3325 21.3139C31.8807 21.248 32.4037 21.3981 32.8212 21.6945L32.6323 21.4733C32.6319 21.4729 32.6303 21.4712 32.6278 21.4689C32.6247 21.466 32.6206 21.4616 32.6146 21.4567C32.6016 21.4463 32.5835 21.4326 32.5597 21.4181C32.5116 21.3886 32.4503 21.3585 32.3799 21.3295C32.2366 21.2706 32.0872 21.2305 32.004 21.2134L31.7045 21.1521L31.4011 20.2246L30.9881 20.2743ZM29.9656 19.812C29.4295 20.2764 28.7492 20.5358 28.0477 20.5493L29.4253 20.9383C29.5123 20.8543 29.6014 20.7829 29.6783 20.7269C29.7544 20.6715 29.8322 20.6203 29.906 20.5756L29.9656 19.812ZM28.9206 15.8096C27.9672 15.2975 26.779 15.6547 26.2665 16.6078C25.7861 17.5019 26.0707 18.6033 26.894 19.1595L27.0648 19.2629C27.959 19.7433 29.0603 19.4587 29.6166 18.6353L29.7198 18.4636C30.2319 17.51 29.874 16.322 28.9206 15.8096ZM37.593 2.75677L46.5072 12.0292C46.5981 11.4746 46.6764 10.9285 46.7375 10.3953C46.9322 8.69659 46.9683 7.157 46.8357 5.92872C46.7004 4.67537 46.4026 3.89404 46.0644 3.53101C45.7136 3.1799 44.945 2.85241 43.7013 2.66834C42.4793 2.48755 40.9401 2.46314 39.2353 2.59072C38.6999 2.63079 38.1509 2.68769 37.593 2.75677Z" fill="black"/>
</g>
<defs>
<clipPath id="clip0_3086_10769">
<rect width="50" height="50" fill="white"/>
</clipPath>
</defs>
</svg>
