<svg width="50" height="50" viewBox="0 0 50 50" fill="none" xmlns="http://www.w3.org/2000/svg">
<g clip-path="url(#clip0_3086_8410)">
<path d="M45.749 14.4922L50 16.8066V50.001H0V16.8066L5.46484 13.832V0H45.749V14.4922ZM24.8447 38.1475L2.03125 19.5449V47.1631L16.6699 40.1748C17.176 39.9335 17.7819 40.1483 18.0234 40.6543C18.2647 41.1601 18.0505 41.7651 17.5449 42.0068L5.05566 47.9697H44.3057L32.752 42.3057C32.2487 42.0587 32.0403 41.4507 32.2871 40.9473C32.5341 40.444 33.143 40.2366 33.6465 40.4834L47.9688 47.5029V19.5342L24.8447 38.1475ZM7.49609 21.3799L24.8545 35.5332L43.7188 20.3467V2.03125H7.49609V21.3799ZM25.6201 11.3379C26.5425 11.3379 27.3449 11.5266 28.0264 11.9043C28.7079 12.2821 29.232 12.8054 29.5977 13.4727C29.9715 14.1318 30.1582 14.8919 30.1582 15.752C30.1582 16.3145 30.0666 16.8047 29.8838 17.2227C29.7093 17.6405 29.4772 17.9902 29.1865 18.2715C28.8958 18.5447 28.5754 18.7537 28.2266 18.8984C27.8775 19.0351 27.5322 19.1035 27.1914 19.1035C26.8257 19.1035 26.5013 19.0231 26.2188 18.8623C25.9447 18.7015 25.7701 18.4768 25.6953 18.1875H25.6699C25.512 18.4285 25.2835 18.622 24.9844 18.7666C24.6938 18.9111 24.4239 18.9833 24.1748 18.9834C23.6678 18.9834 23.2563 18.8142 22.9404 18.4766C22.6329 18.1309 22.4785 17.6807 22.4785 17.126C22.4785 16.7402 22.5458 16.3666 22.6787 16.0049C22.8117 15.6432 22.9939 15.3214 23.2266 15.04C23.4676 14.7587 23.7423 14.5331 24.0498 14.3643C24.3572 14.1956 24.6897 14.1114 25.0469 14.1113C25.2462 14.1113 25.4252 14.1595 25.583 14.2559C25.7409 14.3443 25.87 14.4978 25.9697 14.7148H25.9941L26.1943 14.208H27.4902L26.8926 16.957C26.743 17.5519 26.9173 17.8496 27.416 17.8496C27.6653 17.8496 27.8982 17.7654 28.1143 17.5967C28.3303 17.4279 28.5047 17.1902 28.6377 16.8848C28.7706 16.5713 28.8369 16.2096 28.8369 15.7998C28.8369 15.3898 28.7751 14.9914 28.6504 14.6055C28.534 14.2197 28.3421 13.8738 28.0762 13.5684C27.8186 13.2631 27.4738 13.0225 27.042 12.8457C26.6099 12.6608 26.0778 12.5684 25.4463 12.5684C24.9227 12.5684 24.4108 12.6728 23.9121 12.8818C23.4138 13.0908 22.9651 13.3878 22.5664 13.7734C22.1675 14.1593 21.8475 14.6262 21.6064 15.1729C21.3738 15.7114 21.2568 16.3142 21.2568 16.9814C21.2568 17.5764 21.3572 18.0913 21.5566 18.5254C21.7561 18.9593 22.0265 19.3173 22.3672 19.5986C22.7078 19.8798 23.0944 20.089 23.5264 20.2256C23.9583 20.3622 24.4069 20.4306 24.8721 20.4307C25.1711 20.4307 25.4914 20.3862 25.832 20.2979C26.1728 20.2175 26.4684 20.1167 26.7178 19.9961L27.166 21.1055C26.7839 21.2983 26.3894 21.4389 25.9824 21.5273C25.5752 21.6158 25.147 21.6601 24.6982 21.6602C24.0666 21.6602 23.4597 21.5677 22.8779 21.3828C22.2961 21.1979 21.7765 20.9169 21.3193 20.5391C20.8622 20.1612 20.5013 19.6823 20.2354 19.1035C19.9694 18.5167 19.8359 17.8251 19.8359 17.0293C19.836 16.1693 19.986 15.3934 20.2852 14.7021C20.5927 14.0029 21.0121 13.4036 21.5439 12.9053C22.0757 12.399 22.6907 12.0133 23.3887 11.748C24.0867 11.4748 24.8307 11.3379 25.6201 11.3379ZM2.83203 17.5771L5.46484 19.7236V16.1436L2.83203 17.5771ZM45.749 18.7119L47.1631 17.5742L45.749 16.8037V18.7119ZM25.1221 15.4141C24.906 15.4141 24.7184 15.5019 24.5605 15.6787C24.4026 15.8475 24.2823 16.0574 24.1992 16.3066C24.1162 16.5557 24.0742 16.7889 24.0742 17.0059C24.0743 17.472 24.2662 17.7051 24.6484 17.7051C24.7646 17.705 24.8765 17.6688 24.9844 17.5967C25.0924 17.5243 25.2137 17.3995 25.3467 17.2227L25.6201 15.7031C25.5204 15.5104 25.3546 15.4141 25.1221 15.4141Z" fill="black"/>
</g>
<defs>
<clipPath id="clip0_3086_8410">
<rect width="50" height="50" fill="white"/>
</clipPath>
</defs>
</svg>
