<svg width="50" height="50" viewBox="0 0 50 50" fill="none" xmlns="http://www.w3.org/2000/svg">
<path d="M30.6748 47.2324C30.6748 47.7419 31.0882 48.1553 31.5977 48.1553H35.2881V50H31.5977C30.0692 50 28.8301 48.7609 28.8301 47.2324V43.9121H30.6748V47.2324ZM47.2812 47.2324C47.2812 48.7609 46.0421 50 44.5137 50H40.8232V48.1553H44.5137C45.0232 48.1553 45.4365 47.7419 45.4365 47.2324V43.9121H47.2812V47.2324ZM38.0557 0C39.0743 0.000238569 39.9002 0.826033 39.9004 1.84473V29.6572H38.0557V1.84473H4.84473V44.2803H26.0625V46.125H4.84473C3.82589 46.1248 3 45.2991 3 44.2803V1.84473C3.00015 0.82598 3.82598 0.000154074 4.84473 0H38.0557ZM40.3184 38.8027C40.5411 38.5243 40.9481 38.4794 41.2266 38.7021C41.505 38.9249 41.5508 39.3319 41.3281 39.6104L37.1865 44.7861L35.293 42.8916C35.0409 42.6394 35.0408 42.2307 35.293 41.9785C35.5451 41.7265 35.9539 41.7265 36.2061 41.9785L37.0791 42.8516L40.3184 38.8027ZM25.7148 40.3682H7.61328V38.5234H25.7148V40.3682ZM35.2881 34.1328H31.5977C31.0882 34.1328 30.6748 34.5462 30.6748 35.0557V38.376H28.8301V35.0557C28.8301 33.5272 30.0692 32.2881 31.5977 32.2881H35.2881V34.1328ZM44.5137 32.2881C46.042 32.2881 47.281 33.5264 47.2812 35.0547V38.376H45.4365V35.0547C45.4363 34.5454 45.023 34.1328 44.5137 34.1328H40.8232V32.2881H44.5137ZM25.7725 34.3408H7.61328V32.4961H25.7725V34.3408ZM34.9971 29.2354H7.61328V27.3906H34.9971V29.2354ZM34.9971 24.1299H7.61328V22.2852H34.9971V24.1299ZM34.9971 19.0244H7.61328V17.1797H34.9971V19.0244ZM34.9971 13.918H7.61328V12.0732H34.9971V13.918ZM34.9971 8.8125H7.61328V6.96777H34.9971V8.8125Z" fill="black"/>
</svg>
