<svg width="50" height="50" viewBox="0 0 50 50" fill="none" xmlns="http://www.w3.org/2000/svg">
<path d="M34.7549 3.74316H46.5137V48.0664H34.7549V50L4 47.9502V2.0498L34.7549 0V3.74316ZM5.80957 3.74316V46.2568L32.9453 48.0654V46.2568H32.9463V5.55176H32.9453V3.74316H32.9463V1.93359L5.80957 3.74316ZM39.2773 46.2568H44.7051V40.8291H39.2773V46.2568ZM34.7549 46.2568H38.373V40.8291H34.7549V46.2568ZM39.2773 39.9248H44.7051V34.498H39.2773V39.9248ZM34.7549 39.9248H38.373V34.498H34.7549V39.9248ZM39.2773 33.5938H44.7051V28.166H39.2773V33.5938ZM34.7549 33.5938H38.373V28.166H34.7549V33.5938ZM24.6152 16.7861C24.9407 16.4073 25.5346 16.3352 25.9414 16.625C26.3482 16.915 26.4144 17.458 26.0889 17.8369L20.2949 24.5791L26.8115 32.1631C27.1371 32.542 27.0718 33.085 26.665 33.375C26.2583 33.665 25.6645 33.5927 25.3389 33.2139L19.1074 25.9609L12.876 33.2139C12.5504 33.5927 11.9566 33.665 11.5498 33.375C11.143 33.085 11.0777 32.542 11.4033 32.1631L17.9189 24.5791L12.126 17.8369C11.8004 17.458 11.8667 16.915 12.2734 16.625C12.6802 16.3352 13.2741 16.4073 13.5996 16.7861L19.1074 23.1963L24.6152 16.7861ZM39.2773 27.2617H44.7051V21.834H39.2773V27.2617ZM34.7549 27.2617H38.373V21.834H34.7549V27.2617ZM39.2773 20.9297H44.7051V15.502H39.2773V20.9297ZM34.7549 20.9297H38.373V15.502H34.7549V20.9297ZM39.2773 14.5977H44.7051V9.16992H39.2773V14.5977ZM34.7549 14.5977H38.373V9.16992H34.7549V14.5977ZM34.7549 8.26562H44.7051V5.55176H34.7549V8.26562Z" fill="black"/>
</svg>
