<svg width="50" height="50" viewBox="0 0 50 50" fill="none" xmlns="http://www.w3.org/2000/svg">
<path d="M41.2363 11.1912L41.3887 11.4168V20.4734C46.4639 22.7378 50.002 27.8275 50.002 33.744C50.0017 41.7652 43.4988 48.2672 35.4775 48.2674C31.274 48.2673 27.4882 46.4811 24.8359 43.6268H0V11.3953L0.174805 11.158L7.70312 0.999817H34.3711L41.2363 11.1912ZM35.4775 21.0027C28.4412 21.0029 22.7373 26.7076 22.7373 33.744L22.7412 34.0721C22.9128 40.8473 28.3733 46.3075 35.1484 46.4793L35.4775 46.4842C42.4039 46.484 48.0395 40.9565 48.2139 34.0721L48.2178 33.744C48.2178 26.8175 42.691 21.1812 35.8066 21.0067L35.4775 21.0027ZM1.78418 41.8426H23.4199C21.8626 39.5288 20.9532 36.7427 20.9531 33.744C20.9531 25.7225 27.4561 19.2197 35.4775 19.2195C36.9115 19.2196 38.2971 19.4271 39.6055 19.8143V13.3035H27.1572V19.492H15.4727V13.3035H1.78418V41.8426ZM34.6006 28.5076C34.9789 28.1926 35.5421 28.2438 35.8574 28.6219C36.1724 29.0002 36.1214 29.5635 35.7432 29.8787L35.209 30.324H39.0127V31.0359C39.0128 30.3865 39.014 30.3291 39.0146 30.324H39.041C39.0527 30.3243 39.0674 30.3242 39.084 30.325C39.1171 30.3266 39.16 30.3297 39.2109 30.3348C39.3131 30.345 39.4506 30.3647 39.6113 30.4022C39.9312 30.4768 40.3591 30.6266 40.7891 30.9276C41.697 31.5632 42.4334 32.7432 42.4336 34.7537C42.4336 36.7649 41.6972 37.9461 40.7891 38.5818C40.3591 38.8828 39.9312 39.0326 39.6113 39.1072C39.4506 39.1447 39.3131 39.1634 39.2109 39.1736C39.16 39.1787 39.1171 39.1819 39.084 39.1834C39.0674 39.1842 39.0527 39.1851 39.041 39.1854H39.0146C39.014 39.1837 39.0127 39.1458 39.0127 38.2938V39.1854H29.4072C28.9149 39.1852 28.5157 38.7861 28.5156 38.2938C28.5156 37.8013 28.9148 37.4023 29.4072 37.4022H39C39.0038 37.402 39.0155 37.401 39.0332 37.3992C39.0692 37.3956 39.13 37.3877 39.2061 37.3699C39.3601 37.334 39.5648 37.2612 39.7666 37.1199C40.1224 36.8706 40.6494 36.2807 40.6494 34.7537C40.6492 33.227 40.1223 32.6377 39.7666 32.3885C39.5649 32.2473 39.3601 32.1755 39.2061 32.1395C39.1301 32.1217 39.0692 32.1138 39.0332 32.1102C39.0155 32.1084 39.0038 32.1074 39 32.1072H35.209L35.7432 32.5526C36.1213 32.8679 36.1726 33.4311 35.8574 33.8094C35.5421 34.1875 34.9789 34.2387 34.6006 33.9236L31.3516 31.2156L34.6006 28.5076ZM17.2568 12.6668V17.7078H25.374V12.6619L23.5439 2.784H19.0869L17.2568 12.6668ZM2.12793 11.5203H15.6543L17.2725 2.784H8.60254L2.12793 11.5203ZM26.9756 11.5203H39.3086L33.4229 2.784H25.3574L26.9756 11.5203Z" fill="black"/>
</svg>
