<svg width="50" height="50" viewBox="0 0 50 50" fill="none" xmlns="http://www.w3.org/2000/svg">
<path d="M24.5342 33.5783C29.0406 33.5783 31.7769 34.694 33.3203 36.4992C34.8388 38.2753 34.8818 40.3716 34.8818 41.4669V42.965H15.1699V41.4669C15.17 40.3236 15.3923 38.329 16.7764 36.5988C18.2117 34.8046 20.6638 33.5784 24.5342 33.5783ZM24.5342 35.0753C17.4549 35.0755 16.6671 39.5 16.667 41.4669H33.3848C33.3847 39.3694 33.134 35.2078 24.9307 35.0783L24.5342 35.0753ZM6.54004 29.9728C9.50434 29.9728 11.4463 30.7062 12.5811 32.0334C13.6909 33.3317 13.7109 34.8548 13.7109 35.5675V37.0646H0V35.5675C0 34.7773 0.151613 33.3555 1.14746 32.1105C2.19456 30.8017 3.9405 29.9729 6.54004 29.9728ZM42.8291 29.9728C45.7934 29.9728 47.7354 30.7062 48.8701 32.0334C49.9799 33.3317 50 34.8548 50 35.5675V37.0646H36.2891V35.5675C36.2891 34.7773 36.4407 33.3555 37.4365 32.1105C38.4836 30.8017 40.2296 29.9729 42.8291 29.9728ZM6.54004 31.4699C2.00168 31.47 1.49707 34.3068 1.49707 35.5675H12.2139C12.2139 34.2017 12.0481 31.4699 6.54004 31.4699ZM42.8291 31.4699C38.2907 31.47 37.7861 34.3068 37.7861 35.5675H48.5029C48.5029 34.2017 48.3371 31.4699 42.8291 31.4699ZM25.0264 20.7941C28.0256 20.7942 30.4578 23.2256 30.458 26.2248C30.4579 29.2241 28.0257 31.6563 25.0264 31.6564C22.0272 31.6562 19.5958 29.224 19.5957 26.2248C19.5959 23.2256 22.0273 20.7943 25.0264 20.7941ZM25.0264 22.2912C22.8542 22.2914 21.093 24.0526 21.0928 26.2248L21.0986 26.4279C21.2008 28.439 22.8131 30.0515 24.8242 30.1535L25.0264 30.1584C27.1307 30.1583 28.8495 28.5059 28.9551 26.4279L28.96 26.2248C28.9598 24.1206 27.3075 22.4026 25.2295 22.297L25.0264 22.2912ZM6.85547 19.8107C9.07472 19.8111 10.873 21.6109 10.873 23.8302C10.8727 26.0493 9.0745 27.8474 6.85547 27.8478C4.63613 27.8478 2.8363 26.0495 2.83594 23.8302C2.83594 21.6107 4.63591 19.8107 6.85547 19.8107ZM43.1445 19.8107C45.3638 19.8111 47.1621 21.6109 47.1621 23.8302C47.1618 26.0493 45.3636 27.8474 43.1445 27.8478C40.9252 27.8478 39.1254 26.0495 39.125 23.8302C39.125 21.6107 40.925 19.8107 43.1445 19.8107ZM6.85547 21.3078C5.4629 21.3078 4.33301 22.4377 4.33301 23.8302L4.33594 23.9591C4.40125 25.2483 5.4355 26.2822 6.72461 26.3478L6.85547 26.3507C8.20423 26.3504 9.30556 25.2912 9.37305 23.9591L9.37598 23.8302C9.37598 22.4812 8.31667 21.3782 6.98438 21.3107L6.85547 21.3078ZM43.1445 21.3078C41.752 21.3078 40.6221 22.4377 40.6221 23.8302L40.625 23.9591C40.6903 25.2483 41.7246 26.2822 43.0137 26.3478L43.1445 26.3507C44.4933 26.3504 45.5946 25.2912 45.6621 23.9591L45.665 23.8302C45.665 22.4812 44.6057 21.3782 43.2734 21.3107L43.1445 21.3078Z" fill="black"/>
<path fill-rule="evenodd" clip-rule="evenodd" d="M13.199 8.00977C13.4959 8.05779 13.7463 8.26877 13.8416 8.56152L14.5994 10.8926H17.0506C17.4024 10.8927 17.7141 11.1195 17.823 11.4541C17.9317 11.7888 17.8127 12.1563 17.5281 12.3633L15.5447 13.8027L16.3025 16.1348C16.4111 16.4694 16.2921 16.836 16.0076 17.043C15.7227 17.2499 15.3364 17.2499 15.0515 17.043L13.0691 15.6016L11.0857 17.043C10.8009 17.2497 10.4154 17.2498 10.1306 17.043C9.84612 16.836 9.72621 16.4694 9.83474 16.1348L10.5925 13.8027L8.61013 12.3633C8.32552 12.1563 8.20648 11.7888 8.3152 11.4541C8.4241 11.1195 8.73579 10.8927 9.08767 10.8926H11.5388L12.2966 8.56152L12.3455 8.44141C12.4829 8.17358 12.761 8.00001 13.0691 8L13.199 8.00977ZM24.6892 8.00977C24.9861 8.05779 25.2365 8.26876 25.3318 8.56152L26.0896 10.8926H28.5408C28.8926 10.8928 29.2044 11.1196 29.3133 11.4541C29.4219 11.7888 29.3029 12.1563 29.0183 12.3633L27.0349 13.8027L27.7927 16.1348C27.9013 16.4694 27.7824 16.836 27.4978 17.043C27.2129 17.2499 26.8266 17.2499 26.5418 17.043L24.5593 15.6016L22.5759 17.043C22.2911 17.2497 21.9056 17.2498 21.6209 17.043C21.3363 16.836 21.2164 16.4694 21.325 16.1348L22.0828 13.8027L20.1004 12.3633C19.8158 12.1563 19.6967 11.7888 19.8054 11.4541C19.9143 11.1195 20.226 10.8927 20.5779 10.8926H23.0291L23.7869 8.56152L23.8357 8.44141C23.9731 8.17358 24.2512 8.00001 24.5593 8L24.6892 8.00977ZM36.1775 8.00977C36.4744 8.05779 36.7248 8.26876 36.8201 8.56152L37.5779 10.8926H40.0291C40.3809 10.8928 40.6926 11.1196 40.8015 11.4541C40.9102 11.7888 40.7912 12.1563 40.5066 12.3633L38.5232 13.8027L39.281 16.1348C39.3896 16.4694 39.2706 16.836 38.9861 17.043C38.7012 17.2499 38.3149 17.2499 38.03 17.043L36.0476 15.6016L34.0642 17.043C33.7794 17.2497 33.3939 17.2498 33.1091 17.043C32.8246 16.836 32.7047 16.4694 32.8133 16.1348L33.5711 13.8027L31.5886 12.3633C31.304 12.1563 31.185 11.7888 31.2937 11.4541C31.4026 11.1195 31.7143 10.8927 32.0662 10.8926H34.5174L35.2752 8.56152L35.324 8.44141C35.4614 8.17358 35.7395 8.00001 36.0476 8L36.1775 8.00977ZM12.4177 11.5791C12.3475 11.7948 12.1465 11.9413 11.9197 11.9414H9.8113L11.5164 13.1797C11.7 13.3131 11.7778 13.5498 11.7078 13.7656L11.0564 15.7695L12.7615 14.5303L12.8328 14.4863C13.0057 14.3991 13.2162 14.4139 13.3767 14.5303L15.0808 15.7695L14.4304 13.7656C14.3605 13.5499 14.4375 13.3131 14.6209 13.1797L16.3259 11.9414H14.2185C13.9917 11.9413 13.7907 11.7947 13.7205 11.5791L13.0691 9.57324L12.4177 11.5791ZM23.908 11.5791C23.8377 11.7948 23.6367 11.9413 23.4099 11.9414H21.3015L23.0066 13.1797C23.1902 13.3131 23.268 13.5498 23.198 13.7656L22.5466 15.7695L24.2517 14.5303L24.323 14.4863C24.4959 14.3991 24.7064 14.4139 24.867 14.5303L26.5711 15.7695L25.9207 13.7656C25.8507 13.5499 25.9277 13.3131 26.1111 13.1797L27.8162 11.9414H25.7088C25.482 11.9413 25.281 11.7947 25.2107 11.5791L24.5593 9.57324L23.908 11.5791ZM35.3963 11.5791C35.326 11.7948 35.125 11.9413 34.8982 11.9414H32.7898L34.4949 13.1797C34.6785 13.3131 34.7563 13.5498 34.6863 13.7656L34.0349 15.7695L35.74 14.5303L35.8113 14.4863C35.9842 14.3991 36.1947 14.4139 36.3552 14.5303L38.0593 15.7695L37.409 13.7656C37.339 13.5499 37.416 13.3131 37.5994 13.1797L39.3045 11.9414H37.197C36.9702 11.9413 36.7693 11.7947 36.699 11.5791L36.0476 9.57324L35.3963 11.5791Z" fill="black"/>
</svg>
