<svg width="50" height="50" viewBox="0 0 50 50" fill="none" xmlns="http://www.w3.org/2000/svg">
<path d="M11.0195 6C12.2016 6 13.3405 6.46848 14.1787 7.30664L18.3398 11.4678C18.8412 11.9691 19.5252 12.251 20.2363 12.251H38.4531C40.8931 12.251 42.8652 14.2231 42.8652 16.6631V19.3955H47.0088C47.9767 19.3955 48.8946 19.867 49.4561 20.6709C50.0123 21.4676 50.1551 22.4847 49.8232 23.4043L43.6436 40.5947C43.0153 42.3443 41.3552 43.5078 39.4893 43.5078H0.892578C0.399579 43.5076 0 43.1073 0 42.6143V10.4648C0.000171462 7.99829 1.99829 6.00017 4.46484 6H11.0195ZM11.3945 21.1816C10.2885 21.1819 9.30414 21.8747 8.93164 22.9121V22.9131L2.16406 41.7217H39.4893C40.6057 41.7217 41.5907 41.0275 41.9629 39.9912V39.9902L48.1426 22.7988L48.1836 22.6592C48.2587 22.3308 48.1927 21.9795 47.9922 21.6924C47.7677 21.3711 47.3982 21.1816 47.0088 21.1816H11.3945ZM4.46484 7.78613C2.9847 7.7863 1.7863 8.9847 1.78613 10.4648V37.4932L7.25098 22.3086L7.3125 22.1465C7.98225 20.4889 9.59448 19.3957 11.3945 19.3955H41.0791V16.6631C41.079 15.2095 39.9067 14.0371 38.4531 14.0371H20.2363C19.0543 14.0371 17.9153 13.5686 17.0771 12.7305L12.916 8.56934C12.4147 8.06803 11.7306 7.78613 11.0195 7.78613H4.46484Z" fill="black"/>
</svg>
