<svg width="50" height="50" viewBox="0 0 50 50" fill="none" xmlns="http://www.w3.org/2000/svg">
<g clip-path="url(#clip0_3086_5966)">
<path d="M39.0078 0C39.9292 0 40.6768 0.747598 40.6768 1.66895V2.72949H38.7598V1.91699H1.91699V48.083H38.7598V22.0088H40.6768V48.332C40.6766 49.2533 39.9291 50 39.0078 50H1.66895C0.747684 50 0.000136312 49.2533 0 48.332V1.66895C0 0.747601 0.747599 0 1.66895 0H39.0078ZM33.9424 43.7656H6.57422V42.8076H33.9424V43.7656ZM33.9424 39.5557H6.57422V38.5977H33.9424V39.5557ZM33.9424 35.3447H6.57422V34.3867H33.9424V35.3447ZM33.9424 31.1338H6.57422V30.1758H33.9424V31.1338ZM27.4268 19.8018C27.6893 19.5403 28.1593 19.4848 28.4756 19.6777C28.7916 19.8708 28.8347 20.2396 28.5723 20.501L26.7998 22.2646L28.8203 24.2764C29.0828 24.5378 29.0389 24.9066 28.7227 25.0996C28.4064 25.2924 27.9373 25.2369 27.6748 24.9756L25.877 23.1846L24.0791 24.9756C23.8167 25.2369 23.3475 25.2924 23.0312 25.0996C22.715 24.9066 22.6711 24.5378 22.9336 24.2764L24.9531 22.2646L23.1816 20.501C22.9192 20.2396 22.9624 19.8708 23.2783 19.6777C23.5946 19.4848 24.0646 19.5403 24.3271 19.8018L25.877 21.3447L27.4268 19.8018ZM40.7529 3.91992C45.5021 3.91992 49.3533 7.76943 49.3535 12.5186C49.3534 17.2678 45.5022 21.1182 40.7529 21.1182C36.004 21.1177 32.1544 17.2676 32.1543 12.5186C32.1545 7.76969 36.0041 3.92035 40.7529 3.91992ZM25.5127 7.68066C25.8134 7.46448 26.2329 7.53247 26.4492 7.83301L29.9736 12.7354C30.1898 13.0362 30.1211 13.4556 29.8203 13.6719C29.5195 13.8878 29.1 13.8193 28.8838 13.5186L26.2646 9.875C25.2168 14.4584 23.0394 17.7028 20.166 19.4863C16.9709 21.4695 13.0383 21.5706 9.13281 19.8711C8.79316 19.7233 8.63743 19.328 8.78516 18.9883C8.93295 18.6487 9.32831 18.493 9.66797 18.6406C13.2461 20.1977 16.704 20.0567 19.459 18.3467C21.9164 16.8213 23.9096 13.9864 24.9131 9.7627L21.3945 12.2939C21.0938 12.5101 20.6743 12.4411 20.458 12.1406C20.2419 11.8398 20.3106 11.4203 20.6113 11.2041L25.5127 7.68066ZM40.7529 5.83594C37.0627 5.83636 34.0715 8.82826 34.0713 12.5186C34.0714 16.0939 36.8793 19.0144 40.4102 19.1934L40.7529 19.2012C44.3282 19.2012 47.2485 16.394 47.4277 12.8633L47.4365 12.5186C47.4363 8.828 44.4435 5.83594 40.7529 5.83594ZM43.2617 9.8252C43.6236 9.43916 44.2301 9.41954 44.6162 9.78125C45.0023 10.1432 45.0219 10.7496 44.6602 11.1357L39.7178 16.4072L37.8359 14.3164C37.4821 13.923 37.514 13.3179 37.9072 12.9639C38.3006 12.6098 38.9067 12.6409 39.2607 13.0342L39.7461 13.5742L43.2617 9.8252ZM14.6807 8.60352C16.5845 8.60366 18.1277 10.147 18.1279 12.0508C18.1279 13.9548 16.5846 15.4989 14.6807 15.499C12.7767 15.4989 11.2324 13.9548 11.2324 12.0508C11.2327 10.147 12.7768 8.60365 14.6807 8.60352ZM14.6807 9.94531C13.5178 9.94544 12.5745 10.888 12.5742 12.0508C12.5742 13.141 13.4031 14.0384 14.4648 14.1465L14.6807 14.1572C15.7709 14.1571 16.6675 13.3284 16.7754 12.2666L16.7871 12.0508C16.7869 10.888 15.8435 9.94546 14.6807 9.94531Z" fill="black"/>
</g>
<defs>
<clipPath id="clip0_3086_5966">
<rect width="50" height="50" fill="white"/>
</clipPath>
</defs>
</svg>
