<svg width="50" height="50" viewBox="0 0 50 50" fill="none" xmlns="http://www.w3.org/2000/svg">
<g clip-path="url(#clip0_3086_10426)">
<path d="M25.7012 11.0898C25.9663 11.1576 26.2255 11.2571 26.4678 11.3691C26.9225 11.5794 27.3832 11.8613 27.8125 12.1611C28.4748 12.6236 29.1003 13.1554 29.5723 13.5938L35.2041 11.3418L39.1309 18.542L34.54 21.9844V24.3213H32.9795V21.2041L37.1133 18.1035L34.4961 13.3057L29.209 15.4219L28.8447 15.0576C28.4155 14.6285 27.6873 13.977 26.9189 13.4404C26.535 13.1723 26.1562 12.944 25.8125 12.7852C25.4576 12.6211 25.1978 12.5596 25.0342 12.5596H24.3828L23.292 6.56055H17.4941L16.5293 11.3867L16.4404 11.8311L16.0107 11.9736C15.5061 12.1419 14.6783 12.4779 13.8809 12.9238C13.0606 13.3826 12.38 13.8997 12.0508 14.3936L11.6943 14.9277L5.20996 12.2256L2.08008 18.0371L7.4082 21.2334L7.24316 21.8096C7.0739 22.4021 6.86911 23.3817 6.80957 24.3555C6.74709 25.3777 6.86 26.1912 7.14258 26.6152L7.54492 27.2188L2.56934 31.0879L5.21875 36.3877L11.0254 33.748L11.4072 34.1309C11.8271 34.5507 12.5739 35.1954 13.4141 35.7285C14.2802 36.2781 15.1222 36.6288 15.7637 36.6289H16.4248L17.5156 43.1729H23.2549L23.7148 39.4941L25.2627 39.6875L24.6328 44.7334H16.1934L15.0918 38.124C14.2029 37.9616 13.3157 37.5139 12.5781 37.0459C11.8498 36.5837 11.1892 36.0531 10.7002 35.6104L4.49512 38.4307L0.601562 30.6416L5.51758 26.8174C5.23166 26.0217 5.20113 25.0768 5.25098 24.2607C5.30168 23.4314 5.44315 22.6095 5.59277 21.9639L0 18.6084L4.50586 10.2412L11.1621 13.0146C11.7086 12.4303 12.4405 11.9416 13.1201 11.5615C13.8161 11.1724 14.5276 10.8589 15.085 10.6475L16.2148 5H24.5947L25.7012 11.0898ZM42.4092 17.6133C43.566 16.777 44.6177 16.5848 45.5156 16.7031C46.3724 16.8161 47.0388 17.2142 47.3623 17.3809L48.2383 17.8311L45.4482 20.502L46.3467 21.4727L48.9736 18.9561L49.4346 19.6758C50.0684 20.6668 50.6393 23.0604 48.3887 25.0879L48.3516 25.1191C47.7808 25.5659 46.3528 26.2155 44.501 26.001L36.5254 33.2529C36.5984 34.2511 36.3809 35.9669 35.1094 37.4004C34.2898 38.3241 33.1623 38.6119 32.1787 38.6348C31.1968 38.6576 30.2657 38.4226 29.6895 38.1924L28.6533 37.7783L31.375 35.2734L30.6191 34.4561L27.7168 37.127L27.3691 36.1074C27.1399 35.4356 26.9927 34.5009 27.0391 33.5605C27.0851 32.6285 27.326 31.591 27.9746 30.8057C29.0706 29.4788 30.8692 28.7292 32.667 29.3252L40.2754 22.1885C40.2844 21.9814 40.2893 21.7739 40.3057 21.4805C40.3262 21.1108 40.3685 20.6938 40.4844 20.2568C40.724 19.3537 41.2602 18.444 42.4092 17.6133ZM45.332 18.0957C44.8124 18.0273 44.1174 18.1113 43.2324 18.751C42.3397 19.3964 41.9963 20.0347 41.8418 20.6172C41.7608 20.9226 41.7261 21.2328 41.708 21.5586C41.6924 21.8396 41.6864 22.2606 41.6621 22.5635L41.6396 22.834L41.4424 23.0195L32.959 30.9766L32.5303 30.7783C31.2803 30.2018 29.9251 30.6509 29.0576 31.7012C28.679 32.1599 28.4798 32.852 28.4414 33.6299C28.4263 33.9362 28.4387 34.2406 28.4678 34.5273L30.6982 32.4746L33.3623 35.3535L31.376 37.1816C31.6223 37.2155 31.8826 37.2365 32.1455 37.2305C32.905 37.2128 33.5907 36.9951 34.0586 36.4678C35.1656 35.2198 35.2006 33.6693 35.0938 33.1104L35.0205 32.7236L44.0527 24.5107L44.3906 24.5684C45.9738 24.839 47.14 24.2734 47.4727 24.0215C48.5276 23.0577 48.6817 22.0383 48.5615 21.2979L46.2861 23.4766L43.4795 20.4424L45.8135 18.209C45.6637 18.1591 45.5044 18.1184 45.332 18.0957ZM20.126 18.3984C23.9993 18.3988 27.1386 21.5387 27.1387 25.4121C27.1385 29.2855 23.9993 32.4254 20.126 32.4258C16.2524 32.4258 13.1115 29.2857 13.1113 25.4121C13.1114 21.5384 16.2523 18.3984 20.126 18.3984ZM20.126 19.959C17.1143 19.959 14.6719 22.4004 14.6719 25.4121L14.6787 25.6924C14.8201 28.4806 17.0565 30.7169 19.8447 30.8584L20.126 30.8652C23.0432 30.8649 25.4252 28.5735 25.5713 25.6924L25.5781 25.4121C25.5781 22.4946 23.2874 20.112 20.4062 19.9658L20.126 19.959Z" fill="black"/>
</g>
<defs>
<clipPath id="clip0_3086_10426">
<rect width="50" height="50" fill="white"/>
</clipPath>
</defs>
</svg>
