<svg width="50" height="50" viewBox="0 0 50 50" fill="none" xmlns="http://www.w3.org/2000/svg">
<g clip-path="url(#clip0_3086_10524)">
<path d="M15.8008 26.1152C15.1249 25.9574 14.4733 25.6191 13.9424 25.2822C13.4257 24.9544 12.9531 24.5831 12.5811 24.2568L7.7041 26.4736L4.48437 20.0342L8.31347 17.0547C8.12838 16.4277 8.11598 15.7305 8.15136 15.1514C8.18692 14.5701 8.27815 13.9947 8.38086 13.5156L4 10.8867L7.71582 3.98731L12.9248 6.15723C13.3576 5.73305 13.8909 5.38146 14.374 5.11133C14.8702 4.83389 15.3771 4.6076 15.7959 4.44239L16.6846 2.49932e-06L23.5977 1.89496e-06L24.4648 4.76758C24.6321 4.82017 24.7923 4.88467 24.9404 4.95313C25.3108 5.12437 25.6816 5.35253 26.0215 5.58985C26.4905 5.91742 26.9343 6.289 27.29 6.61133L31.7119 4.84277L34.9678 10.8125L31.3398 13.5342L31.3398 15.2139L29.6152 15.2139L29.6152 12.6729L32.7402 10.3291L30.9307 7.01172L27.4199 8.41699L26.8926 8.62695L26.4902 8.22559C26.1664 7.90177 25.614 7.40882 25.0342 7.00391C24.7445 6.80165 24.4654 6.63307 24.2178 6.51856C23.958 6.39848 23.7965 6.3683 23.7236 6.36817L23.0039 6.36817L22.1592 1.72461L18.0977 1.72461L17.2939 5.74317L16.8193 5.90137C16.4421 6.02713 15.8172 6.28097 15.2158 6.61719C14.589 6.9677 14.1064 7.34255 13.8867 7.67188L13.4932 8.2627L8.49316 6.17969L6.29882 10.2549L10.3818 12.7041L10.1992 13.3408C10.0723 13.7849 9.91687 14.5242 9.87207 15.2559C9.82406 16.0412 9.91987 16.5956 10.0879 16.8477L10.5322 17.5137L6.6582 20.5264L8.50293 24.2158L12.9346 22.2031L13.3574 22.625C13.671 22.9386 14.2341 23.425 14.8662 23.8262C15.527 24.2455 16.1267 24.4842 16.5469 24.4844L17.2773 24.4844L18.1221 29.5498L22.1182 29.5498L22.4453 26.9268L24.1562 27.1406L23.6396 31.2734L16.6611 31.2734L15.8008 26.1152ZM19.9238 22.0049C16.6404 22.0048 13.9786 19.3421 13.9785 16.0586C13.9786 12.7752 16.6404 10.1134 19.9238 10.1133C23.2073 10.1133 25.87 12.7751 25.8701 16.0586C25.8701 19.3421 23.2074 22.0049 19.9238 22.0049ZM19.9238 20.2803C22.1824 20.2802 24.0267 18.5059 24.1396 16.2754L24.1455 16.0586C24.1454 13.7273 22.2551 11.8379 19.9238 11.8379C17.5926 11.838 15.7032 13.7274 15.7031 16.0586C15.7032 18.317 17.4767 20.1613 19.707 20.2744L19.9238 20.2803ZM24.8086 45.2324C24.6413 45.1798 24.4812 45.1154 24.333 45.0469C23.9625 44.8756 23.5918 44.6475 23.252 44.4102C22.7828 44.0826 22.3391 43.711 21.9834 43.3887L17.5615 45.1572L14.3057 39.1875L17.9336 36.4658L17.9336 34.7861L19.6582 34.7861L19.6582 37.3272L16.5342 39.6709L18.3428 42.9883L21.8535 41.583L22.3818 41.373L22.7832 41.7744C23.107 42.0982 23.6595 42.5912 24.2393 42.9961C24.5288 43.1983 24.808 43.3669 25.0557 43.4814C25.3152 43.6014 25.4768 43.6316 25.5498 43.6318L26.2705 43.6318L27.1143 48.2754L31.1758 48.2754L31.9795 44.2568L32.4541 44.0986C32.8313 43.9729 33.4572 43.7191 34.0586 43.3828C34.6852 43.0324 35.1671 42.6574 35.3867 42.3281L35.7803 41.7373L40.7803 43.8203L42.9756 39.7451L38.8926 37.2959L39.0742 36.6592C39.2011 36.2151 39.3566 35.4758 39.4014 34.7441C39.4494 33.9588 39.3536 33.4044 39.1855 33.1523L38.7412 32.4863L42.6152 29.4736L40.7705 25.7842L36.3389 27.7969L35.916 27.375C35.6024 27.0614 35.0394 26.575 34.4072 26.1738C33.7467 25.7547 33.1477 25.5159 32.7275 25.5156L31.9961 25.5156L31.1523 20.4502L27.1553 20.4502L26.8281 23.0732L25.1172 22.8594L25.6338 18.7266L32.6123 18.7266L33.4727 23.8848C34.1485 24.0426 34.8002 24.3809 35.3311 24.7178C35.8477 25.0456 36.3203 25.4169 36.6924 25.7432L41.5693 23.5264L44.7891 29.9658L40.9609 32.9453C41.146 33.5724 41.1575 34.2695 41.1221 34.8486C41.0865 35.43 40.9953 36.0053 40.8926 36.4844L45.2734 39.1133L41.5586 46.0127L36.3486 43.8428C35.9158 44.267 35.3825 44.6185 34.8994 44.8887C34.4033 45.166 33.8972 45.3924 33.4785 45.5576L32.5889 50L25.6758 50L24.8086 45.2324ZM29.3496 39.8867C26.0661 39.8867 23.4034 37.2249 23.4033 33.9414C23.4034 30.6579 26.0661 27.9952 29.3496 27.9951C32.6331 27.9952 35.2949 30.6579 35.2949 33.9414C35.2948 37.2248 32.633 39.8866 29.3496 39.8867ZM29.3496 38.1621C31.6808 38.162 33.5702 36.2726 33.5703 33.9414C33.5703 31.683 31.7967 29.8387 29.5664 29.7256L29.3496 29.7197C27.091 29.7198 25.2467 31.4941 25.1338 33.7246L25.1279 33.9414C25.128 36.2727 27.0183 38.1621 29.3496 38.1621Z" fill="black"/>
</g>
<defs>
<clipPath id="clip0_3086_10524">
<rect width="50" height="50" fill="white"/>
</clipPath>
</defs>
</svg>
