<svg width="50" height="50" viewBox="0 0 50 50" fill="none" xmlns="http://www.w3.org/2000/svg">
<path fill-rule="evenodd" clip-rule="evenodd" d="M46.1797 47.0001H48.5459V49.0001H2V47.0001H2.91016V39.7276H11.2734V47.0001H14.5449V32.4551H22.9082V47.0001H26.1816V25.1817H34.5449V47.0001H37.8164V16.4551H46.1797V47.0001ZM16.5449 46.0919H20.9082V34.4551H16.5449V46.0919ZM39.8164 46.0919H44.1797V18.4551H39.8164V46.0919ZM4.91016 46.0909H9.27344V41.7276H4.91016V46.0909ZM28.1816 46.0909H32.5449V27.1817H28.1816V46.0909ZM34.4727 0.803774C34.5811 0.262391 35.108 -0.0886384 35.6494 0.0195947L43.7256 1.63483V10.4542C43.7256 11.0064 43.2779 11.4542 42.7256 11.4542C42.1735 11.454 41.7256 11.0063 41.7256 10.4542V4.69538L6.99609 33.0469C6.56839 33.3961 5.93818 33.3328 5.58887 32.9053C5.23971 32.4776 5.30294 31.8474 5.73047 31.4981L40.584 3.04596L35.2568 1.98053C34.7154 1.87209 34.3644 1.34524 34.4727 0.803774Z" fill="black"/>
</svg>
