<svg width="50" height="50" viewBox="0 0 50 50" fill="none" xmlns="http://www.w3.org/2000/svg">
<g clip-path="url(#clip0_3086_8169)">
<path fill-rule="evenodd" clip-rule="evenodd" d="M9.77627 10.0227C9.99353 9.97133 10.2229 10.0085 10.412 10.1272L15.0458 13.0403C15.4334 13.2842 15.5517 13.7955 15.3105 14.1848L15.0048 14.677C16.0298 14.6941 17.2534 14.6937 18.3681 14.6829C19.2144 14.6746 19.9899 14.662 20.5536 14.6516C20.8352 14.6465 21.0644 14.6423 21.2226 14.6389C21.2923 14.6375 21.3488 14.6369 21.3896 14.636C22.5524 14.3727 23.3393 14.3892 23.955 14.5413C24.2634 14.6175 24.5018 14.722 24.6737 14.7981C24.7556 14.8344 24.8129 14.8587 24.8554 14.8762C25.9184 14.221 26.705 13.9538 27.3651 13.8919C27.7198 13.8586 28.0062 13.8877 28.2294 13.9192C28.4847 13.9553 28.5472 13.971 28.6347 13.971C28.8128 13.971 29.0099 14.0154 29.1503 14.0501C29.3154 14.0908 29.5096 14.147 29.7177 14.2122C30.1353 14.343 30.6489 14.5215 31.1855 14.7161C32.131 15.059 33.1729 15.4623 33.9394 15.7659L35.2431 15.2854L34.6747 14.3401C34.4377 13.9462 34.5645 13.4342 34.9579 13.1966L39.4882 10.4632C39.8796 10.2272 40.388 10.3505 40.6278 10.7395L49.8778 25.763L49.9179 25.8352C50.0024 26.0094 50.0241 26.209 49.9774 26.3987C49.924 26.6155 49.7856 26.8023 49.5937 26.9163L44.8847 29.7073C44.4906 29.9406 43.9811 29.8117 43.745 29.4192L42.6405 27.5843L40.5732 28.5794C40.9475 29.538 40.8115 30.6636 40.119 31.5198C39.6289 32.1257 38.9474 32.4837 38.2314 32.5843C38.3839 33.3969 38.1948 34.2684 37.6337 34.9622C36.9259 35.8369 35.8175 36.1932 34.787 35.9856C34.7301 36.5355 34.5197 37.0758 34.1464 37.5374C33.4252 38.4287 32.2859 38.7731 31.2431 38.5286C31.1638 39.0224 30.9607 39.5028 30.6239 39.9192C29.6045 41.1795 27.7484 41.3547 26.5116 40.3069L23.7636 37.9778L22.3417 39.6927C21.4408 40.7782 19.8307 40.9284 18.745 40.0276C18.2611 39.626 17.9641 39.0834 17.8622 38.5091C17.0001 38.8989 15.9559 38.7955 15.1786 38.1507C14.4766 37.568 14.1676 36.6892 14.2792 35.847C13.4065 36.268 12.3325 36.174 11.538 35.5149C10.8135 34.9136 10.5081 33.9966 10.6513 33.1302C9.88222 33.3311 9.0313 33.1734 8.37295 32.6272C7.30795 31.7431 7.14573 30.1771 7.99112 29.093L6.69327 28.094L6.04288 29.1448C5.80057 29.5353 5.28748 29.6559 4.89639 29.4143L0.395415 26.6341C0.00668952 26.3937 -0.116322 25.8855 0.120025 25.4944L9.25577 10.4016L9.30264 10.3323C9.41896 10.1776 9.58628 10.0679 9.77627 10.0227ZM21.5067 16.2991H21.5028C21.5 16.2992 21.4954 16.3 21.4901 16.3001C21.4793 16.3003 21.4632 16.3006 21.4423 16.3011C21.4002 16.302 21.3382 16.3033 21.2587 16.305C21.0992 16.3083 20.8682 16.3134 20.5849 16.3186C20.0179 16.329 19.2371 16.3416 18.3847 16.3499C16.9063 16.3643 15.1849 16.3655 13.9862 16.3206L7.5751 26.6692L9.01944 27.7805C9.0306 27.7891 9.04106 27.7989 9.05167 27.8079L10.0673 26.5852C10.9683 25.4996 12.5793 25.3503 13.6649 26.2512C14.1878 26.6853 14.4907 27.2841 14.5663 27.9095C15.4933 27.0719 16.9176 27.0189 17.9071 27.8401C18.7203 28.5152 19.0073 29.5879 18.7216 30.5403C19.5158 30.2988 20.412 30.4473 21.0985 31.0169C21.6363 31.4633 21.9434 32.0842 22.0077 32.7288C22.8095 32.474 23.7196 32.6185 24.4149 33.1956C25.4681 34.0698 25.6367 35.6092 24.8231 36.6917L27.5888 39.0354C28.1118 39.4786 28.8968 39.4042 29.328 38.8714C29.6704 38.448 29.7019 37.8739 29.4511 37.4251L24.0937 32.8684L23.998 32.7893C23.6439 32.4956 23.5951 31.9697 23.8886 31.6155C24.0722 31.3944 24.3461 31.2926 24.6122 31.3186C24.6616 31.3232 24.7105 31.3325 24.7587 31.346C24.7635 31.3474 24.7685 31.3484 24.7733 31.3499C24.8805 31.3819 24.9834 31.4359 25.0741 31.513L25.246 31.6585L30.2118 35.7766C30.4008 35.9333 30.5624 36.111 30.7021 36.3001L31.1142 36.6507C31.6356 37.0941 32.42 37.0207 32.8505 36.4886C33.2927 35.9416 33.2144 35.1429 32.6767 34.6917L26.5146 29.6136C26.1593 29.3208 26.1085 28.795 26.4013 28.4397C26.5992 28.1998 26.9033 28.0994 27.1894 28.1497C27.3284 28.1732 27.4634 28.2323 27.58 28.3284L33.7284 33.3977C33.7387 33.4062 33.7486 33.4155 33.7587 33.4241L34.5702 34.093C35.1064 34.5349 35.9007 34.4544 36.3378 33.9143C36.776 33.3726 36.689 32.5776 36.1444 32.1428L28.5106 26.0471C28.151 25.76 28.0917 25.235 28.3788 24.8753C28.5577 24.6514 28.8288 24.5434 29.0946 24.5637C29.2558 24.5756 29.4155 24.6354 29.5517 24.7434L37.0194 30.6712C37.5733 31.1106 38.3784 31.0216 38.8232 30.472C39.2686 29.921 39.1879 29.1145 38.6425 28.6624L29.911 21.429L22.0019 23.9397C20.8314 24.3622 19.8378 24.2934 19.0595 23.9563C18.2988 23.6267 17.7992 23.0647 17.5624 22.5911C17.5596 22.5854 17.5573 22.5793 17.5546 22.5735C17.0204 21.4383 17.1171 20.4128 17.5048 19.6087C17.874 18.8433 18.4843 18.3166 18.9579 18.0501L18.9735 18.0413L22.5585 16.1223C22.3144 16.1482 22.0244 16.1963 21.6786 16.2776C21.6226 16.2908 21.5652 16.2977 21.5077 16.2991L21.4882 15.4671L21.5067 16.2991ZM23.3505 34.4778C22.9734 34.165 22.4136 34.2171 22.1005 34.594L19.6933 37.4944C19.3802 37.8717 19.4322 38.4323 19.8095 38.7454C20.1867 39.058 20.7465 39.0053 21.0595 38.6282L23.4667 35.7278C23.7794 35.3507 23.7274 34.7908 23.3505 34.4778ZM20.0341 32.3001C19.6568 31.987 19.0972 32.039 18.7841 32.4163L16.1259 35.6184C15.813 35.9957 15.8659 36.5554 16.2431 36.8684C16.6202 37.181 17.1791 37.1291 17.4921 36.7522L20.1503 33.5501C20.4633 33.1729 20.411 32.6132 20.0341 32.3001ZM16.8427 29.1223C16.4655 28.8095 15.9057 28.8616 15.5927 29.2386L12.4853 32.9827C12.1728 33.3599 12.2256 33.9188 12.6024 34.2317C12.9796 34.5445 13.5384 34.4925 13.8515 34.1155L16.9589 30.3723C17.2716 29.9952 17.2196 29.4354 16.8427 29.1223ZM12.6005 27.5335C12.2234 27.2207 11.6636 27.2728 11.3505 27.6497L9.3212 30.094C9.00816 30.4712 9.06029 31.0319 9.43741 31.345C9.81464 31.6578 10.3744 31.605 10.6874 31.2278L12.7167 28.7835C13.0294 28.4063 12.9774 27.8465 12.6005 27.5335ZM36.5321 14.1936L44.748 27.8509L48.0146 25.9143L39.6425 12.3167L36.5321 14.1936ZM1.97354 25.6507L5.06436 27.5589L13.4569 14.01L10.2421 11.9895L1.97354 25.6507ZM27.5204 15.5511C27.1716 15.5838 26.5728 15.7449 25.5126 16.4309C25.4933 16.4434 25.4733 16.4552 25.453 16.4661L19.7743 19.5022L19.7753 19.5032C19.543 19.634 19.2012 19.9279 19.0058 20.3333C18.8296 20.6988 18.7504 21.193 19.0575 21.8528C19.1331 21.9987 19.3479 22.2651 19.7216 22.427C20.0759 22.5805 20.6361 22.6677 21.4618 22.3636C21.4736 22.3592 21.486 22.3547 21.498 22.3509L29.8388 19.7034C29.8407 19.7028 29.8427 19.7021 29.8446 19.7014C29.862 19.696 29.8797 19.692 29.8974 19.6878C29.9075 19.6853 29.9175 19.682 29.9276 19.68C29.9402 19.6774 29.953 19.676 29.9657 19.6741C29.9804 19.6718 29.995 19.6687 30.0097 19.6673C30.2236 19.6459 30.4453 19.7078 30.6239 19.8557L39.5292 27.2317L41.7782 26.1487L36.1181 16.7395L34.2187 17.4397C34.0254 17.5109 33.8123 17.5083 33.621 17.4319C32.8541 17.1252 31.6706 16.6656 30.6171 16.2835C30.0898 16.0922 29.6029 15.9231 29.2196 15.803C29.0273 15.7428 28.8692 15.6975 28.7509 15.6682C28.6083 15.6331 28.5889 15.638 28.6347 15.638C28.3917 15.6379 28.1223 15.5883 27.997 15.5706C27.8396 15.5484 27.6951 15.5347 27.5204 15.5511Z" fill="black"/>
</g>
<defs>
<clipPath id="clip0_3086_8169">
<rect width="50" height="50" fill="white"/>
</clipPath>
</defs>
</svg>
