<svg width="50" height="50" viewBox="0 0 50 50" fill="none" xmlns="http://www.w3.org/2000/svg">
<g clip-path="url(#clip0_3086_7265)">
<path fill-rule="evenodd" clip-rule="evenodd" d="M39.7976 26.9254C41.2494 25.553 43.6045 25.5572 45.0515 26.9351C46.4477 28.265 46.4925 30.3979 45.154 31.7789L36.0525 41.1676C36.0147 41.2065 35.9733 41.2402 35.9304 41.2711C35.7676 41.4957 35.5044 41.6431 35.2058 41.6431H22.3318L22.2947 41.6392C21.2617 41.5543 20.5134 42.1795 20.0456 42.7652C20.2351 43.6963 19.9718 44.7044 19.239 45.4273L14.9988 49.6099C14.4737 50.1274 13.6319 50.1334 13.0994 49.6236L3.41967 40.358C2.85662 39.8185 2.86104 38.9174 3.42846 38.3824L7.55737 34.4918C8.44782 33.653 9.73777 33.4769 10.7966 33.9732C12.0195 32.5785 14.3902 30.5521 17.4695 29.8238C20.1732 29.1845 22.265 29.5496 23.5417 30.0709C24.1324 30.312 24.5897 30.4702 25.0212 30.4703H32.6941C33.6072 30.4705 34.4358 30.8299 35.0476 31.4146L39.7976 26.9254ZM10.1765 35.6763C9.74703 35.3935 9.17005 35.4346 8.78588 35.7965L4.98608 39.3756L14.0369 48.0406L17.9812 44.151C18.4452 43.6928 18.4242 42.937 17.9353 42.5054L10.6218 36.0523C10.5558 36.0265 10.4909 35.9944 10.4304 35.9517C10.3238 35.8765 10.239 35.7818 10.1765 35.6763ZM43.7449 28.1627C43.0162 27.4689 41.8303 27.4667 41.0994 28.1578L35.9841 32.9918C36.0602 33.2746 36.1022 33.5717 36.1023 33.8785C36.1023 35.7608 34.5764 37.2873 32.6941 37.2877H25.113C24.6181 37.2877 24.2166 36.8861 24.2165 36.3912C24.2168 35.8964 24.6182 35.4957 25.113 35.4957H32.6941C33.5865 35.4953 34.3093 34.7709 34.3093 33.8785C34.3091 32.9863 33.5863 32.2626 32.6941 32.2623H25.0212C24.1954 32.2622 23.4374 31.9642 22.864 31.7301C21.9398 31.3527 20.2295 31.0137 17.8816 31.5689C15.3113 32.1769 13.2733 33.8929 12.2175 35.0709L19.0994 41.1431C19.8006 40.4525 20.8954 39.7426 22.3962 39.8502H34.8308L43.7956 30.6021C44.4697 29.9068 44.4478 28.8323 43.7449 28.1627ZM9.79467 37.897C10.3322 37.8973 10.7682 38.3094 10.7683 38.8179C10.7683 39.3266 10.3323 39.7396 9.79467 39.7398C9.2568 39.7398 8.82006 39.3267 8.82006 38.8179C8.8202 38.3093 9.25689 37.897 9.79467 37.897ZM32.0183 0.320877C34.1589 -0.247185 36.7078 -0.191196 39.1121 1.57185C41.5716 3.37553 42.1573 5.9002 41.8552 8.29451C41.5587 10.6436 40.4128 12.9298 39.324 14.5328C38.2402 16.1283 35.4837 19.332 33.0476 22.0875C31.8196 23.4764 30.6566 24.7686 29.8015 25.7135C29.374 26.1858 29.0232 26.5727 28.779 26.8404C28.6968 26.9306 28.626 27.0068 28.5691 27.0689C28.5224 27.1578 28.4608 27.2413 28.3826 27.3131C28.2231 27.4591 28.0253 27.537 27.8249 27.5474H27.6892C27.4886 27.5371 27.2902 27.4594 27.1306 27.3131C27.0523 27.2412 26.9908 27.1579 26.9441 27.0689C26.8871 27.0068 26.8163 26.9306 26.7341 26.8404C26.49 26.5727 26.1392 26.1858 25.7117 25.7135C24.8566 24.7686 23.6935 23.4764 22.4656 22.0875C20.0296 19.3322 17.2741 16.1284 16.1902 14.5328C15.1013 12.9298 13.9554 10.6436 13.6589 8.29451C13.3568 5.9002 13.9425 3.37553 16.4021 1.57185C18.8061 -0.190883 21.3545 -0.24708 23.4949 0.320877C25.2382 0.783558 26.7379 1.66542 27.7566 2.39998C28.7753 1.6654 30.2748 0.783612 32.0183 0.320877ZM24.9968 13.8912H17.9314C19.084 15.477 21.5322 18.3255 23.8083 20.9C25.0305 22.2824 26.1887 23.5698 27.0408 24.5113C27.313 24.8121 27.5545 25.0774 27.7566 25.2994C27.9587 25.0773 28.201 24.8123 28.4734 24.5113C29.3254 23.5698 30.4827 22.2823 31.7048 20.9C33.981 18.3255 36.4291 15.4771 37.5818 13.8912H30.9978L27.5583 22.1461L25.6248 12.0025L24.9968 13.8912ZM38.0525 3.01717C36.1898 1.65134 34.2343 1.58828 32.4783 2.05428C30.8112 2.49677 29.3634 3.41194 28.4763 4.09822L28.4753 4.10115C28.2938 4.32629 28.0251 4.43903 27.7566 4.43318C27.4882 4.4389 27.2203 4.32614 27.0388 4.10115L27.0378 4.10017C26.1509 3.41382 24.7036 2.49701 23.0359 2.05428C21.2798 1.58823 19.3244 1.65129 17.4617 3.01717C15.6544 4.34253 15.195 6.14734 15.4373 8.06892C15.6124 9.4571 16.1562 10.8703 16.8123 12.0992H23.7048L26.1003 4.91267L28.2009 15.942L29.8025 12.0992H38.7009C39.357 10.8702 39.9017 9.45717 40.0769 8.06892C40.3191 6.14749 39.8595 4.34249 38.0525 3.01717Z" fill="black"/>
</g>
<defs>
<clipPath id="clip0_3086_7265">
<rect width="50" height="50" fill="white"/>
</clipPath>
</defs>
</svg>
