<svg width="50" height="50" viewBox="0 0 50 50" fill="none" xmlns="http://www.w3.org/2000/svg">
<g clip-path="url(#clip0_3086_9033)">
<path fill-rule="evenodd" clip-rule="evenodd" d="M48.4844 21.4096C48.9907 21.3508 49.4494 21.7139 49.5088 22.2202C50.3291 29.2591 48.0388 36.5962 42.6367 41.9985C33.2577 51.3776 18.0509 51.3776 8.67185 41.9985C5.46773 38.7942 3.35748 34.9075 2.34275 30.8061L1.70799 31.8256C1.43795 32.2582 0.868259 32.3894 0.435525 32.1196C0.00270223 31.8496 -0.130257 31.28 0.139627 30.8471L1.77732 28.2221C2.02953 27.8179 2.54841 27.6722 2.97459 27.8852L3.11717 27.9565C3.23802 27.9887 3.34982 28.0456 3.44724 28.1215L5.7451 29.2709C6.20136 29.4991 6.3873 30.0539 6.15916 30.5102C5.93098 30.9662 5.37607 31.1502 4.9199 30.9223L4.18553 30.5551C5.13969 34.269 7.0696 37.7839 9.97849 40.6928C18.636 49.3502 32.6725 49.3502 41.3301 40.6928C46.3161 35.7068 48.4315 28.9372 47.6738 22.435C47.6148 21.9283 47.9777 21.4687 48.4844 21.4096ZM24.5088 16.7036C24.9204 16.69 25.2912 16.9504 25.4179 17.3422L28.2461 26.103L30.0117 22.3383L30.0781 22.2192C30.2537 21.9547 30.5562 21.7958 30.8799 21.8071C31.2495 21.8201 31.5757 22.0529 31.709 22.3979L33.4521 26.9096H42.2812C42.7912 26.9097 43.2049 27.3235 43.2051 27.8334C43.2051 28.3436 42.7913 28.7572 42.2812 28.7573H32.8183C32.4368 28.7571 32.0945 28.5224 31.957 28.1665L30.7656 25.0815L28.9238 29.0112C28.7627 29.3545 28.4078 29.5653 28.0293 29.5415C27.6507 29.5175 27.3256 29.2637 27.209 28.9028L24.6494 20.978L21.4922 33.5541C21.3875 33.9711 21.0089 34.2613 20.5791 34.2534C20.1493 34.2452 19.7813 33.9415 19.6924 33.5209L18.2705 26.7944H9.95115C9.441 26.7944 9.02732 26.3807 9.02732 25.8706C9.02749 25.3605 9.44111 24.9467 9.95115 24.9467H19.0195L19.1006 24.9506C19.5017 24.9859 19.839 25.2791 19.9238 25.6792L20.6728 29.229L23.6435 17.4018L23.6924 17.2573C23.8328 16.9349 24.1484 16.7155 24.5088 16.7036ZM8.67185 8.03364C17.5397 -0.834312 31.616 -1.31586 41.0517 6.5854L40.998 5.56294C40.9715 5.05361 41.3637 4.61895 41.873 4.59224C42.3824 4.56563 42.8179 4.95697 42.8447 5.46626L43.0049 8.5561C43.0218 8.8811 42.8677 9.1778 42.6181 9.35591C42.3833 9.57893 42.0616 9.65456 41.7666 9.58345L39.1523 9.96919C38.6477 10.0435 38.178 9.69541 38.1035 9.19087C38.0292 8.68632 38.3783 8.21754 38.8828 8.14302L39.8603 7.99849C31.1505 0.710604 18.1622 1.15649 9.97849 9.34028C7.50232 11.8165 5.73523 14.7309 4.67576 17.8325C4.51073 18.3148 3.98639 18.5722 3.50388 18.4077C3.02114 18.2428 2.76381 17.7176 2.92869 17.2348C4.07738 13.8722 5.9919 10.7136 8.67185 8.03364Z" fill="black"/>
</g>
<defs>
<clipPath id="clip0_3086_9033">
<rect width="50" height="50" fill="white"/>
</clipPath>
</defs>
</svg>
