<svg width="50" height="50" viewBox="0 0 50 50" fill="none" xmlns="http://www.w3.org/2000/svg">
<path fill-rule="evenodd" clip-rule="evenodd" d="M40.6494 19.6523V36.9297C41.1916 36.7744 41.8097 36.6836 42.5049 36.6836C44.1986 36.6837 45.3205 37.2201 46.0147 38.042C46.4116 38.512 46.6279 39.032 46.752 39.4932C47.4532 39.5294 48.1279 39.8477 48.6494 40.2871C49.4199 40.9367 49.9989 41.9568 49.999 43.1436C49.999 44.1414 49.5496 44.9187 49.0225 45.4766C48.5035 46.0258 47.8807 46.3968 47.4297 46.6221L47.2559 46.709H37.8086L37.6777 46.6631C37.4089 46.5699 37.1583 46.4649 36.9258 46.3496V46.3857H20.3086V32.8467H12.2803V46.3857H1.61133V19.6279L22.1201 7.52441L40.6494 19.6523ZM42.5049 38.3271C41.1708 38.3272 40.3422 38.7393 39.8848 39.1475C39.6515 39.3557 39.5144 39.5622 39.4463 39.7188C39.4055 39.8125 39.3967 39.8679 39.3945 39.8877L39.708 40.917H38.5986C37.6749 40.9171 36.7406 41.8124 36.4951 43.0049C36.4152 43.3935 36.4688 43.7592 36.6846 44.0889C36.8966 44.4126 37.3155 44.7738 38.0986 45.0654H46.8555C47.1804 44.8889 47.5407 44.6499 47.8272 44.3467C48.1542 44.0005 48.3554 43.6085 48.3555 43.1436C48.3553 42.5021 48.0394 41.9219 47.5898 41.543C47.1226 41.1493 46.6482 41.0738 46.3574 41.1758L45.3779 41.5205L45.2686 40.4883C45.2198 40.0314 45.102 39.509 44.7588 39.1025C44.4448 38.7308 43.8306 38.3272 42.5049 38.3271ZM3.25489 20.5654V44.7422H10.6377V31.2031H21.9522V44.7422H35.1641C34.8085 44.0711 34.7458 43.3479 34.8848 42.6729C35.1813 41.2329 36.2706 39.7444 37.8291 39.3662C37.8593 39.2608 37.8969 39.159 37.9385 39.0635C38.1106 38.6677 38.3984 38.2712 38.791 37.9209C38.8592 37.86 38.9312 37.8011 39.0059 37.7432V20.541L22.0752 9.45898L3.25489 20.5654ZM34.7031 41.7266H25.6133V31.9932H34.7031V41.7266ZM27.2568 40.084H33.0596V33.6367H27.2568V40.084ZM30.625 8.85254V4.80078C30.625 3.89318 31.361 3.15731 32.2686 3.15723H36.1055C37.013 3.15733 37.749 3.8932 37.749 4.80078V13.4014L41.8984 16.1914C42.275 16.4446 42.3751 16.9554 42.1221 17.332C41.8689 17.7085 41.358 17.8087 40.9814 17.5557L36.1055 14.2773V4.80078H32.2686V12L22.1543 4.95703L1.2461 17.5771C0.857586 17.8115 0.352631 17.6863 0.11817 17.2979C-0.116009 16.9094 0.00905767 16.4043 0.397467 16.1699L22.2188 3L30.625 8.85254Z" fill="black"/>
</svg>
