<svg width="50" height="50" viewBox="0 0 50 50" fill="none" xmlns="http://www.w3.org/2000/svg">
<path d="M36.1641 9.14355H33.9883V13.459H50V17.6016H45.9502V44.9082L33.0508 44.9072H16.9502V44.9082H4.05078V17.6016H0V13.459H16.0137V9.14355H14.0469V5H36.1641V9.14355ZM5.38184 43.5771H15.6182V17.6914H5.38184V43.5771ZM34.3818 43.5771H44.6182V17.6914H34.3818V43.5771ZM17.3447 43.5762H18.4766V31.9746H30.8906V43.5762H32.6572V9.2334H17.3447V43.5762ZM19.8076 43.0566H23.6094V33.3057H19.8076V43.0566ZM25.7578 43.0566H29.5596V33.3057H25.7578V43.0566ZM14.3906 42.9824H6.39844V37.7393H14.3906V42.9824ZM43.6035 42.9824H35.6113V37.7393H43.6035V42.9824ZM7.43457 41.9463H13.3545V38.7754H7.43457V41.9463ZM36.6475 41.9463H42.5674V38.7754H36.6475V41.9463ZM14.3906 36.6396H6.39844V31.3965H14.3906V36.6396ZM43.6035 36.6396H35.6113V31.3965H43.6035V36.6396ZM7.43457 35.6035H13.3545V32.4316H7.43457V35.6035ZM36.6475 35.6035H42.5674V32.4316H36.6475V35.6035ZM14.3906 30.2949H6.39844V25.0518H14.3906V30.2949ZM43.6035 30.2949H35.6113V25.0518H43.6035V30.2949ZM7.43457 29.2588H13.3545V26.0879H7.43457V29.2588ZM36.6475 29.2588H42.5674V26.0879H36.6475V29.2588ZM31.5088 29.1055H17.752V25.7041H31.5088V29.1055ZM19.083 27.7744H30.1777V27.0352H19.083V27.7744ZM31.5088 24.668H17.752V21.2666H31.5088V24.668ZM14.3906 23.9512H6.39844V18.708H14.3906V23.9512ZM43.6035 23.9512H35.6113V18.708H43.6035V23.9512ZM19.083 23.3369H30.1777V22.5977H19.083V23.3369ZM7.43457 22.915H13.3545V19.7441H7.43457V22.915ZM36.6475 22.915H42.5674V19.7441H36.6475V22.915ZM25.6738 10.165C26.6132 10.1653 27.374 10.9268 27.374 11.8662V11.9775H27.4854C28.4249 11.9775 29.1865 12.7392 29.1865 13.6787V15.0703C29.1865 16.0098 28.4248 16.7715 27.4854 16.7715H27.374V16.8359C27.374 17.7753 26.6132 18.5369 25.6738 18.5371H24.2812C23.3418 18.537 22.5801 17.7754 22.5801 16.8359V16.7715H22.5156C21.5761 16.7715 20.8145 16.0098 20.8145 15.0703V13.6787C20.8145 12.7392 21.5761 11.9775 22.5156 11.9775H22.5801V11.8662C22.5801 10.9268 23.3418 10.1652 24.2812 10.165H25.6738ZM24.2812 11.4961C24.0771 11.4962 23.9121 11.6621 23.9121 11.8662V12.9385C23.9121 13.1427 23.7462 13.3085 23.542 13.3086H22.5156C22.3114 13.3086 22.1455 13.4745 22.1455 13.6787V15.0703C22.1456 15.2745 22.3114 15.4404 22.5156 15.4404H23.542C23.7461 15.4405 23.912 15.6055 23.9121 15.8096V16.8359C23.9121 17.0401 24.0771 17.2059 24.2812 17.2061H25.6738C25.8779 17.2058 26.043 17.04 26.043 16.8359V15.8096C26.0431 15.6054 26.2089 15.4404 26.4131 15.4404H27.4854C27.6896 15.4404 27.8554 15.2745 27.8555 15.0703V13.6787C27.8555 13.4745 27.6896 13.3086 27.4854 13.3086H26.4131C26.2088 13.3086 26.043 13.1427 26.043 12.9385V11.8662C26.043 11.6621 25.8779 11.4963 25.6738 11.4961H24.2812ZM1.33105 16.2695H15.9229V14.79H1.33105V16.2695ZM34.0771 16.2695H48.6689V14.79H34.0771V16.2695ZM15.3779 7.81152H34.833V6.33105H15.3779V7.81152Z" fill="black"/>
</svg>
