<svg width="50" height="50" viewBox="0 0 50 50" fill="none" xmlns="http://www.w3.org/2000/svg">
<path d="M25.1826 1C28.9263 1.00014 31.9661 4.00355 32.0283 7.73242H37.8789V23.5195H47.5195V45.0859H50V49.543H0V45.0859H2.8457V23.5195H12.4824V7.73242H18.3369C18.3991 4.00358 21.439 1.00019 25.1826 1ZM1.31738 48.2256H48.6826V46.4033H32.4648V46.4385H18.1133V46.4033H1.31738V48.2256ZM13.8008 45.0156H15.5283V45.043H18.1133V35.6621H16.8145V31.9424H33.7666V35.6621H32.4648V45.043H34.8369V45.0156H36.5605V9.0498H31.9248C31.3568 12.2595 28.5552 14.6981 25.1826 14.6982C21.8101 14.6981 19.0094 12.2594 18.4414 9.0498H13.8008V45.0156ZM19.4307 45.043H24.1895V35.6621H19.4307V45.043ZM26.3887 45.043H31.1475V35.6621H26.3887V45.043ZM4.16406 45.0156H12.4824V42.3262H5.0293V38.0938H12.4824V36.4961H5.0293V31.8994H12.4824V30.3018H5.0293V26.0693H12.4824V24.8369H4.16406V45.0156ZM37.8789 26.0693H45.334V30.3018H37.8789V31.8994H45.334V36.4961H37.8789V38.0938H45.334V42.3262H37.8789V45.0156H46.2012V24.8369H37.8789V26.0693ZM6.34766 41.0088H12.4824V39.4111H6.34766V41.0088ZM37.8789 41.0088H44.0156V39.4111H37.8789V41.0088ZM6.34766 35.1777H12.4824V33.2168H6.34766V35.1777ZM37.8789 35.1777H44.0156V33.2168H37.8789V35.1777ZM18.1318 33.8252H32.4492V33.2588H18.1318V33.8252ZM6.34766 28.9844H12.4824V27.3877H6.34766V28.9844ZM37.8789 28.9844H44.0156V27.3877H37.8789V28.9844ZM21.6201 27.9307H15.0801V15.3174H21.6201V27.9307ZM28.7764 27.9307H22.2363V15.3164H28.7764V27.9307ZM35.9355 27.9307H29.3965V15.3164H35.9355V27.9307ZM16.3975 26.6123H20.3027V22.9248H16.3975V26.6123ZM23.5537 26.6123H27.459V22.9248H23.5537V26.6123ZM30.7139 26.6123H34.6182V22.9248H30.7139V26.6123ZM16.3975 20.3213H20.3027V16.6338H16.3975V20.3213ZM23.5537 20.3213H27.459V16.6338H23.5537V20.3213ZM30.7139 20.3213H34.6182V16.6338H30.7139V20.3213ZM25.1826 2.31738C22.1279 2.31757 19.6516 4.79392 19.6514 7.84863C19.6514 10.8079 21.9751 13.2246 24.8975 13.373L25.1826 13.3809C28.1421 13.3807 30.5591 11.0556 30.707 8.13281L30.7148 7.84863C30.7147 4.79389 28.2374 2.31753 25.1826 2.31738ZM27.9346 5.31152H29.6465V10.6035H27.9346V12.3115H22.6436V10.6035H20.9375V5.31152H22.6436V3.60352H27.9346V5.31152ZM23.9609 6.62891H22.2549V9.28613H23.9609V10.9941H26.6182V9.28613H28.3291V6.62891H26.6182V4.91992H23.9609V6.62891Z" fill="black"/>
</svg>
