<svg width="50" height="50" viewBox="0 0 50 50" fill="none" xmlns="http://www.w3.org/2000/svg">
<g clip-path="url(#clip0_3086_7804)">
<path fill-rule="evenodd" clip-rule="evenodd" d="M43.0232 22.2363C44.5055 20.8353 46.9092 20.8402 48.3865 22.2471L48.8982 22.7344C50.324 24.0921 50.3712 26.2696 49.0047 27.6797L38.1893 38.8359C38.1406 38.8861 38.0861 38.928 38.0291 38.9648C37.8668 39.1897 37.6039 39.3379 37.3055 39.3379H22.3523L22.3162 39.334C21.097 39.2337 20.2076 39.936 19.6453 40.6084C19.947 41.6059 19.7075 42.7368 18.907 43.5264L13.6727 48.6885C13.149 49.2048 12.3093 49.2107 11.7781 48.7021L0.418748 37.8281C-0.142862 37.2901 -0.139326 36.391 0.426561 35.8574L5.50469 31.0742C6.4744 30.1608 7.91852 30.0357 9.01933 30.7109C10.4139 29.1071 13.1602 26.741 16.7312 25.8965C19.966 25.1315 22.43 25.6165 23.865 26.2471C24.4283 26.4946 24.8853 26.6502 25.3113 26.6504H34.5135C35.554 26.6504 36.4937 27.0819 37.1639 27.7754L43.0232 22.2363ZM8.24297 32.3506C7.80809 31.9669 7.15248 31.9774 6.73027 32.375L1.98125 36.8486L12.7137 47.123L17.6521 42.2539C18.1152 41.7971 18.0938 41.0428 17.6062 40.6123L8.82402 32.8633C8.74749 32.8365 8.67288 32.8 8.60332 32.751C8.47611 32.6613 8.37907 32.5447 8.31523 32.4141L8.24297 32.3506ZM47.0838 23.4707C46.323 22.7463 45.0855 22.7436 44.3221 23.4648L38.0711 29.373C38.154 29.6801 38.2 30.0027 38.2 30.3359V30.5908C38.1999 32.6265 36.5491 34.2773 34.5135 34.2773H25.5779C25.0845 34.2771 24.6844 33.8763 24.6844 33.3828C24.6846 32.8895 25.0846 32.4895 25.5779 32.4893H34.5135C35.5619 32.4893 36.4119 31.6393 36.4119 30.5908V30.3359C36.4116 29.2877 35.5618 28.4375 34.5135 28.4375H25.3113C24.4836 28.4374 23.7309 28.1407 23.1463 27.8838C22.0761 27.4135 20.0091 26.9579 17.1424 27.6357C14.0396 28.3696 11.6009 30.4718 10.3885 31.8594L18.5994 39.1035C19.3904 38.2909 20.6585 37.4213 22.4178 37.5498H36.9441L47.6512 26.5049C48.3545 25.7786 48.3297 24.6571 47.5955 23.958L47.0838 23.4707ZM7.78203 35.1348C8.40686 35.1349 8.91378 35.614 8.91387 36.2051C8.91387 36.7962 8.40691 37.2753 7.78203 37.2754C7.15705 37.2754 6.65019 36.7963 6.65019 36.2051C6.65027 35.6139 7.1571 35.1348 7.78203 35.1348ZM28.7996 1C34.7958 1 39.6578 5.86126 39.658 11.8574C39.6578 17.8535 34.7958 22.7148 28.7996 22.7148C22.8038 22.7144 17.9434 17.8533 17.9432 11.8574C17.9433 5.86152 22.8038 1.00042 28.7996 1ZM28.7996 2.78711C23.791 2.78753 19.7304 6.84874 19.7303 11.8574C19.7305 16.7098 23.5417 20.6722 28.3338 20.915L28.7996 20.9277C33.6521 20.9277 37.6152 17.1163 37.8582 12.3242L37.8699 11.8574C37.8698 6.84848 33.8086 2.78711 28.7996 2.78711ZM32.7166 7.81152C33.0727 7.46973 33.6394 7.48182 33.9812 7.83789C34.3227 8.194 34.3108 8.75986 33.9549 9.10156L26.2371 16.5098L23.6346 13.9062C23.2857 13.5572 23.2857 12.9916 23.6346 12.6426C23.9836 12.2938 24.5492 12.2938 24.8982 12.6426L26.2625 14.0068L32.7166 7.81152Z" fill="black"/>
</g>
<defs>
<clipPath id="clip0_3086_7804">
<rect width="50" height="50" fill="white"/>
</clipPath>
</defs>
</svg>
