<svg width="50" height="50" viewBox="0 0 50 50" fill="none" xmlns="http://www.w3.org/2000/svg">
<path fill-rule="evenodd" clip-rule="evenodd" d="M46.1035 1C46.6232 1 47.0449 1.42175 47.0449 1.94141V12.4795C47.0448 12.9991 46.6231 13.4209 46.1035 13.4209C45.5841 13.4207 45.1632 12.9989 45.1631 12.4795V2.88281H1.88184V44.6064L17.9727 21.9014C18.1185 21.6958 18.342 21.5569 18.5908 21.5166C18.8394 21.4765 19.0937 21.5386 19.2969 21.6875L25.2559 26.0566L36.7637 9.74414L34.9775 10.0361C34.4648 10.1196 33.9812 9.77152 33.8975 9.25879C33.814 8.74609 34.1621 8.26243 34.6748 8.17871L38.7061 7.52051C39.2188 7.43691 39.7034 7.78507 39.7871 8.29785L40.4453 12.3291C40.5289 12.8418 40.1806 13.3263 39.668 13.4102C39.1553 13.4938 38.6718 13.1454 38.5879 12.6328L38.2939 10.8379L26.2422 27.9248C26.0966 28.1311 25.8742 28.2708 25.625 28.3115C25.3758 28.3522 25.1206 28.2908 24.917 28.1416L18.9551 23.7705L3.08398 46.165H38.9424V30.5781C38.7205 30.3538 38.4923 30.1378 38.1875 29.8232C37.8115 29.4353 37.4083 28.9799 37.0576 28.4268C36.3345 27.2861 35.8953 25.821 36.1465 23.7715C36.3993 21.7094 37.2328 20.4029 38.2373 19.5654C39.2001 18.7628 40.2771 18.4418 40.7861 18.2549L42.0303 17.7979L42.1328 24.3682L42.1338 24.377C42.134 24.3819 42.1341 24.3892 42.1348 24.3984C42.137 24.4284 42.141 24.478 42.1514 24.5391C42.1729 24.6658 42.2146 24.8201 42.2861 24.9629C42.356 25.1023 42.4458 25.2126 42.5605 25.2891C42.6691 25.3613 42.8552 25.4417 43.1855 25.4404C43.5162 25.4391 43.7063 25.3571 43.8193 25.2812C43.9385 25.2012 44.0305 25.0873 44.1025 24.9453C44.1762 24.8 44.2196 24.6439 44.2422 24.5166C44.2531 24.4551 44.2582 24.4051 44.2607 24.375C44.2616 24.3647 44.2614 24.3566 44.2617 24.3516L44.1621 18.1016L45.2842 18.2979C46.9034 18.5824 49.8709 20.2188 49.9961 24.3203L50 24.7256L49.9961 24.79C49.9084 25.8342 49.1855 28.0189 47.1006 29.7979L47.1016 46.8066C47.1016 46.9193 47.0793 47.0268 47.043 47.127C47.0317 47.6368 46.6161 48.0469 46.1035 48.0469H0.94043C0.421001 48.0466 0 47.625 0 47.1055V1.94141C2.93039e-06 1.42191 0.421003 1.00025 0.94043 1H46.1035ZM40.1904 20.5205C39.9382 20.6496 39.6865 20.8073 39.4424 21.0107C38.828 21.523 38.213 22.3831 38.0146 24C37.8149 25.6293 38.1627 26.6557 38.6465 27.4189C38.8992 27.8175 39.2041 28.168 39.5391 28.5137C39.7587 28.7403 40.0609 29.0326 40.3262 29.3027L40.5742 29.5615L40.8232 29.832V46.165H45.2188V28.8887L45.5859 28.6064C47.4802 27.1461 48.0514 25.3004 48.1172 24.6611C48.1389 22.4031 47.0694 21.1829 46.084 20.5938L46.1436 24.3516L46.1445 24.3652L46.1436 24.3789L46.1445 24.3809L46.1436 24.3828C46.1435 24.3842 46.1446 24.3861 46.1445 24.3877C46.1445 24.3912 46.1437 24.3959 46.1436 24.4004C46.1433 24.4092 46.1431 24.4201 46.1426 24.4326C46.1414 24.4582 46.139 24.4915 46.1357 24.5312C46.1291 24.6107 46.1171 24.7184 46.0947 24.8447C46.0505 25.0936 45.9622 25.44 45.7812 25.7969C45.5986 26.1569 45.3116 26.5466 44.8672 26.8447C44.4163 27.147 43.8567 27.3196 43.1934 27.3223C42.5301 27.3249 41.969 27.1568 41.5166 26.8555C41.0706 26.5582 40.7844 26.1675 40.6035 25.8066C40.4245 25.4495 40.3391 25.1033 40.2969 24.8545C40.2754 24.7279 40.2648 24.6196 40.2588 24.54C40.2558 24.5004 40.2539 24.467 40.2529 24.4414C40.2525 24.4287 40.2512 24.4171 40.251 24.4082C40.2509 24.4047 40.251 24.4013 40.251 24.3984L40.1904 20.5205Z" fill="black"/>
</svg>
