<svg width="50" height="50" viewBox="0 0 50 50" fill="none" xmlns="http://www.w3.org/2000/svg">
<path fill-rule="evenodd" clip-rule="evenodd" d="M11.1328 0C12.2231 6.9426e-05 13.1064 0.885277 13.1064 1.97559V11.4697L13.1797 11.4746C14.0586 11.564 14.7441 12.3065 14.7441 13.209V17.917C15.7821 14.3909 17.8273 11.865 20.2275 10.1172C23.3458 7.84663 27.021 6.91577 29.7656 6.72559V6.50293C29.7657 4.54035 31.3577 2.94922 33.3203 2.94922H37.2324C39.1949 2.9493 40.7861 4.5404 40.7861 6.50293V14.9629L41.4189 17.1699C41.853 18.6837 40.7164 20.1912 39.1416 20.1914H31.1836C29.5228 20.1914 28.3774 18.5276 28.9707 16.9766L29.7656 14.8984V12.417C27.9752 12.5998 25.6897 13.2466 23.7881 14.665C21.5788 16.3132 19.8301 19.0405 20.0156 23.4941C20.2025 27.9754 22.0375 30.5495 24.1777 31.999C26.0137 33.2423 28.132 33.6933 29.7656 33.7305V31.7734H32.9521C33.0152 31.443 33.1153 31.1202 33.2803 30.8301C33.7505 30.0035 34.6017 29.6152 35.7686 29.6152C36.3701 29.6152 36.895 29.7032 37.335 29.9102C37.7932 30.1258 38.1191 30.4523 38.3301 30.8516C38.4869 31.1485 38.5698 31.4669 38.6172 31.7734H42.0957V40.8281H29.7656V39.2451C27.0764 39.2388 23.483 38.5635 20.3965 36.5264C17.9178 34.8903 15.8047 32.3986 14.7441 28.7646V32.5342C14.7441 33.4615 14.0201 34.2171 13.1064 34.2715V43.5654H18.4062C21.0874 43.5655 23.2616 45.7397 23.2617 48.4209V50H7V1.97559C7 0.885238 7.88426 6.71583e-06 8.97461 0H11.1328ZM13.1064 45.4141H8.58008V48.4209H21.6816C21.6815 46.6686 20.3057 45.2373 18.5752 45.1494L18.4062 45.1455H13.1064V45.4141ZM8.89453 1.58789C8.71478 1.62485 8.58008 1.7849 8.58008 1.97559V43.5654H11.5283V33.4629C11.3581 33.1938 11.2578 32.8761 11.2578 32.5342V13.209C11.2578 12.8667 11.3578 12.5477 11.5283 12.2783V1.97559C11.5283 1.78491 11.3926 1.62486 11.2129 1.58789L11.1328 1.58008H8.97461L8.89453 1.58789ZM31.3457 33.6582L31.4805 33.6484V39.1729L31.3457 39.1807V39.25H40.5166V33.3535H31.3457V33.6582ZM29.7656 8.30957C27.2709 8.49997 23.9497 9.36113 21.1572 11.3945C18.0401 13.6644 15.5311 17.4243 15.5938 23.5176C15.6566 29.6157 18.1899 33.1777 21.2656 35.208C24.0418 37.0404 27.3196 37.6572 29.7656 37.6631V35.3096C27.8746 35.2723 25.4339 34.758 23.291 33.3066C20.7121 31.5598 18.6439 28.511 18.4375 23.5596C18.2301 18.5805 20.2194 15.3561 22.8438 13.3984C25.0746 11.7344 27.7221 11.0149 29.7656 10.8311V8.30957ZM13.1064 32.6572C13.1258 32.6407 13.1424 32.6214 13.1523 32.5977L13.165 32.5342V13.209C13.165 13.159 13.1418 13.1151 13.1064 13.085V32.6572ZM35.7686 31.1953C34.9701 31.1953 34.7563 31.4302 34.6533 31.6113C34.6257 31.6599 34.6028 31.7142 34.5811 31.7734H37.0039C36.9826 31.7002 36.9601 31.6391 36.9336 31.5889C36.8784 31.4846 36.8034 31.4039 36.6631 31.3379C36.5043 31.2632 36.2311 31.1953 35.7686 31.1953ZM30.4463 17.541C30.2611 18.0254 30.5842 18.5432 31.0811 18.6064L31.1836 18.6133H39.1416L39.2383 18.6064C39.6805 18.5531 39.9928 18.139 39.9219 17.6992L39.9014 17.6045L39.3438 15.665H31.1641L30.4463 17.541ZM33.1172 4.53906C32.122 4.64043 31.3458 5.48098 31.3457 6.50293V6.67969L31.4805 6.67871V12.3496L31.3457 12.3506V14.0273H39.207V6.50293C39.207 5.41268 38.3227 4.5284 37.2324 4.52832H33.3203L33.1172 4.53906Z" fill="black"/>
</svg>
