<svg width="50" height="50" viewBox="0 0 50 50" fill="none" xmlns="http://www.w3.org/2000/svg">
<path fill-rule="evenodd" clip-rule="evenodd" d="M39.1557 28.4473C40.5535 27.1258 42.8219 27.1295 44.2153 28.4561C45.5599 29.7366 45.6038 31.7913 44.3149 33.1211L35.8403 41.8633C35.7998 41.905 35.7556 41.9416 35.7094 41.9746C35.5358 42.1987 35.2649 42.3437 34.9594 42.3438H22.9673L22.9282 42.3408C21.9293 42.2587 21.2236 42.9323 20.8091 43.5088C20.6926 43.6708 20.5335 43.784 20.3589 43.8467C20.3664 44.9468 19.9498 46.0516 19.0991 46.8906L16.4448 49.5078C15.7872 50.1562 14.7331 50.165 14.0659 49.5264L5.52683 41.3506C4.82102 40.6748 4.82552 39.5462 5.53659 38.876L8.20261 36.3643C9.22664 35.3996 10.6147 35.0388 11.9116 35.2891C12.9759 33.9832 15.312 31.8479 18.4184 31.1133C20.4938 30.6226 22.1889 30.7606 23.3999 31.0967C24.5042 31.4032 25.2988 31.7119 26.1499 31.7119H32.6206C33.4639 31.712 34.2329 32.0297 34.8149 32.5518L39.1557 28.4473ZM12.6518 37.6943C11.7471 36.896 10.3827 36.9179 9.50436 37.7451L6.98386 40.1182L15.2436 48.0254L17.7671 45.5391C18.7306 44.5884 18.6872 43.0197 17.6723 42.124L12.6518 37.6943ZM42.8315 29.7559C42.199 29.1541 41.17 29.1523 40.5356 29.752L35.813 34.2158C35.8745 34.4672 35.9086 34.7296 35.9087 35C35.9086 36.8161 34.4366 38.2889 32.6206 38.2891H25.561C25.0372 38.2888 24.6119 37.8637 24.6118 37.3398C24.6119 36.816 25.0372 36.3909 25.561 36.3906H32.6206C33.3883 36.3904 34.0102 35.7678 34.0102 35C34.01 34.2324 33.3882 33.6096 32.6206 33.6094H26.1499C24.9577 33.6094 23.7564 33.1657 22.8921 32.9258C21.9921 32.676 20.622 32.5431 18.8549 32.9609C16.5463 33.5069 14.7004 35.0276 13.7104 36.1074C13.7772 36.1596 13.8434 36.2137 13.9077 36.2705L18.9282 40.7002C19.2847 41.0148 19.5745 41.3755 19.7983 41.7646C20.4588 41.0853 21.5293 40.3453 23.021 40.4453H34.5688L42.8764 31.874C43.4617 31.2703 43.442 30.3372 42.8315 29.7559ZM11.2973 38.7441C11.798 38.7441 12.2043 39.128 12.2046 39.6016C12.2046 40.0753 11.7982 40.46 11.2973 40.46C10.7966 40.4598 10.3911 40.0752 10.3911 39.6016C10.3913 39.1281 10.7968 38.7443 11.2973 38.7441ZM28.2182 0C35.2961 6.40611e-05 41.0343 5.73764 41.0346 12.8154L41.0298 13.1465C40.8545 20.0719 35.1858 25.6318 28.2182 25.6318L27.8882 25.6279C20.9627 25.4527 15.4028 19.7831 15.4028 12.8154C15.4032 5.73776 21.1405 0.000248961 28.2182 0ZM28.2182 1.89844C22.1888 1.89869 17.3006 6.78603 17.3003 12.8154C17.3003 18.8451 22.1886 23.7341 28.2182 23.7344C34.248 23.7343 39.1362 18.8453 39.1362 12.8154C39.1358 6.78591 34.2478 1.8985 28.2182 1.89844ZM28.1831 4.17773C28.7072 4.17773 29.1323 4.60282 29.1323 5.12695V5.36133C30.2104 5.52253 31.0326 5.97449 31.6225 6.57617C32.3429 7.31116 32.657 8.20734 32.728 8.89355C32.7818 9.41477 32.4025 9.88148 31.8813 9.93555C31.36 9.98932 30.8932 9.61015 30.8393 9.08887C30.8058 8.76506 30.6444 8.28919 30.2671 7.9043C29.9125 7.54268 29.3037 7.19534 28.2358 7.19531C27.3829 7.19531 26.7346 7.41018 26.3247 7.7207C25.9424 8.01056 25.7153 8.41802 25.7153 8.99219C25.7154 9.53977 25.806 10.2207 26.1333 10.7197C26.4039 11.1323 26.9256 11.5638 28.1792 11.4893C30.0821 11.376 31.383 12.0411 32.1694 13.0781C32.9102 14.0552 33.0981 15.2348 33.0981 16.0371C33.0981 17.3203 32.2334 19.4995 29.6137 20C29.4518 20.0309 29.2911 20.0543 29.1323 20.0732V20.292C29.1322 20.8161 28.7072 21.2412 28.1831 21.2412C27.6592 21.241 27.2349 20.8159 27.2348 20.292V20.0176C25.1383 19.6252 23.6212 18.1509 23.4311 16.3711C23.3756 15.8501 23.7529 15.3819 24.2739 15.3262C24.795 15.2706 25.2621 15.6488 25.3178 16.1699C25.4266 17.1872 26.7961 18.6061 29.2583 18.1357C30.7621 17.8481 31.1997 16.6542 31.1997 16.0371C31.1996 15.4721 31.0581 14.7551 30.6567 14.2256C30.3006 13.7559 29.645 13.3034 28.2924 13.3838C26.4483 13.4935 25.235 12.8121 24.5454 11.7607C23.9128 10.796 23.8169 9.66255 23.8169 8.99219C23.8169 7.81937 24.3263 6.8532 25.1792 6.20703C25.7589 5.76787 26.4681 5.49951 27.2348 5.37695V5.12695C27.2348 4.60297 27.6592 4.17799 28.1831 4.17773Z" fill="black"/>
</svg>
