<svg width="50" height="50" viewBox="0 0 50 50" fill="none" xmlns="http://www.w3.org/2000/svg">
<path d="M48.9658 12C49.5364 12 49.999 12.4627 49.999 13.0332V36.5869C49.999 37.1574 49.5363 37.6201 48.9658 37.6201H45.9678C45.6342 38.1182 45.0663 38.4462 44.4219 38.4463H41.4238L41.3926 38.5127C41.3483 38.4916 41.3051 38.4685 41.2617 38.4463H1.85938C0.832513 38.4462 7.39216e-05 37.6138 0 36.5869V16.3389C0 15.3119 0.832461 14.4796 1.85938 14.4795H3.30469V13.0332C3.30469 12.4627 3.76735 12 4.33789 12H48.9658ZM6.0791 32.0557C4.87858 30.8336 2.96123 30.7416 1.65332 31.792V36.5869C1.65339 36.7009 1.74537 36.7929 1.85938 36.793H6.09863L6.03711 36.7305C7.3394 35.4511 7.35836 33.3581 6.0791 32.0557ZM6.62402 16.1318C7.64913 17.553 7.88756 19.4752 7.08105 21.1689C6.08666 23.2566 3.82257 24.3289 1.65332 23.9033V29.8633C3.49854 29.0174 5.75325 29.366 7.25781 30.8975C8.8383 32.5066 9.0969 34.9195 8.04785 36.793H39.4023C38.4647 35.3882 38.269 33.54 39.0479 31.9043C40.0654 29.7675 42.4131 28.6935 44.6279 29.2012V22.582C42.7248 23.6471 40.2738 23.3593 38.6719 21.7285C37.1744 20.2039 36.8618 17.9572 37.7256 16.1318H6.62402ZM44.6279 30.9199C43.0514 30.3595 41.2751 31.0715 40.54 32.6152C39.8225 34.1223 40.3463 35.8994 41.7012 36.793H44.4219C44.5358 36.7928 44.6279 36.7008 44.6279 36.5869V30.9199ZM4.95801 14.4795H44.4219C45.4487 14.4797 46.2812 15.312 46.2812 16.3389V35.9668H48.3457V13.6533H4.95801V14.4795ZM23.4082 19.4385C23.8645 19.4386 24.2344 19.8083 24.2344 20.2646V21.0791C24.8014 21.241 25.2712 21.4858 25.6553 21.8301C26.1033 22.2317 26.3781 22.7188 26.5781 23.2188C26.7476 23.6425 26.5419 24.1234 26.1182 24.293C25.6945 24.4623 25.2136 24.2565 25.0439 23.833C24.9008 23.475 24.7471 23.2367 24.5518 23.0615C24.3588 22.8885 24.0683 22.7264 23.5723 22.6162C23.1968 22.5329 22.6851 22.6126 22.2744 22.8643C21.8841 23.1036 21.6611 23.4446 21.6611 23.8691C21.6612 24.4898 21.8288 24.788 22.0068 24.9473C22.2028 25.1224 22.5698 25.2725 23.2373 25.2725C24.2336 25.2726 25.1552 25.6812 25.751 26.415C26.3566 27.1613 26.5684 28.1751 26.2627 29.2451C26.0087 30.1337 25.3702 30.6869 24.7031 30.9766C24.5506 31.0428 24.3928 31.0944 24.2344 31.1367V31.9355C24.2341 32.3917 23.8644 32.7616 23.4082 32.7617C22.9519 32.7617 22.5813 32.3918 22.5811 31.9355V31.1602C22.2492 31.0712 21.808 30.9056 21.3691 30.6455C20.8687 30.3489 20.3139 29.8998 19.9453 29.2549C19.719 28.8587 19.8559 28.3535 20.252 28.127C20.6482 27.9006 21.1534 28.0385 21.3799 28.4346C21.5604 28.7504 21.8631 29.0169 22.2119 29.2236C22.5573 29.4283 22.8935 29.5415 23.0684 29.5811C23.3336 29.6309 23.7131 29.6049 24.0449 29.4609C24.3644 29.3222 24.5845 29.1033 24.6738 28.791C24.8419 28.2027 24.7099 27.7555 24.4678 27.457C24.2158 27.1466 23.785 26.9259 23.2373 26.9258C22.3604 26.9258 21.5246 26.7324 20.9053 26.1787C20.2685 25.6092 20.0079 24.7925 20.0078 23.8691C20.0078 22.7492 20.6422 21.9261 21.4102 21.4551C21.7666 21.2366 22.1688 21.0823 22.5811 21V20.2646C22.5811 19.8082 22.9518 19.4385 23.4082 19.4385ZM1.85938 16.1318C1.74533 16.1319 1.65332 16.2248 1.65332 16.3389V22.2021C3.19045 22.6661 4.8773 21.9521 5.58887 20.458C6.3484 18.8629 5.71779 16.9642 4.18262 16.1318H1.85938ZM39.6738 16.1318C38.5923 17.4208 38.6474 19.3452 39.8506 20.5703C41.1299 21.8728 43.2229 21.8916 44.5254 20.6123L44.6279 20.7158V16.3389C44.6279 16.2249 44.5358 16.132 44.4219 16.1318H39.6738Z" fill="black"/>
</svg>
