<svg width="50" height="50" viewBox="0 0 50 50" fill="none" xmlns="http://www.w3.org/2000/svg">
<g clip-path="url(#clip0_3086_8733)">
<path d="M17.9189 41.4521C20.2794 41.4523 22.1934 43.3661 22.1934 45.7266C22.193 48.0867 20.2792 50.0009 17.9189 50.001C15.5586 50.001 13.6449 48.0868 13.6445 45.7266C13.6445 43.366 15.5584 41.4521 17.9189 41.4521ZM42.1768 41.4521C44.5372 41.4523 46.4512 43.3661 46.4512 45.7266C46.4508 48.0867 44.537 50.0009 42.1768 50.001C39.8164 50.001 37.9027 48.0868 37.9023 45.7266C37.9023 43.366 39.8162 41.4521 42.1768 41.4521ZM17.9189 43.4521C16.6629 43.4521 15.6445 44.4706 15.6445 45.7266L15.6562 45.959C15.7652 47.0291 16.6162 47.8807 17.6865 47.9893L17.9189 48.001C19.0962 48.0009 20.0649 47.1054 20.1816 45.959L20.1934 45.7266C20.1934 44.5491 19.2981 43.5804 18.1514 43.4639L17.9189 43.4521ZM42.1768 43.4521C40.9208 43.4521 39.9023 44.4706 39.9023 45.7266L39.9141 45.959C40.023 47.0291 40.874 47.8807 41.9443 47.9893L42.1768 48.001C43.354 48.0009 44.3227 47.1054 44.4395 45.959L44.4512 45.7266C44.4512 44.5491 43.5559 43.5804 42.4092 43.4639L42.1768 43.4521ZM13.0557 15.9199H27.7744C28.3267 15.9199 28.7744 16.3676 28.7744 16.9199C28.7742 17.472 28.3265 17.9199 27.7744 17.9199H13.5342L17.9502 36.3877H43.8076L47.332 28.6348C47.5607 28.1324 48.1527 27.9104 48.6553 28.1387C49.1579 28.3673 49.3809 28.9602 49.1523 29.4629L45.0957 38.3877H16.3721L8.0332 3.5166H2C1.44788 3.5166 1.00026 3.06866 1 2.5166C1 1.96432 1.44772 1.5166 2 1.5166H9.61133L13.0557 15.9199ZM39.9023 0C40.4546 0 40.9023 0.447715 40.9023 1V3.15527C42.0608 3.23392 43.1283 3.51478 44.0986 4.00879H44.0996C44.9971 4.44802 45.7757 4.96129 46.4287 5.55078C46.9111 5.98665 46.8986 6.69952 46.5078 7.15039C46.0438 7.6855 45.2593 7.67553 44.7676 7.25781C44.2666 6.8322 43.7054 6.47476 43.083 6.1875L43.0742 6.18359C42.2555 5.78477 41.3088 5.57818 40.2236 5.57812C38.8123 5.57816 37.7098 5.92476 36.875 6.57617C36.0841 7.21088 35.6875 8.05129 35.6875 9.14844C35.6875 9.93849 35.8724 10.5357 36.2021 10.9795C36.5985 11.4795 37.0653 11.8837 37.6035 12.1953L38.0547 12.4414C38.4995 12.6786 38.9244 12.8892 39.3281 13.0742L42.7705 14.5889H42.7695C43.6492 14.9695 44.461 15.4226 45.2031 15.9492H45.2021C45.9914 16.4701 46.6243 17.1401 47.0967 17.9551H47.0977C47.6217 18.7936 47.8633 19.8486 47.8633 21.083C47.8632 22.3244 47.5388 23.464 46.8887 24.4893L46.8857 24.4941C46.2328 25.4986 45.3079 26.2791 44.1328 26.8428C43.1816 27.3082 42.1019 27.5737 40.9023 27.6562V29.0488C40.9022 29.601 40.4546 30.0488 39.9023 30.0488C39.3501 30.0488 38.9025 29.601 38.9023 29.0488V27.6309C37.6466 27.51 36.4925 27.192 35.4463 26.6689C34.3398 26.1156 33.3658 25.4367 32.5293 24.6309C32.035 24.1542 32.0633 23.3939 32.5029 22.9248C33.0116 22.3822 33.8411 22.4182 34.3438 22.8896C35.007 23.512 35.7653 24.0369 36.6191 24.4639C37.697 24.9798 38.8502 25.2392 40.085 25.2393C41.753 25.2393 43.0062 24.8336 43.9023 24.0801C44.7999 23.3253 45.2421 22.374 45.2422 21.1865C45.2422 20.3042 45.0688 19.6489 44.7686 19.1797C44.4452 18.6745 44.0097 18.2562 43.4521 17.9258L43.4424 17.9199L43.4336 17.9141C42.864 17.5417 42.2121 17.1988 41.4766 16.8867L41.4668 16.8828L38.0176 15.3301L38.0117 15.3281C37.35 15.0209 36.6448 14.6439 35.8975 14.2002L35.8818 14.1904C35.1141 13.695 34.4584 13.0637 33.917 12.3008L33.9121 12.293L33.9072 12.2861C33.3578 11.4488 33.1006 10.4148 33.1006 9.21777C33.1006 8.02447 33.4127 6.95839 34.0488 6.04004L34.2949 5.70117C34.8942 4.93451 35.6653 4.3341 36.5977 3.90039C37.3121 3.56003 38.0817 3.33649 38.9023 3.22168V1C38.9023 0.447715 39.3501 0 39.9023 0ZM37.4658 26.8818C37.7488 26.9526 38.0389 27.0105 38.3359 27.0566C38.0389 27.0105 37.7488 26.9526 37.4658 26.8818ZM43.499 26.5801C43.0756 26.7535 42.6248 26.8901 42.1465 26.9893C42.4657 26.9232 42.7726 26.8404 43.0674 26.7412C43.2146 26.6916 43.3588 26.6379 43.5 26.5801H43.499ZM43.9141 26.3945L44.2676 26.2139C44.274 26.2104 44.2797 26.2057 44.2861 26.2021C44.1653 26.2685 44.0417 26.3334 43.9141 26.3945ZM44.418 26.126C44.5002 26.0785 44.5812 26.0305 44.6602 25.9805C44.5812 26.0305 44.5002 26.0785 44.418 26.126ZM44.7656 25.9111C44.8438 25.8596 44.9203 25.807 44.9951 25.7529C44.9203 25.807 44.8438 25.8596 44.7656 25.9111ZM45.1221 25.6592C45.1847 25.6115 45.2455 25.5623 45.3057 25.5127C45.2455 25.5623 45.1847 25.6115 45.1221 25.6592ZM45.4316 25.4062C45.4987 25.3478 45.5641 25.2884 45.6279 25.2275C45.5641 25.2885 45.4986 25.3478 45.4316 25.4062ZM45.71 25.1475C45.7796 25.0783 45.8474 25.0079 45.9131 24.9355C45.8475 25.0079 45.7796 25.0783 45.71 25.1475ZM43.8018 24.7783C43.8104 24.7726 43.8195 24.7675 43.8281 24.7617L43.8408 24.7529C43.828 24.7617 43.8147 24.7697 43.8018 24.7783ZM44.4004 24.3066L44.4082 24.3008C44.436 24.275 44.4623 24.2479 44.4893 24.2217C44.46 24.2501 44.4306 24.2787 44.4004 24.3066ZM32.791 24.1689C32.806 24.1903 32.824 24.2095 32.8418 24.2295C32.824 24.2095 32.806 24.1904 32.791 24.1689ZM46.4658 24.2217L46.6514 23.9082C46.654 23.9035 46.6556 23.8983 46.6582 23.8936C46.5977 24.004 46.5341 24.1139 46.4658 24.2217ZM32.7295 24.0596C32.7372 24.0767 32.7466 24.0928 32.7559 24.1094C32.7466 24.0928 32.7372 24.0767 32.7295 24.0596ZM32.6865 23.9326C32.6912 23.9528 32.6975 23.9724 32.7041 23.9922C32.6976 23.9724 32.6912 23.9528 32.6865 23.9326ZM32.6689 23.8066C32.6701 23.8299 32.6724 23.8529 32.6758 23.876C32.6724 23.8529 32.6701 23.8299 32.6689 23.8066ZM32.6748 23.6768C32.6716 23.7005 32.6688 23.7242 32.668 23.748C32.6688 23.7242 32.6716 23.7005 32.6748 23.6768ZM46.7461 23.7227C46.7768 23.6619 46.8076 23.6015 46.8359 23.54C46.8075 23.6015 46.7768 23.6619 46.7461 23.7227ZM32.7031 23.5518C32.696 23.5742 32.6885 23.5963 32.6836 23.6191C32.6885 23.5963 32.696 23.5742 32.7031 23.5518ZM32.7236 23.4902C32.7228 23.4921 32.7225 23.4942 32.7217 23.4961C32.7379 23.4565 32.757 23.4178 32.7803 23.3809L32.7236 23.4902ZM46.9053 23.3809C46.933 23.3155 46.9592 23.2498 46.9844 23.1836C46.9592 23.2498 46.933 23.3155 46.9053 23.3809ZM33.0576 23.1201C33.0115 23.1452 32.9678 23.1756 32.9268 23.2109C32.9678 23.1756 33.0115 23.1452 33.0576 23.1201ZM47.0459 23.0156C47.0708 22.9435 47.0943 22.871 47.1162 22.7979C47.0943 22.871 47.0708 22.9435 47.0459 23.0156ZM47.1553 22.6621C47.1742 22.5926 47.1907 22.5225 47.207 22.4521C47.1907 22.5225 47.1742 22.5926 47.1553 22.6621ZM47.2471 22.2734C47.2628 22.194 47.2756 22.1138 47.2881 22.0332C47.2756 22.1138 47.2628 22.194 47.2471 22.2734ZM47.3086 21.9014C47.3257 21.7719 47.3398 21.6411 47.3486 21.5088C47.3398 21.6411 47.3257 21.7719 47.3086 21.9014ZM45.1826 16.5449H45.1836H45.1826ZM36.9277 12.3535C37.067 12.4526 37.211 12.5457 37.3604 12.6318C37.211 12.5457 37.067 12.4526 36.9277 12.3535ZM34.166 11.7451C34.2159 11.8366 34.2687 11.9256 34.3252 12.0117C34.3884 12.1008 34.4531 12.1883 34.5195 12.2734C34.453 12.1883 34.3885 12.1009 34.3252 12.0117C34.2687 11.9257 34.2159 11.8365 34.166 11.7451ZM35.9756 11.4893H35.9766H35.9756ZM34.0254 11.46C34.05 11.5152 34.0777 11.5686 34.1045 11.6221C34.0777 11.5686 34.05 11.5152 34.0254 11.46ZM33.9033 11.1533C33.9255 11.2157 33.95 11.2766 33.9746 11.3369C33.95 11.2766 33.9255 11.2157 33.9033 11.1533ZM33.8027 10.8291C33.8214 10.8972 33.841 10.9643 33.8623 11.0303C33.8409 10.9643 33.8215 10.8972 33.8027 10.8291ZM33.7207 10.4814C33.7349 10.5525 33.7498 10.6225 33.7666 10.6914C33.7498 10.6225 33.7349 10.5525 33.7207 10.4814ZM33.6523 10.0635C33.6651 10.1667 33.6796 10.2679 33.6973 10.3672C33.6796 10.2679 33.6651 10.1667 33.6523 10.0635ZM33.6406 9.97754C33.6418 9.98799 33.6433 9.99838 33.6445 10.0088C33.6304 9.88559 33.6195 9.75964 33.6123 9.63086L33.6406 9.97754ZM35.1924 8.91895C35.1888 8.99445 35.1875 9.07096 35.1875 9.14844C35.1875 9.07097 35.1888 8.99444 35.1924 8.91895ZM33.6494 8.45703C33.6392 8.53528 33.633 8.61452 33.626 8.69434C33.633 8.61452 33.6392 8.53528 33.6494 8.45703ZM35.2734 8.26465H35.2744H35.2734ZM33.71 8.09961C33.6952 8.17276 33.6826 8.24668 33.6709 8.32129C33.6826 8.24668 33.6952 8.17276 33.71 8.09961ZM33.8008 7.72656C33.7818 7.79363 33.7643 7.8613 33.748 7.92969C33.7643 7.86131 33.7818 7.79363 33.8008 7.72656ZM35.5322 7.47559H35.5332H35.5322ZM33.9102 7.3877C33.8833 7.46119 33.8573 7.53517 33.834 7.61035C33.8573 7.53517 33.8833 7.46118 33.9102 7.3877ZM34.0654 7.01465C34.0253 7.10058 33.9861 7.18695 33.9512 7.27539C33.9861 7.18696 34.0253 7.10057 34.0654 7.01465ZM45.5352 7.05664C45.5603 7.05865 45.5852 7.06104 45.6104 7.06055C45.5852 7.06107 45.5603 7.05863 45.5352 7.05664ZM45.6689 7.05469C45.6945 7.05215 45.72 7.05012 45.7451 7.04492C45.72 7.05015 45.6945 7.05213 45.6689 7.05469ZM45.4209 7.03906C45.4366 7.04274 45.452 7.04712 45.4678 7.0498C45.452 7.04714 45.4366 7.04272 45.4209 7.03906ZM45.8027 7.0293C45.8276 7.02195 45.852 7.01399 45.876 7.00391C45.852 7.014 45.8276 7.02193 45.8027 7.0293ZM45.292 6.99609C45.3058 7.00203 45.3189 7.00954 45.333 7.01465C45.3189 7.00955 45.3059 7.00203 45.292 6.99609ZM45.9297 6.97754C45.9525 6.96549 45.9745 6.95225 45.9961 6.9375C45.9745 6.95225 45.9525 6.96548 45.9297 6.97754ZM36.2441 6.46973C36.0931 6.61963 35.9585 6.77858 35.8398 6.94629L35.9639 6.78223C36.0933 6.62045 36.2386 6.46723 36.4004 6.32324L36.2441 6.46973ZM34.2607 6.63672C34.2017 6.73796 34.1468 6.84124 34.0957 6.94629C34.1468 6.84125 34.2017 6.73795 34.2607 6.63672ZM46.1406 6.80762C46.1634 6.77988 46.1834 6.75083 46.2012 6.7207C46.1834 6.75083 46.1634 6.77987 46.1406 6.80762ZM46.2139 6.69531C46.2286 6.66775 46.2422 6.64018 46.2529 6.61133C46.2422 6.64019 46.2286 6.66775 46.2139 6.69531ZM46.2646 6.57617C46.2733 6.54839 46.2803 6.52056 46.2852 6.49219C46.2803 6.52055 46.2732 6.54839 46.2646 6.57617ZM46.2881 6.46875C46.2922 6.43843 46.2941 6.40832 46.2939 6.37793C46.2941 6.40831 46.2922 6.43844 46.2881 6.46875ZM46.293 6.34375C46.2913 6.31572 46.2875 6.28827 46.2822 6.26074C46.2876 6.28825 46.2913 6.31575 46.293 6.34375ZM46.2773 6.23145C46.2689 6.19671 46.2576 6.16288 46.2432 6.12988C46.2576 6.16284 46.2689 6.19676 46.2773 6.23145ZM36.9336 5.92383C36.8072 6.00429 36.6852 6.09067 36.5674 6.18262L36.748 6.04883C36.8701 5.96271 36.9963 5.88229 37.127 5.80762L36.9336 5.92383ZM45.8574 5.7168H45.8584H45.8574ZM34.9004 5.75684C34.853 5.81048 34.8081 5.86628 34.7627 5.92188C34.8081 5.86628 34.853 5.81048 34.9004 5.75684ZM35.1484 5.49512C35.1021 5.54097 35.0573 5.58827 35.0127 5.63574C35.0573 5.58826 35.1021 5.54098 35.1484 5.49512ZM38.6582 5.2334C38.2558 5.31961 37.8807 5.44253 37.5322 5.60059L37.7451 5.50977C38.1043 5.36604 38.4903 5.25846 38.9033 5.18652L38.6582 5.2334ZM35.4014 5.26074C35.3586 5.29805 35.3169 5.33648 35.2754 5.375C35.3169 5.33647 35.3586 5.29806 35.4014 5.26074ZM39.6895 5.09473C39.5065 5.10621 39.3282 5.12389 39.1543 5.14746L39.4121 5.11719C39.5034 5.10812 39.5958 5.10062 39.6895 5.09473ZM35.6973 5.02051C35.6454 5.05982 35.5942 5.09974 35.5439 5.14062C35.5942 5.09973 35.6454 5.05983 35.6973 5.02051ZM35.9727 4.8252C35.9251 4.85696 35.8773 4.88795 35.8311 4.9209C35.8773 4.88794 35.9251 4.85697 35.9727 4.8252ZM36.1475 4.70996C36.1436 4.71234 36.1396 4.71441 36.1357 4.7168C36.2369 4.65395 36.3408 4.59394 36.4473 4.53613L36.1475 4.70996ZM43.8789 4.45801C43.7555 4.39498 43.63 4.33612 43.5029 4.28027C43.63 4.33611 43.7555 4.39497 43.8789 4.45801ZM43.3164 4.20312C43.2446 4.17392 43.1725 4.14513 43.0996 4.11816C43.1726 4.14512 43.2446 4.17393 43.3164 4.20312ZM42.9121 4.05273C42.838 4.02759 42.7637 4.00239 42.6885 3.97949C42.7637 4.00237 42.838 4.02761 42.9121 4.05273ZM42.5049 3.92676C42.4196 3.90317 42.3337 3.88112 42.2471 3.86035C42.3337 3.88109 42.4196 3.9032 42.5049 3.92676ZM42.0781 3.82129C41.99 3.80224 41.9011 3.78572 41.8115 3.76953C41.9011 3.7857 41.99 3.80226 42.0781 3.82129ZM41.6348 3.73828C41.5235 3.72068 41.4112 3.70566 41.2979 3.69238C41.4112 3.70564 41.5235 3.7207 41.6348 3.73828ZM40.8281 3.65039C40.9524 3.65826 41.0755 3.66689 41.1973 3.67969C41.0755 3.66687 40.9524 3.65729 40.8281 3.64941V3.65039Z" fill="black"/>
</g>
<defs>
<clipPath id="clip0_3086_8733">
<rect width="50" height="50" fill="white"/>
</clipPath>
</defs>
</svg>
