<svg width="50" height="50" viewBox="0 0 50 50" fill="none" xmlns="http://www.w3.org/2000/svg">
<path d="M24.6943 0C26.1689 0.000225878 27.5137 0.913169 27.9326 2.25879H32.5752C33.8131 2.25879 34.8163 3.26213 34.8164 4.5V5.40625H41.5879C42.5798 5.40651 43.3836 6.21123 43.3838 7.20312V48.2021C43.3838 49.1942 42.5799 49.9997 41.5879 50H7.7959C6.80399 49.9996 6 49.1941 6 48.2021V7.20312C6.0002 6.2113 6.80411 5.40661 7.7959 5.40625H15.0156V4.5C15.0157 3.26224 16.0191 2.25895 17.2568 2.25879H21.4551C21.8742 0.913051 23.2196 0 24.6943 0ZM7.79102 7.20117V48.2041C7.79103 48.2041 7.79181 48.2059 7.79297 48.207C7.79384 48.2079 7.79481 48.2089 7.79492 48.209H41.5889C41.5889 48.209 41.5899 48.2079 41.5908 48.207C41.592 48.2059 41.5928 48.2041 41.5928 48.2041V7.20117L41.5889 7.19727H34.8164V8.10449C34.8162 9.34229 33.813 10.3457 32.5752 10.3457H17.2568C16.0191 10.3455 15.0158 9.34219 15.0156 8.10449V7.19727H7.79492L7.79102 7.20117ZM28.9717 44.5928H11.4004V42.8018H28.9717V44.5928ZM37.9824 38.7412H11.4004V36.9502H37.9824V38.7412ZM37.9824 33.7852H11.4004V31.9941H37.9824V33.7852ZM37.9824 28.8291H11.4004V27.0391H37.9824V28.8291ZM37.9824 23.873H11.4004V22.082H37.9824V23.873ZM37.9824 18.917H11.4004V17.126H37.9824V18.917ZM37.9824 13.9609H11.4004V12.1709H37.9824V13.9609ZM17.2568 4.04883C17.0082 4.04899 16.8067 4.25135 16.8066 4.5V8.10449L16.8154 8.19531C16.8575 8.40039 17.0393 8.55455 17.2568 8.55469H32.5752C32.7928 8.55469 32.9744 8.40041 33.0166 8.19531L33.0254 8.10449V4.5C33.0253 4.25125 32.824 4.04883 32.5752 4.04883H17.2568ZM24.6943 1.79102C24.1918 1.79102 23.7813 1.98158 23.5039 2.25879H25.8838C25.6067 1.98165 25.1966 1.79115 24.6943 1.79102Z" fill="black"/>
</svg>
