<svg width="50" height="50" viewBox="0 0 50 50" fill="none" xmlns="http://www.w3.org/2000/svg">
<g clip-path="url(#clip0_3086_10871)">
<path d="M28.6748 9.85059C28.9955 9.92257 29.3145 10.0417 29.6152 10.1807C30.1172 10.4127 30.6282 10.7272 31.1084 11.0625C31.8867 11.606 32.6218 12.2341 33.1582 12.7383L39.4805 10.209L43.7773 18.0879L38.6396 21.9414V25.2725C39.0053 25.2329 39.3767 25.2119 39.7529 25.2119C45.4124 25.2119 50.0008 29.7995 50.001 35.459C50.001 41.1186 45.4125 45.707 39.7529 45.707C35.6646 45.7069 32.1375 43.3115 30.4932 39.8486V40.1689H29.2842L27.3887 47.5635H18.2168L16.9756 40.1172C15.9672 39.9591 14.9419 39.4492 14.0801 38.9023C13.2254 38.36 12.4542 37.7319 11.9014 37.2236L4.93555 40.3896L0.667969 31.8555L1.13086 31.4951L6.21094 27.543C5.86121 26.6582 5.81922 25.5672 5.87793 24.6064C5.93771 23.6288 6.11194 22.6597 6.28906 21.9219L0 18.1494L4.94434 8.96777L5.54102 9.2168L12.4346 12.0889C13.0399 11.4116 13.8864 10.8389 14.6846 10.3926C15.4996 9.93689 16.3343 9.57501 16.9688 9.33887L18.2373 3H27.4297L28.6748 9.85059ZM18.21 10.4238L17.8164 10.5547C17.2376 10.7477 16.2939 11.1313 15.3828 11.6406C14.4504 12.162 13.6509 12.762 13.2559 13.3545L12.9297 13.8438L5.58887 10.7852L1.90527 17.625L7.95312 21.2529L7.80273 21.7803C7.60878 22.4591 7.37287 23.5785 7.30469 24.6934C7.23385 25.8523 7.35784 26.8212 7.70996 27.3496L8.07812 27.9033L2.4707 32.2646L5.59766 38.5176L12.2002 35.5166L12.5498 35.8672C13.0317 36.349 13.8855 37.0854 14.8467 37.6953C15.8313 38.32 16.8158 38.7391 17.5898 38.7393H18.1963L19.4277 46.1328H26.2793L28.1758 38.7393H30.0459C29.6979 37.7091 29.5059 36.6066 29.5059 35.459C29.506 30.6774 32.7807 26.6603 37.21 25.5293V21.2266L41.9297 17.6865L38.833 12.0078L33.2607 14.2373L32.8232 14.4131L32.4893 14.0791C31.9989 13.5888 31.1687 12.8473 30.291 12.2344C29.8523 11.928 29.4159 11.6636 29.0156 11.4785C28.6049 11.2886 28.2854 11.208 28.0654 11.208H27.4688L26.2373 4.42969H19.4092L18.21 10.4238ZM39.7529 26.6416C34.8832 26.6418 30.9357 30.5893 30.9355 35.459C30.9356 40.2528 34.7607 44.1536 39.5254 44.2744L39.7529 44.2773C44.5466 44.2773 48.4473 40.452 48.5684 35.6875L48.5713 35.459C48.5711 30.5891 44.6228 26.6416 39.7529 26.6416ZM44.5918 31.46C44.8766 31.1867 45.3292 31.1957 45.6025 31.4805C45.8755 31.7651 45.8662 32.2169 45.582 32.4902L37.5146 40.2344L34.9023 37.6221C34.6236 37.343 34.6236 36.8904 34.9023 36.6113C35.1815 36.3322 35.6349 36.3323 35.9141 36.6113L37.5352 38.2334L44.5918 31.46ZM22.5205 18.3066C26.7132 18.3066 30.1131 21.7049 30.1133 25.8975C30.1133 30.0902 26.7132 33.4893 22.5205 33.4893C18.3281 33.4889 14.9297 30.09 14.9297 25.8975C14.9298 21.7051 18.3282 18.307 22.5205 18.3066ZM22.5205 19.7354C19.1178 19.7357 16.3595 22.4947 16.3594 25.8975C16.3594 29.1943 18.9483 31.8867 22.2041 32.0518L22.5205 32.0596C25.8172 32.0596 28.5097 29.4705 28.6748 26.2148L28.6836 25.8975C28.6834 22.4945 25.9235 19.7354 22.5205 19.7354Z" fill="black"/>
</g>
<defs>
<clipPath id="clip0_3086_10871">
<rect width="50" height="50" fill="white"/>
</clipPath>
</defs>
</svg>
