<svg width="50" height="50" viewBox="0 0 50 50" fill="none" xmlns="http://www.w3.org/2000/svg">
<path d="M37.0068 30.2471C40.7697 30.2471 43.8203 33.2977 43.8203 37.0605C43.8202 39.0842 42.935 40.8983 41.5352 42.1455C41.9544 42.4275 42.2303 42.9062 42.2305 43.4492C42.2304 44.1718 41.7416 44.7788 41.0771 44.9619C41.2043 45.1887 41.2773 45.45 41.2773 45.7285C41.2773 46.489 40.7364 47.1228 40.0186 47.2676C40.0469 47.7355 39.9565 48.3534 39.5879 48.8955C39.1391 49.5553 38.3489 49.9999 37.1641 50C35.924 50 35.1343 49.4286 34.71 48.6709C34.4598 48.2239 34.3475 47.7341 34.3145 47.2988H34.3057C33.4383 47.2988 32.7344 46.5958 32.7344 45.7285C32.7344 45.4503 32.8066 45.1886 32.9336 44.9619C32.2695 44.7786 31.7813 44.1715 31.7812 43.4492C31.7814 42.9056 32.0576 42.4264 32.4775 42.1445C31.0783 40.8974 30.1935 39.0837 30.1934 37.0605C30.1934 33.2977 33.244 30.2471 37.0068 30.2471ZM35.5557 47.2988C35.5851 47.5581 35.6559 47.8322 35.7881 48.0684C35.994 48.4359 36.3707 48.7646 37.1641 48.7646C38.0115 48.7645 38.3859 48.4687 38.5674 48.2021C38.7609 47.9175 38.8073 47.5577 38.7822 47.2988H35.5557ZM34.3057 45.3926C34.1201 45.3926 33.9697 45.543 33.9697 45.7285C33.9698 45.914 34.1202 46.0645 34.3057 46.0645H39.707C39.8923 46.0642 40.0419 45.9138 40.042 45.7285C40.042 45.5431 39.8924 45.3928 39.707 45.3926H34.3057ZM40.5098 0C41.4837 9.79195e-05 42.2734 0.789688 42.2734 1.76367V28.3496H40.5098V1.76367H8.76367V42.3281H29.0459V44.0918H8.76367C7.7897 44.0918 7.00012 43.3021 7 42.3281V1.76367C7 0.789627 7.78963 0 8.76367 0H40.5098ZM33.3516 43.1143C33.1663 43.1144 33.0159 43.264 33.0156 43.4492C33.0157 43.6346 33.1662 43.785 33.3516 43.7852H40.6602C40.8455 43.7849 40.9951 43.6346 40.9951 43.4492C40.9949 43.264 40.8453 43.1145 40.6602 43.1143H33.3516ZM37.0068 31.4814C33.9258 31.4815 31.4277 33.9795 31.4277 37.0605C31.4279 39.1161 32.5415 40.9107 34.1992 41.8789H35.2764V39.9932L34.3164 38.8965C34.0922 38.64 34.1187 38.2498 34.375 38.0254C34.6315 37.8014 35.0207 37.8277 35.2451 38.084L36.3574 39.3545C36.4557 39.4669 36.5107 39.6114 36.5107 39.7607V41.8789H37.6592V39.7607C37.6593 39.6114 37.7142 39.4669 37.8125 39.3545L38.9248 38.084C39.1492 37.8277 39.5384 37.8014 39.7949 38.0254C40.0512 38.2498 40.0777 38.64 39.8535 38.8965L38.8936 39.9932V41.8789H39.8154C41.4729 40.9106 42.5848 39.1159 42.585 37.0605C42.585 33.9795 40.0878 31.4815 37.0068 31.4814ZM18.9502 36.7939C18.9698 36.7961 19.0139 36.802 19.0645 36.8203C19.0959 36.8317 19.2474 36.8882 19.3232 37.0625C19.4163 37.277 19.3128 37.4526 19.2695 37.5098C19.2246 37.569 19.1743 37.603 19.1562 37.6152C19.0134 37.7116 18.8647 37.7954 18.7148 37.873C19.0734 37.9067 19.4452 37.9082 19.8223 37.8945C19.8422 37.8938 19.8798 37.8893 19.9551 37.8789C20.0203 37.8699 20.1075 37.8569 20.1963 37.8496C20.2844 37.8424 20.3927 37.8382 20.502 37.8516C20.5811 37.8613 20.6825 37.8825 20.7832 37.9336L20.8838 37.9961L20.9727 38.0781C20.9937 38.1015 21.0112 38.1248 21.0244 38.1426C21.0276 38.1469 21.0311 38.151 21.0342 38.1553C21.8308 38.2329 22.9018 38.0664 23.7002 37.8467C23.9348 37.7824 24.1776 37.9207 24.2422 38.1553C24.3066 38.3899 24.1683 38.6327 23.9336 38.6973C23.0402 38.9431 21.7524 39.1514 20.7705 39.0127C20.6164 38.9909 20.515 38.905 20.4688 38.8604C20.4192 38.8125 20.382 38.7603 20.3623 38.7324C20.3609 38.7305 20.3587 38.7284 20.3574 38.7266C20.3345 38.7262 20.3045 38.7255 20.2676 38.7285C20.2077 38.7334 20.1456 38.7422 20.0752 38.752C20.0147 38.7603 19.9286 38.7727 19.8545 38.7754C19.2657 38.7967 18.6251 38.7899 18.001 38.6572C17.9167 38.6392 17.8442 38.6069 17.8047 38.5889H17.8037C17.5519 38.7272 17.2556 38.7903 17.0156 38.8271C16.8644 38.8503 16.7134 38.8668 16.5811 38.8799C16.4437 38.8935 16.3331 38.9042 16.2402 38.917C16.0049 38.9495 15.5139 39.0205 15.1445 39.0625C14.971 39.0822 14.7869 39.1011 14.6719 39.0977C14.6472 39.0969 14.5854 39.0946 14.5205 39.0762C14.4953 39.069 14.4052 39.0418 14.3232 38.9619C14.2756 38.9154 14.2224 38.843 14.1992 38.7432C14.1758 38.6418 14.1919 38.5497 14.2188 38.4805C14.2644 38.3631 14.3466 38.2988 14.3682 38.2822C14.4008 38.2571 14.432 38.2404 14.4512 38.2305C14.4907 38.21 14.5329 38.1926 14.5684 38.1797C14.7128 38.1272 14.8616 38.0801 15.0117 38.0361C14.8557 38.0402 14.7011 38.0442 14.5498 38.0498C13.7937 38.0777 12.9901 38.1014 12.1865 37.9688C11.9465 37.9291 11.784 37.7029 11.8232 37.4629C11.8629 37.2229 12.0891 37.0594 12.3291 37.0986C13.0336 37.215 13.7546 37.1971 14.5176 37.1689C15.6459 37.1273 16.7372 37.1443 17.7832 36.9639C17.8036 36.9603 17.8813 36.946 18 36.9238C18.1133 36.9026 18.2563 36.8767 18.3926 36.8535C18.5256 36.8309 18.6637 36.8083 18.7646 36.7979C18.8025 36.794 18.8796 36.7864 18.9502 36.7939ZM28.7666 32.8262H11.4082V31.0635H28.7666V32.8262ZM37.585 27.9463H11.4082V26.1826H37.585V27.9463ZM37.585 23.0654H11.4082V21.3027H37.585V23.0654ZM37.585 18.1846H11.4082V16.4219H37.585V18.1846ZM37.585 13.3047H11.4082V11.541H37.585V13.3047ZM30.8096 7.05469H17.582V5.29102H30.8096V7.05469Z" fill="black"/>
</svg>
