<svg width="50" height="50" viewBox="0 0 50 50" fill="none" xmlns="http://www.w3.org/2000/svg">
<path d="M32.3662 20.6348C40.4752 20.6348 47.0488 27.2084 47.0488 35.3174C47.0488 43.4263 40.4751 50 32.3662 50C24.2573 50 17.6836 43.4263 17.6836 35.3174C17.6836 27.2084 24.2572 20.6348 32.3662 20.6348ZM32.3662 22.4697C25.2709 22.4697 19.5186 28.222 19.5186 35.3174C19.5186 42.4127 25.2709 48.165 32.3662 48.165C39.4615 48.165 45.2138 42.4127 45.2139 35.3174C45.2139 28.222 39.4615 22.4697 32.3662 22.4697ZM37.8711 0C38.8846 0 39.7059 0.821506 39.7061 1.83496V19.7979H37.8711V1.83496H4.83496V44.0479H18.6006V45.8828H4.83496C3.82154 45.8826 3.00006 45.0613 3 44.0479V1.83496C3.0002 0.821626 3.82163 0.00019548 4.83496 0H37.8711ZM32.6172 25.583C33.124 25.583 33.5352 25.9942 33.5352 26.501V27.9248C34.4307 28.1509 35.1457 28.5076 35.7158 29.0186C36.3284 29.5676 36.7117 30.2377 36.9951 30.9463C37.183 31.4167 36.9538 31.9505 36.4834 32.1387C36.013 32.3267 35.4794 32.0981 35.291 31.6279C35.0706 31.077 34.8233 30.6824 34.4912 30.3848C34.1619 30.0897 33.6861 29.8331 32.9209 29.6631C32.2893 29.5229 31.4599 29.6581 30.7969 30.0645C30.1567 30.4572 29.7549 31.0438 29.7549 31.791C29.755 32.7559 30.0191 33.2857 30.3623 33.5928C30.7255 33.9174 31.3472 34.1464 32.3643 34.1465C33.7465 34.1466 35.0122 34.7124 35.8252 35.7139C36.6491 36.7291 36.9454 38.1153 36.5215 39.5996C36.1782 40.8009 35.3163 41.5539 34.3994 41.9521C34.1195 42.0737 33.8274 42.1612 33.5352 42.2246V43.6309C33.5348 44.1374 33.1238 44.5479 32.6172 44.5479C32.1107 44.5477 31.7006 44.1373 31.7002 43.6309V42.2637C31.6935 42.2624 31.6863 42.2621 31.6797 42.2607L31.6709 42.2588L31.6611 42.2568C31.1901 42.1521 30.4814 41.902 29.7734 41.4824C29.066 41.0631 28.2964 40.4366 27.7891 39.5488C27.5379 39.1089 27.6902 38.5483 28.1299 38.2969C28.5698 38.0456 29.1303 38.1989 29.3818 38.6387C29.6804 39.1611 30.1708 39.5847 30.71 39.9043C31.24 40.2183 31.7584 40.3961 32.0459 40.4619C32.4939 40.5502 33.1196 40.5066 33.668 40.2686C34.1991 40.0379 34.5964 39.6572 34.7568 39.0957C35.0281 38.146 34.8199 37.3892 34.3994 36.8711C33.9681 36.3398 33.2484 35.9816 32.3643 35.9814C31.115 35.9814 29.9728 35.7065 29.1396 34.9619C28.2867 34.1993 27.92 33.0924 27.9199 31.791C27.9199 30.2713 28.778 29.1489 29.8379 28.499C30.4017 28.1534 31.047 27.9242 31.7002 27.8271V26.501C31.7002 25.9943 32.1105 25.5832 32.6172 25.583ZM14.9277 39.1846H10.3398V37.8994H14.9277V39.1846ZM14.9277 32.1182H10.3398V30.2832H14.9277V32.1182ZM16.3047 27.5293H10.3398V25.6943H16.3047V27.5293ZM21.3516 22.9414H10.3398V21.1064H21.3516V22.9414ZM32.3633 18.3535H10.3398V16.5186H32.3633V18.3535ZM32.3633 13.7646H10.3398V11.9297H32.3633V13.7646ZM32.3633 9.17676H10.3398V7.3418H32.3633V9.17676Z" fill="black"/>
</svg>
