<svg width="50" height="50" viewBox="0 0 50 50" fill="none" xmlns="http://www.w3.org/2000/svg">
<path fill-rule="evenodd" clip-rule="evenodd" d="M40.5729 2.61124L40.5317 2.71204C40.5315 2.71262 40.5312 2.71319 40.531 2.71377C39.8571 4.38425 38.5802 5.72803 36.963 6.46842L36.9595 6.47002L36.6094 6.62868L37.0187 6.81489C38.597 7.53514 39.8531 8.83173 40.5391 10.4489C40.5392 10.4492 40.5393 10.4495 40.5394 10.4498L40.5719 10.5257L40.6052 10.4476L40.6063 10.4481C41.2917 8.83121 42.547 7.5345 44.1246 6.8137L44.1275 6.81237L44.5334 6.62852L44.1836 6.46975L44.1803 6.46824C42.5636 5.72721 41.2874 4.3831 40.6141 2.71259C40.6138 2.71181 40.6135 2.71103 40.6132 2.71025L40.5729 2.61124ZM41.3534 10.7789L42.4679 11.2723L42.1374 12.0471C42.0078 12.3587 41.7913 12.625 41.5147 12.8128C41.2354 13.0023 40.9074 13.1034 40.5719 13.1034C40.2363 13.1034 39.9083 13.0023 39.629 12.8128C39.3523 12.6249 39.1358 12.3586 39.0062 12.0468L38.6749 11.2702C38.1905 10.1279 37.3034 9.21207 36.1887 8.70325C36.1886 8.70318 36.1889 8.70332 36.1887 8.70325L35.1573 8.23396L35.1522 8.23157C34.8511 8.09052 34.5961 7.8645 34.4174 7.5803C34.2386 7.29609 34.1436 6.96564 34.1436 6.62813C34.1436 6.29062 34.2386 5.96018 34.4174 5.67597C34.5961 5.39177 34.8511 5.16575 35.1522 5.0247L35.1579 5.02199L36.1303 4.5813C36.1309 4.58104 36.1315 4.58077 36.1321 4.58051C37.2747 4.05683 38.1769 3.10689 38.6528 1.92616L38.6545 1.922L38.9952 1.08735C39.1207 0.768384 39.3366 0.494562 39.6155 0.300873C39.8978 0.104846 40.2316 0 40.5732 0C40.9149 0 41.2486 0.104848 41.5309 0.300873C41.8099 0.494614 42.0258 0.768542 42.1514 1.08766L42.4924 1.9252C42.9679 3.10622 43.8697 4.0566 45.0122 4.58078C45.0127 4.58101 45.0133 4.58125 45.0138 4.58148L45.9885 5.02398L45.995 5.02705C46.2951 5.16852 46.5492 5.39451 46.7273 5.67833C46.9054 5.96215 47 6.29196 47 6.62882C47 6.96569 46.9054 7.2955 46.7273 7.57931C46.5492 7.86314 46.2951 8.08913 45.995 8.23059L45.9881 8.23383L44.9558 8.70148C44.9554 8.70166 44.955 8.70184 44.9546 8.70203C43.8405 9.21142 42.9542 10.1275 42.4704 11.2698L41.3534 10.7789ZM24.0645 7.96575C19.0789 7.0558 13.8665 7.78219 11.0195 10.1149C7.73757 12.8039 6.09088 15.5437 5.41686 18.1473C4.74043 20.7602 5.01727 23.3386 5.75569 25.7409C6.49603 28.1495 7.68859 30.3426 8.79841 32.1576C9.18672 32.7926 9.55604 33.3675 9.89432 33.894C10.0422 34.1243 10.1842 34.3453 10.3193 34.5581C10.7386 35.2187 11.1278 35.8543 11.3259 36.3588C11.8885 37.7916 12.1808 40.2497 12.3393 42.5942C12.4682 44.5003 12.5144 46.4434 12.5173 47.931H28.6773L27.9891 44.5818H25.7216C25.1607 44.5818 24.7061 44.1186 24.7061 43.5473C24.7061 42.976 25.1607 42.5128 25.7216 42.5128H32.6487C34.3345 42.5128 34.8748 42.076 35.0682 41.8163C35.3048 41.4987 35.3442 41.0599 35.3442 40.3972V34.853C35.3442 34.2816 35.7988 33.8185 36.3597 33.8185H39.0811C39.0868 33.8185 39.091 33.8182 39.0938 33.8179C39.1021 33.8111 39.1252 33.7895 39.1563 33.7387C39.1944 33.6764 39.2307 33.5923 39.2593 33.4947C39.2689 33.4618 39.2768 33.43 39.2833 33.4003L34.4436 14.6584C33.8466 13.009 32.5338 11.5698 30.696 10.4139C28.8464 9.25058 26.5259 8.41497 24.0645 7.96575ZM30.0642 44.5818L30.9214 48.7536C30.984 49.0585 30.9084 49.376 30.7156 49.6178C30.5228 49.8596 30.2332 50 29.9274 50H11.4963C11.2245 50 10.964 49.889 10.7732 49.6919C10.5823 49.4948 10.477 49.228 10.4808 48.9511C10.5011 47.4618 10.4705 45.0653 10.313 42.7364C10.152 40.3556 9.86703 38.2146 9.44006 37.1272C9.32893 36.8442 9.0585 36.3823 8.61362 35.6814C8.48924 35.4855 8.35352 35.2742 8.20931 35.0497C7.86623 34.5156 7.47513 33.9068 7.0744 33.2514C5.92969 31.3794 4.63327 29.0135 3.81738 26.3591C2.99957 23.6985 2.65291 20.7099 3.4529 17.6197C4.25531 14.5202 6.18495 11.4209 9.74646 8.50274C13.2518 5.63061 19.1723 4.97093 24.4227 5.92921C27.0794 6.4141 29.6527 7.32617 31.7631 8.65351C33.8699 9.97862 35.5766 11.7587 36.3692 13.9981C36.3794 14.027 36.3883 14.0562 36.396 14.0858L41.3002 33.0777C41.3296 33.1915 41.3397 33.3096 41.3301 33.4268C41.2999 33.7959 41.1794 34.3438 40.8799 34.8332C40.5627 35.3516 39.9785 35.8874 39.0811 35.8874H37.3753L37.3753 40.4323C37.3755 41.0304 37.3761 42.1408 36.6863 43.0669C35.9396 44.0694 34.6245 44.5818 32.6487 44.5818H30.0642Z" fill="black"/>
</svg>
