<svg width="50" height="50" viewBox="0 0 50 50" fill="none" xmlns="http://www.w3.org/2000/svg">
<path d="M43.6689 6.46484C43.877 6.5619 44.0441 6.72976 44.1416 6.9375L44.2354 7.03125V50H6V0H37.2041L43.6689 6.46484ZM7.96094 48.0391H42.2744V8.33301H35.9023V1.96094H7.96094V48.0391ZM37.373 43.1367H12.8633V41.1768H37.373V43.1367ZM37.373 37.2549H12.8633V35.2939H37.373V37.2549ZM37.373 31.3721H12.8633V29.4121H37.373V31.3721ZM23.5938 6.22754C24.1174 6.11903 24.7151 6.17298 25.2246 6.51758C25.7439 6.86904 26.0718 7.45403 26.1777 8.20801C26.3393 9.35852 26.1122 10.8649 25.7725 12.2295C25.6131 12.8697 25.4221 13.5007 25.2217 14.0781C25.8221 15.136 26.5061 16.1495 27.2412 16.9863C28.8197 16.7341 30.1883 16.6152 30.9971 16.6543C32.2061 16.7129 33.2974 16.8895 34.0527 17.3467C34.4489 17.5866 34.7764 17.9187 34.9609 18.3652C35.144 18.8083 35.1577 19.2957 35.0518 19.7988C34.9436 20.3121 34.6928 20.779 34.251 21.0986C33.8147 21.4142 33.2721 21.5292 32.6875 21.5C31.548 21.443 30.0522 20.8307 28.2051 19.6562C27.6974 19.3334 27.2109 18.9269 26.748 18.4639C26.0515 18.5884 25.3175 18.7376 24.5752 18.9131C23.8483 19.085 23.1203 19.28 22.4189 19.4951C21.7359 20.7091 21.0139 22.0015 20.4062 23.1143C20.0433 23.7788 19.4325 24.721 18.7295 25.373C18.3815 25.6957 17.9529 26.0027 17.4707 26.123C16.9398 26.2554 16.3878 26.1476 15.9248 25.7236C15.2915 25.1436 14.9855 24.2931 15.1738 23.3389C15.3567 22.4125 15.9888 21.4522 17.083 20.5244C17.8802 19.8485 19.0092 19.2745 20.2432 18.7939C20.6438 18.638 21.0607 18.4904 21.4873 18.3506C22.2299 17.0337 22.9017 15.8548 23.2988 15.1621C23.4318 14.8963 23.5735 14.5652 23.7178 14.1914C23.6708 14.1036 23.6235 14.016 23.5781 13.9287C23.0051 12.8269 22.5378 11.7396 22.2051 10.8154C21.8798 9.91174 21.6616 9.10399 21.625 8.58301C21.5364 7.31619 22.6139 6.43073 23.5938 6.22754ZM20.457 20.1875C19.4075 20.6162 18.5463 21.0824 17.9707 21.5703C17.0156 22.3801 16.6224 23.0887 16.5205 23.6045C16.4243 24.0922 16.5742 24.4579 16.8516 24.7119C16.9578 24.8092 17.0312 24.8178 17.1387 24.791C17.2949 24.7519 17.5195 24.6235 17.7959 24.3672C18.3419 23.8609 18.8693 23.0656 19.2021 22.4561C19.5879 21.7496 20.0192 20.9718 20.457 20.1875ZM30.9316 18.0254C30.4085 18 29.5507 18.0574 28.5068 18.1914C28.6508 18.302 28.7944 18.4062 28.9404 18.499C30.737 19.6414 31.9837 20.0902 32.7559 20.1289C33.1263 20.1474 33.3326 20.0694 33.4463 19.9873C33.5542 19.9092 33.6549 19.7723 33.709 19.5156C33.7737 19.2081 33.7451 19.0138 33.6934 18.8887C33.643 18.7672 33.5429 18.6433 33.3418 18.5215C32.9014 18.2549 32.1134 18.0827 30.9316 18.0254ZM24.5166 15.7959L24.5088 15.8115L24.499 15.8281C24.2319 16.2939 23.8392 16.9877 23.3809 17.7959C23.6734 17.7194 23.9668 17.6462 24.2588 17.5771C24.7398 17.4634 25.2214 17.3609 25.6943 17.2666C25.2966 16.7599 24.9217 16.2215 24.5752 15.6709C24.5549 15.7129 24.5367 15.756 24.5166 15.7959ZM23.8721 7.57129C23.3152 7.68689 22.9694 8.13273 22.9941 8.4873C23.0167 8.80754 23.178 9.46407 23.4971 10.3506C23.7129 10.9501 23.9935 11.6275 24.3252 12.3359C24.3649 12.1909 24.4047 12.0439 24.4414 11.8965C24.7707 10.5737 24.9419 9.27969 24.8184 8.39941C24.7535 7.93737 24.5831 7.7399 24.4551 7.65332C24.317 7.56019 24.1168 7.52058 23.8721 7.57129ZM37.8633 6.37305H40.8047L37.8633 3.43164V6.37305Z" fill="black"/>
</svg>
