<svg width="50" height="50" viewBox="0 0 50 50" fill="none" xmlns="http://www.w3.org/2000/svg">
<path fill-rule="evenodd" clip-rule="evenodd" d="M35.8418 5.25406C43.6608 5.25424 49.9999 11.5932 50 19.4123C49.9999 27.2314 43.6609 33.5703 35.8418 33.5705C33.7099 33.5704 31.6868 33.0972 29.8721 32.2521C29.7134 40.3646 23.0879 46.8927 14.9375 46.8927C6.68772 46.8925 2.21012e-05 40.2041 0 31.9543C0.0001439 23.7045 6.6878 17.017 14.9375 17.0168C17.3735 17.0168 19.6734 17.5997 21.7051 18.6339C22.1092 11.1768 28.2839 5.2542 35.8418 5.25406ZM38.3486 34.5187C38.7523 34.5187 39.085 34.8258 39.125 35.2189L39.1289 35.299V42.4621C39.1289 43.3234 38.4307 44.0215 37.5693 44.0216H30.3291L31.0049 44.8332C31.2806 45.164 31.2361 45.6561 30.9053 45.9318C30.5745 46.2072 30.0823 46.1628 29.8066 45.8322L28.2715 43.9894C27.6787 43.2773 27.8337 42.2078 28.6045 41.6935L30.3916 40.5021C30.7499 40.2637 31.2339 40.3617 31.4727 40.7199C31.7111 41.0781 31.6148 41.562 31.2568 41.8009L30.2646 42.4621H37.5693V35.299L37.5732 35.2189C37.6132 34.826 37.9452 34.5191 38.3486 34.5187ZM14.9375 18.5763C7.54921 18.5765 1.55971 24.5659 1.55957 31.9543C1.55959 39.2274 7.36379 45.1452 14.5928 45.3283L14.9375 45.3332C22.2106 45.3332 28.1283 39.5289 28.3115 32.3L28.3164 31.9543C28.3163 24.5658 22.326 18.5763 14.9375 18.5763ZM15.2227 32.6173C17.6957 32.6174 19.3843 33.4073 20.4033 34.6808C21.3691 35.8881 21.5137 37.2636 21.5137 38.0216V39.5812H8.33984V38.0216C8.33984 37.3498 8.35676 35.8688 9.4375 34.6046C10.544 33.3107 12.42 32.6174 15.2227 32.6173ZM14.752 34.1847C10.0451 34.3365 9.89941 36.7803 9.89941 38.0216H19.9541C19.9541 36.8388 19.4806 34.1771 15.2227 34.1769L14.752 34.1847ZM35.8418 6.81363C28.8841 6.81378 23.2433 12.4546 23.2432 19.4123H23.0537C26.7681 21.8207 29.3443 25.8337 29.8018 30.4699C31.5945 31.4514 33.6517 32.0109 35.8418 32.0109C42.7995 32.0107 48.4404 26.37 48.4404 19.4123C48.4403 12.4546 42.7994 6.81381 35.8418 6.81363ZM14.9287 23.7052C17.0964 23.7055 18.8534 25.4633 18.8535 27.631C18.8534 29.7987 17.0964 31.5565 14.9287 31.5568C12.7608 31.5568 11.0031 29.7988 11.0029 27.631C11.0031 25.4632 12.7608 23.7052 14.9287 23.7052ZM14.9287 25.2648C13.6222 25.2648 12.5626 26.3246 12.5625 27.631L12.5654 27.7521C12.6287 29.0022 13.6629 29.9972 14.9287 29.9972L15.0508 29.9943C16.3003 29.9305 17.2938 28.8963 17.2939 27.631C17.2938 26.3247 16.235 25.2651 14.9287 25.2648ZM36.9844 19.2394C39.4574 19.2395 41.1461 20.0293 42.165 21.3029C43.1308 22.5102 43.2754 23.8857 43.2754 24.6437V26.2033H30.1016V24.6437C30.1016 23.9719 30.1185 22.4909 31.1992 21.2267C32.3057 19.9328 34.1817 19.2395 36.9844 19.2394ZM36.5137 20.8068C31.8068 20.9585 31.6611 23.4024 31.6611 24.6437H41.7158C41.7158 23.4609 41.2423 20.7991 36.9844 20.799L36.5137 20.8068ZM36.6885 10.3273C38.8559 10.3276 40.6129 12.0847 40.6133 14.2521C40.6133 16.4199 38.8561 18.1785 36.6885 18.1789C34.5205 18.1789 32.7617 16.4201 32.7617 14.2521C32.7621 12.0844 34.5207 10.3273 36.6885 10.3273ZM36.6885 11.8869C35.3821 11.8869 34.3226 12.9458 34.3223 14.2521L34.3252 14.3742C34.3885 15.6242 35.4227 16.6183 36.6885 16.6183L36.8096 16.6154C38.0594 16.5518 39.0537 15.5177 39.0537 14.2521C39.0534 12.9461 37.9945 11.8872 36.6885 11.8869ZM21.1279 4.18082C21.4588 3.90513 21.9508 3.94967 22.2266 4.28043L23.7617 6.12223C24.355 6.83443 24.1999 7.9048 23.4287 8.4191L21.6416 9.60953C21.2833 9.8481 20.7994 9.75097 20.5605 9.39273C20.3219 9.03439 20.4191 8.55053 20.7773 8.31168L21.7705 7.64957H14.4639V14.8136C14.4637 15.2442 14.1142 15.5929 13.6836 15.5929C13.2532 15.5927 12.9045 15.244 12.9043 14.8136V7.64957C12.9045 6.78834 13.6026 6.09003 14.4639 6.09H21.7031L21.0283 5.27945C20.7527 4.94867 20.7973 4.45659 21.1279 4.18082Z" fill="black"/>
</svg>
