<svg width="50" height="50" viewBox="0 0 50 50" fill="none" xmlns="http://www.w3.org/2000/svg">
<path d="M28.4891 17.0265C28.489 15.8705 27.5512 14.9335 26.3953 14.9335C25.2395 14.9336 24.3025 15.8706 24.3024 17.0265C24.3024 18.1102 25.1259 19.0018 26.1814 19.1091L26.3953 19.1203C27.4792 19.1203 28.3709 18.296 28.4779 17.2404L28.4891 17.0265ZM30.2487 17.0265C30.2487 19.1543 28.5231 20.8798 26.3953 20.8798C24.2676 20.8797 22.5428 19.1542 22.5428 17.0265C22.5429 14.8988 24.2677 13.1741 26.3953 13.174C28.523 13.174 30.2486 14.8988 30.2487 17.0265Z" fill="black"/>
<path d="M26.1358 19.9771C28.6689 19.9771 30.4609 20.6039 31.5425 21.8689C32.595 23.1002 32.6044 24.5361 32.6044 25.1381V26.8977H20.1895V25.1381C20.1895 24.4268 20.3244 23.1095 21.2557 21.9454C22.247 20.7065 23.8638 19.9771 26.1358 19.9771ZM26.1358 21.7366C22.3681 21.7366 21.949 24.0915 21.949 25.1381H30.8449C30.8449 24.0397 30.7162 21.8775 26.5507 21.7435L26.1358 21.7366Z" fill="black"/>
<path d="M14.1269 1.0043C14.5487 1.0382 14.917 1.30537 15.0798 1.69593L15.1116 1.78184L15.9621 4.39973H18.714C19.204 4.39973 19.6383 4.7148 19.7897 5.18072C19.9411 5.64672 19.7754 6.15739 19.379 6.44541L17.1521 8.06237L18.0027 10.6803C18.1541 11.1463 17.9884 11.6569 17.592 11.945C17.1956 12.2329 16.6592 12.2328 16.2628 11.945L14.0359 10.3271L11.8098 11.945C11.4133 12.233 10.8762 12.233 10.4798 11.945C10.0834 11.6569 9.91768 11.1463 10.0691 10.6803L10.9188 8.06237L8.6927 6.44541C8.29632 6.15739 8.13061 5.64672 8.28202 5.18072C8.43349 4.71479 8.86776 4.39973 9.3577 4.39973H12.1096L12.9602 1.78184L12.992 1.69593C13.1663 1.27749 13.5766 1.00001 14.0359 1L14.1269 1.0043ZM13.4379 5.43589C13.3319 5.76199 13.0282 5.98308 12.6853 5.98318H10.7504L12.3158 7.11986C12.5933 7.3215 12.7088 7.67945 12.6028 8.00566L12.0048 9.84515L13.5702 8.70846L13.6785 8.64231C13.9402 8.50977 14.2586 8.53195 14.5015 8.70846L16.0661 9.84515L15.469 8.00566C15.363 7.67946 15.4785 7.3215 15.7559 7.11986L17.3213 5.98318H15.3865C15.0436 5.98306 14.7399 5.76199 14.6339 5.43589L14.0359 3.59555L13.4379 5.43589Z" fill="black"/>
<path d="M27.6269 1.0043C28.0487 1.0382 28.417 1.30537 28.5798 1.69593L28.6116 1.78184L29.4621 4.39973H32.214C32.704 4.39973 33.1383 4.7148 33.2897 5.18072C33.4411 5.64672 33.2754 6.15739 32.879 6.44541L30.6521 8.06237L31.5027 10.6803C31.6541 11.1463 31.4884 11.6569 31.092 11.945C30.6956 12.2329 30.1592 12.2328 29.7628 11.945L27.5359 10.3271L25.3098 11.945C24.9133 12.233 24.3762 12.233 23.9798 11.945C23.5834 11.6569 23.4177 11.1463 23.5691 10.6803L24.4188 8.06237L22.1927 6.44541C21.7963 6.15739 21.6306 5.64672 21.782 5.18072C21.9335 4.71479 22.3678 4.39973 22.8577 4.39973H25.6096L26.4602 1.78184L26.492 1.69593C26.6663 1.27749 27.0766 1.00001 27.5359 1L27.6269 1.0043ZM26.9379 5.43589C26.8319 5.76199 26.5282 5.98308 26.1853 5.98318H24.2504L25.8158 7.11986C26.0933 7.3215 26.2088 7.67945 26.1028 8.00566L25.5048 9.84515L27.0702 8.70846L27.1785 8.64231C27.4402 8.50977 27.7586 8.53195 28.0015 8.70846L29.5661 9.84515L28.969 8.00566C28.863 7.67946 28.9785 7.3215 29.2559 7.11986L30.8213 5.98318H28.8865C28.5436 5.98306 28.2399 5.76199 28.1339 5.43589L27.5359 3.59555L26.9379 5.43589Z" fill="black"/>
<path d="M41.1289 1.0043C41.5507 1.0382 41.919 1.30537 42.0817 1.69593L42.1135 1.78184L42.9641 4.39973H45.716C46.2059 4.39973 46.6402 4.7148 46.7917 5.18072C46.9431 5.64672 46.7774 6.15739 46.381 6.44541L44.154 8.06237L45.0046 10.6803C45.156 11.1463 44.9903 11.6569 44.5939 11.945C44.1976 12.2329 43.6612 12.2328 43.2648 11.945L41.0378 10.3271L38.8117 11.945C38.4153 12.233 37.8781 12.233 37.4817 11.945C37.0853 11.6569 36.9196 11.1463 37.071 10.6803L37.9208 8.06237L35.6947 6.44541C35.2983 6.15739 35.1326 5.64672 35.284 5.18072C35.4354 4.71479 35.8697 4.39973 36.3597 4.39973H39.1116L39.9621 1.78184L39.9939 1.69593C40.1683 1.27749 40.5786 1.00001 41.0378 1L41.1289 1.0043ZM40.4398 5.43589C40.3338 5.76199 40.0301 5.98308 39.6872 5.98318H37.7524L39.3178 7.11986C39.5952 7.3215 39.7107 7.67945 39.6047 8.00566L39.0068 9.84515L40.5722 8.70846L40.6804 8.64231C40.9421 8.50977 41.2605 8.53195 41.5035 8.70846L43.068 9.84515L42.4709 8.00566C42.3649 7.67946 42.4804 7.3215 42.7579 7.11986L44.3233 5.98318H42.3884C42.0456 5.98306 41.7418 5.76199 41.6358 5.43589L41.0378 3.59555L40.4398 5.43589Z" fill="black"/>
<path d="M6.00128 33.3788C7.07846 32.3642 8.75098 32.3371 9.86067 33.3161L18.3158 40.7763C19.5605 41.8748 19.6138 43.798 18.4317 44.9639L13.7166 49.6145C13.2012 50.1225 12.3751 50.1287 11.8522 49.6283L1.41246 39.6344C0.859467 39.1048 0.86301 38.2197 1.42019 37.6944L6.00128 33.3788ZM8.6965 34.6358C8.26835 34.2581 7.62314 34.2683 7.20756 34.6598L2.95037 38.6704L12.7724 48.0732L17.1963 43.7112C17.6523 43.2614 17.6319 42.5189 17.1516 42.0951L8.6965 34.6358Z" fill="black"/>
<path d="M9.26803 38.0762C9.26803 38.6217 8.80054 39.064 8.22386 39.064C7.64718 39.064 7.17969 38.6217 7.17969 38.0762C7.17969 37.5307 7.64718 37.0885 8.22386 37.0885C8.80054 37.0885 9.26803 37.5307 9.26803 38.0762Z" fill="black"/>
<path d="M17.5719 41.4236C18.1535 40.6147 19.5239 39.1097 21.7157 39.2611H35.4676C35.9532 39.2612 36.3472 39.6552 36.3473 40.1409C36.3473 40.6267 35.9533 41.0205 35.4676 41.0206H21.6667L21.6315 41.0181C20.3652 40.9139 19.4899 41.77 19.0007 42.4503C18.7171 42.8448 18.1666 42.935 17.7721 42.6513C17.3778 42.3677 17.2884 41.818 17.5719 41.4236ZM34.5878 32.7778C34.5876 31.7761 33.7749 30.9641 32.7732 30.9641H24.4599C23.6465 30.9641 22.9049 30.6713 22.3343 30.428C21.3448 30.0059 19.4672 29.6086 16.8743 30.2218C13.5047 31.0187 10.9851 33.5756 10.1771 34.7221C9.89711 35.119 9.34809 35.2141 8.95103 34.9343C8.55391 34.6544 8.45903 34.1054 8.73881 33.7083C9.70268 32.3406 12.5491 29.4366 16.4696 28.5094C19.4196 27.8118 21.6809 28.2363 23.0242 28.8093C23.5893 29.0503 24.0387 29.2045 24.4599 29.2045H32.7732C34.7467 29.2045 36.3472 30.8043 36.3473 32.7778C36.3473 34.7514 34.7469 36.3519 32.7732 36.3519H24.6463C24.1605 36.3519 23.7666 35.9579 23.7665 35.4721C23.7665 34.9862 24.1604 34.5923 24.6463 34.5923H32.7732C33.7751 34.5923 34.5878 33.7796 34.5878 32.7778Z" fill="black"/>
<path d="M44.8019 26.7001L44.5729 26.4821C43.8239 25.7688 42.6049 25.7667 41.8535 26.4771L36.0091 32.0029L34.7305 30.7936L40.5755 25.2672C42.0345 23.8879 44.401 23.8923 45.8552 25.2772L46.0842 25.4952C47.4874 26.8318 47.5329 28.9751 46.1878 30.363L36.3232 40.5397C35.9859 40.8877 35.4134 40.9107 35.0454 40.5915C34.6777 40.2723 34.6531 39.7318 34.9901 39.3839L44.8547 29.2073C45.5476 28.4925 45.5245 27.3886 44.8019 26.7001Z" fill="black"/>
</svg>
