<svg width="50" height="50" viewBox="0 0 50 50" fill="none" xmlns="http://www.w3.org/2000/svg">
<path fill-rule="evenodd" clip-rule="evenodd" d="M42.1328 19.0691L40.6797 20.4832L11.4131 48.948L10.8301 49.5144H0V39.0603L0.595703 38.4724L29.8623 9.60719L31.2764 8.21266L42.1328 19.0691ZM2 39.8962V47.5144H10.0186L39.2852 19.0496L31.2666 11.031L2 39.8962ZM37.3047 2.01051C38.6516 0.706801 40.7655 0.664331 42.1621 1.88453L42.2949 2.0066L48.5566 8.05055C50.0554 9.49701 50.0129 11.9111 48.4639 13.3035L44.7676 16.6248L43.3545 17.8943L42.0137 16.5486L33.7598 8.26539L32.3271 6.82789L33.7852 5.41676L37.3047 2.01051ZM40.9053 3.44508C40.2887 2.8504 39.312 2.8513 38.6963 3.44703L35.1758 6.85328L43.4297 15.1375L47.126 11.8162C47.7693 11.2381 47.8265 10.2616 47.2842 9.61402L47.168 9.49L40.9053 3.44508Z" fill="black"/>
</svg>
