<svg width="50" height="50" viewBox="0 0 50 50" fill="none" xmlns="http://www.w3.org/2000/svg">
<path d="M24.5361 26.71C29.0385 26.71 31.8001 27.8247 33.3652 29.6553C34.904 31.4552 34.9453 33.5782 34.9453 34.6709V36.2656H15.1074V34.6709C15.1074 33.5212 15.33 31.5063 16.7295 29.7568C18.1834 27.9394 20.6591 26.7101 24.5361 26.71ZM24.5361 28.3047C17.4859 28.305 16.7021 32.7124 16.7021 34.6709H33.3506C33.3506 32.5491 33.093 28.3047 24.5361 28.3047ZM6.61719 23.1191C9.58357 23.1192 11.5528 23.8536 12.7109 25.208C13.8427 26.5319 13.8613 28.0831 13.8613 28.7949V30.3896H0V28.7949C0 27.9968 0.153088 26.5533 1.16602 25.2871C2.23335 23.9531 4.00551 23.1192 6.61719 23.1191ZM42.7559 23.1191C45.7222 23.1192 47.6915 23.8536 48.8496 25.208C49.9814 26.5319 50 28.0831 50 28.7949V30.3896H36.1387V28.7949C36.1387 27.9968 36.2918 26.5533 37.3047 25.2871C38.372 23.9531 40.1442 23.1192 42.7559 23.1191ZM6.61719 24.7139C2.09753 24.7139 1.59473 27.5394 1.59473 28.7949H12.2666C12.2666 27.4773 12.1124 24.8826 7.11621 24.7217L6.61719 24.7139ZM42.7559 24.7139C38.2362 24.7139 37.7334 27.5394 37.7334 28.7949H48.4053C48.4053 27.4773 48.2511 24.8826 43.2549 24.7217L42.7559 24.7139ZM25.0254 13.9795C28.0696 13.9795 30.5378 16.4471 30.5381 19.4912C30.5381 22.5356 28.0697 25.0039 25.0254 25.0039C21.9813 25.0036 19.5137 22.5354 19.5137 19.4912C19.514 16.4473 21.9815 13.9798 25.0254 13.9795ZM25.0254 15.5742C22.8625 15.5745 21.1087 17.3283 21.1084 19.4912C21.1084 21.6544 22.8623 23.4079 25.0254 23.4082C27.1888 23.4082 28.9424 21.6546 28.9424 19.4912C28.9421 17.3281 27.1886 15.5742 25.0254 15.5742ZM6.93066 13C9.19827 13.0002 11.0371 14.8388 11.0371 17.1064C11.0369 19.374 9.19817 21.2127 6.93066 21.2129C4.66301 21.2129 2.82439 19.3741 2.82422 17.1064C2.82422 14.8387 4.66291 13 6.93066 13ZM43.0693 13C45.337 13.0002 47.1758 14.8388 47.1758 17.1064C47.1756 19.374 45.3368 21.2127 43.0693 21.2129C40.8017 21.2129 38.9631 19.3741 38.9629 17.1064C38.9629 14.8387 40.8016 13 43.0693 13ZM6.93066 14.5947C5.54388 14.5947 4.41895 15.7197 4.41895 17.1064L4.42285 17.2354C4.48801 18.5191 5.51705 19.549 6.80078 19.6143L6.93066 19.6172C8.27391 19.617 9.37115 18.5619 9.43848 17.2354L9.44141 17.1064C9.44141 15.7631 8.38622 14.666 7.05957 14.5986L6.93066 14.5947ZM43.0693 14.5947C41.6826 14.5947 40.5576 15.7197 40.5576 17.1064L40.5615 17.2354C40.6267 18.5191 41.6557 19.549 42.9395 19.6143L43.0693 19.6172C44.4126 19.617 45.5098 18.5619 45.5771 17.2354L45.5801 17.1064C45.5801 15.7631 44.5249 14.666 43.1982 14.5986L43.0693 14.5947Z" fill="black"/>
</svg>
