<svg width="50" height="50" viewBox="0 0 50 50" fill="none" xmlns="http://www.w3.org/2000/svg">
<path d="M24.5361 38.3691C29.0386 38.3691 31.8001 39.4838 33.3652 41.3145C34.9037 43.1141 34.9453 45.2363 34.9453 46.3291V47.9248H15.1074V46.3291C15.1075 45.1794 15.3304 43.1652 16.7295 41.416C18.1834 39.5986 20.6591 38.3693 24.5361 38.3691ZM24.5361 39.9639C17.4865 39.9642 16.7023 44.3704 16.7021 46.3291H33.3506C33.3505 44.2071 33.0923 39.9639 24.5361 39.9639ZM6.61719 34.7773C9.58354 34.7774 11.5528 35.5118 12.7109 36.8662C13.8427 38.1901 13.8613 39.7413 13.8613 40.4531V42.0479H0V40.4531C0 39.655 0.153283 38.2124 1.16602 36.9463C2.23333 35.6121 4.00532 34.7774 6.61719 34.7773ZM42.7559 34.7773C45.7222 34.7774 47.6915 35.5118 48.8496 36.8662C49.9814 38.1901 50 39.7413 50 40.4531V42.0479H36.1387V40.4531C36.1387 39.655 36.2918 38.2115 37.3047 36.9453C38.372 35.6113 40.1442 34.7774 42.7559 34.7773ZM6.61719 36.373C2.09753 36.3731 1.59473 39.1976 1.59473 40.4531H12.2666C12.2666 39.1355 12.1124 36.5408 7.11621 36.3799L6.61719 36.373ZM42.7559 36.3721C38.2362 36.3721 37.7334 39.1976 37.7334 40.4531H48.4053C48.4053 39.1355 48.2511 36.5408 43.2549 36.3799L42.7559 36.3721ZM25.0254 25.6377C28.0695 25.6377 30.5378 28.1053 30.5381 31.1494C30.5381 34.1938 28.0697 36.6621 25.0254 36.6621C21.9813 36.6618 19.5137 34.1936 19.5137 31.1494C19.514 28.1055 21.9815 25.638 25.0254 25.6377ZM25.0254 27.2324C22.8625 27.2327 21.1087 28.9865 21.1084 31.1494C21.1084 33.3126 22.8623 35.0661 25.0254 35.0664C27.1888 35.0664 28.9424 33.3128 28.9424 31.1494C28.9421 28.9863 27.1886 27.2324 25.0254 27.2324ZM6.93066 24.6582C9.19827 24.6584 11.0371 26.497 11.0371 28.7646C11.037 31.0322 9.19819 32.8709 6.93066 32.8711C4.66299 32.8711 2.82436 31.0323 2.82422 28.7646C2.82422 26.4969 4.66291 24.6582 6.93066 24.6582ZM43.0693 24.6582C45.337 24.6584 47.1758 26.497 47.1758 28.7646C47.1756 31.0322 45.3369 32.8709 43.0693 32.8711C40.8017 32.8711 38.963 31.0323 38.9629 28.7646C38.9629 26.4969 40.8016 24.6582 43.0693 24.6582ZM6.93066 26.2529C5.54388 26.2529 4.41895 27.3779 4.41895 28.7646L4.42285 28.8936C4.48801 30.1773 5.51705 31.2072 6.80078 31.2725L6.93066 31.2754C8.27391 31.2752 9.37115 30.2201 9.43848 28.8936L9.44141 28.7646C9.44141 27.4213 8.38622 26.3242 7.05957 26.2568L6.93066 26.2529ZM43.0693 26.2529C41.6826 26.2529 40.5576 27.3779 40.5576 28.7646L40.5615 28.8936C40.6267 30.1773 41.6557 31.2072 42.9395 31.2725L43.0693 31.2754C44.4126 31.2752 45.5098 30.2201 45.5771 28.8936L45.5801 28.7646C45.5801 27.4213 44.5249 26.3242 43.1982 26.2568L43.0693 26.2529ZM24.1748 3C24.3474 3 24.5193 3.00578 24.6895 3.01562C24.7152 3.01652 24.7409 3.01893 24.7666 3.02148C29.335 3.32575 32.9463 7.12667 32.9463 11.7725C32.9462 16.4142 29.3411 20.2115 24.7783 20.5215C24.7491 20.5247 24.7198 20.5273 24.6904 20.5283C24.5199 20.5382 24.3478 20.5439 24.1748 20.5439C24.0027 20.5439 23.8318 20.5381 23.6621 20.5283C23.6347 20.5273 23.6074 20.5243 23.5801 20.5215C19.0136 20.2153 15.4044 16.4168 15.4043 11.7725C15.4043 7.12403 19.0197 3.32194 23.5918 3.02148C23.6146 3.01932 23.6373 3.01648 23.6602 3.01562C23.8305 3.00576 24.002 3.00001 24.1748 3ZM24.7744 17.4463C24.7874 17.4301 24.8016 17.4147 24.8145 17.3984L24.834 18.9365C24.854 18.9936 24.8678 19.0523 24.8789 19.1113C26.6498 17.3772 27.794 15.0078 27.9453 12.3701H24.7744V17.4463ZM20.4082 12.3701C20.5594 15.0072 21.7025 17.3763 23.4727 19.1104C23.4929 19.0032 23.5286 18.899 23.5781 18.7998V12.3701H20.4082ZM16.626 12.3701C16.8645 15.4246 18.9127 17.969 21.7002 18.9326C20.2473 17.1163 19.3342 14.8469 19.207 12.3701H16.626ZM29.1455 12.3701C29.0183 14.8467 28.105 17.1154 26.6523 18.9316C29.439 17.9675 31.4862 15.4238 31.7246 12.3701H29.1455ZM21.6992 4.6123C18.9124 5.57628 16.8647 8.1201 16.626 11.1738H19.207C19.3344 8.69763 20.2468 6.42837 21.6992 4.6123ZM24.8789 4.43457C24.8585 4.54196 24.8241 4.64673 24.7744 4.74609V11.1738H27.9473C27.796 8.53669 26.6492 6.1686 24.8789 4.43457ZM26.6533 4.61328C28.1055 6.42926 29.0183 8.69783 29.1455 11.1738H31.7246C31.4859 8.12085 29.4391 5.5778 26.6533 4.61328ZM23.4727 4.43262C21.7021 6.16662 20.5577 8.53658 20.4062 11.1738H23.5781V6.0957C23.565 6.11212 23.5511 6.12803 23.5381 6.14453L23.5186 4.60742C23.4985 4.55028 23.4838 4.49173 23.4727 4.43262Z" fill="black"/>
</svg>
