<svg width="50" height="50" viewBox="0 0 50 50" fill="none" xmlns="http://www.w3.org/2000/svg">
<g clip-path="url(#clip0_3086_10062)">
<path d="M25.0002 0C38.8074 2.2549e-07 50.0002 11.1929 50.0002 25C50.0002 38.8071 38.8074 50 25.0002 50C11.1931 50 0.000244366 38.8071 0.000244141 25C0.000244141 11.1929 11.1931 0 25.0002 0ZM25.0002 1.85156C12.2159 1.85156 1.85181 12.2156 1.85181 25C1.85181 37.7844 12.2159 48.1484 25.0002 48.1484C37.7846 48.1484 48.1487 37.7844 48.1487 25C48.1487 12.2156 37.7846 1.85156 25.0002 1.85156ZM24.6311 24.6914C29.4548 24.6915 32.4522 25.8856 34.1624 27.8857C35.8419 29.8502 35.885 32.1643 35.885 33.333V35.1846H14.4221V33.333C14.4222 32.0905 14.6626 29.9021 16.1858 27.998C17.7723 26.0149 20.4619 24.6915 24.6311 24.6914ZM24.6311 26.543C17.1104 26.5431 16.2738 31.2436 16.2737 33.333H34.0325C34.0324 31.0695 33.7581 26.5431 24.6311 26.543ZM25.1516 11.1113C28.4821 11.1113 31.1818 13.8112 31.1819 17.1416C31.1819 20.4721 28.4821 23.1719 25.1516 23.1719C21.8212 23.1718 19.1213 20.4721 19.1213 17.1416C19.1214 13.8112 21.8212 11.1114 25.1516 11.1113ZM25.1516 12.9629C22.844 12.963 20.973 14.834 20.9729 17.1416C20.9729 19.4493 22.8439 21.3202 25.1516 21.3203C27.4594 21.3203 29.3303 19.4493 29.3303 17.1416C29.3303 14.8339 27.4593 12.9629 25.1516 12.9629Z" fill="black"/>
</g>
<defs>
<clipPath id="clip0_3086_10062">
<rect width="50" height="50" fill="white"/>
</clipPath>
</defs>
</svg>
