<svg width="50" height="50" viewBox="0 0 50 50" fill="none" xmlns="http://www.w3.org/2000/svg">
<g clip-path="url(#clip0_3086_11487)">
<path d="M12.9805 0C14.5106 0 15.9776 0.608489 17.0596 1.69043C18.1415 2.77237 18.75 4.23944 18.75 5.76953V12.9805C18.75 13.8761 18.5412 14.7604 18.1406 15.5615C17.7402 16.3622 17.1585 17.0585 16.4424 17.5957L15.3174 18.4404C15.0563 18.6423 14.872 18.9278 14.7959 19.249C14.7193 19.573 14.7575 19.9136 14.9033 20.2129C18.0927 26.6891 23.3355 31.9279 29.8145 35.1113C30.11 35.2445 30.4422 35.2739 30.7568 35.1953C31.0746 35.1158 31.3562 34.9306 31.5547 34.6699V34.6689L32.4092 33.5518C32.9458 32.8384 33.64 32.2587 34.4385 31.8594C35.2396 31.4588 36.1239 31.25 37.0195 31.25H44.2305C45.7606 31.25 47.2276 31.8585 48.3096 32.9404C49.3915 34.0224 50 35.4894 50 37.0195V44.2305C50 45.7606 49.3915 47.2276 48.3096 48.3096C47.2276 49.3915 45.7606 50 44.2305 50C32.4998 49.9999 21.2489 45.3407 12.9541 37.0459C4.6593 28.7511 7.96152e-05 17.5002 0 5.76953C0 4.23944 0.608489 2.77237 1.69043 1.69043C2.77237 0.608489 4.23944 0 5.76953 0H12.9805ZM5.76953 1.92285C4.74947 1.92285 3.7711 2.32851 3.0498 3.0498C2.32851 3.7711 1.92285 4.74947 1.92285 5.76953C1.92293 16.9901 6.38127 27.7504 14.3154 35.6846C22.2496 43.6187 33.0099 48.0771 44.2305 48.0771C45.2505 48.0771 46.2289 47.6715 46.9502 46.9502C47.6715 46.2289 48.0771 45.2505 48.0771 44.2305V37.0195C48.0771 35.9995 47.6715 35.0211 46.9502 34.2998C46.2289 33.5785 45.2505 33.1729 44.2305 33.1729H37.0195C36.4224 33.1729 35.8329 33.3121 35.2988 33.5791C34.765 33.846 34.3005 34.2335 33.9424 34.7109L33.9375 34.7178L33.084 35.834C32.6207 36.4425 31.9647 36.8762 31.2227 37.0615C30.4808 37.2468 29.6978 37.1735 29.0029 36.8545C28.9955 36.8511 28.9878 36.8473 28.9805 36.8438C22.1128 33.4732 16.5549 27.922 13.1758 21.0586L13.1738 21.0566C12.8332 20.358 12.7457 19.562 12.9248 18.8057C13.1039 18.0495 13.5387 17.3779 14.1562 16.9062L14.1631 16.9014H14.1641L15.2891 16.0576C15.7665 15.6995 16.154 15.235 16.4209 14.7012C16.6879 14.1671 16.8271 13.5776 16.8271 12.9805V5.76953C16.8271 4.74947 16.4215 3.7711 15.7002 3.0498C14.9789 2.32851 14.0005 1.92285 12.9805 1.92285H5.76953ZM27.4033 9.61523C30.8459 9.61533 34.1478 10.9827 36.582 13.417C39.0163 15.8513 40.3837 19.1531 40.3838 22.5957C40.3838 23.1267 39.9529 23.5576 39.4219 23.5576C38.891 23.5575 38.4609 23.1266 38.4609 22.5957C38.4609 19.6631 37.2953 16.851 35.2217 14.7773C33.148 12.7037 30.3359 11.5382 27.4033 11.5381C26.8724 11.5381 26.4416 11.108 26.4414 10.5771C26.4414 10.0461 26.8723 9.61523 27.4033 9.61523ZM27.4033 0C33.396 9.9469e-05 39.1434 2.38068 43.3809 6.61816C47.6184 10.8557 49.9989 16.603 49.999 22.5957C49.999 23.1267 49.5681 23.5576 49.0371 23.5576C48.5063 23.5574 48.0762 23.1266 48.0762 22.5957C48.0761 17.113 45.8983 11.8544 42.0215 7.97754C38.1446 4.1007 32.886 1.92295 27.4033 1.92285C26.8724 1.92285 26.4416 1.49278 26.4414 0.961914C26.4414 0.430871 26.8723 0 27.4033 0Z" fill="black"/>
</g>
<defs>
<clipPath id="clip0_3086_11487">
<rect width="50" height="50" fill="white"/>
</clipPath>
</defs>
</svg>
