<svg width="50" height="50" viewBox="0 0 50 50" fill="none" xmlns="http://www.w3.org/2000/svg">
<g clip-path="url(#clip0_3086_10637)">
<path fill-rule="evenodd" clip-rule="evenodd" d="M41.7813 6C42.992 6.00004 43.9736 6.9816 43.9736 8.19238V32.7891C43.9736 33.3035 43.7949 33.7755 43.4981 34.1494L49.6133 40.8213C50.4726 41.7587 49.8069 43.2705 48.5352 43.2705H1.46486C0.177717 43.2705 -0.481271 41.7272 0.409193 40.7979L6.78029 34.1475C6.48454 33.7738 6.30674 33.3025 6.30665 32.7891V8.19238C6.30665 6.98157 7.28822 6 8.49904 6H41.7813ZM42.2451 34.9307C42.0956 34.9629 41.9405 34.9814 41.7813 34.9814H8.49904C8.34086 34.9814 8.18678 34.9635 8.0381 34.9316C8.0155 34.9648 7.99161 34.9984 7.9629 35.0283L1.46486 41.8096H48.5352L42.3086 35.0156C42.2843 34.9891 42.2648 34.9596 42.2451 34.9307ZM8.49904 7.46191C8.09543 7.46191 7.76857 7.78878 7.76857 8.19238V32.7891L7.7715 32.8633C7.80652 33.2069 8.08021 33.4805 8.42384 33.5156L8.49904 33.5195H41.7813L41.8565 33.5156C42.2001 33.4805 42.4738 33.207 42.5088 32.8633L42.5117 32.7891V8.19238C42.5117 7.81413 42.2248 7.50243 41.8565 7.46484L41.7813 7.46191H8.49904ZM40.8633 31.2012H9.41798V9.7793H40.8633V31.2012ZM10.4414 30.1787H39.8399V10.8018H10.4414V30.1787ZM19.5967 28.6543H15.9434V22.0771H19.5967V28.6543ZM24.7129 28.6543H21.0586V16.2314H24.7129V28.6543ZM29.8281 28.6543H26.1738V18.4238H29.8281V28.6543ZM34.9434 28.6543H31.2891V17.6934H34.9434V28.6543ZM32.1221 27.8223H34.1104V18.5254H32.1221V27.8223ZM16.7764 27.8213H18.7647V22.9102H16.7764V27.8213ZM21.8916 27.8213H23.8799V17.0635H21.8916V27.8213ZM27.0068 27.8213H28.9951V19.2559H27.0068V27.8213ZM22.5186 11.7441C23.1552 11.7441 23.7014 12.1251 23.9453 12.6709L26.8145 14.9014C27.0532 14.7536 27.3343 14.668 27.6358 14.668C28.3358 14.668 28.9276 15.1276 29.127 15.7617L31.1875 15.5049C31.1875 15.5033 31.1875 15.5016 31.1875 15.5C31.1876 14.6364 31.8874 13.9366 32.751 13.9365C33.6146 13.9365 34.3144 14.6364 34.3145 15.5C34.3145 16.3637 33.6147 17.0635 32.751 17.0635C32.1861 17.0634 31.6927 16.7633 31.418 16.3145L29.1543 16.5977C28.9892 17.2842 28.3731 17.7949 27.6358 17.7949C26.7722 17.7948 26.0725 17.095 26.0723 16.2314C26.0723 15.9731 26.1352 15.7293 26.2461 15.5146L24.0098 13.7754C23.8109 14.4104 23.2192 14.8711 22.5186 14.8711C22.247 14.8711 21.992 14.8014 21.7695 14.6797L18.6084 18.1582C18.8323 18.4287 18.9668 18.7757 18.9668 19.1543C18.9668 20.018 18.267 20.7178 17.4033 20.7178C16.5397 20.7177 15.8399 20.018 15.8399 19.1543C15.8399 18.2907 16.5397 17.5909 17.4033 17.5908C17.5834 17.5908 17.756 17.6227 17.917 17.6787L21.1719 14.0996C21.035 13.8672 20.9551 13.5969 20.9551 13.3076C20.9552 12.444 21.655 11.7442 22.5186 11.7441ZM17.4033 18.4238C16.9999 18.4239 16.673 18.7508 16.6729 19.1543C16.6729 19.5578 16.9998 19.8847 17.4033 19.8848C17.8069 19.8848 18.1338 19.5579 18.1338 19.1543C18.1337 18.7508 17.8069 18.4238 17.4033 18.4238ZM27.6358 15.5C27.2322 15.5001 26.9053 15.8279 26.9053 16.2314C26.9055 16.6348 27.2323 16.9618 27.6358 16.9619C28.0392 16.9619 28.366 16.6349 28.3662 16.2314C28.3662 15.8278 28.0394 15.5 27.6358 15.5ZM32.751 14.7695C32.3475 14.7696 32.0206 15.0965 32.0205 15.5C32.0205 15.9036 32.3475 16.2304 32.751 16.2305C33.1546 16.2305 33.4815 15.9036 33.4815 15.5C33.4814 15.0965 33.1545 14.7695 32.751 14.7695ZM22.5186 12.5771C22.1151 12.5772 21.7882 12.9041 21.7881 13.3076C21.7881 13.7112 22.115 14.038 22.5186 14.0381C22.9222 14.0381 23.249 13.7112 23.249 13.3076C23.249 12.9041 22.9221 12.5771 22.5186 12.5771Z" fill="black"/>
</g>
<defs>
<clipPath id="clip0_3086_10637">
<rect width="50" height="50" fill="white"/>
</clipPath>
</defs>
</svg>
