<svg width="50" height="50" viewBox="0 0 50 50" fill="none" xmlns="http://www.w3.org/2000/svg">
<path d="M34.0361 5.44043L40.2656 6.72754L39.5596 12.833L43.5469 17.4424L39.5596 22.0938L40.2656 28.1992L37.3984 28.791L43.2305 46.9541L34.7305 43.7266L29.1074 50L25.7354 34.7197L21.8584 49.7764L16.3105 43.7139L7.83008 47.1777L13.2979 28.8184L10.2812 28.1992L10.9863 22.0938L7 17.4424L10.9863 12.833L10.2812 6.72754L16.5518 5.44043L19.709 0L25.2734 2.5752L30.8389 0L34.0361 5.44043ZM34.0361 29.4863L30.8389 34.8857L27.1318 33.1699L30.0332 46.3145L34.1025 41.7734L40.5928 44.2373L35.7432 29.1328L34.0361 29.4863ZM10.4023 44.4248L16.3643 41.9902L16.9453 41.752L21.0312 46.2178L24.5244 32.6562L19.709 34.8857L16.5518 29.4863L14.9482 29.1572L10.4023 44.4248ZM25.2734 4.43652L20.3965 2.17969L17.6338 6.94336L12.1367 8.07129L12.751 13.377L9.22949 17.4473L12.75 21.5547L12.666 22.2881L12.1367 26.8555L17.6299 27.9824L20.3916 32.7061L25.2734 30.4482L30.1621 32.71L32.582 28.625L32.9639 27.9824L38.4092 26.8564L37.7969 21.5547L41.3164 17.4473L37.7959 13.377L38.4092 8.06934L32.96 6.94336L30.1572 2.17676L25.2734 4.43652ZM25.5625 6.56152C31.5403 6.5616 36.3874 11.407 36.3877 17.3848C36.3877 23.3628 31.5406 28.2099 25.5625 28.21C19.5845 28.2098 14.7383 23.3628 14.7383 17.3848C14.7386 11.407 19.5847 6.56166 25.5625 6.56152ZM25.5625 8.25098C20.5179 8.25112 16.4281 12.3402 16.4277 17.3848C16.4277 22.2721 20.2662 26.2633 25.0928 26.5078L25.5625 26.5205C30.4497 26.5204 34.4409 22.6819 34.6855 17.8555L34.6973 17.3848C34.6969 12.3402 30.6071 8.25105 25.5625 8.25098ZM30.2842 14.1221C30.6217 13.8001 31.1564 13.8121 31.4785 14.1494C31.8005 14.4869 31.7877 15.0226 31.4502 15.3447L24.3945 22.0791L19.9805 18.0059C19.6377 17.6894 19.6172 17.1553 19.9336 16.8125C20.2501 16.4697 20.7841 16.4482 21.127 16.7646L24.375 19.7617L30.2842 14.1221Z" fill="black"/>
</svg>
