<svg width="50" height="50" viewBox="0 0 50 50" fill="none" xmlns="http://www.w3.org/2000/svg">
<g clip-path="url(#clip0_3086_5312)">
<path d="M26.2559 19.4932C27.5803 19.4611 29.0283 20.2768 29.4697 21.9785C29.7602 23.0989 29.8967 24.7211 29.957 26.2373C30.0013 27.3515 30.0053 28.4488 29.9922 29.3184H37.0986V29.3193C37.6926 29.3046 38.5395 29.4862 39.1973 30.126C39.9042 30.8138 40.2448 31.8824 40.0254 33.3311C39.8245 34.6565 39.227 36.7794 38.584 38.8457C37.938 40.9215 37.226 43.0028 36.7637 44.2949C36.4783 45.3787 35.1686 46.6648 32.5156 46.582C30.2502 46.5112 22.7313 46.3944 18.6914 46.3535C18.4242 47.3065 17.551 48.0056 16.5127 48.0059H12.8164C12.5733 48.9946 11.6829 49.7284 10.6191 49.7285H2.26465C1.0139 49.7284 4.02513e-06 48.7146 0 47.4639V28.2871C5.77709e-05 27.0364 1.01393 26.0226 2.26465 26.0225H10.6191C11.6729 26.0226 12.5558 26.7431 12.8086 27.7178H16.5127C17.7472 27.7181 18.7488 28.7061 18.7744 29.9346C19.1388 29.8158 19.5372 29.6587 19.9258 29.457C20.7348 29.0371 21.3964 28.4835 21.7109 27.8125C21.9704 27.259 22.4142 26.5266 22.8799 25.4219C23.3253 24.3652 23.6649 23.2233 23.625 22.2256C23.592 21.3987 23.8888 20.6979 24.415 20.209C24.9254 19.735 25.5972 19.5092 26.2559 19.4932ZM2.26465 27.7178C1.9502 27.7179 1.69537 27.9726 1.69531 28.2871V47.4639C1.69532 47.7784 1.95016 48.0331 2.26465 48.0332H10.6191L10.7334 48.0215C10.8438 47.9989 10.9424 47.9444 11.0195 47.8682V27.8838C10.9423 27.8072 10.844 27.7521 10.7334 27.7295L10.6191 27.7178H2.26465ZM7.03809 42.1914C8.33508 42.2572 9.36621 43.3302 9.36621 44.6436C9.36576 45.9987 8.26735 47.0974 6.91211 47.0977C5.59877 47.0976 4.52566 46.0656 4.45996 44.7686L4.45703 44.6436L4.45996 44.5166C4.52567 43.2196 5.59877 42.1885 6.91211 42.1885L7.03809 42.1914ZM12.8838 46.3105H16.5127L16.627 46.2998C16.8495 46.2543 17.0248 46.079 17.0703 45.8564L17.0742 45.8174V30.3008L17.082 30.2988V29.9824C17.0819 29.7073 16.8864 29.4779 16.627 29.4248L16.5127 29.4131H12.8838V46.3105ZM6.91211 43.707C6.39532 43.7071 5.97559 44.1268 5.97559 44.6436L5.98047 44.7383C6.02836 45.2102 6.4276 45.5781 6.91211 45.5781C7.39646 45.5779 7.79489 45.21 7.84277 44.7383L7.84766 44.6436L7.84277 44.5469C7.79799 44.1067 7.448 43.7568 7.00781 43.7119L6.91211 43.707ZM26.2969 21.1885C25.9829 21.1962 25.7284 21.3026 25.5684 21.4512C25.4244 21.5851 25.3051 21.7982 25.3193 22.1572C25.3744 23.5326 24.9173 24.9544 24.4424 26.0811C23.9878 27.1594 23.3872 28.2312 23.2461 28.5322C22.7062 29.6839 21.671 30.461 20.7061 30.9619C20.0392 31.308 19.3542 31.5469 18.7773 31.6992V44.6592C22.8378 44.7007 30.2974 44.8167 32.5684 44.8877C34.6947 44.9541 35.1076 43.9555 35.1299 43.8525L35.1416 43.7949L35.1621 43.7412C35.6177 42.4687 36.3252 40.4003 36.9658 38.3418C37.6122 36.2647 38.1707 34.2579 38.3496 33.0771C38.5097 32.0202 38.233 31.5532 38.0146 31.3408C37.7585 31.0918 37.389 31.0031 37.1299 31.0127L37.1143 31.0137H28.2461L28.2773 30.1367C28.3083 29.2533 28.3219 27.7936 28.2627 26.3057C28.2028 24.7984 28.0702 23.3343 27.8291 22.4043C27.6059 21.5437 26.9182 21.1735 26.2969 21.1885ZM19.6016 15.6582C19.9326 15.3272 20.4698 15.3272 20.8008 15.6582L22.9844 17.8418C23.3152 18.1728 23.3153 18.7101 22.9844 19.041C22.6534 19.372 22.1162 19.3718 21.7852 19.041L19.6016 16.8574C19.2705 16.5264 19.2705 15.9892 19.6016 15.6582ZM31.0879 15.6582C31.4189 15.3272 31.9561 15.3272 32.2871 15.6582C32.6181 15.9892 32.6181 16.5264 32.2871 16.8574L30.1035 19.041C29.7725 19.3718 29.2353 19.372 28.9043 19.041C28.5733 18.7101 28.5735 18.1728 28.9043 17.8418L31.0879 15.6582ZM25.9922 13.7969C26.4602 13.7969 26.8396 14.1756 26.8398 14.6436V17.6816C26.8398 18.1498 26.4603 18.5293 25.9922 18.5293C25.5241 18.5293 25.1445 18.1498 25.1445 17.6816V14.6436C25.1448 14.1756 25.5242 13.7969 25.9922 13.7969ZM5.59766 6.65527C5.88662 6.70205 6.12991 6.90744 6.22266 7.19238L6.69043 8.62793H8.19922C8.54173 8.62803 8.84514 8.84914 8.95117 9.1748C9.05689 9.5007 8.94126 9.85817 8.66406 10.0596L7.44238 10.9463L7.90918 12.3818C8.01509 12.7078 7.8993 13.0651 7.62207 13.2666C7.34486 13.4679 6.96963 13.4679 6.69238 13.2666L5.4707 12.3799L4.25 13.2666C3.9727 13.4681 3.59664 13.4681 3.31934 13.2666C3.04219 13.0651 2.92633 12.7077 3.03223 12.3818L3.49805 10.9453L2.27734 10.0596C2.00026 9.85815 1.88453 9.50064 1.99023 9.1748C2.09623 8.84908 2.39964 8.62803 2.74219 8.62793H4.25195L4.71777 7.19238C4.82371 6.86651 5.12805 6.64558 5.4707 6.64551L5.59766 6.65527ZM46.6074 6.65527C46.8964 6.7021 47.1398 6.90736 47.2324 7.19238L47.6992 8.62793H49.209C49.5514 8.62807 49.8548 8.84834 49.9609 9.17383C50.0668 9.49976 49.951 9.8571 49.6738 10.0586L48.4521 10.9463L48.9189 12.3818C49.0248 12.7078 48.9091 13.0652 48.6318 13.2666C48.3546 13.4679 47.9794 13.4678 47.7021 13.2666L46.4805 12.3789L45.2598 13.2666C44.9825 13.4681 44.6064 13.468 44.3291 13.2666C44.0519 13.0651 43.9361 12.7077 44.042 12.3818L44.5078 10.9453L43.2871 10.0586C43.0099 9.8571 42.8941 9.49975 43 9.17383C43.1061 8.84826 43.4095 8.62799 43.752 8.62793H45.2617L45.7275 7.19238C45.8334 6.86645 46.1378 6.64558 46.4805 6.64551L46.6074 6.65527ZM14.5234 3.61816C14.7873 3.66079 15.0156 3.82759 15.1377 4.06543L15.1904 4.18945L15.8105 6.10059H17.8203C18.1396 6.10059 18.4279 6.28108 18.5703 6.55859L18.6221 6.68262L18.6533 6.81445C18.701 7.12247 18.5736 7.43744 18.3154 7.625L16.6895 8.80566L17.3105 10.7168C17.4232 11.0635 17.3005 11.4437 17.0059 11.6582C16.7108 11.8726 16.3108 11.8725 16.0156 11.6582L14.3887 10.4766L12.7627 11.6582C12.4676 11.8724 12.0685 11.8724 11.7734 11.6582C11.4784 11.4437 11.3551 11.0637 11.4678 10.7168L12.0889 8.80566L10.4629 7.625C10.1678 7.41057 10.0436 7.02958 10.1562 6.68262L10.209 6.55859C10.3514 6.28113 10.6387 6.10059 10.958 6.10059H12.9678L13.5879 4.18945L13.6396 4.06543C13.7819 3.78794 14.0695 3.6076 14.3887 3.60742L14.5234 3.61816ZM37.4961 3.61816C37.76 3.66079 37.9883 3.82759 38.1104 4.06543L38.1631 4.18945L38.7832 6.10059H40.793C41.1123 6.10059 41.4006 6.28108 41.543 6.55859L41.5947 6.68262L41.626 6.81445C41.6737 7.12248 41.5463 7.43743 41.2881 7.625L39.6621 8.80566L40.2832 10.7168C40.3959 11.0636 40.2724 11.4437 39.9775 11.6582C39.6825 11.8724 39.2833 11.8724 38.9883 11.6582L37.3613 10.4766L35.7354 11.6582C35.4403 11.8724 35.0412 11.8724 34.7461 11.6582C34.4511 11.4437 34.3277 11.0637 34.4404 10.7168L35.0615 8.80566L33.4355 7.625C33.1404 7.41057 33.0162 7.02959 33.1289 6.68262L33.1816 6.55859C33.324 6.28113 33.6114 6.10059 33.9307 6.10059H35.9404L36.5605 4.18945L36.6123 4.06543C36.7546 3.78793 37.0421 3.60759 37.3613 3.60742L37.4961 3.61816ZM5.24707 9.4043C5.16764 9.64877 4.93967 9.81543 4.68262 9.81543H3.96094L4.54492 10.2393C4.75271 10.3903 4.84001 10.659 4.76074 10.9033L4.53613 11.5908L5.12207 11.166L5.20312 11.1162C5.39915 11.0171 5.6384 11.0338 5.82031 11.166L6.4043 11.5908L6.18164 10.9033C6.10234 10.659 6.18867 10.3903 6.39648 10.2393L6.98145 9.81543H6.25879C6.00174 9.81543 5.77377 9.64877 5.69434 9.4043L5.4707 8.7168L5.24707 9.4043ZM46.2568 9.4043C46.1774 9.6487 45.9494 9.81443 45.6924 9.81445H44.9707L45.5547 10.2393C45.7625 10.3904 45.8499 10.6589 45.7705 10.9033L45.5459 11.5898L46.1318 11.166L46.2129 11.1162C46.4089 11.0171 46.6482 11.0338 46.8301 11.166L47.4141 11.5898L47.1914 10.9033C47.112 10.6589 47.1984 10.3904 47.4062 10.2393L47.9912 9.81445H47.2686C47.0116 9.81445 46.7836 9.64868 46.7041 9.4043L46.4805 8.7168L46.2568 9.4043ZM25.9326 0.0126953C26.2279 0.0605299 26.4835 0.246569 26.6201 0.512695L26.6787 0.651367L27.6055 3.50391H30.6045C30.9619 3.50405 31.284 3.70602 31.4434 4.0166L31.501 4.15625L31.5361 4.30273C31.5898 4.6477 31.4482 4.99976 31.1592 5.20996L28.7314 6.97266L29.6592 9.8252C29.7854 10.2136 29.6475 10.6397 29.3174 10.8799C28.9869 11.12 28.5385 11.12 28.208 10.8799L25.7812 9.11621L23.3555 10.8799C23.0249 11.12 22.5766 11.12 22.2461 10.8799C21.9158 10.6397 21.7772 10.2136 21.9033 9.8252L22.8311 6.97266L20.4043 5.20996C20.074 4.96988 19.9355 4.54465 20.0615 4.15625L20.1201 4.0166C20.2796 3.70593 20.6015 3.50392 20.959 3.50391H23.958L24.8838 0.651367C25.0101 0.263025 25.3729 0.000137575 25.7812 0L25.9326 0.0126953ZM36.9355 6.87793C36.8561 7.12207 36.6278 7.28789 36.3711 7.28809H34.9912L36.1074 8.09863C36.3153 8.24973 36.4017 8.51825 36.3223 8.7627L35.8955 10.0752L37.0127 9.26367C37.2206 9.11268 37.503 9.11262 37.7109 9.26367L38.8271 10.0752L38.4014 8.7627C38.3219 8.51823 38.4083 8.24972 38.6162 8.09863L39.7334 7.28809H38.3525C38.0958 7.28792 37.8686 7.12197 37.7891 6.87793L37.3613 5.56348L36.9355 6.87793ZM13.9629 6.87793C13.8834 7.12207 13.6552 7.28789 13.3984 7.28809H12.0186L13.1348 8.09863C13.3427 8.24973 13.429 8.51825 13.3496 8.7627L12.9229 10.0742L14.04 9.26367C14.248 9.11268 14.5304 9.11262 14.7383 9.26367L15.8545 10.0742L15.4287 8.7627C15.3493 8.51823 15.4356 8.24972 15.6436 8.09863L16.7607 7.28809H15.3799C15.1232 7.28792 14.896 7.12196 14.8164 6.87793L14.3887 5.56348L13.9629 6.87793ZM24.9531 4.28125C24.8737 4.5253 24.6463 4.69109 24.3896 4.69141H21.708L23.877 6.2666C24.0847 6.41767 24.172 6.68539 24.0928 6.92969L23.2646 9.47852L25.4326 7.90332L25.5146 7.85352C25.7104 7.75487 25.9482 7.77156 26.1299 7.90332L28.2979 9.47852L27.4697 6.92969C27.3905 6.68535 27.4787 6.4176 27.6865 6.2666L29.8555 4.69141H27.1738C26.9171 4.69126 26.6899 4.52536 26.6104 4.28125L25.7812 1.73047L24.9531 4.28125Z" fill="black"/>
</g>
<defs>
<clipPath id="clip0_3086_5312">
<rect width="50" height="50" fill="white"/>
</clipPath>
</defs>
</svg>
