<svg width="50" height="50" viewBox="0 0 50 50" fill="none" xmlns="http://www.w3.org/2000/svg">
<path fill-rule="evenodd" clip-rule="evenodd" d="M12.3339 0.497063C14.2956 -0.326631 18.7404 -0.647944 21.8163 3.83202L22.1093 4.28027L22.1249 4.30663L22.1396 4.33398C22.7799 5.54139 23.5712 8.58121 22.4364 12.168L25.0322 15.9248C25.3113 16.329 25.2098 16.8838 24.8056 17.1631C24.4014 17.4419 23.8474 17.3396 23.5683 16.9355L20.4609 12.4394L20.6152 12.0098C21.7727 8.76462 21.0291 6.06186 20.58 5.1914C18.5681 1.98275 15.8355 1.57199 14.0976 1.84472L17.3564 6.73827L17.3642 6.74804L17.37 6.75976L16.6161 7.23144C17.3703 6.75965 17.3708 6.76035 17.371 6.76074L17.372 6.76269L17.3818 6.77831C17.3869 6.7869 17.3937 6.7984 17.4013 6.81152C17.4167 6.838 17.4366 6.87419 17.4599 6.91796C17.5065 7.00574 17.5679 7.12793 17.6308 7.27831C17.755 7.57578 17.8971 8.00432 17.9482 8.50292C17.9995 9.00485 17.9599 9.59804 17.7001 10.1982C17.4373 10.8052 16.9727 11.3629 16.2646 11.8223C15.5565 12.2816 14.8581 12.4776 14.1972 12.4668C13.5438 12.456 12.9898 12.2439 12.5566 11.9873C12.1264 11.7325 11.7989 11.4242 11.582 11.1865C11.4722 11.0662 11.386 10.9592 11.3261 10.8799C11.2963 10.8404 11.2723 10.8073 11.2548 10.7822C11.2462 10.7699 11.2389 10.7593 11.2333 10.751C11.2308 10.7472 11.2284 10.7431 11.2265 10.7402L7.91106 5.75683C7.56874 6.2521 7.23836 6.82314 7.02141 7.51366C6.65716 8.67363 6.59799 10.2395 7.61809 12.3545C8.64355 14.4804 9.88255 15.4833 11.1034 16.0498C11.7312 16.341 12.3787 16.5273 13.039 16.6816C13.4922 16.7876 14.0404 16.8958 14.539 17.0088L15.0155 17.124L15.3456 17.209L33.7148 45.0625L33.7304 45.0879L33.7441 45.1113C33.7447 45.1125 33.7471 45.1151 33.7489 45.1182C33.753 45.1251 33.7596 45.1371 33.7695 45.1533C33.7896 45.1864 33.8223 45.2379 33.8652 45.3037C33.9514 45.436 34.0814 45.6269 34.2519 45.8476C34.596 46.2933 35.0884 46.8447 35.6962 47.3047C36.3047 47.7651 36.995 48.1075 37.7421 48.1973C38.4705 48.2847 39.3297 48.1417 40.3202 47.5039C41.2993 46.8733 41.7518 46.1549 41.9384 45.457C42.1313 44.735 42.0609 43.9488 41.8427 43.1777C41.6253 42.4096 41.2758 41.7083 40.9716 41.1914C40.8209 40.9353 40.6836 40.73 40.5868 40.5908C40.5386 40.5215 40.5007 40.4685 40.4755 40.4346C40.463 40.4177 40.4537 40.4047 40.4482 40.3975C40.4458 40.3943 40.4442 40.3919 40.4433 40.3906L40.4238 40.3652L40.4052 40.3389L37.1777 35.5361C36.9041 35.1285 37.0134 34.5758 37.4208 34.3018C37.8285 34.0281 38.3812 34.1364 38.6552 34.5439L41.8681 39.3262C41.8777 39.3388 41.8907 39.3545 41.9052 39.374C41.9402 39.4212 41.9886 39.4891 42.0478 39.5742C42.1661 39.7444 42.3279 39.9885 42.5048 40.2891C42.8557 40.8854 43.2831 41.7306 43.5556 42.6934C43.8273 43.6537 43.9599 44.7845 43.6572 45.917C43.3479 47.0738 42.6061 48.1481 41.2831 49C39.9718 49.8444 38.7012 50.1044 37.5302 49.9639C36.3778 49.8255 35.3971 49.3086 34.6239 48.7236C33.8503 48.1383 33.248 47.4591 32.8437 46.9355C32.64 46.6717 32.483 46.4412 32.3749 46.2754C32.321 46.1926 32.2782 46.1254 32.2489 46.0771C32.2344 46.0533 32.2231 46.0336 32.2148 46.0195C32.214 46.0182 32.2126 46.0169 32.2118 46.0156L14.2411 18.7666C13.7498 18.6519 13.2653 18.5626 12.6337 18.415C11.9192 18.248 11.1402 18.0281 10.3554 17.6641C8.75111 16.9198 7.21499 15.6144 6.01555 13.1279C4.81124 10.6311 4.81598 8.59855 5.32414 6.98046C5.81711 5.41139 6.77496 4.29569 7.24309 3.67675L7.99895 2.67675L12.707 9.7539L12.7138 9.76269V9.76464C12.7195 9.7728 12.7305 9.78801 12.746 9.80859C12.7776 9.85039 12.8281 9.91345 12.8954 9.9873C13.0334 10.1385 13.2278 10.3178 13.4628 10.457C13.6945 10.5942 13.9493 10.6839 14.2265 10.6885C14.4967 10.6929 14.8524 10.6174 15.2968 10.3291C15.7406 10.0411 15.9574 9.74506 16.0673 9.4912C16.18 9.23072 16.2055 8.95564 16.1777 8.68359C16.1494 8.40815 16.0684 8.15451 15.9892 7.96484C15.9504 7.87209 15.9142 7.79938 15.8896 7.75292C15.8773 7.72983 15.8672 7.71268 15.8622 7.70409C15.8602 7.70072 15.8587 7.69885 15.8583 7.69824L11.3417 0.914055L12.3339 0.497063ZM35.3622 12.8359C40.9516 12.8359 45.4832 17.3667 45.4833 22.956C45.4832 28.5455 40.9516 33.0771 35.3622 33.0771C29.773 33.077 25.2422 28.5454 25.2421 22.956C25.2423 17.3668 29.773 12.8361 35.3622 12.8359ZM35.3622 14.6143C30.7557 14.6144 27.0216 18.3494 27.0214 22.956C27.0215 27.4188 30.5264 31.0636 34.9335 31.2871L35.3622 31.2978C39.8252 31.2978 43.47 27.7923 43.6933 23.3848L43.704 22.956C43.7039 18.3493 39.9689 14.6143 35.3622 14.6143ZM35.5585 23.1094H38.4921V24.8887H33.7792V18.4385H35.5585V23.1094Z" fill="black"/>
</svg>
