<svg width="50" height="50" viewBox="0 0 50 50" fill="none" xmlns="http://www.w3.org/2000/svg">
<g clip-path="url(#clip0_3086_11383)">
<path fill-rule="evenodd" clip-rule="evenodd" d="M9.34115 0.498199C11.3074 -0.327371 15.7585 -0.647347 18.8382 3.83804L19.1322 4.28628L19.1488 4.31265L19.1634 4.34097C19.8049 5.55065 20.5957 8.5898 19.4642 12.175L22.0521 15.9211C22.3367 16.3331 22.2335 16.898 21.8216 17.1828C21.4095 17.4675 20.8447 17.3642 20.5599 16.9523L17.4505 12.4513L17.6058 12.0128C18.759 8.77987 18.0204 6.08847 17.5736 5.2189C15.5785 2.03549 12.8743 1.61235 11.1419 1.87515L14.3822 6.74234L14.3958 6.76382L13.6273 7.24429C14.3961 6.76334 14.3966 6.76441 14.3968 6.7648L14.4017 6.77164C14.4036 6.77475 14.406 6.77921 14.4085 6.78335C14.4138 6.792 14.4205 6.80355 14.4281 6.81656C14.4435 6.84321 14.4633 6.87912 14.4867 6.923C14.5335 7.01121 14.5945 7.1343 14.6576 7.28531C14.7821 7.58345 14.9246 8.0119 14.9759 8.51187C15.0275 9.0159 14.9881 9.61349 14.7269 10.2169C14.4627 10.8269 13.9966 11.3871 13.2865 11.8478C12.5762 12.3085 11.8747 12.5051 11.2103 12.4943C10.5533 12.4835 9.99597 12.2705 9.56087 12.0128C9.12921 11.7571 8.80088 11.4475 8.58334 11.2091C8.47333 11.0886 8.38665 10.9822 8.3265 10.9025C8.29645 10.8627 8.27286 10.8282 8.25521 10.8029C8.24639 10.7902 8.23845 10.7791 8.23275 10.7707C8.23024 10.767 8.2278 10.7637 8.22591 10.7609L4.92806 5.80386C4.59221 6.29256 4.26989 6.85387 4.05697 7.5314C3.69428 8.68593 3.63391 10.2467 4.6517 12.3566C5.67471 14.4773 6.91014 15.4759 8.1263 16.0402C8.75197 16.3304 9.39687 16.517 10.056 16.671C10.5077 16.7766 11.0571 16.8832 11.556 16.9962L12.0326 17.1125L12.3695 17.1994L30.7288 45.0373L30.7454 45.0627L30.7601 45.0871C30.7607 45.0881 30.7612 45.0907 30.763 45.0939C30.7671 45.1009 30.7746 45.1127 30.7845 45.1291C30.8045 45.162 30.8365 45.2129 30.8792 45.2785C30.9652 45.4104 31.0959 45.6002 31.266 45.8205C31.6093 46.2651 32.0996 46.8152 32.7054 47.2736C33.3118 47.7324 33.9981 48.0731 34.7406 48.1623C35.4638 48.249 36.3176 48.1069 37.304 47.4718C38.2789 46.8441 38.7281 46.1302 38.9134 45.4377C39.1052 44.7204 39.0371 43.9377 38.8197 43.1691C38.6029 42.4032 38.2531 41.7035 37.9495 41.1877C37.7993 40.9323 37.6632 40.7277 37.5667 40.589C37.5187 40.52 37.4804 40.4675 37.4554 40.4337C37.443 40.417 37.4336 40.4039 37.4281 40.3966C37.4256 40.3935 37.424 40.3909 37.4232 40.3898L37.4027 40.3644L37.3851 40.338L34.1595 35.5382C33.8804 35.1225 33.991 34.5588 34.4066 34.2794C34.8223 34.0001 35.3859 34.1109 35.6654 34.5265L38.8773 39.3039C38.8868 39.3165 38.898 39.3332 38.9124 39.3527C38.9475 39.4 38.9967 39.4677 39.056 39.5529C39.1745 39.7232 39.336 39.9669 39.513 40.2677C39.8642 40.8645 40.2919 41.7106 40.5648 42.675C40.8369 43.6365 40.9699 44.7696 40.6663 45.9054C40.3561 47.066 39.612 48.1437 38.2865 48.9972C36.9727 49.843 35.6985 50.1051 34.5238 49.964C33.3679 49.8252 32.385 49.3057 31.6107 48.7199C30.836 48.1337 30.233 47.4538 29.8285 46.9298C29.6247 46.6659 29.4669 46.4357 29.3587 46.2697C29.3047 46.1867 29.2631 46.1188 29.2337 46.0705C29.2214 46.0502 29.2113 46.033 29.2035 46.0197L11.2435 18.7863C10.7552 18.6726 10.2735 18.5848 9.64388 18.4377C8.92933 18.2707 8.14946 18.0502 7.36361 17.6857C5.75642 16.9401 4.21736 15.6332 3.01693 13.1447C1.81158 10.6458 1.81627 8.60998 2.32552 6.98843C2.81932 5.41681 3.77936 4.29931 4.24642 3.68179L5.01693 2.66226L9.73666 9.75601L9.74252 9.76578C9.74809 9.77376 9.75935 9.78835 9.77474 9.80875C9.80603 9.85019 9.85619 9.91305 9.92318 9.98648C10.0603 10.1367 10.2528 10.3144 10.4857 10.4523C10.7153 10.5882 10.9673 10.6764 11.2406 10.6808C11.5066 10.685 11.8581 10.6114 12.2992 10.3253C12.74 10.0393 12.9535 9.74534 13.0619 9.49527C13.173 9.23843 13.1988 8.96693 13.1712 8.69742C13.1432 8.42444 13.0624 8.17297 12.9837 7.98453C12.9452 7.89229 12.9095 7.81956 12.8851 7.77359C12.8746 7.7539 12.8658 7.73959 12.8607 7.73062L8.32845 0.92398L9.34115 0.498199ZM42.3177 13.0314C44.9532 13.0315 47.0902 15.1685 47.0902 17.8039V26.7746C47.09 28.5135 45.6851 29.9239 43.9486 29.9347V34.3107L35.6302 30.1066C35.4078 29.9942 35.1617 29.9357 34.9124 29.9357H29.0247C26.3892 29.9357 24.2523 27.7987 24.2523 25.1632V17.8039C24.2523 15.1684 26.3892 13.0314 29.0247 13.0314H42.3177ZM29.0247 14.6222C27.2677 14.6222 25.8431 16.0469 25.8431 17.8039V25.1632C25.8431 26.9202 27.2677 28.3449 29.0247 28.3449H34.9124L35.099 28.3507C35.5331 28.3762 35.9587 28.4909 36.348 28.6877L42.3577 31.7248V29.9162C42.3577 29.0489 43.0617 28.3449 43.929 28.3449C44.7961 28.3446 45.4992 27.6416 45.4994 26.7746V17.8039C45.4994 16.047 44.0746 14.6224 42.3177 14.6222H29.0247Z" fill="black"/>
</g>
<defs>
<clipPath id="clip0_3086_11383">
<rect width="50" height="50" fill="white"/>
</clipPath>
</defs>
</svg>
