<svg width="50" height="50" viewBox="0 0 50 50" fill="none" xmlns="http://www.w3.org/2000/svg">
<g clip-path="url(#clip0_3086_11339)">
<path d="M45.4551 28.04C47.9306 28.0402 49.9373 30.047 49.9375 32.5225V40.5732C49.9374 42.1769 48.6943 43.4894 47.1191 43.6016V47.6621L39.3633 43.7422C39.1919 43.6556 39.0026 43.6104 38.8105 43.6104H33.5264C31.0509 43.6102 29.0442 41.6034 29.0439 39.1279V32.5225C29.0441 30.0469 31.0508 28.0401 33.5264 28.04H45.4551ZM24.75 3.00098H34.0449L40.8467 13.0957L40.9873 13.3066V23.2705H39.3262V15.1094H26.8564V21.252H15.3633V15.1094H1.66113V43.5566H25.3525V45.2188H0V13.2861L0.163086 13.0654L7.62207 3.00098H17.4688V3H24.75V3.00098ZM33.3799 29.6719C31.8717 29.7484 30.672 30.9953 30.6719 32.5225V39.1279C30.6721 40.655 31.8717 41.902 33.3799 41.9785L33.5264 41.9824H38.8105L38.9775 41.9873C39.3671 42.0102 39.7483 42.1135 40.0977 42.29L45.4912 45.0156V43.3916C45.4914 42.6135 46.1223 41.9825 46.9004 41.9824C47.6785 41.9823 48.3095 41.3514 48.3096 40.5732V32.5225C48.3094 30.9461 47.0315 29.6681 45.4551 29.668H33.5264L33.3799 29.6719ZM17.0244 14.5254V19.5908H25.1953V14.5254L23.3682 4.66211H18.8516L17.0244 14.5254ZM1.94727 13.4482H15.5342L17.1611 4.66211H8.45898L1.94727 13.4482ZM26.6855 13.4482H39.0801L33.1611 4.66211H25.0576L26.6855 13.4482Z" fill="black"/>
</g>
<defs>
<clipPath id="clip0_3086_11339">
<rect width="50" height="50" fill="white"/>
</clipPath>
</defs>
</svg>
