<svg width="50" height="50" viewBox="0 0 50 50" fill="none" xmlns="http://www.w3.org/2000/svg">
<path d="M28.2764 9.69922C28.5677 9.77381 28.8529 9.88276 29.1191 10.0059C29.6195 10.2372 30.1253 10.5491 30.5977 10.8789C31.3269 11.3882 32.0167 11.9725 32.5361 12.4551L38.7295 9.97754L43.0498 17.8984L37.999 21.6855V24.2568H36.2822V20.8271L40.8301 17.416L37.9512 12.1377L32.1338 14.4648L31.7344 14.0645C31.2622 13.5923 30.4606 12.8765 29.6152 12.2861C29.1929 11.9912 28.7765 11.7403 28.3984 11.5654C28.0076 11.3848 27.7211 11.3164 27.541 11.3164H26.8252L25.625 4.7168H19.2461L18.0869 10.5146L17.6143 10.6719C17.0591 10.8569 16.1489 11.2262 15.2715 11.7168C14.3692 12.2213 13.6203 12.7897 13.2578 13.333L12.8652 13.9219L5.73145 10.9492L2.28809 17.3428L8.15039 20.8594L7.96973 21.4932C7.7835 22.1451 7.55575 23.2226 7.49023 24.2939C7.42151 25.4185 7.54654 26.3138 7.85742 26.7803L8.30078 27.4443L2.82617 31.7002L5.74121 37.5303L12.1299 34.6279L12.5498 35.0479C13.0117 35.5098 13.8335 36.2191 14.7578 36.8057C15.7108 37.4103 16.6371 37.7969 17.3428 37.7969H18.0703L19.2695 44.9961H25.584L26.0898 40.9482L27.7939 41.1611L27.0996 46.7129H17.8154L16.6035 39.4424C15.6254 39.2637 14.6495 38.7699 13.8379 38.2549C13.0368 37.7466 12.3103 37.1628 11.7725 36.6758L4.94629 39.7793L0.661133 31.2109L6.07031 27.002C5.75584 26.1266 5.72151 25.0872 5.77637 24.1895C5.83213 23.2774 5.98779 22.3733 6.15234 21.6631L0 17.9717L4.95605 8.7666L12.2803 11.8174C12.8815 11.1746 13.6859 10.6359 14.4336 10.2178C15.1994 9.78961 15.9825 9.44655 16.5957 9.21387L17.8389 3H27.0576L28.2764 9.69922ZM45.9688 28.7188C48.195 28.719 49.9999 30.5238 50 32.75V40.3291C49.9999 41.7981 48.8135 42.9896 47.3467 42.999V46.6953L40.3193 43.1436C40.1314 43.0486 39.9234 43 39.7129 43H34.7383C32.5119 42.9999 30.707 41.1942 30.707 38.9678V32.75C30.7071 30.5237 32.512 28.7189 34.7383 28.7188H45.9688ZM34.5996 30.0664C33.1799 30.1387 32.0509 31.3124 32.0508 32.75V38.9678C32.0508 40.4055 33.1799 41.58 34.5996 41.6523L34.7383 41.6562H39.7129L39.8701 41.6611C40.2369 41.6826 40.5959 41.7791 40.9248 41.9453L46.002 44.5117V42.9824C46.0021 42.2957 46.5245 41.7311 47.1934 41.6631L47.4648 41.6494C48.1337 41.5814 48.6562 41.0159 48.6562 40.3291V32.75C48.6561 31.2659 47.4528 30.0627 45.9688 30.0625H34.7383L34.5996 30.0664ZM22.1416 17.7402C26.4032 17.7404 29.8584 21.1954 29.8584 25.457C29.8581 29.7184 26.403 33.1727 22.1416 33.1729C17.8803 33.1726 14.4261 29.7183 14.4258 25.457C14.4258 21.1954 17.8801 17.7404 22.1416 17.7402ZM22.1416 19.457C18.8284 19.4572 16.1426 22.1438 16.1426 25.457L16.1494 25.7646C16.3048 28.8324 18.7653 31.2927 21.833 31.4482L22.1416 31.4561C25.3514 31.4559 27.9732 28.9346 28.1338 25.7646L28.1406 25.457C28.1406 22.2471 25.6202 19.6254 22.4502 19.4648L22.1416 19.457Z" fill="black"/>
</svg>
