<svg width="50" height="50" viewBox="0 0 50 50" fill="none" xmlns="http://www.w3.org/2000/svg">
<g clip-path="url(#clip0_3086_9368)">
<path fill-rule="evenodd" clip-rule="evenodd" d="M34.5479 4C43.0816 4.00012 50 10.9184 50 19.4521C49.9998 27.9857 43.0814 34.9042 34.5479 34.9043C30.2118 34.9043 26.2936 33.1169 23.4873 30.2402L22.1504 31.2432L23.4619 33.1709L6.73341 44.5557C4.76623 45.8944 2.08604 45.3859 0.747083 43.4189C-0.591763 41.4517 -0.0823324 38.7716 1.88478 37.4326L18.6133 26.0469L19.7246 27.6797L20.9365 26.7705C19.7627 24.5921 19.0958 22.1001 19.0957 19.4521C19.0957 10.9183 26.0141 4 34.5479 4ZM2.78419 38.7539L2.67091 38.835C1.56495 39.6728 1.27158 41.2172 1.99318 42.4023L2.06837 42.5195C2.88425 43.7181 4.49216 44.056 5.71681 43.3105L5.834 43.2344L21.2412 32.749L20.8701 32.2041L20.834 32.2314L18.3301 28.7266L18.4443 28.6396L18.1914 28.2676L2.78419 38.7539ZM34.5479 5.59863C26.8969 5.59863 20.6943 11.8011 20.6943 19.4521L20.6992 19.8096C20.886 27.1765 26.8235 33.1143 34.1904 33.3008L34.5479 33.3057C42.0792 33.3055 48.2067 27.2952 48.3965 19.8096L48.4014 19.4521C48.4014 11.9207 42.391 5.79322 34.9053 5.60352L34.5479 5.59863ZM34.5479 7.14844C41.3427 7.14858 46.8516 12.6573 46.8516 19.4521C46.8514 26.2468 41.3425 31.7557 34.5479 31.7559C27.7531 31.7559 22.2444 26.2469 22.2442 19.4521C22.2442 12.6572 27.7529 7.14844 34.5479 7.14844ZM34.5479 8.74707C28.6357 8.74707 23.8428 13.54 23.8428 19.4521L23.8457 19.7285C23.9902 25.421 28.5789 30.0092 34.2715 30.1533L34.5479 30.1572C40.3674 30.1571 45.1023 25.5127 45.249 19.7285L45.2529 19.4521C45.2529 13.6325 40.6085 8.89672 34.8242 8.75L34.5479 8.74707ZM20.624 29.002L21.249 29.9209L22.4229 29.041L22.336 28.9199C22.1397 28.6672 21.951 28.4084 21.7705 28.1436L20.624 29.002Z" fill="black"/>
</g>
<defs>
<clipPath id="clip0_3086_9368">
<rect width="50" height="50" fill="white"/>
</clipPath>
</defs>
</svg>
