<svg width="50" height="50" viewBox="0 0 50 50" fill="none" xmlns="http://www.w3.org/2000/svg">
<path d="M36.0547 21.2842C43.7564 21.2842 50 27.5278 50 35.2295C49.9998 42.931 43.7562 49.1738 36.0547 49.1738C31.6167 49.1738 27.6634 47.1008 25.1094 43.8701H0V43.0254C0 40.705 0.433283 36.4195 2.89258 32.6895C5.39142 28.8996 9.90326 25.8048 17.7861 25.8047C20.5101 25.8047 22.8678 26.0118 24.9072 26.3867C25.0084 26.4054 25.1019 26.4425 25.1855 26.4922C27.7416 23.3163 31.6607 21.2842 36.0547 21.2842ZM36.0547 22.9746C29.2866 22.9747 23.7998 28.4614 23.7998 35.2295L23.8037 35.5449C23.9687 42.0618 29.2214 47.3143 35.7383 47.4795L36.0547 47.4844C42.7172 47.4844 48.138 42.167 48.3057 35.5449L48.3096 35.2295C48.3096 28.5671 42.9931 23.1463 36.3711 22.9785L36.0547 22.9746ZM30.9062 28.7949C31.5294 28.3614 33.02 27.9379 34.3799 29.207L34.5107 29.335L34.5234 29.3486L34.5352 29.3623C34.8464 29.7277 35.3028 30.6321 35.2227 31.8291L37.3271 33.959L40.1152 31.1201L40.3525 29.6953L40.5234 29.5684L41.4346 28.8838C41.9239 28.5168 42.6095 28.5655 43.042 28.998C43.4733 29.4295 43.5226 30.1122 43.1582 30.6016L42.249 31.8223H40.9062L38.0693 34.71L40.042 36.707C40.7032 36.6408 41.8087 36.7494 42.7637 37.5283C43.4013 38.0485 43.6202 38.7887 43.6611 39.4316C43.7019 40.0732 43.5727 40.6876 43.4365 41.0713L43.1562 41.8594L41.4443 40.1465L41.0469 40.5439L42.8682 42.3672L42.1113 42.6592C41.6761 42.827 41.069 42.947 40.4541 42.9414C39.8454 42.9358 39.1532 42.8051 38.6133 42.3955C37.7234 41.7201 37.1814 40.5755 37.502 39.3877L35.4141 37.3389L34.9355 37.8174C35.3083 38.5102 35.2045 39.3939 34.6182 39.9805L33.001 41.5967C32.9779 41.6378 32.951 41.6779 32.916 41.7129C32.8774 41.7515 32.8331 41.7805 32.7871 41.8047C32.0681 42.4574 30.9568 42.4392 30.2627 41.7451C29.5704 41.0528 29.5498 39.9448 30.1973 39.2256C30.2219 39.177 30.2524 39.1304 30.293 39.0898C30.3297 39.0532 30.3716 39.0246 30.415 39.001L32.0273 37.3896C32.6115 36.8057 33.4933 36.6981 34.1875 37.0703L34.6592 36.5986L32.7695 34.7441C32.6483 34.7443 32.5236 34.7459 32.3447 34.7432C32.1041 34.7394 31.8283 34.7239 31.5371 34.6592C30.9329 34.5249 30.3187 34.1941 29.7441 33.4648C29.1653 32.7301 29.0076 32.0407 29.0625 31.4404C29.1146 30.8716 29.3613 30.42 29.458 30.2129L29.7705 29.543L31.582 31.2852L32.0742 30.793L30.3779 29.1621L30.9062 28.7949ZM17.7861 27.4951C10.4227 27.4952 6.46375 30.3433 4.30371 33.6191C2.36643 36.5574 1.81503 39.9364 1.71094 42.1807H23.9639C22.7848 40.1343 22.1095 37.7608 22.1094 35.2295C22.1094 32.5705 22.8541 30.0851 24.1455 27.9707C22.3254 27.6671 20.2202 27.4951 17.7861 27.4951ZM32.1797 29.4297L33.584 30.7783L33.2031 31.1592L31.5977 32.7656L31.2236 32.4062L30.1416 31.3652C30.1302 31.4203 30.1207 31.4776 30.1152 31.5371C30.0866 31.8507 30.1525 32.2741 30.5752 32.8105C31.0024 33.3527 31.4054 33.5476 31.7666 33.6279C31.9579 33.6704 32.1528 33.6843 32.3604 33.6875C32.5343 33.6902 32.815 33.6827 33.0098 33.6904L33.2139 33.6992L38.4766 38.8643L38.7305 39.1143L38.5947 39.4434C38.2727 40.22 38.577 41.0419 39.2529 41.5547C39.5393 41.7716 39.9703 41.8801 40.4629 41.8848C40.6015 41.886 40.7401 41.8777 40.873 41.8643L39.9258 40.918L39.5527 40.5439L41.0703 39.0264L41.4443 38.6533L42.6074 39.8164C42.6122 39.7124 42.6132 39.6058 42.6064 39.499C42.5763 39.0253 42.4242 38.6157 42.0957 38.3477C41.2875 37.6883 40.315 37.706 39.9746 37.7852L39.6865 37.8525L39.4795 37.6416L34.2979 32.3965L34.1162 32.2129L34.1494 31.957C34.279 30.9627 33.8973 30.2529 33.7383 30.0576C33.18 29.4964 32.6154 29.3826 32.1797 29.4297ZM30.793 40.3379C30.7591 40.5718 30.8299 40.8182 31.0098 40.998C31.1897 41.1779 31.436 41.2478 31.6699 41.2139L30.793 40.3379ZM33.7812 38.0596C33.4773 37.8362 33.0484 37.8629 32.7744 38.1367L31.4307 39.4795L32.5273 40.5762L33.8711 39.2334C34.1469 38.9574 34.1698 38.5267 33.9443 38.2236C33.9124 38.2033 33.8814 38.1802 33.8535 38.1523C33.8251 38.1239 33.8018 38.0922 33.7812 38.0596ZM42.2949 29.7451C42.2342 29.6844 42.1381 29.6781 42.0693 29.7295L41.3252 30.2861L41.2461 30.7627L41.248 30.7656H41.7188L42.3105 29.9707C42.3617 29.902 42.3555 29.8057 42.2949 29.7451ZM18.7256 1C24.3796 1 28.9636 5.58336 28.9639 11.2373C28.9639 16.8914 24.3797 21.4756 18.7256 21.4756C13.0716 21.4754 8.48828 16.8913 8.48828 11.2373C8.4885 5.5835 13.0718 1.00022 18.7256 1ZM18.7256 2.69043C14.0053 2.69065 10.1789 6.51704 10.1787 11.2373C10.1787 15.9578 14.0052 19.7849 18.7256 19.7852C23.4462 19.7852 27.2734 15.9579 27.2734 11.2373C27.2732 6.5169 23.446 2.69043 18.7256 2.69043Z" fill="black"/>
</svg>
