<svg width="50" height="50" viewBox="0 0 50 50" fill="none" xmlns="http://www.w3.org/2000/svg">
<path fill-rule="evenodd" clip-rule="evenodd" d="M6.20663 1.38471C8.2459 -0.0337252 13.3292 -1.48758 17.9156 3.19819L17.942 3.22456L17.9664 3.25288C18.9686 4.42934 20.5653 7.56337 20.1803 11.747L28.4068 20.0742L39.3297 8.95307L39.0787 8.7021L39.731 4.78803L39.8023 4.35932L44.3316 0.962838C45.1949 0.315418 46.4026 0.401017 47.1656 1.16401L48.8658 2.86421C49.6267 3.62522 49.7146 4.82922 49.0719 5.69233L45.3814 10.6474H41.024L40.8639 10.4873L29.9312 21.6171L37.6969 29.4775C39.7906 29.1824 43.7283 29.4132 47.0943 32.1591C49.1159 33.8083 49.8389 36.1759 49.9752 38.3193C50.1111 40.4594 49.6755 42.5181 49.2242 43.79L48.65 45.4091L42.9322 39.6914L40.4283 42.1933L46.5592 48.3251L45.0055 48.9248C43.5649 49.4804 41.5211 49.8872 39.4459 49.8681C37.384 49.8491 35.1362 49.4074 33.4185 48.1044C30.3722 45.7933 28.6095 41.8702 29.901 37.8818L21.6568 29.7919L19.0797 32.3701L20.0074 33.2665C21.3145 34.5298 21.3326 36.6197 20.0475 37.9052L12.5279 45.4228C12.4751 45.5466 12.3995 45.6636 12.2984 45.7646C12.1972 45.8658 12.0807 45.9423 11.9566 45.9951L10.357 47.5947C9.08689 48.8648 7.02755 48.8648 5.75741 47.5947L2.31991 44.1581C1.04997 42.8881 1.04998 40.8286 2.31991 39.5585L3.91757 37.9599C3.97042 37.8347 4.04799 37.7172 4.14999 37.6152C4.2521 37.5131 4.36942 37.4356 4.49472 37.3828L11.9508 29.9267C13.2055 28.6722 15.2353 28.6548 16.5113 29.8876L17.5201 30.8632L20.11 28.2734L12.65 20.9531C12.099 20.9458 11.56 20.9622 10.8424 20.9511C10.0178 20.9383 9.10643 20.8828 8.15292 20.6708C6.201 20.2369 4.19099 19.1725 2.27304 16.7382C0.345938 14.2923 -0.141388 12.0573 0.0328045 10.1513C0.201331 8.3088 0.994647 6.85264 1.35702 6.07612L1.99765 4.70307L8.15585 10.623L10.9947 7.78315L5.11972 2.14057L6.20663 1.38471ZM16.3385 4.68647C13.4762 1.78249 10.5026 1.89641 8.67538 2.54878L14.0924 7.75385L8.18515 13.6601L2.69198 8.37788C2.45805 8.96051 2.26054 9.60977 2.19296 10.3486C2.07249 11.6663 2.37045 13.3572 3.97714 15.3964C5.59252 17.4465 7.17041 18.2316 8.62362 18.5546C9.37273 18.7211 10.1194 18.7714 10.8766 18.7832C11.3925 18.7911 12.023 18.7791 12.5982 18.7841L13.148 18.7958L13.566 18.8134L32.44 37.3359L32.1598 38.0117C30.8611 41.1437 32.1226 44.3995 34.7291 46.3769C35.9267 47.2854 37.6414 47.6833 39.4664 47.7001C40.5494 47.7101 41.6173 47.583 42.5523 47.3837L37.3619 42.1953L42.9322 36.624L47.6275 41.3203C47.7826 40.4559 47.875 39.4615 47.8111 38.456C47.6969 36.66 47.1102 34.9714 45.7232 33.8398C42.6388 31.3237 38.9414 31.3824 37.5709 31.7011L36.981 31.8369L36.5543 31.4062L17.9039 12.5273L17.9732 12.0019C18.4636 8.24162 17.0231 5.51247 16.3385 4.68647ZM3.85312 41.0917C3.42994 41.5151 3.42993 42.2016 3.85312 42.6249L7.29062 46.0624C7.71396 46.4855 8.4005 46.4856 8.82382 46.0624L9.94296 44.9423L4.97226 39.9716L3.85312 41.0917ZM15.0045 31.4472C14.5792 31.0364 13.9022 31.0419 13.484 31.4599L6.50546 38.4374L11.4762 43.4091L18.5142 36.371C18.9422 35.9425 18.936 35.2471 18.5006 34.8261L17.068 33.4423C16.9386 33.3894 16.8176 33.3101 16.7125 33.205C16.6172 33.1097 16.5442 33.0006 16.4918 32.8847L15.0045 31.4472ZM41.7984 5.57124L41.4 7.95796L41.9225 8.47944H44.2926L47.3336 4.39741L45.6324 2.69721L41.7984 5.57124Z" fill="black"/>
</svg>
