<svg width="50" height="50" viewBox="0 0 50 50" fill="none" xmlns="http://www.w3.org/2000/svg">
<path d="M30.1064 9.13379C30.4167 9.21319 30.7203 9.32887 31.0039 9.45996C31.5366 9.70625 32.0762 10.0375 32.5791 10.3887C33.3548 10.9304 34.0878 11.5529 34.6406 12.0664L41.2373 9.42871L45.8369 17.8633L40.459 21.8955V24.6328H38.6309V20.9814L43.4736 17.3486L40.4082 11.7295L34.2148 14.208L33.7881 13.7812C33.2854 13.2785 32.4323 12.5163 31.5322 11.8877C31.0825 11.5736 30.639 11.3063 30.2363 11.1201C29.8207 10.928 29.5169 10.8546 29.3252 10.8545H28.5615L27.2842 3.82812H20.4922L19.3613 9.48047L19.2578 10.001L18.7549 10.1689C18.1638 10.366 17.1948 10.759 16.2607 11.2812C15.2998 11.8186 14.5021 12.4244 14.1162 13.0029L13.6982 13.6289L6.10254 10.4639L2.4375 17.2715L8.67773 21.0156L8.48535 21.6904C8.28707 22.3846 8.0463 23.5321 7.97656 24.6729C7.9034 25.8702 8.03615 26.8227 8.36719 27.3193L8.83887 28.0264L3.00879 32.5586L6.11328 38.7666L12.915 35.6748L13.3623 36.123C13.8541 36.6149 14.7288 37.3697 15.7129 37.9941C16.7273 38.6378 17.7135 39.0495 18.4648 39.0498H19.2402L20.5176 46.7148H27.2402L27.7783 42.4053L29.5928 42.6318L28.8545 48.543H18.9688L17.6777 40.8008C16.6366 40.6104 15.5973 40.0863 14.7334 39.5381C13.8802 38.9967 13.1069 38.3741 12.5342 37.8555L5.26562 41.1602L0.704102 32.0361L6.46289 27.5566C6.12785 26.6244 6.09195 25.5167 6.15039 24.5605C6.2098 23.5893 6.37651 22.6273 6.55176 21.8711L0 17.9404L5.27734 8.13965L13.0752 11.3887C13.7152 10.7043 14.5721 10.1317 15.3682 9.68652C16.1834 9.23069 17.017 8.86395 17.6699 8.61621L18.9941 2H28.8096L30.1064 9.13379ZM38.8975 26.9365C39.5771 25.6112 41.4707 25.6112 42.1504 26.9365L49.7959 41.8438C50.4194 43.0603 49.5361 44.5059 48.1689 44.5059H32.8789C31.5119 44.5056 30.6293 43.0602 31.2529 41.8438L38.8975 26.9365ZM32.8789 42.6777H48.1689L40.5244 27.7705L32.8789 42.6777ZM40.5254 39.4785C41.0302 39.4785 41.4394 39.8877 41.4395 40.3926C41.4395 40.8974 41.0302 41.3066 40.5254 41.3066C40.0206 41.3066 39.6113 40.8974 39.6113 40.3926C39.6114 39.8878 40.0206 39.4785 40.5254 39.4785ZM40.5254 32.623C41.0302 32.623 41.4394 33.0323 41.4395 33.5371V37.6504C41.4395 38.1552 41.0302 38.5645 40.5254 38.5645C40.0206 38.5644 39.6113 38.1552 39.6113 37.6504V33.5371C39.6114 33.0323 40.0206 32.6231 40.5254 32.623ZM23.5762 17.6943C28.1134 17.6948 31.791 21.3728 31.791 25.9102C31.7909 30.4473 28.1133 34.1256 23.5762 34.126C19.0387 34.126 15.3595 30.4476 15.3594 25.9102C15.3594 21.3726 19.0386 17.6943 23.5762 17.6943ZM23.5762 19.5225C20.0483 19.5225 17.1875 22.3823 17.1875 25.9102L17.1953 26.2383C17.3609 29.5043 19.9802 32.1232 23.2461 32.2891L23.5762 32.2979C26.9934 32.2974 29.784 29.6131 29.9551 26.2383L29.9629 25.9102C29.9629 22.4926 27.2793 19.7014 23.9043 19.5303L23.5762 19.5225Z" fill="black"/>
</svg>
