<svg width="50" height="50" viewBox="0 0 50 50" fill="none" xmlns="http://www.w3.org/2000/svg">
<g clip-path="url(#clip0_3086_5836)">
<path fill-rule="evenodd" clip-rule="evenodd" d="M41.7631 6C43.0129 6.00042 44.0267 7.01373 44.0268 8.26367V32.8203C44.0267 33.3468 43.844 33.8294 43.5424 34.2139L49.601 40.8232C50.4879 41.7911 49.8014 43.3522 48.4887 43.3525H1.5121C0.183157 43.3525 -0.497124 41.7584 0.422261 40.7988L6.73378 34.2109C6.43402 33.827 6.25437 33.3451 6.25429 32.8203V8.26367C6.25433 7.01347 7.26776 6 8.51796 6H41.7631ZM42.2484 35.0303C42.092 35.0645 41.9298 35.0839 41.7631 35.084H8.51796C8.35106 35.084 8.18826 35.0646 8.03164 35.0303C8.01374 35.054 7.9951 35.0776 7.97402 35.0996L1.5121 41.8428H48.4887L42.2953 35.0869C42.2786 35.0686 42.263 35.0497 42.2484 35.0303ZM8.43984 7.5127C8.05963 7.55159 7.76312 7.8732 7.76308 8.26367V32.8203L7.76699 32.8975C7.80318 33.2523 8.08506 33.535 8.43984 33.5713L8.51796 33.5742H41.7631L41.8393 33.5713C42.1944 33.5353 42.4769 33.2525 42.5131 32.8975L42.517 32.8203V8.26367C42.5169 7.87295 42.2198 7.55125 41.8393 7.5127L41.7631 7.50879H8.51796L8.43984 7.5127ZM40.9008 31.29H9.38124V9.79492H40.9008V31.29ZM10.4379 30.2334H12.4496V26.2773H15.7221L16.2426 24.5811L14.4369 22.1992L14.1664 21.8438L17.8725 17.9199L20.5941 20.3604L22.1205 19.6611V16.3379H27.8334V19.6494L29.5346 20.3701L31.8129 18.377L35.5697 22.2441L33.7103 24.1016L34.2543 26.2773H37.2357V30.2334H39.8451V10.8516H10.4379V30.2334ZM24.7973 24.0205C22.1219 24.0208 19.9536 26.1898 19.9535 28.8652C19.9535 29.341 20.0216 29.8001 20.1488 30.2334H29.4467C29.5739 29.8001 29.6429 29.341 29.643 28.8652C29.6428 26.1897 27.4729 24.0205 24.7973 24.0205ZM23.1771 20.3389L20.7201 21.4658L20.4047 21.6094L20.1469 21.3789L17.933 19.3936L15.5482 21.917L17.4125 24.374L16.6166 26.9609L16.5023 27.334H13.5062V30.0381H19.0141C18.9375 29.6586 18.8969 29.2665 18.8969 28.8652C18.897 25.6064 21.5384 22.9641 24.7973 22.9639C28.0563 22.9639 30.6985 25.6062 30.6986 28.8652C30.6986 29.2664 30.658 29.6587 30.5814 30.0381H36.1801V27.334H33.4301L32.6137 24.0684L32.5414 23.7783L34.0853 22.2334L31.7533 19.832L29.7328 21.6006L26.7777 20.3496V17.3945H23.1771V20.3389Z" fill="black"/>
</g>
<defs>
<clipPath id="clip0_3086_5836">
<rect width="50" height="50" fill="white"/>
</clipPath>
</defs>
</svg>
