<svg width="50" height="50" viewBox="0 0 50 50" fill="none" xmlns="http://www.w3.org/2000/svg">
<path d="M27.4346 10.5C27.7175 10.5724 27.9944 10.6783 28.2529 10.7979C28.7383 11.0223 29.2293 11.3245 29.6875 11.6445C30.3946 12.1383 31.0625 12.7058 31.5664 13.1738L37.5771 10.7695L41.7695 18.4551L36.8691 22.1299V24.624H35.2031V21.2969L39.6162 17.9873L36.8223 12.8662L31.1787 15.124L30.79 14.7354C30.3319 14.2773 29.5546 13.5825 28.7344 13.0098C28.3245 12.7235 27.9197 12.4802 27.5527 12.3105C27.174 12.1355 26.8973 12.0684 26.7227 12.0684H26.0273L24.8633 5.66602H18.6738L17.6436 10.8164L17.5488 11.291L17.0898 11.4443C16.5511 11.6239 15.6684 11.9822 14.8174 12.458C13.9417 12.9476 13.2149 13.4992 12.8633 14.0264L12.4824 14.5967L5.56055 11.7129L2.2207 17.916L7.9082 21.3281L7.73242 21.9424C7.55175 22.5748 7.33214 23.6207 7.26855 24.6602C7.20185 25.7514 7.3233 26.6197 7.625 27.0723L8.05371 27.7168L2.74219 31.8467L5.57031 37.5039L11.7686 34.6865L12.1768 35.0947C12.6249 35.5429 13.4216 36.2308 14.3184 36.7998C15.2427 37.3863 16.1415 37.7615 16.8262 37.7617H17.5332L18.6973 44.7471H24.8232L25.3135 40.8193L26.9668 41.0264L26.2939 46.4131H17.2852L16.1094 39.3574C15.1606 39.184 14.2141 38.7056 13.4268 38.2061C12.6493 37.7127 11.9438 37.1465 11.4219 36.6738L4.79883 39.6846L0.641602 31.3711L5.88965 27.2891C5.58426 26.4395 5.55123 25.4299 5.60449 24.5586C5.65862 23.6735 5.81003 22.7965 5.96973 22.1074L0 18.5264L4.80957 9.59473L11.915 12.5557C12.4984 11.9319 13.2794 11.4096 14.0049 11.0039C14.7477 10.5886 15.5066 10.2541 16.1016 10.0283L17.3086 4H26.2529L27.4346 10.5ZM50 24.6436L34.8584 39.1787L30.207 34.5273L31.3848 33.3486L34.8818 36.8457L48.8457 23.4414L50 24.6436ZM21.4834 18.3018C25.618 18.302 28.9695 21.6535 28.9697 25.7881C28.9696 29.9227 25.618 33.2742 21.4834 33.2744C17.3486 33.2744 13.9962 29.9229 13.9961 25.7881C13.9963 21.6533 17.3486 18.3018 21.4834 18.3018ZM21.4834 19.9668C18.2687 19.9668 15.6623 22.5734 15.6621 25.7881L15.6689 26.0879C15.8199 29.0641 18.2074 31.4505 21.1836 31.6016L21.4834 31.6084C24.5975 31.6082 27.1399 29.1633 27.2959 26.0879L27.3037 25.7881C27.3035 22.6739 24.8577 20.1305 21.7822 19.9746L21.4834 19.9668Z" fill="black"/>
</svg>
