<svg width="50" height="50" viewBox="0 0 50 50" fill="none" xmlns="http://www.w3.org/2000/svg">
<g clip-path="url(#clip0_3086_11436)">
<path d="M33.1934 0.0078125C34.6556 0.0805351 36.044 0.693084 37.084 1.7334L48.2666 12.917C49.3759 14.0261 49.9996 15.531 50 17.0996V32.9014L49.9922 33.1943C49.9194 34.6564 49.3068 36.0441 48.2666 37.084L37.084 48.2676C36.044 49.3078 34.6556 49.9195 33.1934 49.9922L32.9004 50H17.0996C15.5309 49.9997 14.0252 49.3769 12.916 48.2676L1.7334 37.084C0.693168 36.0441 0.080617 34.6565 0.0078125 33.1943L0 32.9014V17.0996C0.000392238 15.5309 0.624003 14.0261 1.7334 12.917L12.916 1.7334C14.0252 0.623912 15.5308 0.000335095 17.0996 0H32.9004L33.1934 0.0078125ZM17.0996 2.29004C16.138 2.29024 15.215 2.6725 14.5352 3.35254L3.35254 14.5361C2.67259 15.2159 2.2903 16.1381 2.29004 17.0996V32.9014C2.29042 33.8626 2.67279 34.7842 3.35254 35.4639L14.5352 46.6465V46.6484C15.215 47.3284 16.1381 47.7098 17.0996 47.71H32.9004C33.8617 47.7097 34.7841 47.3282 35.4639 46.6484V46.6465L46.6465 35.4639H46.6475C47.3271 34.7842 47.7096 33.8625 47.71 32.9014V17.0996C47.7097 16.1382 47.3274 15.2159 46.6475 14.5361H46.6465L35.4639 3.35254C34.7841 2.67271 33.8618 2.29033 32.9004 2.29004H17.0996ZM31.3477 17.0342C31.7948 16.5872 32.5197 16.5871 32.9668 17.0342C33.4138 17.4813 33.4137 18.2062 32.9668 18.6533L26.6191 25L32.9668 31.3477C33.4136 31.7948 33.4138 32.5198 32.9668 32.9668C32.5198 33.4138 31.7948 33.4135 31.3477 32.9668L25 26.6191L18.6533 32.9668C18.2062 33.4136 17.4812 33.4137 17.0342 32.9668C16.5871 32.5198 16.5874 31.7948 17.0342 31.3477L23.3809 25L17.0342 18.6533C16.5873 18.2062 16.5872 17.4813 17.0342 17.0342C17.4813 16.5871 18.2061 16.5872 18.6533 17.0342L25 23.3809L31.3477 17.0342Z" fill="black"/>
</g>
<defs>
<clipPath id="clip0_3086_11436">
<rect width="50" height="50" fill="white"/>
</clipPath>
</defs>
</svg>
