<svg width="50" height="50" viewBox="0 0 50 50" fill="none" xmlns="http://www.w3.org/2000/svg">
<g clip-path="url(#clip0_3086_8573)">
<path d="M25 -1C25.5523 -1 26 -0.552285 26 0V6.25977C36.1326 6.56995 44.2848 14.7496 44.5498 24.8936H50C50.5523 24.8936 51 25.3413 51 25.8936C50.9997 26.4456 50.5521 26.8936 50 26.8936H44.498C43.7526 36.5791 35.8039 44.2458 26 44.5459V50C26 50.5523 25.5523 51 25 51C24.4477 51 24 50.5523 24 50V44.5039C14.5696 43.8211 7.03157 36.3122 6.30664 26.8936H0C-0.552123 26.8936 -0.999739 26.4456 -1 25.8936C-1 25.3413 -0.552284 24.8936 0 24.8936H6.25684C6.51476 15.0201 14.2445 7.00718 24 6.30078V0C24 -0.552285 24.4477 -1 25 -1ZM34.7305 26.8936C33.8955 31.1362 30.3675 34.4109 26 34.8643V42.5449C34.699 42.2474 41.7526 35.4736 42.4912 26.8936H34.7305ZM8.31543 26.8936C9.03104 35.2069 15.6749 41.8249 24 42.499V34.873C19.5952 34.4519 16.0276 31.1624 15.1875 26.8936H8.31543ZM17.2383 26.8936C18.0271 30.053 20.703 32.462 24 32.8584V26.8936H17.2383ZM26 26.8936V32.8486C29.26 32.423 31.8984 30.0273 32.6807 26.8936H26ZM24 8.30664C15.3499 9.00701 8.51468 16.125 8.25879 24.8936H15.002C15.0356 19.7469 18.9714 15.5279 24 15.0469V8.30664ZM24 17.0596C20.0782 17.5312 17.035 20.8525 17.002 24.8936H24V17.0596ZM26 24.8936H32.917C32.8842 20.8801 29.8829 17.5764 26 17.0693V24.8936ZM26 15.0537C30.9901 15.5717 34.8836 19.7743 34.917 24.8936H42.5479C42.2841 15.8543 35.0279 8.56948 26 8.26074V15.0537Z" fill="black"/>
</g>
<defs>
<clipPath id="clip0_3086_8573">
<rect width="50" height="50" fill="white"/>
</clipPath>
</defs>
</svg>
