<svg width="50" height="50" viewBox="0 0 50 50" fill="none" xmlns="http://www.w3.org/2000/svg">
<path d="M26.9414 0C29.7494 0.000280882 32.0264 2.27691 32.0264 5.08496V13.8799H42.5361C43.7059 13.8803 44.6543 14.8282 44.6543 15.998V30.7793C44.6543 31.9491 43.7059 32.898 42.5361 32.8984H32.1709L32.0264 32.9707V44.915C32.0264 47.7231 29.7494 49.9997 26.9414 50H10.085C7.27673 50 5 47.7233 5 44.915V5.08496C5 2.27673 7.27673 0 10.085 0H26.9414ZM6.69531 44.915C6.69531 46.7872 8.21281 48.3047 10.085 48.3047H26.9414C28.8133 48.3044 30.3311 46.787 30.3311 44.915V44.3672H6.69531V44.915ZM23.5195 45.9492C23.9876 45.9492 24.3672 46.3288 24.3672 46.7969C24.367 47.2648 23.9875 47.6445 23.5195 47.6445H13.5049C13.0371 47.6443 12.6574 47.2647 12.6572 46.7969C12.6572 46.329 13.037 45.9494 13.5049 45.9492H23.5195ZM6.69531 42.6719H30.3311V33.8271L25.5303 36.2539C24.1211 36.9661 22.4561 35.9422 22.4561 34.3633V32.8984H20.9971C19.8272 32.8982 18.8789 31.9492 18.8789 30.7793V15.998C18.8789 14.8281 19.8272 13.8801 20.9971 13.8799H30.3311V9.02246H6.69531V42.6719ZM20.9971 15.5742C20.7633 15.5745 20.5742 15.7642 20.5742 15.998V30.7793C20.5742 30.9841 20.719 31.1558 20.9121 31.1953L20.9971 31.2031H23.7266C23.9605 31.2031 24.1503 31.393 24.1504 31.627V34.3633C24.1504 34.679 24.4838 34.8836 24.7656 34.7412L31.6758 31.249C31.7055 31.234 31.7374 31.2225 31.7695 31.2148L31.8672 31.2031H42.5361L42.6211 31.1953C42.7864 31.1614 42.9163 31.0306 42.9502 30.8652L42.959 30.7793V15.998C42.959 15.7934 42.814 15.6226 42.6211 15.583L42.5361 15.5742H20.9971ZM38.8711 25.9639C39.3389 25.9641 39.7176 26.3428 39.7178 26.8105C39.7178 27.2785 39.339 27.658 38.8711 27.6582H23.1367C22.6687 27.6582 22.2891 27.2786 22.2891 26.8105C22.2892 26.3426 22.6688 25.9639 23.1367 25.9639H38.8711ZM35.874 22.2178C36.3418 22.2179 36.7215 22.5966 36.7217 23.0645C36.7217 23.5324 36.3419 23.912 35.874 23.9121H23.1367C22.6687 23.9121 22.2891 23.5325 22.2891 23.0645C22.2892 22.5965 22.6688 22.2178 23.1367 22.2178H35.874ZM39.6201 19.2207C40.0879 19.2209 40.4666 19.5996 40.4668 20.0674C40.4668 20.5353 40.088 20.9148 39.6201 20.915H23.1367C22.6687 20.915 22.2891 20.5354 22.2891 20.0674C22.2892 19.5995 22.6688 19.2207 23.1367 19.2207H39.6201ZM10.085 1.69531C8.21281 1.69531 6.69531 3.21281 6.69531 5.08496V7.32715H30.3311V5.08496C30.3311 3.21298 28.8133 1.69559 26.9414 1.69531H10.085Z" fill="black"/>
</svg>
