<svg width="50" height="50" viewBox="0 0 50 50" fill="none" xmlns="http://www.w3.org/2000/svg">
<g clip-path="url(#clip0_3086_4526)">
<path d="M34.4453 9C43.0359 9 50.0007 15.964 50.001 24.5547C50.001 33.1456 43.0361 40.1104 34.4453 40.1104C25.8547 40.1102 18.8906 33.1455 18.8906 24.5547C18.8909 15.9641 25.8548 9.00015 34.4453 9ZM34.4453 10.6416C26.7614 10.6418 20.5325 16.8708 20.5322 24.5547C20.5322 32.2388 26.7613 38.4686 34.4453 38.4688C42.1295 38.4688 48.3594 32.2389 48.3594 24.5547C48.3591 16.8707 42.1293 10.6416 34.4453 10.6416ZM13.5752 30.6904C14.0283 30.6907 14.3955 31.0586 14.3955 31.5117C14.3955 31.9649 14.0283 32.3318 13.5752 32.332H0.820312C0.367231 32.3318 1.4401e-05 31.9649 0 31.5117C-3.96157e-08 31.0586 0.367222 30.6907 0.820312 30.6904H13.5752ZM34.1064 25.4736H39.6631V27.1152H32.4648V17.0195H34.1064V25.4736ZM13.5752 23.7344C14.0282 23.7346 14.3962 24.1017 14.3965 24.5547C14.3965 25.0079 14.0283 25.3758 13.5752 25.376H7.77832C7.32501 25.376 6.95703 25.008 6.95703 24.5547C6.95727 24.1016 7.32516 23.7344 7.77832 23.7344H13.5752ZM14.1562 19.0967C14.6096 19.0967 14.9775 19.4637 14.9775 19.917C14.9775 20.3703 14.6096 20.7373 14.1562 20.7373H4.30078C3.84769 20.737 3.48047 20.3701 3.48047 19.917C3.48047 19.4638 3.84769 19.0969 4.30078 19.0967H14.1562Z" fill="black"/>
</g>
<defs>
<clipPath id="clip0_3086_4526">
<rect width="50" height="50" fill="white"/>
</clipPath>
</defs>
</svg>
