<svg width="50" height="50" viewBox="0 0 50 50" fill="none" xmlns="http://www.w3.org/2000/svg">
<g clip-path="url(#clip0_3086_4623)">
<path fill-rule="evenodd" clip-rule="evenodd" d="M32.8047 41.8809C33.2039 41.9379 33.7788 42.117 34.2764 42.4951C34.3642 42.5618 34.4489 42.6371 34.5313 42.7178C35.1296 42.2026 36.0039 41.8722 37.1875 41.8721H44.5577L44.6192 41.8809C45.0184 41.9379 45.5933 42.117 46.0909 42.4951C46.6145 42.8931 47.0761 43.5383 47.0762 44.4531V49.4463H45.3243V44.4531C45.3242 44.1991 45.217 44.0315 45.0303 43.8896C44.8341 43.7407 44.5826 43.6556 44.4122 43.624H37.1875C36.332 43.6241 35.8893 43.8583 35.67 44.0488C35.4534 44.2371 35.3953 44.4326 35.3848 44.502V49.4463H33.5108V44.4531C33.5107 44.1991 33.4026 44.0315 33.2159 43.8896C33.0196 43.7407 32.7681 43.6556 32.5977 43.624H25.3731C24.5176 43.6241 24.0748 43.8584 23.8555 44.0488C23.6391 44.237 23.5809 44.4326 23.5704 44.502V49.4463H21.8184V44.4219L21.8213 44.3906C21.8583 43.8749 22.1242 43.2327 22.7081 42.7256C23.3066 42.206 24.1836 41.8722 25.3731 41.8721H32.7432L32.8047 41.8809ZM26.3926 10.9385C26.9306 10.9654 27.7147 11.1519 28.3887 11.6465C29.1022 12.1702 29.6602 13.023 29.6602 14.25C29.66 15.4606 29.1361 16.3021 28.4288 16.8115C27.766 17.2887 26.9965 17.4394 26.4708 17.4395H16.1416V48.7393H3.55083V32.0547H0.0195781V16.5918C-0.0643198 15.6486 0.104186 14.2727 0.917039 13.0967C1.78373 11.8429 3.29779 10.9376 5.64458 10.9375H26.3702L26.3926 10.9385ZM5.64458 12.6895C3.80253 12.6895 2.85979 13.3677 2.35845 14.0928C1.8213 14.87 1.70121 15.8347 1.76665 16.4736L1.77055 16.5186V30.3027H3.55083V28.499C3.55089 28.0154 3.94323 27.6232 4.4268 27.623C4.91051 27.623 5.30271 28.0153 5.30278 28.499V46.9873H9.27544V33.249C9.27544 32.7653 9.66771 32.3731 10.1514 32.373C10.635 32.3733 11.0264 32.7654 11.0264 33.249V46.9873H14.3907V15.6875H26.4708C26.7163 15.6874 27.1042 15.6064 27.4053 15.3896C27.6617 15.205 27.9081 14.8895 27.9083 14.25C27.9083 13.6261 27.6548 13.2799 27.3536 13.0586C27.0173 12.8118 26.5898 12.7053 26.3155 12.6895H5.64458ZM28.7842 33.3711C30.6 33.3711 32.0729 34.8425 32.0733 36.6582L32.0684 36.8281C31.9803 38.5656 30.5435 39.9472 28.7842 39.9473L28.6153 39.9434C26.878 39.8551 25.4961 38.4174 25.4961 36.6582C25.4965 34.8425 26.9685 33.3712 28.7842 33.3711ZM40.5967 33.3711C42.4125 33.3711 43.8854 34.8425 43.8858 36.6582L43.8809 36.8281C43.7928 38.5656 42.356 39.9472 40.5967 39.9473L40.4278 39.9434C38.6905 39.8551 37.3086 38.4174 37.3086 36.6582C37.309 34.8425 38.781 33.3712 40.5967 33.3711ZM28.7842 35.1221C27.936 35.1222 27.2485 35.81 27.2481 36.6582C27.2481 37.5067 27.9358 38.1952 28.7842 38.1953C29.6328 38.1953 30.3213 37.5068 30.3213 36.6582C30.3209 35.81 29.6325 35.1221 28.7842 35.1221ZM40.5967 35.1221C39.7485 35.1222 39.061 35.81 39.0606 36.6582C39.0606 37.5067 39.7483 38.1952 40.5967 38.1953C41.4453 38.1953 42.1338 37.5068 42.1338 36.6582C42.1334 35.81 41.445 35.1221 40.5967 35.1221ZM50 29.4961H20.3819C19.8982 29.496 19.506 29.1038 19.5059 28.6201C19.506 28.1365 19.8983 27.7442 20.3819 27.7441H48.2481V5.86914H16.6065C16.1228 5.86914 15.7306 5.47688 15.7305 4.99316C15.7305 4.50941 16.1228 4.11719 16.6065 4.11719H50V29.4961ZM44.4942 24.5029H27.6875V22.752L44.4942 22.751V24.5029ZM44.4942 19.3877H34.752V17.6367H44.4942V19.3877ZM44.6153 13.0176C45.0412 13.0769 45.369 13.4416 45.3692 13.8838C45.3692 14.3675 44.977 14.7598 44.4932 14.7598H34.751C34.2673 14.7598 33.875 14.3675 33.875 13.8838C33.8753 13.4002 34.2674 13.0088 34.751 13.0088H34.8731V12.8867H44.6153V13.0176ZM10.0313 0.00585938C12.5407 0.133243 14.5372 2.20886 14.5372 4.75L14.5303 4.99414C14.4029 7.50351 12.3281 9.49984 9.78716 9.5L9.54204 9.49316C7.1137 9.36986 5.16628 7.42253 5.04302 4.99414L5.03716 4.75C5.03716 2.12677 7.16397 0 9.78716 0L10.0313 0.00585938ZM9.78716 1.75195C8.13145 1.75195 6.78911 3.09427 6.78911 4.75C6.78923 6.40563 8.13152 7.74805 9.78716 7.74805C11.4427 7.74789 12.7851 6.40553 12.7852 4.75C12.7852 3.09437 11.4427 1.75211 9.78716 1.75195Z" fill="black"/>
</g>
<defs>
<clipPath id="clip0_3086_4623">
<rect width="50" height="50" fill="white"/>
</clipPath>
</defs>
</svg>
