<svg width="51" height="50" viewBox="0 0 51 50" fill="none" xmlns="http://www.w3.org/2000/svg">
<path d="M18.9277 2C24.2309 2 28.499 6.37524 28.499 11.7324C28.4988 17.0894 24.2308 21.4639 18.9277 21.4639C13.6248 21.4637 9.35762 17.0893 9.35742 11.7324C9.35742 6.37533 13.6247 2.00015 18.9277 2Z" stroke="black" stroke-width="2"/>
<path d="M23.6853 44.2066H1C1 39.6222 2.69873 27.4771 17.9873 27.4771C23.197 27.4771 26.9878 28.2602 29.7458 29.4965" stroke="black" stroke-width="2" stroke-linecap="round"/>
<rect x="29.5368" y="40.6973" width="3.09729" height="6.6308" stroke="black" stroke-width="1.14"/>
<rect x="35.4684" y="33.7901" width="3.09729" height="13.5382" stroke="black" stroke-width="1.14"/>
<rect x="41.402" y="36.3801" width="3.09729" height="10.9479" stroke="black" stroke-width="1.14"/>
<rect x="47.3337" y="35.5165" width="3.09729" height="11.8113" stroke="black" stroke-width="1.14"/>
<path d="M30.6619 35.2399C31.4545 35.24 32.0788 35.892 32.0789 36.6735C32.0789 37.455 31.4546 38.1069 30.6619 38.1071C29.869 38.1071 29.2439 37.455 29.2439 36.6735C29.244 35.8919 29.8691 35.2399 30.6619 35.2399Z" stroke="black" stroke-width="1.14"/>
<path d="M36.5938 28.3325C37.3864 28.3326 38.0107 28.9847 38.0107 29.7661C38.0107 30.5476 37.3865 31.1996 36.5938 31.1997C35.8009 31.1997 35.1758 30.5477 35.1758 29.7661C35.1759 28.9846 35.801 28.3325 36.5938 28.3325Z" stroke="black" stroke-width="1.14"/>
<path d="M42.5254 31.7864C43.3181 31.7865 43.9423 32.4385 43.9424 33.22C43.9424 34.0015 43.3181 34.6535 42.5254 34.6536C41.7326 34.6536 41.1074 34.0016 41.1074 33.22C41.1075 32.4385 41.7326 31.7864 42.5254 31.7864Z" stroke="black" stroke-width="1.14"/>
<path d="M48.459 30.9229C49.2517 30.923 49.8759 31.575 49.876 32.3564C49.876 33.138 49.2517 33.7899 48.459 33.79C47.6662 33.79 47.041 33.138 47.041 32.3564C47.0411 31.5749 47.6662 30.9229 48.459 30.9229Z" stroke="black" stroke-width="1.14"/>
<path d="M31.5098 35.3786L35.7471 30.6298" stroke="black" stroke-width="1.14"/>
<path d="M37.8651 29.3346L41.6787 32.3566" stroke="black" stroke-width="1.14"/>
<path d="M43.7969 33.2199L47.1867 32.7882" stroke="black" stroke-width="1.14"/>
</svg>
