<svg width="50" height="50" viewBox="0 0 50 50" fill="none" xmlns="http://www.w3.org/2000/svg">
<g clip-path="url(#clip0_3086_5051)">
<path d="M49.583 9.69043L49.6904 9.86328H49.959V15.8965C49.959 18.4985 48.1624 20.5811 45.8135 21.2637V47.2012H50V49.0898H1.88867V47.2012H4.3457V21.3174C1.8998 20.6974 0.000190789 18.5726 0 15.8975V9.86328H0.242188L5.83203 0H43.5801L49.583 9.69043ZM10.7324 18.9062C9.75482 20.3794 8.08771 21.3571 6.23438 21.4854V46.8066H26.2676V27.9971H40.4873V46.8066H43.9238V21.4961C42.0138 21.4275 40.2803 20.4548 39.2627 18.959C38.3338 20.462 36.7321 21.5019 34.8047 21.502C32.8774 21.5019 31.2747 20.4627 30.3457 18.96C29.2897 20.5112 27.4637 21.5019 25.4697 21.502C23.453 21.5019 21.6077 20.489 20.5576 18.9072C19.5074 20.4889 17.6622 21.5019 15.6455 21.502C13.6283 21.5019 11.7824 20.4887 10.7324 18.9062ZM28.1562 46.8066H38.5986V29.8857H28.1562V46.8066ZM23.6572 35.3096H9.4375V27.0146H23.6572V35.3096ZM11.3262 33.4209H21.7686V28.9033H11.3262V33.4209ZM1.88867 15.8975C1.8889 17.8849 3.54015 19.5085 5.61621 19.6084L5.81934 19.6133C7.92192 19.6132 9.63877 18.0519 9.74414 16.0889L9.75 15.8975V11.7529H1.88867V15.8975ZM11.7148 15.8965C11.7148 17.8841 13.3662 19.5075 15.4424 19.6074L15.6455 19.6133C17.748 19.6132 19.4649 18.0518 19.5703 16.0889L19.5762 15.8965V11.752H11.7148V15.8965ZM21.5391 15.8965C21.5391 17.8841 23.1904 19.5075 25.2666 19.6074L25.4697 19.6133C27.5723 19.6132 29.2891 18.0518 29.3945 16.0889L29.4004 15.8965V11.752H21.5391V15.8965ZM31.3652 15.8965C31.3652 17.8841 32.8103 19.5075 34.627 19.6074L34.8047 19.6133C36.7039 19.6132 38.2432 17.9484 38.2432 15.8965V11.752H31.3652V15.8965ZM40.209 15.8965C40.209 17.8841 41.8603 19.5075 43.9365 19.6074L44.1396 19.6133C46.2422 19.6132 47.959 18.0518 48.0645 16.0889L48.0703 15.8965V11.752H40.209V15.8965ZM2.41309 9.86328H47.4678L42.5283 1.88867H6.93262L2.41309 9.86328Z" fill="black"/>
</g>
<defs>
<clipPath id="clip0_3086_5051">
<rect width="50" height="50" fill="white"/>
</clipPath>
</defs>
</svg>
